<svg xmlns="http://www.w3.org/2000/svg" xmlns:xlink="http://www.w3.org/1999/xlink" fill="none" version="1.1" width="100.25584411621094" height="100" viewBox="0 0 100.25584411621094 100"><defs><clipPath id="master_svg0_143_3514"><rect x="0" y="0" width="100.25584411621094" height="100" rx="0"/></clipPath></defs><g clip-path="url(#master_svg0_143_3514)"><g><path d="M49.7733,8C26.6935,8,8.00000597571,26.6458,8.00000597571,49.6667C7.99029743,67.60589999999999,19.4998,83.535,36.5646,89.2C38.6532,89.5625,39.4344,88.3125,39.4344,87.2167C39.4344,86.2292,39.3801,82.95,39.3801,79.4583C28.8866,81.3875,26.1714,76.9083,25.3359,74.5625C24.8639,73.3625,22.8295,69.66669999999999,21.0542,68.675C19.592100000000002,67.89580000000001,17.50343,65.9667,20.9998,65.91669999999999C24.2916,65.8625,26.6392,68.9375,27.4246,70.1875C31.1842,76.4875,37.191199999999995,74.7167,39.589,73.625C39.9566,70.91669999999999,41.051,69.0958,42.2541,68.05420000000001C32.9595,67.0125,23.2473,63.4167,23.2473,47.4792C23.2473,42.9458,24.8639,39.2,27.529,36.2792C27.1113,35.2375,25.6492,30.9667,27.9467,25.2375Q31.4432,24.1458,39.4344,29.5125C42.835,28.5711,46.3486,28.0973,49.8777,28.1042C53.4284,28.1042,56.9792,28.5708,60.321,29.5083Q68.3081,24.0917,71.8087,25.2417C74.1062,30.9708,72.6442,35.2417,72.2264,36.2833C74.8874,39.2,76.5082,42.8958,76.5082,47.4792C76.5082,63.4708,66.7458,67.0125,57.4512,68.05420000000001C58.9634,69.35419999999999,60.2709,71.85419999999999,60.2709,75.7625C60.2709,81.3333,60.2166,85.8125,60.2166,87.2208C60.2166,88.3125,61.0019,89.6125,63.0906,89.1958C80.0933,83.4699,91.5417,67.56649999999999,91.5465,49.6667C91.5465,26.6458,72.853,8,49.7733,8Z" fill="#313131" fill-opacity="1"/></g></g></svg>