<svg xmlns="http://www.w3.org/2000/svg" xmlns:xlink="http://www.w3.org/1999/xlink" fill="none" version="1.1" width="75.19190216064453" height="74.99999237060547" viewBox="0 0 75.19190216064453 74.99999237060547"><g><path d="M75.1919,55.9167L75.1919,70.65C75.1929,72.8387,73.4959,74.6551,71.307,74.8083C69.4815,74.9333,67.9902,75,66.8372,75C29.9222,75,0,45.1542,0,8.33333C0,7.18333,0.0626603,5.69583,0.192157,3.87499C0.345764,1.69164,2.16681,-0.000991424,4.36113,9.93411e-7L19.1322,9.93411e-7C20.2056,-0.00108381,21.1051,0.809643,21.2125,1.875C21.3085,2.83333,21.3963,3.59583,21.4798,4.175C22.31,9.95385,24.0113,15.5743,26.526,20.8458C26.9229,21.6792,26.6639,22.675,25.912,23.2083L16.8973,29.6333C22.4091,42.4436,32.6439,52.6523,45.4869,58.15L51.92,49.175C52.4626,48.4183,53.4701,48.157,54.3136,48.5542C59.598,51.0578,65.2314,52.7505,71.0229,53.575C71.6036,53.6583,72.368,53.75,73.3204,53.8417C74.3869,53.9507,75.1974,54.8474,75.1919,55.9167L75.1919,55.9167Z" fill="#313131" fill-opacity="1"/></g></svg>