<svg xmlns="http://www.w3.org/2000/svg" xmlns:xlink="http://www.w3.org/1999/xlink" fill="none" version="1.1" width="50" height="50" viewBox="0 0 50 50"><defs><clipPath id="master_svg0_146_2866"><rect x="0" y="0" width="50" height="50" rx="0"/></clipPath><clipPath id="master_svg1_146_2867"><rect x="0" y="0" width="50" height="50" rx="0"/></clipPath></defs><g clip-path="url(#master_svg0_146_2866)"><g clip-path="url(#master_svg1_146_2867)"><g><g><path d="M38.2812,0C38.2812,0,11.7188,0,11.7188,0C5.24666,0,0,5.24666,0,11.7188C0,11.7188,0,38.2812,0,38.2812C0,44.7533,5.24666,50,11.7188,50C11.7188,50,38.2812,50,38.2812,50C44.7533,50,50,44.7533,50,38.2812C50,38.2812,50,11.7188,50,11.7188C50,5.24666,44.7533,0,38.2812,0C38.2812,0,38.2812,0,38.2812,0Z" fill="#330000" fill-opacity="1"/></g><g><path d="M24.166576893615723,29.7525375C24.166576893615723,29.7525375,16.416596893615722,29.7525375,16.416596893615722,29.7525375C16.416596893615722,29.7525375,14.833206893615722,34.6484375,14.833206893615722,34.6484375C14.791596893615722,34.8359375,14.624996893615723,34.9609375,14.437496893615723,34.9400375C14.437496893615723,34.9400375,10.520703893615723,34.9400375,10.520703893615723,34.9400375C10.291601893615722,34.9400375,10.229101893615722,34.8150375,10.291601893615722,34.5650375C10.291601893615722,34.5650375,16.999996893615723,15.252537499999999,16.999996893615723,15.252537499999999C17.062496893615723,15.044337500000001,17.124996893615723,14.815037499999999,17.208206893615724,14.565037499999999C17.29160689361572,14.127537499999999,17.333206893615724,13.669337500000001,17.333206893615724,13.2109375C17.312496893615723,13.1068375,17.395706893615724,13.0025375,17.499996893615723,12.9818375C17.499996893615723,12.9818375,22.895676893615722,12.9818375,22.895676893615722,12.9818375C23.062476893615724,12.9818375,23.145676893615722,13.0443375,23.166576893615723,13.1484375C23.166576893615723,13.1484375,30.770676893615722,34.6068375,30.770676893615722,34.6068375C30.833176893615722,34.8359375,30.770676893615722,34.9400375,30.562476893615724,34.9400375C30.562476893615724,34.9400375,26.208176893615722,34.9400375,26.208176893615722,34.9400375C26.062476893615724,34.9609375,25.916576893615723,34.8568375,25.874976893615724,34.7109375C25.874976893615724,34.7109375,24.166576893615723,29.7525375,24.166576893615723,29.7525375C24.166576893615723,29.7525375,24.166576893615723,29.7525375,24.166576893615723,29.7525375ZM17.624996893615723,25.5234375C17.624996893615723,25.5234375,22.916576893615723,25.5234375,22.916576893615723,25.5234375C22.791576893615723,25.0859375,22.624976893615724,24.565037500000003,22.437476893615724,24.0234375C22.249976893615724,23.4609375,22.062476893615724,22.856837499999997,21.874976893615724,22.231837499999997C21.666576893615723,21.5859375,21.479076893615723,20.9609375,21.270676893615722,20.315037500000003C21.062476893615724,19.669337499999997,20.874976893615724,19.0650375,20.708176893615722,18.4609375C20.541576893615723,17.877737500000002,20.395676893615722,17.3359375,20.249996893615723,16.8359375C20.249996893615723,16.8359375,20.208206893615724,16.8359375,20.208206893615724,16.8359375C20.020706893615724,17.7318375,19.791596893615722,18.627737500000002,19.499996893615723,19.5234375C19.187496893615723,20.5234375,18.874996893615723,21.565037500000003,18.541596893615722,22.606837499999997C18.272536893615722,23.5901375,17.966786893615723,24.5630375,17.624996893615723,25.5234375C17.624996893615723,25.5234375,17.624996893615723,25.5234375,17.624996893615723,25.5234375ZM35.416576893615726,16.6275375C34.729076893615726,16.6484375,34.062476893615724,16.3775375,33.562476893615724,15.8984375C33.08337689361572,15.377537499999999,32.83337689361572,14.690037499999999,32.854076893615726,13.981837500000001C32.83337689361572,13.2734375,33.104076893615726,12.6068375,33.604076893615726,12.1275385C34.104076893615726,11.6484375,34.77087689361572,11.3984375,35.45837689361572,11.3984375C36.27087689361572,11.3984375,36.89587689361572,11.6484375,37.354076893615726,12.1275385C37.81577689361572,12.6326375,38.062476893615724,13.2978275,38.041576893615726,13.981837500000001C38.062476893615724,14.690037499999999,37.812476893615724,15.377537499999999,37.312476893615724,15.8984375C36.83337689361572,16.3984375,36.124976893615724,16.6693375,35.416576893615726,16.6275375C35.416576893615726,16.6275375,35.416576893615726,16.6275375,35.416576893615726,16.6275375ZM33.08337689361572,34.7109375C33.08337689361572,34.7109375,33.08337689361572,18.6693375,33.08337689361572,18.6693375C33.08337689361572,18.4609375,33.166576893615726,18.3775375,33.354076893615726,18.3775375C33.354076893615726,18.3775375,37.479076893615726,18.3775375,37.479076893615726,18.3775375C37.666576893615726,18.3775375,37.749976893615724,18.4818375,37.749976893615724,18.6693375C37.749976893615724,18.6693375,37.749976893615724,34.7109375,37.749976893615724,34.7109375C37.749976893615724,34.9400375,37.666576893615726,35.0443375,37.479076893615726,35.0443375C37.479076893615726,35.0443375,33.39587689361572,35.0443375,33.39587689361572,35.0443375C33.187476893615724,35.0443375,33.08337689361572,34.9193375,33.08337689361572,34.7109375C33.08337689361572,34.7109375,33.08337689361572,34.7109375,33.08337689361572,34.7109375Z" fill="#FF9A00" fill-opacity="1"/></g></g></g></g></svg>