<svg xmlns="http://www.w3.org/2000/svg" xmlns:xlink="http://www.w3.org/1999/xlink" fill="none" version="1.1" width="80" height="80" viewBox="0 0 80 80"><defs><clipPath id="master_svg0_236_274"><rect x="0" y="0" width="80" height="80" rx="0"/></clipPath></defs><g clip-path="url(#master_svg0_236_274)"><g><path d="M70.0001,50.8102921875L70.0001,70.0269921875C69.9982,71.8537921875,68.5168,73.3336921875,66.6901,73.3336921875L13.31008,73.3336921875C11.46912,73.3207921875,9.9871508,71.8179921875,10.0000842412,69.9769921875L10.0000842412,30.0002921875L30.0001,30.0002921875C31.841,30.0002921875,33.3334,28.5079921875,33.3334,26.6669921875L33.3334,6.6669921875L66.6734,6.6669921875C68.5101,6.6669921875,70.0001,8.1836621875,70.0001,9.9736621875L70.0001,22.5236921875L40.0034,52.5236921875L39.9834,66.6502921875L54.1367,66.6702921875L70.0001,50.8102921875ZM72.5934,29.3602921875L77.3067,34.0736921875L51.3801,60.0002921875L46.6601,59.9936921875L46.6667,55.2869921875L72.5934,29.3602921875ZM10.0000842412,23.3336921875L26.6667,6.6769914675L26.6667,23.3336921875L10.0000842412,23.3336921875Z" fill="#313131" fill-opacity="1"/></g></g></svg>