<?xml version="1.0" encoding="UTF-8"?>
<svg xmlns="http://www.w3.org/2000/svg" version="1.1" viewBox="0 0 120 120">
  <defs>
    <style>
      .cls-1 {
        fill: #d0e2ff;
      }

      .cls-1, .cls-2, .cls-3 {
        stroke: #000;
        stroke-linecap: round;
        stroke-linejoin: round;
        stroke-width: 2px;
      }

      .cls-4 {
        fill: #000;
      }

      .cls-4, .cls-5 {
        stroke-width: 0px;
      }

      .cls-2 {
        fill: #fff879;
      }

      .cls-3 {
        fill: none;
      }

      .cls-5 {
        fill: #fff;
      }
    </style>
  </defs>
  <g id="_레이어" data-name="레이어">
    <ellipse id="_원" data-name="원" class="cls-2" cx="58.58" cy="58.99" rx="26.81" ry="26.38"/>
    <g id="eyelip">
      <ellipse class="cls-4" cx="53.49" cy="57.15" rx="6.1" ry="6.41"/>
      <ellipse class="cls-4" cx="65.88" cy="57.18" rx="6.1" ry="6.41"/>
      <ellipse class="cls-5" cx="51.75" cy="55.8" rx="2.23" ry="3.25" transform="translate(-9.94 11.23) rotate(-11.31)"/>
      <ellipse class="cls-5" cx="64.96" cy="54.8" rx="2.23" ry="3.25" transform="translate(-9.49 13.8) rotate(-11.31)"/>
      <path class="cls-3" d="M47.39,67.75s13.07,7.52,24.1-.59"/>
    </g>
  </g>
  <g id="_꽃잎색상" data-name="꽃잎색상">
    <g id="_꽃의입" data-name="꽃의입">
      <path class="cls-1" d="M90.3,91.09c-1.3-.48-3.32-1.25-5.67-2.85-4.76-3.24-6.75-6.47-7.9-8.83,1.39-1.02,2.86-3.32,4.23-5.2,3.78-5.22,4.87-10.62,4.62-13.58,41.58-5.03,24.9,19.12,24.9,19.12.17,1.14,1.17,8.46-3.12,12.04-4.69,3.9-12.76.89-17.05-.7Z"/>
      <path class="cls-1" d="M78.07,77.48s-4.4,6.68-16.81,7.89v14.16s2.64,27.4,20.09,10.04c0,0,30.64-.68-1.45-30.64-.69-.64-1.35-1.1-1.82-1.46"/>
      <path class="cls-1" d="M85.42,60.6s19.59-1.75,25.11-3.28c1.96-.54,5.04-1.2,6.4-3.71.91-1.7.67-3.47.52-4.44-1-6.47-8.19-10.41-9.64-11.17,1.36-16.43-14.3-11.06-14.3-11.06-2.5.95-5.97,2.6-9.55,5.45-3.27,2.61-5.52,5.33-6.99,7.42,0,0,11.19,8.9,8.45,20.8Z"/>
      <path class="cls-1" d="M39.66,39.43c-11.95-6.58-16.01-15.97-13.47-20.88,2.18-4.21,9.53-4.58,11.33-4.62.15,0,.31-.02.46-.02.33-.38.8-.92,1.38-1.55.86-.92,2.05-2.14,3.37-3.31,2.27-2.02,5.23-4.08,8.01-3.9,3.91.25,7.63,5.21,9.01,12.06.03.18.06.35.09.53.67,3.85,1.19,8.49.92,14.66,0,0-11.87-1.41-20.49,7.38"/>
      <path class="cls-1" d="M60.86,30.02c.64-7.74,1.91-23.02,7.52-24.34,3.4-.8,8.57,3.44,10.75,5.85.1.11.21.23.31.34.5.01,1.22.04,2.08.09,1.26.08,2.95.23,4.7.51.83.13,2.44.49,3.78,1.18,2.77,1.42,5.31,4.88,5.22,8.34-.11,4.45-4.55,8.82-4.55,8.82h0c-3.81,3.51-7.27,6.7-11.08,10.21,0,0-10.07-9.23-18.83-8.64.04-.68,0-1.29.1-2.38Z"/>
      <path class="cls-1" d="M31.38,60.38h-4.26c-37.11.26-15.06-22.04-15.06-22.04.85-16.51,12.68-12.24,12.68-12.24,0,0,14.96,6.6,17.79,11.81,0,0-9.92,5.55-11.15,22.47"/>
      <path class="cls-1" d="M17.29,61.1c-3.75,1.23-11.5,3.76-12.42,9.75-.9,5.84,5.33,10.74,5.91,11.18,0,0,3.19,28.86,30.51-2.89-1.44-1.29-3.05-2.99-4.54-5.17-3.59-5.24-4.61-10.51-4.95-13.6-2.86-.59-8.32-1.3-14.51.72Z"/>
      <path class="cls-1" d="M28.49,92.47s-10.98,17.19,9.79,16.09c0,0,5.87,12.85,14.47,6.89,9.61-6.66,7.62-29.82,7.62-29.85,0,0-5.33-.15-7.2-.6-2.76-.65-6.67-2.05-11.32-5.39l-13.36,12.86Z"/>
      <path class="cls-3" d="M45.46,23.46s5.62,7.88,5.23,9.18"/>
      <line class="cls-3" x1="75.04" y1="24.98" x2="69.59" y2="34"/>
      <path class="cls-3" d="M20.57,44.72s9.87,6.04,11.66,6.13"/>
      <path class="cls-3" d="M21.34,77.02c1.2-1.41,3.46-3.66,6.97-5.24,2.33-1.05,4.46-1.46,6-1.63"/>
      <path class="cls-3" d="M50.44,84.81c-.07,1.7-.37,4.08-1.37,6.73-1.51,3.99-3.89,6.61-5.35,8"/>
      <path class="cls-3" d="M70.61,83.19s2.98,7.06,4.94,10.47l1.96,3.4"/>
      <path class="cls-3" d="M83.86,69.71c2.16.29,5.43,1.01,8.9,3.01,2,1.16,3.56,2.44,4.7,3.56"/>
      <path class="cls-3" d="M85.42,51.87c3.14-.53,7.6-1.77,11.91-4.94,1.06-.78,1.99-1.59,2.81-2.38"/>
    </g>
  </g>
</svg>