<svg xmlns="http://www.w3.org/2000/svg" xmlns:xlink="http://www.w3.org/1999/xlink" fill="none" version="1.1" width="367.1906433105469" height="125.5567626953125" viewBox="0 0 367.1906433105469 125.5567626953125"><g><path d="M0.0135498,120.017Q2.73352,74.3968,27.2435,71.6768C51.7535,68.9568,81.4536,74.6168,93.7136,37.0768C105.974,-0.453217,151.164,-1.73322,160.604,0.816772C170.054,3.36676,180.434,6.64676,186.474,12.9468C192.514,19.2468,206.564,29.4568,217.454,26.5668C228.344,23.6768,246.644,10.8268,262.224,14.6568C277.794,18.4868,297.543,29.8868,304.944,45.0368C312.344,60.1868,326.304,73.8068,331.663,77.8068C336.784,81.6268,372.014,92.1768,366.634,118.587C366.164,120.867,364.124,122.487,361.794,122.517C324.624,122.897,25.6535,125.887,4.12347,125.527C3.14349,125.507,2.22345,125.097,1.57349,124.377C1.41351,124.207,1.26349,124.017,1.11346,123.807C0.0134888,122.257,-0.0165405,120.627,0.003479,120.017L0.0135498,120.017Z" fill="#FFFFFF" fill-opacity="1"/></g></svg>