<svg xmlns="http://www.w3.org/2000/svg" xmlns:xlink="http://www.w3.org/1999/xlink" fill="none" version="1.1" width="50" height="50" viewBox="0 0 50 50"><defs><clipPath id="master_svg0_112_0398"><rect x="0" y="0" width="50" height="50" rx="0"/></clipPath></defs><g clip-path="url(#master_svg0_112_0398)"><g><g><path d="M38.2812,0C38.2812,0,11.7188,0,11.7188,0C5.24666,0,0,5.24666,0,11.7188C0,11.7188,0,38.2812,0,38.2812C0,44.7533,5.24666,50,11.7188,50C11.7188,50,38.2812,50,38.2812,50C44.7533,50,50,44.7533,50,38.2812C50,38.2812,50,11.7188,50,11.7188C50,5.24666,44.7533,0,38.2812,0C38.2812,0,38.2812,0,38.2812,0Z" fill="#0277BD" fill-opacity="1"/></g><g><path d="M10.49863,20.048975C10.49863,20.048975,11.05762,26.287675,11.05762,26.287675C11.05762,26.287675,25.018700000000003,26.287675,25.018700000000003,26.287675C25.018700000000003,26.287675,25.018700000000003,20.048975,25.018700000000003,20.048975C25.018700000000003,20.048975,10.49863,20.048975,10.49863,20.048975C10.49863,20.048975,10.49863,20.048975,10.49863,20.048975ZM25.0186,7.421875C25.0186,7.421875,9.375,7.421875,9.375,7.421875C9.375,7.421875,9.942187,13.660544999999999,9.942187,13.660544999999999C9.942187,13.660544999999999,25.0186,13.660544999999999,25.0186,13.660544999999999C25.0186,13.660544999999999,25.0186,7.421875,25.0186,7.421875C25.0186,7.421875,25.0186,7.421875,25.0186,7.421875ZM25.0186,42.742375C25.0186,42.742375,25.0186,36.251575,25.0186,36.251575C25.0186,36.251575,24.9912,36.258775,24.9912,36.258775C24.9912,36.258775,18.04316,34.382774999999995,18.04316,34.382774999999995C18.04316,34.382774999999995,17.59902,29.407075,17.59902,29.407075C17.59902,29.407075,11.33633,29.407075,11.33633,29.407075C11.33633,29.407075,12.21035,39.202775,12.21035,39.202775C12.21035,39.202775,24.989800000000002,42.750375,24.989800000000002,42.750375C24.989800000000002,42.750375,25.0186,42.742375,25.0186,42.742375C25.0186,42.742375,25.0186,42.742375,25.0186,42.742375Z" fill="#EBEBEB" fill-opacity="1"/></g><g><path d="M32.6793003125,26.287675C32.6793003125,26.287675,31.9550803125,34.378675,31.9550803125,34.378675C31.9550803125,34.378675,24.9970703125,36.256875,24.9970703125,36.256875C24.9970703125,36.256875,24.9970703125,42.747275,24.9970703125,42.747275C24.9970703125,42.747275,37.7866703125,39.202775,37.7866703125,39.202775C37.7866703125,39.202775,37.8804703125,38.148675,37.8804703125,38.148675C37.8804703125,38.148675,39.3464703125,21.724375000000002,39.3464703125,21.724375000000002C39.3464703125,21.724375000000002,39.498670312499996,20.048975,39.498670312499996,20.048975C39.498670312499996,20.048975,40.6249703125,7.421875,40.6249703125,7.421875C40.6249703125,7.421875,24.9970703125,7.421875,24.9970703125,7.421875C24.9970703125,7.421875,24.9970703125,13.660544999999999,24.9970703125,13.660544999999999C24.9970703125,13.660544999999999,33.7878903125,13.660544999999999,33.7878903125,13.660544999999999C33.7878903125,13.660544999999999,33.220310312500004,20.048975,33.220310312500004,20.048975C33.220310312500004,20.048975,24.9970703125,20.048975,24.9970703125,20.048975C24.9970703125,20.048975,24.9970703125,26.287675,24.9970703125,26.287675C24.9970703125,26.287675,32.6793003125,26.287675,32.6793003125,26.287675C32.6793003125,26.287675,32.6793003125,26.287675,32.6793003125,26.287675Z" fill="#FFFFFF" fill-opacity="1"/></g></g></g></svg>