<?xml version="1.0" encoding="UTF-8"?>
<svg xmlns="http://www.w3.org/2000/svg" version="1.1" xmlns:xlink="http://www.w3.org/1999/xlink" viewBox="0 0 500 500">
  <defs>
    <style>
      .cls-1 {
        fill: #90bdff;
        stroke-width: 4px;
      }

      .cls-1, .cls-2, .cls-3, .cls-4, .cls-5 {
        stroke: #000;
        stroke-linecap: round;
        stroke-linejoin: round;
      }

      .cls-2, .cls-6, .cls-5 {
        fill: #fdfbef;
      }

      .cls-2, .cls-3, .cls-4, .cls-5 {
        stroke-width: 3px;
      }

      .cls-2, .cls-7 {
        display: none;
      }

      .cls-8 {
        fill: #ede694;
      }

      .cls-9 {
        fill: #cd924e;
      }

      .cls-3 {
        fill: #fff;
      }

      .cls-4 {
        fill: none;
      }

      .cls-10 {
        font-family: ChunkFive, ChunkFive;
        font-size: 120px;
        letter-spacing: 0em;
      }

      .cls-11 {
        fill: #d8b0ed;
      }
    </style>
  </defs>
  <!-- Generator: Adobe Illustrator 28.6.0, SVG Export Plug-In . SVG Version: 1.2.0 Build 709)  -->
  <g>
    <g id="_그림자" data-name="그림자" class="cls-7">
      <ellipse cx="252" cy="462" rx="42" ry="7"/>
      <ellipse cx="351" cy="467" rx="42" ry="7" transform="translate(-51.7 43.8) rotate(-6.6)"/>
      <image width="566" height="567" transform="translate(3 1) scale(.9)" xlink:href="dotcom-1.png"/>
    </g>
    <g id="www">
      <path class="cls-1" d="M83.5,113.7c-13.9,4.4-25.8,13.5-33.6,25.8-9.9,15.7-17.5,39.3-3.8,67.9,23,48.1,71.1,31.2,80,27.6s2.4-.9,3.6-1.3l71.4-24.2,197.3-65.2c29.2-9.6,47.4-39.2,41.9-69.5-.1-.7-.3-1.4-.4-2.1-3-14.3-11.3-26.9-22.9-35.8-11.5-8.9-28.5-18.1-45.5-13.6-25.7,6.9-230.4,71.9-288,90.2Z"/>
      <image width="566" height="567" transform="translate(16 660) scale(.9)" xlink:href="dotcom-2.png"/>
      <text class="cls-10" transform="translate(97 212.1) rotate(-17.9)"><tspan x="0" y="0">www.</tspan></text>
    </g>
    <g id="_닷컴" data-name="닷컴">
      <path class="cls-4" d="M340.5,373.5"/>
      <g>
        <path class="cls-11" d="M381.4,439.9c3,3.6,4.5,7.6,3.7,10.3,0,.3-.4.6-1,.9-2.5,1.5-9.9,3.7-21.9,6.6-6.8,1.7-13.9,2.4-20.8,3-3.9.4-8,.8-12,1.4-1.1.1-4,.5-7.6,0-2.1-.3-3-.6-3.6-.9-.9-.4-1.6-.9-2.4-1.5s-1.4-1.4-2-2.2c-.8-1.6-.8-3.1,0-4.6,3.1-6.4,18.4-10.9,24-12.1.5-.1.8-.4,1-.8.2-.4.2-.9,0-1.3-.6-1.1-.7-2-.4-2.7.3-.7,1-1.2,1.8-1.6.7-.4,1.5-.6,1.9-.7.3,0,.5-.2.7-.4.2.1.4.2.6.2.6,0,5.5.8,5.5,7.2s.2.8.5,1.1c.3.3.6.4,1,.4h.1c12.3-1,19-2.5,20.1-4.5.3-.6.1-1.4-.4-1.8,0,0-.6-.5-1.4-1.2.6-.2,1.2-.4,1.8-.5,3.2-.3,7.4,2,10.7,5.9Z"/>
        <path class="cls-11" d="M283.3,431.8c3.3,6.2,5.4,15.5,5,17.6-.3.1-.8.2-1.4.3-9.3,1.7-51.3,4.3-62.3,3.3-3.4-.3-5.5-1-6.7-1.7-.7-.4-1.1-.8-1.4-1.1-.5-.6-.6-1.2-.6-1.3h0c0,0,0-.1,0-.2,1.2-12,15.3-13.6,25.6-14.8,5.8-.7,9.6-1.1,11-3.2.4-.5.7-1.4.4-2.6-.4-1.3-.2-2.3.3-3.1,1.4-2,5.1-2.8,6.4-3,.1,0,.2,0,.4,0,0,0,.2,0,.2,0,.5,0,4.6,1,3.8,7.3,0,.4,0,.9.4,1.2.3.3.7.5,1.1.5h9.7c.4,0,.9-.2,1.1-.5.3-.3.4-.8.3-1.2,0,0-.1-.7-.2-1.8.7,0,1.9.1,3.8.5.6.1,1.7,1.2,3.1,3.8Z"/>
        <path class="cls-8" d="M273.5,428h-6.3c0-5.3-2.9-7.8-5.2-8.7-.6-7.8-.4-14.8.6-21.1,2,1.3,5.3,2.9,10,2.9s.8,0,1.2,0c-1.9,10-1.1,20.3-.5,25.4,0,.6.1,1,.2,1.5Z"/>
        <path class="cls-8" d="M366.8,436.6c-2.8.9-9,1.8-14.9,2.3-.7-5.6-4.7-7.9-7.4-8.5-3.4-4.6-6.2-9.2-8.4-13.5,3.3-.3,10.6-1,13.5-2.3,5.3,10.5,13.7,18.8,17.1,22Z"/>
        <path d="M404.6,258.3c0,.2,0,.5,0,.8-.3,2.4-1.8,4.4-4,5.3l-66.9,27.1c-.5.2-1,.6-1.2,1.2s-.2,1.2,0,1.7l35,78.3c1.1,2.6,0,5.5-2.5,6.8l-14.3,6.9c.4-.8.8-1.5,1.2-2.3l12.4-6c1.8-.9,2.6-3,1.8-4.8l-35-78.3c-.8-1.9,0-4.1,2-4.9l66.9-27.1c3.7-1.5,4.2-6.5,1-8.8L215.6,125c-2.3-1.6-5.4-.1-5.8,2.6l-22.2,208c-.5,5,4.4,8.8,9.1,7l75.2-28.1c1.8-.7,3.9.2,4.7,2l19.9,46.4c-.3-.4-.7-.6-1.2-.6s-.3,0-.7,0l-19.4-45.2c-.5-1.1-1.7-1.6-2.8-1.2l-75.2,28.1c-2.7,1-5.7.6-7.9-1.2-2.3-1.8-3.4-4.5-3.1-7.4l22.2-208c.2-1.8,1.3-3.4,3-4.2,1.7-.8,3.6-.6,5.1.5l185.3,129.2c1.8,1.2,2.8,3.2,2.8,5.3Z"/>
        <path class="cls-6" d="M400.1,255.5c1.1.8,1.6,2,1.5,3.3-.1,1.3-1,2.4-2.2,2.9l-66.9,27.1c-1.3.5-2.3,1.5-2.9,2.9-.5,1.3-.5,2.8,0,4l35,78.3c.5,1.1,0,2.3-1,2.8l-10,4.8s0,0,0-.1c.5-.7.4-1.6-.3-2.1-.7-.5-1.6-.4-2.1.3-1.1,1.5-2.1,3-2.9,4.4l-17.6,8.5c1.5-12.1,9.9-17.4,10.5-17.7.7-.4.9-1.4.5-2.1-.4-.7-1.4-.9-2.1-.5-.2,0-11,6.8-12,21.8l-11.4,5.5c-.5.3-1.1.3-1.7,0s-1-.6-1.2-1.2l-8.9-20.7-26.5-61.7c-.8-1.9-2.7-3.1-4.8-3.1s-1.2.1-1.8.3l-75.3,28.1c-1.7.6-3.6.4-5.1-.8-1.5-1.1-2.2-2.9-2-4.7l22.2-208c0-.8.6-1.4,1.3-1.7.7-.3,1.5-.2,2.1.2l185.3,129.2Z"/>
        <path d="M401.5,258.7c.1-1.3-.4-2.5-1.5-3.3L214.7,126.3c-.7-.4-1.4-.5-2.1-.2-.7.3-1.2,1-1.3,1.7l-22.2,208c-.2,1.8.5,3.6,2,4.7,1.4,1.1,3.3,1.4,5.1.8l75.3-28.1c.6-.2,1.2-.3,1.8-.3,2,0,3.9,1.2,4.8,3.1l26.5,61.7c0,0,0-.1,0-.2l-7.8-14.4c0,0,0-.1-.1-.2h0s-19.9-46.4-19.9-46.4c-.8-1.8-2.8-2.7-4.7-2l-75.2,28.1c-4.7,1.8-9.6-2-9.1-7l22.2-208c.3-2.8,3.5-4.2,5.8-2.6l185.3,129.2c3.3,2.3,2.7,7.3-1,8.8l-66.9,27.1c-1.9.8-2.8,3-2,4.9l35,78.3c.8,1.8,0,3.9-1.8,4.8l-12.4,6c.5-.8,1.1-1.7,1.7-2.5l10-4.8c1.1-.5,1.5-1.8,1-2.8l-35-78.3c-.6-1.3-.6-2.7,0-4,.5-1.3,1.5-2.3,2.9-2.9l66.9-27.1c1.2-.5,2-1.6,2.2-2.9Z"/>
        <path d="M383.6,437.9c3.7,4.4,5.3,9.4,4.3,13-.2.5-.3,1.1-.9,1.7h0c0-1-.7-1.6-1.5-1.6s-.4,0-.6.1h-.9c.6-.4.9-.7,1-1,.8-2.7-.7-6.7-3.7-10.3-3.3-3.9-7.5-6.2-10.7-5.9-.6,0-1.2.2-1.8.5-.6-.5-1.4-1.3-2.3-2.2,0,0,.1,0,.2-.1,1.2-.6,2.3-1,3.6-1.1,5.1-.5,10.2,3.2,13.3,6.9Z"/>
        <path d="M387,452.6v3.9c0,2.2-1.5,4.2-3.6,4.8-25.1,7.5-42,9.5-52.9,9.5s-12.5-1-15-1.8c-1.8-.6-3.1-2.1-3.4-4.1l-.6-4.1c0-.4,0-.8.3-1.1.9,1.2,1.9,2.1,3,2.9l.3,1.8c.1.8.6,1.4,1.4,1.6,5.8,1.9,23.9,4.9,66.1-7.7.9-.2,1.5-1.1,1.5-1.9v-2.1c1.6-.7,2.5-1.2,3-1.8Z"/>
        <path d="M387,452.5h0c-.5.7-1.4,1.2-3,1.9v-1.9c0-.6.4-1.2.9-1.4.2,0,.4-.1.6-.1.8,0,1.5.7,1.5,1.5Z"/>
        <path d="M384.1,451h.9c-.5.3-.9.9-.9,1.5v1.9c-3.2,1.4-9.4,3.3-21.1,6.1-7,1.7-14.2,2.4-21.2,3.1-3.9.4-8,.8-11.9,1.3-.7.1-2.2.3-4.2.3s-2.7,0-4.2-.3c-2.4-.3-3.7-.8-4.4-1.1-.7-.3-1.4-.7-2.1-1.2l-.3-2.3c0-.3-.1-.5-.3-.7h1.6c.7.6,1.5,1.1,2.4,1.5.5.2,1.5.6,3.6.9,3.5.5,6.5.2,7.6,0,4-.6,8.1-1,12-1.4,6.9-.7,14.1-1.4,20.8-3,12-2.9,19.4-5.1,21.9-6.6Z"/>
        <path class="cls-9" d="M384,454.4v2.1c0,.9-.6,1.7-1.5,1.9-42.2,12.5-60.3,9.5-66.1,7.7-.7-.2-1.3-.9-1.4-1.6l-.3-1.8c.7.5,1.4.9,2.1,1.2.7.3,2,.8,4.4,1.1,1.5.2,3,.3,4.2.3,1.9,0,3.4-.2,4.2-.3,3.9-.6,8-1,11.9-1.3,7-.7,14.3-1.4,21.2-3.1,11.8-2.9,17.9-4.8,21.1-6.1Z"/>
        <path d="M370.3,435.7c.5.4.7,1.2.4,1.8-1,2-7.8,3.6-20.1,4.5h-.1c-.4,0-.7-.1-1-.4-.3-.3-.5-.7-.5-1.1,0-6.4-4.9-7.1-5.5-7.2-.2,0-.4,0-.6-.2.4-.3.6-.9.5-1.4-.2-.8-1-1.3-1.8-1.2,0,0-.3,0-.6.1-3.5-4.9-6.3-9.7-8.4-14.2l.6-.3c.2.5.8.9,1.4.9h.1c.2,0,.8,0,1.5-.1,2.2,4.3,5,8.9,8.4,13.5,2.7.5,6.8,2.8,7.4,8.5,5.9-.5,12.1-1.4,14.9-2.3-3.5-3.2-11.9-11.5-17.1-22,0,0,.1,0,.2-.1.7-.4,1-1.3.7-2l1.1-.5c4.1,8.8,10.8,16.2,14.9,20.3-.6.4-.8,1.2-.4,1.9.4.7,1.3,1,2,.6.2-.1.5-.2.7-.3.9.8,1.4,1.2,1.4,1.2Z"/>
        <path d="M368.9,434.4c-.2.1-.4.2-.7.3-.7.4-1.6.1-2-.6-.4-.7-.2-1.5.4-1.9.9.9,1.7,1.6,2.3,2.2Z"/>
        <path d="M353.4,379.3c.6.5.8,1.5.3,2.1,0,0,0,0,0,.1l-5.2,2.5c.8-1.5,1.8-3,2.9-4.4.5-.6,1.5-.8,2.1-.3Z"/>
        <path d="M348.4,384l5.2-2.5c-.6.8-1.2,1.6-1.7,2.5l-4.5,2.2c.3-.7.7-1.5,1.1-2.2Z"/>
        <path d="M347.4,386.2l4.5-2.2c-.5.8-.9,1.5-1.2,2.3l-4.1,2c.2-.7.5-1.4.8-2Z"/>
        <path d="M351.7,411.9l-1.1.5c-.4-.7-1.3-1.1-2-.7,0,0-.1,0-.2,0-3.2-7.3-4.6-15.5-1.8-23.6l4.1-2c-4.2,8.7-2.7,17.7,1,25.6Z"/>
        <path d="M350.5,412.5c.4.7,0,1.6-.7,2,0,0-.1,0-.2.1-.4-.9-.9-1.8-1.3-2.7,0,0,.1,0,.2,0,.7-.4,1.6,0,2,.7Z"/>
        <path class="cls-6" d="M330.8,392.5l17.6-8.5c-.4.7-.7,1.4-1.1,2.2l-16.8,8.1c0-.6,0-1.2.2-1.7Z"/>
        <path d="M348.4,411.9c.4.9.8,1.8,1.3,2.7-3,1.3-10.3,2.1-13.5,2.3-.4-.7-.7-1.4-1-2.2-.1-.2-.2-.5-.3-.8,3.3-.2,11.1-1,13.6-2.1Z"/>
        <path class="cls-6" d="M330.6,394.3l16.8-8.1c-.3.7-.6,1.4-.8,2l-16,7.7c0-.6,0-1.1,0-1.7Z"/>
        <path class="cls-6" d="M330.6,396l16-7.7c-2.8,8.1-1.4,16.3,1.8,23.6-2.6,1.1-10.4,1.9-13.6,2.1-3.1-7-4.2-13-4.2-18Z"/>
        <path d="M343.3,431.7c.1.5,0,1-.5,1.4-.2-.1-.3-.2-.4-.4-.5-.7-1-1.4-1.5-2,.3,0,.5-.1.6-.1.8-.2,1.6.4,1.8,1.2Z"/>
        <path d="M342.5,432.7c.1.1.3.3.4.4-.2.2-.4.3-.7.4-.4,0-1.2.3-1.9.7-.7.4-1.5.9-1.8,1.6-.3.7-.2,1.6.4,2.7.2.4.2.9,0,1.3-.2.4-.6.7-1,.8-5.6,1.2-20.9,5.8-24,12.1-.7,1.5-.7,3,0,4.6.6.9,1.2,1.6,2,2.2h-1.6c-.3-.3-.8-.6-1.4-.5-.4,0-.8.3-1,.6-.2-.2-.4-.5-.5-.8,0,0,0-.1-.1-.2-1.2-2.5-1.2-5,0-7.4,3.7-7.6,19.2-12.1,24.4-13.4-.4-1.6-.1-2.8.3-3.6,1.1-2.4,3.9-3.4,5.2-3.8.5.7,1,1.4,1.5,2Z"/>
        <path d="M341.8,372.7c.4.7.2,1.6-.5,2.1-.6.3-9,5.7-10.5,17.7l-3.1,1.5c1.1-15,11.9-21.7,12-21.8.7-.4,1.6-.2,2.1.5Z"/>
        <path d="M335.1,414.7c.3.7.7,1.4,1,2.2-.8,0-1.3.1-1.5.1h-.1c-.6,0-1.1-.3-1.4-.9s-.1-.4-.1-.5c0-.8.6-1.5,1.4-1.6.1,0,.2,0,.4,0,.1.2.2.5.3.8Z"/>
        <path d="M334.8,414c-.1,0-.2,0-.4,0-.8,0-1.4.8-1.4,1.6,0,.2,0,.4.1.5l-.6.3h0c0-.1-.1-.3-.2-.5-3.2-7.1-4.6-13.3-4.7-18.6l2.9-1.4c0,5,1.1,11,4.2,18Z"/>
        <path d="M327.7,394l3.1-1.5c0,.6-.1,1.1-.2,1.7l-3,1.5c0-.6,0-1.2,0-1.7Z"/>
        <path d="M327.6,395.7l3-1.5c0,.5,0,1.1,0,1.7l-2.9,1.4c0-.6,0-1.1,0-1.7Z"/>
        <path d="M316.3,399.5l11.4-5.5c0,.5,0,1.1,0,1.7l-10.7,5.1c-1.9.9-4.1,0-5-1.9l-8.3-19.4c.3-.1.5-.3.6-.5.3-.4.3-.9.2-1.4l8.9,20.7c.2.6.7,1,1.2,1.2s1.2.2,1.7,0Z"/>
        <path d="M327.6,395.7c0,.5,0,1.1,0,1.7l-10,4.8c-.7.3-1.5.5-2.2.5s-1.2-.1-1.8-.3c-1.3-.5-2.4-1.5-2.9-2.8l-8.6-19.9c.3,0,.6,0,.9,0,.3,0,.5,0,.8-.1l8.3,19.4c.8,1.9,3.1,2.8,5,1.9l10.7-5.1Z"/>
        <path d="M314.5,460.4l.3,2.3c-1.1-.8-2.1-1.8-3-2.9.2-.3.6-.5,1-.6.5,0,1.1.1,1.4.5.2.2.3.5.3.7Z"/>
        <path d="M304.5,377.7c.2.4.1,1-.2,1.4-.2.2-.4.4-.6.5l-7.1-16.6s0,.1.1.2l7.8,14.4s0,.1,0,.2Z"/>
        <path d="M296.6,363l7.1,16.6c-.2.1-.5.1-.8.1-.3,0-.6,0-.9,0l-1.4-3.2-6-14c.4,0,.6,0,.7,0,.5,0,.9.2,1.2.6h0Z"/>
        <path d="M300.7,376.4l1.4,3.2c-7.6-.7-13.7,1.3-18,5.9-3.5,3.7-5.6,8.8-6.9,14.2,0-.2,0-.3,0-.5-.1-.8-.9-1.4-1.7-1.3-.3,0-.7.1-1,.1,1.4-5.5,3.7-10.7,7.4-14.6,4.6-4.9,10.9-7.2,18.6-6.9h.2Z"/>
        <path d="M300.7,376.4h-.2c0,0-6-11-6-11-3.1.2-13.6,1.6-21.9,10.5-4.5,4.9-7.7,11.3-9.4,19.1-.3-.3-.5-.4-.5-.5-.6-.6-1.5-.6-2.1-.1-.2.2-.4.5-.5.8,1.8-8.7,5.3-15.9,10.4-21.4,9.4-10.1,21.2-11.3,24.2-11.5l6,14Z"/>
        <path class="cls-6" d="M294.5,365.4l6,11.1c-7.7-.3-14,2-18.6,6.9-3.7,3.9-6,9.1-7.4,14.6-6.2.6-10-1.9-11.3-3.1,1.8-7.8,4.9-14.1,9.4-19.1,8.2-9,18.8-10.3,21.9-10.5Z"/>
        <path d="M289.6,439.3c1.4,4.6,2.7,10.5,1,12.2s-.8.5-1.6.7c-.1-.7-.7-1.2-1.5-1.2s-.2,0-.3,0l-.2-1.3c.6-.1,1.1-.2,1.4-.3.4-2.1-1.7-11.4-5-17.6-1.4-2.6-2.6-3.7-3.1-3.8-1.9-.4-3.1-.5-3.8-.5-.1-.8-.2-1.8-.3-3,1,0,2.5.1,4.7.5,4.3.9,7.6,10.3,8.8,14.3Z"/>
        <path d="M289,452.5v2.7c0,1.4-.9,2.7-2.2,3.1-10.1,3.6-24.4,4.6-37.4,4.6s-26.8-1.2-30.8-1.7c-1.7-.2-3-1.6-3-3.4v-4.6c.8.6,1.8,1.1,3,1.5v3.1c0,.2.1.4.3.4,7.6.8,46.3,4.5,66.9-2.8.1,0,.2-.2.2-.3v-2.4c1.2-.2,2.2-.4,3-.6,0,0,0,.2,0,.3Z"/>
        <path d="M287.5,451c.7,0,1.3.5,1.5,1.2-.8.2-1.8.4-3,.6v-.3c0-.7.5-1.3,1.2-1.5,0,0,.2,0,.3,0Z"/>
        <path d="M287,449.7l.2,1.3c-.7.1-1.2.7-1.2,1.5v.3c-11.6,1.9-42,3.3-55.8,3.3s-4.6,0-5.8-.2c-2.2-.2-4.2-.6-5.8-1.1v-2.3c0-.5-.3-1-.7-1.2h0c1.2.7,3.3,1.4,6.7,1.7,11,1,53-1.6,62.3-3.3Z"/>
        <path class="cls-9" d="M286,452.8v2.4c0,.1,0,.3-.2.3-20.6,7.4-59.3,3.7-66.9,2.8-.2,0-.3-.2-.3-.4v-3.1c1.6.6,3.5.9,5.8,1.1,1.2.1,3.2.2,5.8.2,13.8,0,44.2-1.4,55.8-3.3Z"/>
        <path d="M277.2,399.2c0,.2,0,.3,0,.5,0,0,0,0,0,0-.1.6-.6,1.1-1.3,1.2-.7.1-1.5.2-2.1.2.2-1,.4-2.1.7-3.1.3,0,.7,0,1-.1.8-.1,1.6.4,1.7,1.3Z"/>
        <path d="M276.7,429.2c0,.4,0,.9-.3,1.2-.3.3-.7.5-1.1.5h-9.7c-.4,0-.8-.2-1.1-.5-.3-.3-.4-.8-.4-1.2.8-6.3-3.3-7.2-3.8-7.3,0,0-.2,0-.2,0,.6-.2,1.1-.9,1-1.6,0-.8-.8-1.4-1.6-1.3,0,0-.2,0-.5,0-.7-8.9-.3-16.9,1.2-23.8,0,.5,0,.9.4,1.3,0,0,.8.9,2.1,1.7-1,6.2-1.2,13.2-.6,21.1,2.3.9,5.3,3.4,5.2,8.7h6.3c0-.4-.1-.9-.2-1.5h0c0,.3.2.5.4.8.5.5,1.2.6,1.8.2.1,0,.4,0,.9,0,.1,1.1.2,1.7.2,1.8Z"/>
        <path d="M276.4,427.5c-.5,0-.8,0-.9,0-.6.3-1.3.3-1.8-.2-.2-.2-.4-.5-.4-.8,0-.5,0-1,.4-1.4s.7-.7,2.4-.7c.1,1.2.2,2.2.3,3Z"/>
        <path d="M275.9,400.9c.6-.1,1.1-.6,1.3-1.2-2.1,9.1-1.6,19.1-1.1,24.8-1.7,0-2.2.5-2.4.7-.4.4-.5.9-.4,1.4h0c-.6-5.1-1.4-15.4.5-25.4.7,0,1.4-.1,2.1-.2Z"/>
        <path d="M274.5,398.1c-.3,1-.5,2-.7,3.1-.4,0-.8,0-1.2,0-4.7,0-8-1.6-10-2.9.2-1.1.4-2.2.6-3.3,1.3,1.1,5.1,3.7,11.3,3.1Z"/>
        <path d="M262.6,394.5s.2.2.5.5c-.2,1.1-.5,2.1-.6,3.3-1.3-.9-2-1.6-2.1-1.7-.3-.4-.5-.9-.4-1.3s.2-.6.5-.8c.6-.5,1.6-.5,2.1.1Z"/>
        <path d="M261,420.4c0,.7-.4,1.3-1,1.6-.5-.2-1-.7-1-1.3,0-.5,0-1.1-.1-1.6.3,0,.4,0,.5,0,.8-.1,1.6.5,1.6,1.3Z"/>
        <path d="M260,421.9c-.1,0-.2,0-.4,0-1.3.1-5,.9-6.4,3-.6.9-.7,1.9-.3,3.1.3,1.2,0,2-.4,2.6-1.4,2.1-5.2,2.5-11,3.2-10.3,1.2-24.4,2.8-25.6,14.8,0,0,0,.1,0,.2h0c0,.2,0,.7.6,1.4.2.3.7.7,1.4,1.1h0c-.2-.2-.5-.2-.8-.2-.8,0-1.5.7-1.5,1.5v.8c-.6-.5-1.1-.9-1.5-1.5-1.2-1.6-1.1-3.1-1-3.5,1.4-14.4,17.5-16.2,28.2-17.5,3.5-.4,8.3-1,8.8-1.9,0,0,0,0,0,0-.6-2.1-.4-4.1.7-5.7,2.1-3,6.6-4,8.1-4.2,0,.5,0,1,.1,1.6,0,.6.5,1.1,1,1.3Z"/>
        <path d="M218.6,452.5v2.3c-1.2-.4-2.2-.9-3-1.5v-.8c0-.8.7-1.5,1.5-1.5s.6,0,.8.3c.4.3.7.7.7,1.2Z"/>
      </g>
      <path class="cls-5" d="M192.5,279.5s-45,20-41-39c0,0,9-3,10-15,0,0,7-11,0-13,0,0-10.5-1.1-10.3,13.4l-13.7,4.6s-24.5,78.6,53.8,71.3l1.2-22.3Z"/>
      <path class="cls-2" d="M363.5,225.5s31-33-3-54c0,0-8,6-27-3,0,0-7-7,3-9s17.3,2.7,17.3,2.7l13.7-5.7s56.9,30.3,8.9,80.6l-14.7-10.2,1.7-1.4Z"/>
      <ellipse class="cls-3" cx="263.9" cy="204.8" rx="15.6" ry="20.5" transform="translate(-36.9 59.7) rotate(-12.1)"/>
      <ellipse class="cls-3" cx="242.5" cy="213.5" rx="15" ry="20" transform="translate(-16.8 20.7) rotate(-4.7)"/>
      <ellipse cx="243.1" cy="207.5" rx="11.1" ry="14.5" transform="translate(-38 55.4) rotate(-12.1)"/>
      <ellipse cx="261.5" cy="199" rx="10.5" ry="14" transform="translate(-39.8 67.7) rotate(-13.7)"/>
      <ellipse cx="264.5" cy="242.3" rx="5.9" ry="4" transform="translate(-57 401.5) rotate(-68.8)"/>
    </g>
    <g id="_신발" data-name="신발">
      <line class="cls-4" x1="252" y1="429.5" x2="255.5" y2="434.5"/>
      <line class="cls-4" x1="248" y1="431.8" x2="251.5" y2="436.8"/>
      <line class="cls-4" x1="244" y1="432.8" x2="247.5" y2="437.8"/>
      <line class="cls-4" x1="337.5" y1="439.1" x2="343.6" y2="443.6"/>
      <line class="cls-4" x1="333.5" y1="441.1" x2="339.6" y2="445.6"/>
      <line class="cls-4" x1="328.5" y1="442.1" x2="334.6" y2="446.6"/>
      <path class="cls-5" d="M364,226.7s34.5-31.2-3.5-54.2c0,0-7,3-11,1s-22-4-16-11,21.3,0,21.3,0l12.7-7s59.1,33,10.3,80.8l-13.8-9.6Z"/>
    </g>
    <g id="Layer_5">
      <line class="cls-4" x1="341.5" y1="420.5" x2="346.5" y2="427.5"/>
      <line class="cls-4" x1="346.5" y1="419.3" x2="353.6" y2="429.5"/>
      <line class="cls-4" x1="264.5" y1="402.5" x2="264.5" y2="414.4"/>
      <line class="cls-4" x1="269.5" y1="404.5" x2="269.5" y2="414.4"/>
    </g>
  </g>
</svg>