<?xml version="1.0" encoding="UTF-8"?>
<svg id="Layer_1" data-name="Layer 1" xmlns="http://www.w3.org/2000/svg" version="1.1" viewBox="0 0 300 300">
  <defs>
    <style>
      .cls-1 {
        fill: #000;
      }

      .cls-1, .cls-2, .cls-3, .cls-4, .cls-5, .cls-6, .cls-7 {
        stroke-width: 0px;
      }

      .cls-2 {
        fill: #fef3d1;
      }

      .cls-3 {
        fill: #1b95c5;
      }

      .cls-4 {
        fill: #fe8e71;
      }

      .cls-5 {
        fill: #fff;
      }

      .cls-6 {
        fill: #086545;
      }

      .cls-7 {
        fill: #db493e;
      }
    </style>
  </defs>
  <path class="cls-1" d="M279.88,77.62c.54,3.95-.31,10.17-10.74,26.47-5.71,8.93-11.68,16.46-11.75,16.54-.18.23-.44.4-.73.48-1.9.52-3.66.78-5.26.78-.24,0-.49,0-.72-.03-2.41-.11-4.45-.85-6.11-2.2-3.18-2.6-4.02-6.77-4.23-9.26-.39.21-.86.46-1.41.81,1.43-1,2.79-2.11,4.07-3.31.08.19.11.39.1.61,0,.06-.31,6.09,3.25,8.98,2.07,1.69,5.14,2.03,9.12,1.03,1.26-1.6,6.38-8.24,11.3-15.93,11.27-17.63,10.58-22.67,10.31-24.57-.68-4.92-3.56-9.68-5.97-11.43-.91-.67-1.4-.65-1.52-.63-1.39.24-3.23,5.21-2.68,9.86.22,1.84.82,3.61,1.78,5.28.39.68.16,1.54-.52,1.92-.67.38-1.53.16-1.92-.52-.02-.04-.05-.08-.07-.11l.29-.22c.63-.46.76-1.34.3-1.97-.23-.31-.57-.51-.93-.55-.38-.06-.68.05-.85.15h0c-.43-1.19-.72-2.41-.87-3.65-.56-4.84,1.1-12.29,4.99-12.98,1.13-.2,2.36.18,3.67,1.13,2.91,2.13,6.28,7.39,7.1,13.32Z"/>
  <path class="cls-5" d="M277.09,78c.26,1.9.96,6.95-10.31,24.57-4.92,7.69-10.04,14.33-11.3,15.93-3.98,1-7.05.66-9.12-1.03-3.56-2.89-3.26-8.93-3.25-8.98,0-.22-.03-.42-.1-.61,4.48-4.2,7.86-9.54,9.64-15.53.05-.02.09-.05.13-.08l10.34-7.63c.06.03.12.04.19,0,.08-.04.14-.13.16-.25h0s1.41-1.05,1.41-1.05c.04,0,.07,0,.08-.04,0,0,0-.02.02-.03l1.23-.91s.05.08.07.11c.39.68,1.26.9,1.92.52.68-.38.91-1.25.52-1.92-.97-1.67-1.57-3.44-1.78-5.28-.54-4.65,1.29-9.62,2.68-9.86.12-.02.61-.04,1.52.63,2.41,1.75,5.3,6.51,5.97,11.43Z"/>
  <path class="cls-1" d="M266.79,80.2c.46.63.33,1.51-.3,1.97l-.29.22c-.48-.84-.87-1.71-1.19-2.59.18-.1.48-.21.85-.15.36.05.69.24.93.55Z"/>
  <path class="cls-1" d="M266.2,82.38l-1.23.91c.05-.09,0-.23-.06-.43-.07-.23-.18-.44-.34-.62-.09-.2-.31-.64-.72-1.63l.97-.71s.08-.06.18-.1h0c.32.88.71,1.74,1.19,2.59Z"/>
  <path class="cls-1" d="M264.91,82.86c.05.2.1.34.06.43l-.1.07c-.25.06-.83-.37-1.14-.15-.31.2-.19.83-.26,1.19h0s-.35.25-.35.25c-.05,0-.08-.03-.11-.04-.41-.14-.8-.68-1.49-2.27,1.14-.84,1.92-1.42,1.94-1.43l.4-.3c.41.99.63,1.43.72,1.63.16.18.27.38.34.62Z"/>
  <path class="cls-1" d="M264.97,83.29s0,.02-.02.03c-.02.03-.05.04-.08.04l.1-.07Z"/>
  <path class="cls-1" d="M264.87,83.36l-1.41,1.04c.08-.37-.05-.99.26-1.19.32-.22.89.21,1.14.15Z"/>
  <path class="cls-1" d="M263.85,80.61l-.4.3s-.8.59-1.94,1.43c-.57-1.31-1.36-3.35-2.54-6.51-2.29-6.03-6.09-6.39-7.38-6.33-.38-.9-.77-1.78-1.21-2.64.05-.02.1-.04.16-.05.03,0,.98-.21,2.36-.02.04.07.08.14.12.22.26.47.74.73,1.24.73.23,0,.46-.06.68-.18.08-.05.17-.1.23-.16,2.2.9,4.73,2.95,6.42,7.43,1.09,2.88,1.8,4.66,2.26,5.77Z"/>
  <path class="cls-1" d="M263.11,84.65l.35-.24c-.02.12-.08.22-.16.25-.07.03-.13.02-.19,0Z"/>
  <path class="cls-1" d="M263.11,84.65l-10.34,7.63s-.08.06-.13.08c.42-1.37.75-2.77.98-4.2,2.33-1.73,5.76-4.25,7.89-5.81.69,1.59,1.08,2.13,1.49,2.27.03,0,.07.03.11.04Z"/>
  <path class="cls-5" d="M258.97,75.84c1.18,3.16,1.97,5.19,2.54,6.51-2.13,1.57-5.55,4.09-7.89,5.81.31-1.86.47-3.76.47-5.7,0-4.57-.89-8.94-2.5-12.95,1.28-.07,5.09.3,7.38,6.33Z"/>
  <path class="cls-1" d="M255.49,65.65c.33.6.18,1.33-.32,1.75-.83-.34-1.59-.52-2.27-.61-1.78-3.09-3.99-4.31-5.5-4.79-.75-1.04-1.57-2.04-2.45-2.99.18-.09.38-.14.58-.15.26,0,6.12-.14,9.96,6.79Z"/>
  <path class="cls-1" d="M255.17,67.41c-.07.06-.15.11-.23.16-.22.12-.45.18-.68.18-.5,0-.98-.26-1.24-.73-.04-.08-.08-.15-.12-.22.68.09,1.44.27,2.27.61Z"/>
  <path class="cls-1" d="M254.09,82.46c0,1.94-.16,3.84-.47,5.7-1.45,1.07-2.49,1.84-2.52,1.86-.28.21-.46.5-.53.82l-.38-.1c.72-2.64,1.1-5.41,1.1-8.27,0-4.75-1.05-9.27-2.93-13.34l1.2-.39c.25.62.92.99,1.6.83,0,0,.17-.04.44-.05,1.61,4.01,2.5,8.38,2.5,12.95Z"/>
  <path class="cls-1" d="M253.62,88.16c-.23,1.43-.56,2.83-.98,4.2-.22.13-.46.2-.7.2-.43,0-.85-.2-1.13-.57-.25-.35-.33-.77-.23-1.15.08-.32.25-.61.53-.82.03-.02,1.07-.79,2.52-1.86Z"/>
  <path class="cls-1" d="M252.12,123.63c.16.33.11.65.08.83-.11.54-.31.89-.85,1.08-2.53,4.09-14.99,22.35-34.76,22.35-1.71,0-3.47-.13-5.28-.43-.46-.08-.85-.37-1.05-.79-.03-.07-.06-.14-.07-.22,4.42-5.26,8.2-11.04,11.27-17.26,7.7-3.03,14.27-6.56,14.69-7.96.04-.12.56-.4,1.25-.83l.06.08c.41.66,1.28.86,1.94.45.5-.31.73-.89.64-1.44.87.95,2.56,2.44,5.12,3.15,1.94.54,3.63.42,4.62.26.28,0,.57,0,.85-.02.17.03.34.05.51.07.08.02.71.14.98.68ZM247.91,125.67c-.82-.05-1.8-.12-2.97-.21-3.76-.3-5.99-.94-7.27-1.68-3.23,3.22-11.83,6.77-16.26,8.45l-7.57,12.71c17.93,1.66,30.05-13.39,34.06-19.28Z"/>
  <path class="cls-5" d="M252.9,66.8c-1.38-.19-2.33,0-2.36.02-.06,0-.11.03-.16.05-.86-1.71-1.86-3.33-2.98-4.86,1.51.48,3.72,1.7,5.5,4.79Z"/>
  <path class="cls-1" d="M251.94,92.55c.24,0,.49-.07.7-.2-1.78,5.99-5.16,11.33-9.64,15.53-.08-.19-.19-.36-.34-.5-.3-.29-.72-.42-1.13-.38-.18.02-1.67.23-4.19,1.87,6.22-4.34,10.85-10.74,12.84-18.15l.38.1c-.09.38-.02.81.23,1.15.28.38.7.57,1.13.57Z"/>
  <path class="cls-1" d="M251.59,69.51c-.27,0-.43.05-.44.05-.68.16-1.35-.22-1.6-.83-.04-.08-.06-.15-.08-.23-.16-.69.24-1.4.91-1.62.44.86.83,1.74,1.21,2.64Z"/>
  <path class="cls-5" d="M250.68,121.85l-.04,1.04c-.28,0-.57,0-.85.02-.99.16-2.68.28-4.62-.26-2.56-.71-4.25-2.2-5.12-3.15-.04-.17-.09-.34-.2-.5-1.49-2.4-3.01-6.33-1.84-7.18.33-.23.64-.44.92-.63.54-.35,1.01-.6,1.41-.81.21,2.49,1.05,6.67,4.23,9.26,1.66,1.35,3.7,2.09,6.11,2.2Z"/>
  <path class="cls-3" d="M251.28,82.46c0,2.86-.38,5.63-1.1,8.27-2,7.42-6.63,13.81-12.84,18.15,0,0-.02,0-.04.03-.21.13-.43.28-.66.44,0,0-.02,0-.03.02-2.81,1.86-5.93,3.3-9.25,4.25.42-1.56.81-3.12,1.13-4.72,10.57-4.67,17.96-15.25,17.96-27.53,0-15.11-11.21-27.67-25.76-29.78-.25-.52-.53-1.02-.81-1.53,9.56.5,18.07,4.98,23.8,11.78,1.87,2.2,3.43,4.65,4.65,7.28,1.88,4.07,2.93,8.59,2.93,13.34Z"/>
  <path class="cls-1" d="M249.47,68.49c.02.08.04.16.08.23l-1.2.39c-1.22-2.63-2.78-5.07-4.65-7.28l.92-.56c.26.24.62.39,1.01.4.07,0,.76,0,1.77.33,1.13,1.53,2.12,3.15,2.98,4.86-.67.23-1.07.93-.91,1.62Z"/>
  <path class="cls-1" d="M244.94,125.46c1.17.08,2.16.16,2.97.21-4.01,5.89-16.14,20.94-34.06,19.28l7.57-12.71c4.43-1.68,13.03-5.23,16.26-8.45,1.28.74,3.51,1.38,7.27,1.68Z"/>
  <path class="cls-1" d="M247.4,62.01c-1.01-.33-1.71-.32-1.77-.33-.39,0-.75-.16-1.01-.4s-.42-.58-.43-.97c0-.56.3-1.06.77-1.29.88.95,1.7,1.95,2.45,2.99Z"/>
  <path class="cls-1" d="M244.61,61.28l-.92.56c-5.73-6.8-14.23-11.28-23.8-11.78-.53-.97-1.06-1.92-1.63-2.86,10.6.05,20.13,4.6,26.68,11.81-.47.23-.78.73-.77,1.29,0,.38.17.72.43.97Z"/>
  <path class="cls-1" d="M242.66,107.39c.15.14.26.31.34.5-1.28,1.2-2.63,2.31-4.07,3.31-.28.19-.59.39-.92.63-1.02.66-2.08,1.28-3.18,1.84-.17-1.6.17-3.13,1.53-4.12.08-.07.17-.12.25-.18,0,0,.02-.02.03-.02.23-.14.44-.29.66-.44.02-.02.03-.03.04-.03,2.52-1.63,4.01-1.85,4.19-1.87.41-.05.83.08,1.13.38Z"/>
  <path class="cls-1" d="M240.05,119.5c.09.55-.14,1.13-.64,1.44-.67.41-1.53.21-1.94-.45l-.06-.08c.09-.06.19-.11.28-.18.82-.52,1.5-.93,1.95-1.19.1.13.24.28.4.46Z"/>
  <path class="cls-1" d="M239.85,119c.1.16.16.33.2.5-.16-.18-.3-.33-.4-.46-.45.26-1.13.68-1.95,1.19-.09.07-.19.12-.28.18-.59-.97-2.33-3.98-2.58-6.75,1.1-.56,2.16-1.18,3.18-1.84-1.17.85.35,4.78,1.84,7.18Z"/>
  <path class="cls-1" d="M220.71,51.59c14.54,2.11,25.76,14.66,25.76,29.78,0,12.27-7.4,22.86-17.96,27.53.24-1.13.46-2.29.65-3.44,8.63-4.58,14.5-13.66,14.5-24.09s-6.33-20.19-15.48-24.59c-.03-.17-.09-.33-.18-.48-.23-.38-.63-.64-1.07-.68-.87-.7-2.86-2.12-5.63-2.86-.18-.39-.38-.78-.59-1.16Z"/>
  <path class="cls-1" d="M237.3,108.9c-.22.15-.43.3-.66.44.23-.16.45-.31.66-.44Z"/>
  <path class="cls-1" d="M236.62,109.36c-.08.06-.17.11-.25.18-1.36.98-1.7,2.51-1.53,4.12-2.63,1.36-5.44,2.41-8.38,3.08.33-1.03.63-2.08.91-3.13,3.33-.95,6.44-2.39,9.25-4.25Z"/>
  <path class="cls-1" d="M228.17,56.78c9.15,4.41,15.48,13.77,15.48,24.59s-5.88,19.51-14.5,24.09c.79-4.65,1.19-9.43,1.19-14.31,0-1.58-.05-3.15-.13-4.71-.45-8.45-2.13-16.58-4.86-24.21.83-1.65,1.79-3.23,2.6-4.43.21-.31.28-.68.23-1.02Z"/>
  <path class="cls-1" d="M170.41,268.42c50.82.89,89.83,6.09,89.83,12.39,0,6.91-47.12,12.52-105.25,12.52s-105.24-5.61-105.24-12.52c0-6.23,38.31-11.4,88.47-12.36,6.15.76,12.38,1.25,18.18,1.25,5.1,0,9.88-.38,14.02-1.28Z"/>
  <path class="cls-1" d="M230.2,86.44c.08,1.56.13,3.13.13,4.71,0,4.88-.4,9.66-1.19,14.31-1,.54-2.03,1.01-3.11,1.42.69-3.62,1.15-7.32,1.36-11.09,0-.11.02-.23.02-.35,0-.08.02-.17.02-.25h0c.58-1.19,1.14-2.34,1.64-3.45.77-1.69,1-3.47.89-5.27l.24-.02Z"/>
  <path class="cls-1" d="M230.2,86.44l-.24.02c-.25-3.7-2.03-7.5-3.73-10.74-.6-3.4-1.42-6.74-2.43-9.99.4-1.12.95-2.32,1.55-3.49,2.73,7.63,4.41,15.76,4.86,24.21Z"/>
  <path class="cls-1" d="M229.96,86.46c.11,1.8-.12,3.58-.89,5.27-.5,1.11-1.06,2.26-1.64,3.44.08-1.5.12-3.01.12-4.53,0-5.09-.45-10.08-1.32-14.93,1.71,3.24,3.48,7.04,3.73,10.74Z"/>
  <path class="cls-1" d="M229.14,105.45c-.19,1.15-.4,2.31-.65,3.44-1.02.46-2.07.85-3.14,1.18.24-1.06.47-2.13.68-3.21,1.08-.4,2.11-.87,3.11-1.42Z"/>
  <path class="cls-1" d="M228.17,56.78c.06.35-.02.71-.23,1.02-.81,1.2-1.76,2.78-2.6,4.43-.41-1.16-.85-2.32-1.32-3.45.27-.48.53-.9.76-1.27-.41-.31-1.01-.71-1.76-1.1-.23-.56-.49-1.13-.76-1.68,2.06.45,4.04,1.14,5.91,2.03Z"/>
  <path class="cls-1" d="M227.99,56.3c.08.15.15.31.18.48-1.87-.89-3.84-1.58-5.91-2.03-.31-.67-.63-1.33-.97-1.99,2.77.74,4.75,2.16,5.63,2.86.44.05.83.3,1.07.68Z"/>
  <path class="cls-3" d="M228.5,108.9c-.33,1.59-.71,3.16-1.13,4.72-1.02.29-2.06.53-3.12.73.41-1.41.78-2.83,1.12-4.27,1.07-.33,2.12-.72,3.14-1.18Z"/>
  <path class="cls-1" d="M227.55,90.64c0,1.52-.04,3.03-.12,4.53h0s0,.02,0,.02c.08-1.34.1-2.68.1-4.04,0-1.54-.04-3.07-.13-4.58-.2-3.83-.67-7.58-1.38-11.26.07.13.14.26.22.4.87,4.85,1.32,9.84,1.32,14.93Z"/>
  <path class="cls-1" d="M227.52,91.15c0,1.36-.03,2.7-.1,4.04-1.12,2.23-2.33,4.52-3.44,6.57.34-2.41.56-4.86.67-7.32.67-1.32,1.3-2.63,1.87-3.87.56-1.23.73-2.57.63-3.98l.25-.02c.09,1.51.13,3.04.13,4.58Z"/>
  <path class="cls-1" d="M227.43,95.18c0,.08,0,.17-.02.25,0-.08,0-.16,0-.24h0Z"/>
  <path class="cls-1" d="M227.42,95.19c0,.08,0,.17,0,.24,0,.11,0,.23-.02.35-.23,3.77-.69,7.48-1.42,11.11-.99.38-2.01.7-3.06.95.43-2,.79-4.02,1.06-6.08,1.12-2.05,2.33-4.34,3.44-6.57Z"/>
  <path class="cls-1" d="M227.39,86.57l-.25.02c-.24-3.3-1.98-6.89-3.61-9.96-.64-3.72-1.53-7.36-2.66-10.9.36-1.22.86-2.48,1.43-3.66.5,1.32.96,2.66,1.39,4.02-.5,1.44-.71,2.71-.48,3.56.27.97,1.1,2.48,2.04,4.22.25.46.51.94.77,1.43.71,3.68,1.18,7.43,1.38,11.26Z"/>
  <path class="cls-2" d="M227.14,86.59c.1,1.41-.07,2.75-.63,3.98-.56,1.24-1.2,2.55-1.87,3.87.07-1.26.09-2.52.09-3.8,0-4.77-.41-9.45-1.21-14.01,1.63,3.07,3.37,6.66,3.61,9.96Z"/>
  <path class="cls-1" d="M227.36,113.61c-.28,1.05-.58,2.1-.91,3.13-1.04.25-2.09.45-3.15.6.34-.98.65-1.99.94-3,1.06-.2,2.1-.44,3.12-.73Z"/>
  <path class="cls-1" d="M226.23,75.71c-.08-.14-.15-.27-.22-.4-.6-3.14-1.39-6.22-2.33-9.22.03-.12.08-.24.12-.38,1.01,3.25,1.83,6.59,2.43,9.99Z"/>
  <path class="cls-1" d="M225.97,106.89s.04,0,.06-.02c-.21,1.08-.43,2.15-.68,3.21-.02.02-.05.02-.07.03.25-1.06.49-2.14.68-3.22Z"/>
  <path class="cls-1" d="M225.97,106.89c-.2,1.08-.43,2.16-.68,3.22-1.01.32-2.04.58-3.09.79.26-1,.5-2.03.72-3.05h0c1.05-.25,2.06-.57,3.06-.96Z"/>
  <path class="cls-1" d="M226.01,75.31c-.26-.5-.52-.98-.77-1.43-.95-1.74-1.77-3.25-2.04-4.22-.23-.85-.02-2.12.48-3.56.95,3,1.73,6.08,2.33,9.22Z"/>
  <path class="cls-2" d="M224.74,90.64c0,1.28-.03,2.54-.09,3.8-2.59,5.16-5.65,10.54-6.68,12.32-4.21.41-8.4.28-9.95-.28-.14-.06-.25-.1-.35-.16,1.03-2.63,5.11-13.04,8.25-19.75,2.95-6.3-1.55-9.8-4.83-12.36-1.47-1.13-2.85-2.21-3.41-3.3-1.05-2.05,2.78-9.53,7-15.45.68-.18,1.33-.29,1.96-.35,1.65,3.42,3.07,6.98,4.23,10.62-.52,1.72-.73,3.38-.37,4.69.36,1.27,1.24,2.91,2.27,4.8.24.46.51.93.76,1.42.8,4.56,1.21,9.24,1.21,14.01Z"/>
  <path class="cls-3" d="M225.29,110.1c-.34,1.43-.71,2.84-1.12,4.25-1,.19-2.03.32-3.07.41.39-1.28.76-2.57,1.09-3.87,1.05-.21,2.08-.47,3.09-.79Z"/>
  <path class="cls-1" d="M224.02,58.78c.47,1.13.91,2.29,1.32,3.45-.6,1.17-1.14,2.37-1.55,3.49-.4-1.35-.85-2.68-1.34-4,.53-1.08,1.07-2.08,1.57-2.93Z"/>
  <path class="cls-1" d="M224.17,114.35s.05,0,.07,0c-.29,1.01-.6,2.02-.94,3-.03,0-.05,0-.08,0,.34-.99.65-2,.95-3Z"/>
  <path class="cls-1" d="M224.64,94.44c-.1,2.47-.33,4.91-.67,7.32-1.67,3.08-3.12,5.61-3.69,6.59-1.28.2-2.58.29-3.91.29-3.02,0-5.92-.49-8.63-1.41l.26-.76c1.55.56,5.74.69,9.95.28,1.03-1.78,4.1-7.16,6.68-12.32Z"/>
  <path class="cls-1" d="M223.8,65.72c-.05.13-.09.25-.12.38-.43-1.36-.89-2.7-1.39-4.02.06-.12.11-.23.17-.36.49,1.32.94,2.65,1.34,4Z"/>
  <path class="cls-1" d="M220.28,108.35c.57-.98,2.03-3.52,3.69-6.59-.27,2.05-.63,4.08-1.06,6.08h0c-.86.23-1.73.39-2.63.52Z"/>
  <path class="cls-1" d="M223.3,117.34c1.06-.15,2.11-.35,3.15-.6-1.33,4.3-3.01,8.47-4.98,12.45-.5.2-1,.39-1.51.58-.3.11-.55.33-.71.6l-8.92,14.98c-.2.33-.24.73-.13,1.1-10.69,12.76-25,22.39-41.33,27.29-.04-.29-.17-.55-.36-.76,19.67-7.28,36.1-20.83,46.58-38.09.08-.12.15-.24.23-.37,3.28-5.36,5.97-11.12,7.98-17.19Z"/>
  <path class="cls-2" d="M223.02,56.42c.36.78.69,1.57,1,2.36-.5.85-1.04,1.86-1.57,2.93-.79-2.18-1.67-4.33-2.63-6.43,1.25.25,2.33.68,3.2,1.13Z"/>
  <path class="cls-1" d="M224.17,114.35c-.3,1-.61,2.01-.95,3-1.01.14-2.03.24-3.08.3.35-.96.66-1.92.96-2.89,1.04-.09,2.06-.23,3.07-.41Z"/>
  <path class="cls-1" d="M223.53,76.63c-.25-.49-.52-.96-.76-1.42-1.03-1.89-1.91-3.53-2.27-4.8-.37-1.31-.15-2.97.37-4.69,1.13,3.54,2.03,7.18,2.66,10.9Z"/>
  <path class="cls-1" d="M222.26,54.74c.27.55.53,1.12.76,1.68-.87-.45-1.95-.88-3.2-1.13-.15-.35-.31-.68-.47-1.02.98.1,1.96.26,2.91.48Z"/>
  <path class="cls-1" d="M222.92,107.85c-.23,1.02-.46,2.04-.72,3.05-1.88.37-3.83.56-5.82.56-9.36,0-17.73-4.29-23.25-11.02.53-.87,1.02-1.76,1.47-2.68,2.65,3.53,6.15,6.39,10.18,8.29-.07.18-.08.36-.07.54.06.49.27,1.19,1.02,1.79,1.42,1.13,4.53,1.43,7.41,1.43,2.6,0,5.01-.23,5.83-.33.44-.06.83-.31,1.06-.69,0,0,.09-.17.25-.44.9-.12,1.77-.29,2.63-.51Z"/>
  <path class="cls-2" d="M222.46,61.72c-.06.12-.11.23-.17.36-.87-2.34-1.85-4.63-2.93-6.87.16.03.31.06.46.08.97,2.1,1.85,4.25,2.63,6.43Z"/>
  <path class="cls-1" d="M221.3,52.75c.34.66.66,1.32.97,1.99-.95-.22-1.92-.38-2.91-.48-.32-.67-.65-1.33-.98-1.99,1.05.06,2.03.23,2.93.48Z"/>
  <path class="cls-3" d="M222.2,110.89c-.33,1.3-.69,2.6-1.09,3.87-.98.08-1.99.13-2.99.13-10.65,0-20.14-4.93-26.21-12.58.42-.61.83-1.24,1.22-1.88,5.52,6.72,13.89,11.02,23.25,11.02,1.99,0,3.94-.2,5.82-.56Z"/>
  <path class="cls-2" d="M222.29,62.07c-.56,1.18-1.07,2.44-1.43,3.66-1.16-3.65-2.58-7.2-4.23-10.62.98-.08,1.88-.04,2.73.09,1.08,2.24,2.05,4.53,2.93,6.87Z"/>
  <path class="cls-1" d="M220.71,51.59c.22.38.41.77.59,1.16-.9-.25-1.88-.42-2.93-.48-.15-.32-.32-.64-.5-.96.96.05,1.9.14,2.83.27Z"/>
  <path class="cls-1" d="M220.15,117.65c1.04-.06,2.06-.16,3.08-.3-2,6.03-4.66,11.79-7.9,17.18-.08.12-.14.24-.23.37-12.58,20.35-33.68,34.92-58.28,38.69,29.78-7.02,53.71-28.38,63.33-55.94Z"/>
  <path class="cls-1" d="M219.97,129.78c.51-.19,1.01-.38,1.51-.58-3.07,6.22-6.85,12-11.27,17.26-.11-.37-.07-.77.13-1.1l8.92-14.98c.16-.27.41-.49.71-.6Z"/>
  <path class="cls-1" d="M221.11,114.76c-.3.97-.61,1.93-.96,2.89-.68.04-1.35.06-2.03.06-11.28,0-21.38-5.12-27.97-13.11.62-.74,1.2-1.5,1.75-2.29,6.08,7.65,15.56,12.58,26.21,12.58,1,0,2.01-.05,2.99-.13Z"/>
  <path class="cls-1" d="M220.28,108.35c-.16.27-.24.43-.25.44-.23.38-.62.64-1.06.69-.83.09-3.23.33-5.83.33-2.88,0-5.99-.3-7.41-1.43-.75-.6-.97-1.3-1.02-1.79-.02-.19,0-.37.07-.54.96.46,1.95.86,2.97,1.19,2.71.92,5.61,1.41,8.63,1.41,1.33,0,2.63-.09,3.91-.29Z"/>
  <path class="cls-1" d="M219.9,50.06c.28.51.55,1.01.81,1.53-.93-.13-1.88-.23-2.83-.27-.22-.43-.44-.86-.68-1.29.31,0,.62,0,.93,0,.6,0,1.19.02,1.78.05Z"/>
  <path class="cls-1" d="M219.82,55.28c-.15-.03-.3-.06-.46-.08-.15-.33-.31-.66-.48-.98.16,0,.32.02.47.05.16.34.32.68.47,1.02Z"/>
  <path class="cls-1" d="M218.89,54.22c.17.33.33.66.48.98-.84-.13-1.75-.18-2.73-.09-.16-.34-.33-.68-.5-1,.08,0,.16,0,.23,0,.84,0,1.69.04,2.51.12Z"/>
  <path class="cls-1" d="M219.36,54.26c-.15-.03-.31-.04-.47-.05-.32-.66-.66-1.31-1.01-1.96.17,0,.34,0,.5.02.34.66.67,1.32.98,1.99Z"/>
  <path class="cls-4" d="M218.12,117.71c.68,0,1.36-.02,2.03-.06-9.62,27.56-33.56,48.91-63.33,55.94,0,0-.02.02-.03,0-4.13.64-8.37.97-12.69.97-46,0-83.42-37.42-83.42-83.42S98.11,7.73,144.11,7.73c8.94,0,17.54,1.42,25.61,4.03,18.02,7.19,33.07,19.88,42.84,35.85-9,1.38-16.91,6.04-22.41,12.69-6.59-7.99-16.69-13.11-27.97-13.11-4.51,0-8.83.82-12.82,2.32-5.69.48-29.37,2.71-35.25,6.71-1.85,1.26-6,4.35-9.62,8.94-.25-.46-.76-.74-1.32-.7-.41.03-10.14.79-11.89,8.03-.02.1-.07.23-.1.38-.12.38-.28.91-.41,1.6-.36,1.88-.24,3.4-.1,4.69.3,2.79.53,5.01,1.34,7.25,1.74,4.87,5.43,8.1,8.21,9.95.24.16.51.23.78.23.45,0,.9-.22,1.17-.63,0-.02.02-.03.03-.05,1.58,2.66,3.63,5.32,6.12,7.95l.1.1c.16.13,3.82,3.24,7.61,4.33,3.57,1.01,26.84,5.04,27.83,5.21.08,0,.17.02.24.02.26,0,.52-.08.73-.21,5.15,2.79,11.06,4.38,17.35,4.38,11.28,0,21.38-5.12,27.97-13.11,6.59,7.99,16.69,13.11,27.97,13.11ZM197.47,42.56c.67-.39.89-1.26.5-1.93-3.08-5.18-6.33-7.7-9.76-7.5-5.34.31-8.53,7.35-8.66,7.65-.32.71,0,1.54.71,1.86.7.31,1.54,0,1.86-.71.71-1.6,3.24-5.81,6.26-5.99,2.25-.13,4.72,2,7.17,6.13.26.45.73.69,1.21.69.24,0,.49-.07.71-.2ZM193.47,139.84c.34-.69.06-1.54-.65-1.88-2.44-1.2-3.84-3.01-4.64-4.85-.8-1.85-.98-3.72-.98-5.07,0-1.07.12-1.8.14-1.9.13-.76-.38-1.49-1.15-1.62-.76-.14-1.49.38-1.62,1.14-.31,1.76-.31,4.5.57,7.25-.06.03-.11.08-.16.12-21.14,20.29-52.59,3.62-58.25.36,1.01-3.11.42-6.25-.35-8.04-.31-.7-1.13-1.03-1.85-.73-.71.3-1.04,1.13-.74,1.85.08.2,1.48,3.63-.09,6.95-.55,1.18-1.49,2.34-3,3.35-.65.43-.82,1.3-.39,1.95.27.41.72.63,1.17.63.27,0,.54-.08.78-.23,1.43-.95,2.48-2.03,3.24-3.18,4.1,2.34,18.4,9.82,34,9.82,9.09,0,18.63-2.54,26.84-10.12,1.12,1.91,2.78,3.66,5.25,4.87.2.1.41.14.62.14.53,0,1.02-.28,1.27-.79ZM132.28,41.76c.69-.35.98-1.19.63-1.88-2.66-5.28-5.45-7.75-8.47-7.59-4.7.24-7.36,6.96-7.65,7.73-.28.72.09,1.54.82,1.81.72.28,1.54-.08,1.81-.82.57-1.49,2.74-5.78,5.18-5.92,1.71-.09,3.79,2.06,5.8,6.06.24.49.74.77,1.26.77.22,0,.43-.05.63-.15ZM119.51,119.75c0-7.03-6.98-12.75-15.55-12.75s-15.55,5.72-15.55,12.75,6.98,12.75,15.55,12.75,15.55-5.72,15.55-12.75Z"/>
  <path class="cls-1" d="M219.9,50.06c-.59-.03-1.18-.05-1.78-.05-.31,0-.62,0-.93,0-.49-.92-1.01-1.84-1.56-2.74.83-.06,1.65-.08,2.48-.08h.15c.57.94,1.11,1.89,1.63,2.86Z"/>
  <path class="cls-1" d="M217.87,52.26c.36.65.69,1.3,1.01,1.96-.83-.08-1.67-.12-2.51-.12-.08,0-.16,0-.23,0-.27-.56-.55-1.12-.84-1.66.9-.16,1.76-.22,2.58-.19Z"/>
  <path class="cls-1" d="M217.87,51.32c.18.32.35.64.5.96-.16-.02-.33-.02-.5-.02-.16-.33-.33-.64-.51-.96.17,0,.34,0,.51.02Z"/>
  <path class="cls-1" d="M217.71,273.29c1.19,1.03,2.78,4.01.26,7.92-1.69,2.62-12.23,3.28-22.45,3.28-6,0-11.89-.23-15.82-.42-.23,0-.43-.08-.61-.18.38-.28.7-.61.99-.97.42-.53.7-1.09.9-1.61,15.56.71,32.91.3,34.62-1.65,1.36-2.1.85-3.41.48-3.97.08-.04.17-.09.25-.14.67-.4.87-1.27.48-1.92.12-.2.19-.42.2-.67.24.04.48.15.68.32Z"/>
  <path class="cls-1" d="M218.27,47.2h-.15c-.83,0-1.66.03-2.48.08-10.09-17.07-25.96-30.63-45.05-38.21,20.14,6.51,37.05,20.24,47.69,38.12Z"/>
  <path class="cls-1" d="M217.87,51.32c-.17,0-.34-.02-.51-.02-.23-.42-.46-.83-.7-1.25.18-.02.35-.02.53-.03.24.43.47.86.68,1.29Z"/>
  <path class="cls-1" d="M217.87,52.26c-.82-.03-1.68.03-2.58.19-.19-.38-.39-.75-.6-1.12.55-.03,1.12-.05,1.68-.05.33,0,.67,0,.99.02.18.32.35.63.51.96Z"/>
  <path class="cls-1" d="M216.66,50.05c.24.41.48.83.7,1.25-.33,0-.67-.02-.99-.02-.56,0-1.13.02-1.68.05-.19-.37-.38-.72-.59-1.07.84-.1,1.7-.18,2.56-.21Z"/>
  <path class="cls-1" d="M217.19,50.02c-.18,0-.35,0-.53.03-.51-.92-1.05-1.83-1.61-2.72.2-.02.38-.04.58-.05.54.9,1.07,1.82,1.56,2.74Z"/>
  <path class="cls-1" d="M217.01,272.71c0,.08.02.18.02.26-.27-.05-.55,0-.81.11-.41-.2-.91-.19-1.33.07-.18.11-.38.22-.56.31-.05-.09-.08-.2-.09-.31l-.48-3.04c-1.36-6.09-4.65-10.77-9.77-13.82-10.68-6.34-26.84-4.28-34.79-2.7l-.14-.69c.77-.09,1.32-.8,1.22-1.57-.02-.14-.04-.36-.27-.79,8.68-1.61,24.41-3.21,35.42,3.33,5.81,3.45,9.54,8.74,11.1,15.71l.49,3.12Z"/>
  <path class="cls-1" d="M216.22,273.08c.25-.12.53-.16.81-.11,0,.24-.08.47-.2.67,0,0,0,0,0,0-.15-.24-.36-.43-.6-.54Z"/>
  <path class="cls-1" d="M216.83,273.64c.39.66.19,1.52-.48,1.92-.08.05-.17.1-.25.14-.11-.17-.21-.26-.24-.3-.31-.29-.46-.68-.45-1.08.08,0,.14.02.22.02.07,0,.14,0,.22-.02.43-.07.79-.33.99-.68Z"/>
  <path class="cls-1" d="M216.82,273.63s0,0,0,0c-.21.36-.56.62-.99.68-.08,0-.15.02-.22.02-.08,0-.14,0-.22-.02,0-.32.12-.65.35-.9.13-.15.29-.26.47-.34.24.11.45.3.6.54Z"/>
  <path class="cls-1" d="M216.14,54.1c.17.33.34.67.5,1-.63.06-1.28.17-1.96.35-4.23,5.93-8.05,13.4-7,15.45.56,1.09,1.94,2.17,3.41,3.3,3.28,2.56,7.78,6.06,4.83,12.36-3.14,6.71-7.22,17.12-8.25,19.75.09.06.21.1.35.16l-.26.76c-1.02-.33-2.02-.73-2.97-1.19,0-.04,0-.08.03-.11.05-.12,4.92-12.77,8.57-20.57,1.86-3.98-.28-6.03-4.02-8.94-1.72-1.33-3.33-2.6-4.17-4.23-2.17-4.2,4.16-14.02,6.75-17.73,1.37-.23,2.78-.37,4.21-.37Z"/>
  <path class="cls-5" d="M216.1,275.7c.38.55.88,1.87-.48,3.97-1.72,1.95-19.06,2.36-34.62,1.65.39-1.1.38-2.08.35-2.56,0-.08-.02-.17-.05-.24l-.11-.43c2.9.43,9.2,1.22,15.97,1.22s14.15-.81,18.95-3.6Z"/>
  <path class="cls-1" d="M216.22,273.08c-.18.08-.34.19-.47.34-.23.25-.34.58-.35.9-.49-.08-.91-.4-1.08-.86.19-.09.38-.2.56-.31.42-.25.92-.26,1.33-.07Z"/>
  <path class="cls-1" d="M215.3,52.44c.29.54.57,1.1.84,1.66-1.43,0-2.84.13-4.21.37.31-.45.57-.81.75-1.06.19-.25.44-.43.73-.53.65-.2,1.28-.35,1.88-.44Z"/>
  <path class="cls-1" d="M215.86,275.4s.13.13.24.3c-4.8,2.79-12.11,3.6-18.95,3.6s-13.07-.79-15.97-1.22l-.8-2.97c3.05.49,24.28,3.61,33.94-1.65.17.46.59.79,1.08.86,0,.39.14.79.45,1.08Z"/>
  <path class="cls-1" d="M215.05,47.33c.56.89,1.11,1.8,1.61,2.72-.86.03-1.72.1-2.56.21-.5-.89-1.01-1.77-1.55-2.64.83-.12,1.66-.22,2.49-.28Z"/>
  <path class="cls-1" d="M215.63,47.29c-.2,0-.38.03-.58.05-10.31-16.67-26.35-29.44-45.33-35.57-10.12-4.05-21.18-6.36-32.77-6.54,2.36-.2,4.74-.3,7.15-.3,9.24,0,18.13,1.46,26.48,4.16,19.09,7.58,34.96,21.13,45.05,38.21Z"/>
  <path class="cls-3" d="M214.7,51.33c.21.37.41.74.6,1.12-.61.09-1.24.24-1.88.44-.29.09-.54.27-.73.53-.18.25-.44.61-.75,1.06-7.44,1.21-13.88,5.46-17.99,11.42-.49-.9-1.01-1.77-1.58-2.62,5.18-6.86,13.23-11.44,22.34-11.94Z"/>
  <path class="cls-3" d="M214.24,273.15c.02.11.05.22.09.31-9.66,5.26-30.89,2.14-33.94,1.65h0c-.02-.08-.05-.15-.08-.22.34-1.4-.02-2.77-1.02-3.91-.36-.39-.93-1.26-1.59-2.26-2.41-3.62-6.52-9.79-12.86-14.15.68-.18,2.23-.56,4.36-.98,7.95-1.58,24.11-3.64,34.79,2.7,5.12,3.05,8.41,7.73,9.77,13.82l.48,3.04Z"/>
  <path class="cls-1" d="M209.35,76.43c3.74,2.91,5.88,4.96,4.02,8.94-3.65,7.8-8.52,20.45-8.57,20.57-.02.04-.03.08-.03.11-4.03-1.89-7.53-4.76-10.18-8.29,2.29-4.63,3.57-9.82,3.57-15.3,0-5.99-1.53-11.63-4.23-16.57,4.12-5.96,10.55-10.21,17.99-11.42-2.59,3.71-8.92,13.53-6.75,17.73.84,1.63,2.46,2.9,4.17,4.23Z"/>
  <path class="cls-1" d="M212.56,47.62c.53.87,1.05,1.75,1.55,2.64-9,1.06-16.9,5.66-22.2,12.34-.55-.79-1.13-1.55-1.75-2.29,5.49-6.66,13.41-11.32,22.41-12.69Z"/>
  <path class="cls-1" d="M215.05,47.33c-.83.07-1.67.16-2.49.28-9.77-15.98-24.82-28.66-42.84-35.85,18.99,6.13,35.02,18.9,45.33,35.57Z"/>
  <path class="cls-1" d="M156.82,173.59c24.6-3.77,45.7-18.34,58.28-38.69-10.48,17.26-26.91,30.82-46.58,38.09-.25-.27-.61-.44-1-.45-.79,0-1.38.56-1.43,1.31-2.89.99-5.85,1.84-8.87,2.53-1.61.24-3.23.45-4.87.59-.19-.52-.69-.88-1.28-.89-.67,0-1.25.47-1.39,1.11-1.85.13-3.7.19-5.58.19-5.76,0-11.37-.56-16.81-1.65,2.66.23,5.36.36,8.09.36,7.38,0,14.55-.86,21.4-2.48,0,0,.02,0,.03,0Z"/>
  <path class="cls-1" d="M197.97,40.63c.39.68.17,1.54-.5,1.93-.23.13-.47.2-.71.2-.48,0-.95-.24-1.21-.69-2.46-4.13-4.92-6.26-7.17-6.13-3.02.18-5.55,4.39-6.26,5.99-.32.7-1.15,1.02-1.86.71-.71-.32-1.03-1.14-.71-1.86.13-.3,3.32-7.34,8.66-7.65,3.43-.2,6.68,2.33,9.76,7.5Z"/>
  <path class="cls-1" d="M198.17,82.46c0,5.48-1.28,10.67-3.57,15.3-.67-.87-1.28-1.8-1.82-2.76,1.66-3.86,2.58-8.1,2.58-12.54,0-4.91-1.13-9.57-3.12-13.74.5-.98,1.07-1.92,1.71-2.82,2.7,4.94,4.23,10.58,4.23,16.57Z"/>
  <path class="cls-1" d="M192.82,137.97c.7.34.98,1.18.65,1.88-.24.51-.74.79-1.27.79-.21,0-.42-.04-.62-.14-2.47-1.21-4.13-2.95-5.25-4.87l.59-.56c.49-.47.56-1.21.21-1.77l1.05-.17c.8,1.84,2.2,3.65,4.64,4.85Z"/>
  <path class="cls-1" d="M194.59,97.76c-.45.92-.94,1.81-1.47,2.68-.65-.79-1.26-1.6-1.82-2.46.53-.97,1.03-1.96,1.47-2.98.53.96,1.15,1.88,1.82,2.76Z"/>
  <path class="cls-3" d="M195.35,82.46c0,4.44-.92,8.68-2.58,12.54-.36-.58-.68-1.18-.98-1.79,1.17-3.24,1.81-6.74,1.81-10.38,0-4.23-.86-8.26-2.42-11.93h0c.31-.76.66-1.48,1.04-2.19,2,4.17,3.12,8.83,3.12,13.74Z"/>
  <path class="cls-1" d="M192.35,63.27c.57.84,1.1,1.72,1.58,2.62-.64.9-1.21,1.85-1.71,2.82-.49-1-1.01-1.97-1.59-2.92.53-.87,1.11-1.71,1.72-2.52Z"/>
  <path class="cls-3" d="M191.8,93.21c.3.61.62,1.21.98,1.79-.44,1.02-.94,2.02-1.47,2.98-.32-.48-.63-.97-.92-1.46.53-1.07,1.01-2.18,1.42-3.31Z"/>
  <path class="cls-1" d="M191.9,62.6c.15.23.31.45.45.68-.61.82-1.18,1.65-1.72,2.52-.16-.25-.32-.51-.49-.76.54-.84,1.13-1.65,1.75-2.44Z"/>
  <path class="cls-1" d="M193.12,100.44c-.38.64-.8,1.27-1.22,1.88-.62-.79-1.21-1.59-1.75-2.44.4-.62.79-1.25,1.15-1.89.56.85,1.17,1.67,1.82,2.46Z"/>
  <path class="cls-1" d="M193.61,82.83c0,3.64-.64,7.13-1.81,10.38-.68-1.41-1.24-2.87-1.66-4.4.43-1.92.66-3.93.66-5.98,0-2.59-.36-5.09-1.02-7.46.34-1.54.82-3.04,1.42-4.46,1.56,3.67,2.42,7.7,2.42,11.93Z"/>
  <path class="cls-3" d="M192.23,68.71c-.38.71-.73,1.43-1.04,2.18-.47-1.12-1-2.19-1.59-3.23.32-.64.67-1.27,1.04-1.88.58.95,1.11,1.91,1.59,2.92Z"/>
  <path class="cls-1" d="M191.19,70.9h0c-.6,1.43-1.08,2.93-1.42,4.47-.42-1.52-.97-2.99-1.63-4.4.41-1.13.9-2.23,1.45-3.3.59,1.03,1.13,2.11,1.59,3.23Z"/>
  <path class="cls-3" d="M190.38,96.52c.29.5.6.98.92,1.46-.37.65-.75,1.28-1.15,1.89-.3-.45-.58-.91-.85-1.37.39-.65.75-1.31,1.09-1.99Z"/>
  <path class="cls-1" d="M191.8,93.21c-.4,1.13-.88,2.24-1.42,3.31-.6-1.04-1.15-2.11-1.63-3.23.59-1.43,1.06-2.93,1.39-4.48.42,1.53.98,2.99,1.66,4.4Z"/>
  <path class="cls-3" d="M190.15,65.04c.17.25.33.51.49.76-.38.61-.72,1.24-1.04,1.88-.17-.3-.34-.59-.53-.87.34-.6.7-1.19,1.08-1.76Z"/>
  <path class="cls-1" d="M190.15,60.31c.62.74,1.2,1.5,1.75,2.29-.62.79-1.21,1.59-1.75,2.44-.54-.84-1.13-1.65-1.75-2.44.55-.79,1.13-1.55,1.75-2.29Z"/>
  <path class="cls-1" d="M191.9,102.31c-.55.79-1.13,1.55-1.75,2.29-.62-.74-1.2-1.5-1.75-2.29.62-.79,1.21-1.59,1.75-2.44.54.84,1.13,1.65,1.75,2.44Z"/>
  <path class="cls-1" d="M190.8,82.83c0,2.05-.23,4.06-.66,5.98-.68-2.36-1.04-4.87-1.04-7.44,0-2.06.23-4.07.68-6,.67,2.37,1.02,4.88,1.02,7.46Z"/>
  <path class="cls-1" d="M190.38,96.52c-.34.68-.69,1.34-1.09,1.99-.57-.98-1.09-1.99-1.56-3.02.38-.71.71-1.44,1.01-2.19.48,1.12,1.03,2.18,1.63,3.23Z"/>
  <path class="cls-3" d="M190.15,65.04c-.38.57-.74,1.16-1.08,1.76-.53-.89-1.13-1.73-1.75-2.56.35-.56.7-1.11,1.08-1.64.62.79,1.21,1.59,1.75,2.44Z"/>
  <path class="cls-3" d="M189.3,98.51c.27.46.55.92.85,1.37-.54.84-1.13,1.65-1.75,2.44-.28-.4-.55-.81-.82-1.23.62-.83,1.19-1.69,1.72-2.58Z"/>
  <path class="cls-1" d="M189.07,66.8c.19.28.36.57.53.87-.55,1.07-1.04,2.17-1.45,3.3-.18-.38-.38-.77-.58-1.14.45-1.04.96-2.05,1.51-3.03Z"/>
  <path class="cls-1" d="M189.78,75.37c-.45,1.93-.68,3.94-.68,6,0,2.58.36,5.08,1.04,7.44-.33,1.55-.8,3.05-1.39,4.48-1.58-3.66-2.47-7.69-2.47-11.93,0-3.66.66-7.16,1.86-10.4.67,1.41,1.21,2.88,1.63,4.4Z"/>
  <path class="cls-1" d="M190.15,60.31c-.62.74-1.2,1.5-1.75,2.29-6.08-7.65-15.56-12.58-26.21-12.58-3.62,0-7.11.57-10.37,1.62.2-.25.3-.58.27-.93-.07-.77-.74-1.35-1.52-1.29-.12,0-.54.05-1.2.1,3.98-1.5,8.31-2.32,12.82-2.32,11.28,0,21.38,5.12,27.97,13.11Z"/>
  <path class="cls-1" d="M188.4,102.31c.55.79,1.13,1.55,1.75,2.29-6.59,7.99-16.69,13.11-27.97,13.11-6.28,0-12.2-1.58-17.35-4.38.34-.2.58-.54.66-.96.08-.51-.11-1-.48-1.31l.38-.64c4.92,2.84,10.67,4.47,16.79,4.47,10.65,0,20.14-4.93,26.21-12.58Z"/>
  <path class="cls-1" d="M188.18,133.12l-1.05.17c-.05-.08-.1-.15-.17-.22-.5-.52-1.27-.57-1.83-.16-.88-2.75-.88-5.48-.57-7.25.13-.77.86-1.28,1.62-1.14.77.13,1.28.86,1.15,1.62-.02.1-.14.83-.14,1.9,0,1.35.19,3.23.98,5.07Z"/>
  <path class="cls-1" d="M187.56,69.83c.21.38.4.76.58,1.14-1.2,3.23-1.86,6.74-1.86,10.4,0,4.24.88,8.27,2.47,11.93-.3.75-.63,1.48-1.01,2.19-1.79-3.98-2.79-8.4-2.79-13.03s.94-8.75,2.62-12.63Z"/>
  <path class="cls-1" d="M189.3,98.51c-.53.89-1.1,1.75-1.72,2.58-.55-.86-1.07-1.76-1.55-2.68.63-.93,1.21-1.9,1.71-2.92.47,1.03.98,2.04,1.56,3.02Z"/>
  <path class="cls-1" d="M189.07,66.8c-.55.98-1.06,1.99-1.51,3.03-.52-.99-1.11-1.96-1.75-2.88.46-.93.97-1.84,1.51-2.71.63.83,1.22,1.67,1.75,2.56Z"/>
  <path class="cls-3" d="M187.58,101.09c.26.42.53.83.82,1.23-6.08,7.65-15.56,12.58-26.21,12.58-6.12,0-11.87-1.63-16.79-4.47-9.8-5.64-16.38-16.07-16.38-27.97,0-13.68,8.7-25.41,20.97-30.17h0c.28-.03.54-.05.8-.07.42-.03.79-.25,1.02-.58,3.26-1.05,6.75-1.62,10.37-1.62,10.65,0,20.14,4.93,26.21,12.58-.38.53-.73,1.08-1.08,1.64-5.61-7.35-14.47-12.1-24.41-12.1-2.07,0-4.1.21-6.06.6-14.04,2.82-24.64,15.24-24.64,30.1,0,13.23,8.41,24.53,20.15,28.84,3.29,1.21,6.84,1.87,10.55,1.87,10.11,0,19.08-4.9,24.68-12.45Z"/>
  <path class="cls-1" d="M187.13,133.29c.36.56.28,1.3-.21,1.77l-.59.56c-.52-.88-.9-1.79-1.2-2.71.56-.41,1.33-.36,1.83.16.07.07.12.14.17.22Z"/>
  <path class="cls-1" d="M187.74,95.49c-.5,1.01-1.08,1.99-1.71,2.92-2.49-4.79-3.9-10.21-3.9-15.95s1.32-10.83,3.68-15.51c.65.92,1.24,1.88,1.75,2.88-1.68,3.88-2.62,8.15-2.62,12.63s1,9.05,2.79,13.03Z"/>
  <path class="cls-1" d="M187.32,64.24c-.54.87-1.05,1.78-1.51,2.71-3.17-4.58-7.69-8.16-12.97-10.16.21-.34.24-.74.12-1.13-.16-.51-.61-.88-1.13-.96-1.94-.27-11.64-1.58-14.28-1.03-.17-.03-.35-.03-.52,0l-.19-.95c1.96-.39,3.98-.6,6.06-.6,9.95,0,18.81,4.75,24.41,12.1Z"/>
  <path class="cls-1" d="M186.03,98.4c.48.92.99,1.82,1.55,2.68-5.6,7.55-14.57,12.45-24.68,12.45-3.7,0-7.26-.66-10.55-1.87l.36-.93c1.02.36,2.25.62,3.67.7.62.04,1.18.06,1.7.06,2.4,0,3.77-.35,4.54-.79.09,0,.2,0,.29,0,9.62,0,18.11-4.89,23.13-12.32Z"/>
  <path class="cls-1" d="M185.13,132.92c.3.92.68,1.83,1.2,2.71-8.21,7.58-17.75,10.12-26.84,10.12-15.6,0-29.9-7.47-34-9.82.55-.83.95-1.68,1.23-2.53,5.66,3.26,37.11,19.93,58.25-.36.05-.05.1-.09.16-.12Z"/>
  <path class="cls-1" d="M172.84,56.78c5.28,2.01,9.8,5.59,12.97,10.16-2.35,4.68-3.68,9.95-3.68,15.51s1.41,11.16,3.9,15.95c-5.02,7.43-13.51,12.32-23.13,12.32-.09,0-.2,0-.29,0,.37-.21.59-.43.74-.65.02-.03.04-.06.06-.09.58-1.02,14.12-25.27,5.46-34.63-7.02-7.6,3.3-17.8,3.74-18.24.09-.09.18-.21.23-.32Z"/>
  <path class="cls-1" d="M181.35,278.76c.04.48.05,1.46-.35,2.56-.38-.02-.77-.04-1.14-.06-.31-.02-.6.07-.84.23l-1.31-.08c.07-.07.13-.14.2-.23.63-.79.67-1.69.66-2.07l-.26-.98c.22-.2.41-.4.59-.62.18.16.41.27.67.32.14.02.72.12,1.64.25l.11.43c.03.08.04.16.05.24Z"/>
  <path class="cls-1" d="M180.39,275.11l.8,2.97c-.92-.13-1.5-.23-1.64-.25-.25-.05-.49-.16-.67-.32.58-.67,1.03-1.39,1.29-2.13.04-.09.07-.2.08-.29.04,0,.08,0,.13.02Z"/>
  <path class="cls-1" d="M179.86,281.26c.38.02.76.04,1.14.06-.2.53-.48,1.08-.9,1.61-.29.36-.62.68-.99.97-.46-.25-.75-.75-.72-1.3.02-.47.26-.87.63-1.11.24-.16.53-.24.84-.23Z"/>
  <path class="cls-1" d="M180.39,275.1h0s-.09,0-.13,0c.03-.07.05-.13.06-.2.03.07.06.13.08.21Z"/>
  <path class="cls-1" d="M179.29,270.98c1,1.14,1.36,2.51,1.02,3.91-.27-.63-.97-.98-1.64-.8-.47.12-.83.48-.97.91l-.35-.2c.07-.12.12-.24.16-.37.22-.6.11-1.08-.34-1.59-.48-.54-1.05-1.39-1.83-2.57-4.06-6.11-13.38-20.1-30.47-17.6l-.27-1.74c.72,0,1.31-.53,1.38-1.22,6.65-.68,12.15.91,16.66,3.48-.02.17,0,.35.05.53.22.75.99,1.18,1.73.97.02,0,.16-.05.4-.11,6.35,4.36,10.45,10.53,12.86,14.15.67,1,1.24,1.87,1.59,2.26Z"/>
  <path class="cls-1" d="M180.32,274.89c0,.07-.03.13-.06.2-.14-.02-.23-.04-.23-.04-.77-.13-1.49.38-1.62,1.14-.08.52.1,1,.48,1.31-.18.22-.38.42-.59.62l-.61-2.31c-.08-.28-.07-.56.03-.82.14-.43.5-.79.97-.91.68-.18,1.37.17,1.64.8Z"/>
  <path class="cls-1" d="M180.26,275.09c-.02.09-.05.2-.08.29-.26.74-.71,1.46-1.29,2.13-.38-.31-.56-.8-.48-1.31.13-.76.85-1.28,1.62-1.14,0,0,.09.02.23.04Z"/>
  <path class="cls-1" d="M177.7,281.4l1.31.08c-.37.23-.61.64-.63,1.11-.03.55.26,1.05.72,1.3-.55.42-1.19.76-1.87.97-1.97.99-4.28,1.75-6.83,2.32-4.54-.08-9.16-.12-13.87-.12v-1.4c7.84,0,14.79-.93,19.53-3.36.08-.05.17-.08.26-.1.31-.09.87-.3,1.36-.8Z"/>
  <path class="cls-5" d="M178.55,279.1c0,.38-.03,1.28-.66,2.07-.07.08-.13.16-.2.23-.49.5-1.05.7-1.36.8-.09.03-.18.06-.26.1-4.73,2.43-11.69,3.36-19.52,3.36-23.51,0-54.9-8.36-57.9-9.49-.83-.31-1.03-.71-1.12-.98-.05-.17-.08-.36-.08-.54,0-.88.47-1.94.87-2.66.71.98,1.68,1.8,2.89,2.45,9.3,4.99,53.25,7.11,66.97,7.11,2.02,0,3.38-.05,3.88-.14,2.05-.36,4.5-1.6,6.22-3.26l.26.98Z"/>
  <path class="cls-1" d="M177.68,275.82l.61,2.31c-1.72,1.66-4.16,2.91-6.22,3.26-.51.09-1.87.14-3.88.14-13.72,0-57.67-2.12-66.97-7.11-1.21-.65-2.18-1.46-2.89-2.45.15-.27.29-.5.39-.64.28-.39.33-.88.18-1.3l1.43-.12c.5.83,1.23,1.5,2.21,2.03,9.79,5.25,64.83,7.42,69.05,6.68,2.02-.35,4.88-2.07,5.77-3.82l.35.2c-.09.25-.1.53-.03.82Z"/>
  <path class="cls-3" d="M177.18,272.85c.45.52.55.99.34,1.59-.04.12-.09.24-.16.37-.89,1.74-3.75,3.47-5.77,3.82-4.22.74-59.26-1.43-69.05-6.68-.98-.53-1.72-1.21-2.21-2.03-.29-.5-.5-1.05-.63-1.67-1.14-5.6,4.99-14.79,7.44-17.87.35-.43.4-.99.19-1.46,3.19,1.1,8.04,1.99,12.72,1.99,1.06,0,2.12-.05,3.15-.14,1.16-.11,2.24-.29,3.24-.53l.5,3.32c.05.29.18.55.37.75-10.6,3.52-13.74,6.46-13.9,6.63-.54.54-.55,1.43-.02,1.98.53.55,1.42.57,1.98.05.06-.05,5.67-5.15,27.4-9.88.72-.16,1.43-.28,2.12-.38,17.09-2.5,26.41,11.49,30.47,17.6.78,1.18,1.35,2.03,1.83,2.57Z"/>
  <path class="cls-1" d="M171.64,219.99c1.19,1.96,2.06,5.03,1.32,7.46-.68,2.22-1.7,6.49-.82,10.06.08.32.17.65.26.98.53,1.83,1.18,4.1-.26,6.18-.83,1.21-2.29,2.15-4.43,2.83-.23-.28-.51-.58-.8-.9-.4-.44-1.01-.57-1.54-.37l-.23-.95c2.95-.65,4.19-1.51,4.69-2.22.63-.92.36-2.1-.13-3.79-.1-.38-.22-.74-.3-1.09-.98-4.02-.08-8.5.86-11.56.69-2.26-.99-5.57-1.73-6.06l-.65-.11.06-2.85,1.18.22c.89.16,1.73.89,2.51,2.17Z"/>
  <path class="cls-1" d="M172.96,55.66c.12.38.08.79-.12,1.13-3.08-1.19-6.44-1.84-9.94-1.84-1.7,0-3.36.15-4.97.45-1.17.21-2.32.49-3.42.84.96-1.28,1.69-2.05,1.78-2.15.21-.22.47-.36.74-.41.17-.04.35-.04.52,0,2.63-.55,12.34.76,14.28,1.03.53.08.98.45,1.13.96Z"/>
  <path class="cls-1" d="M172.84,56.78c-.06.11-.14.23-.23.32-.44.43-10.76,10.63-3.74,18.24,8.66,9.37-4.88,33.61-5.46,34.63-.02.04-.04.07-.06.09-.15.22-.38.44-.74.65-3.51-.03-6.85-.71-9.94-1.95l.36-.91c.9.38,2.06.7,3.51.79,3.03.17,4.23-.18,4.58-.32,3.74-6.73,11.64-24.63,5.69-31.08-6.14-6.65-2.11-15.14,1.97-20.1-4.36-.54-9.46-1-10.66-.72l-.18-1.02c1.61-.3,3.27-.45,4.97-.45,3.5,0,6.85.65,9.94,1.84Z"/>
  <path class="cls-5" d="M168.54,220.57c.74.49,2.43,3.8,1.73,6.06h-.05c.17-.55,0-1.17-.46-1.55-.53-.43-1.28-.41-1.79,0-.03.02-.08.05-.19.09l.1-4.73.65.11Z"/>
  <path class="cls-1" d="M167.53,251.87s0-.03,0-.04c-.08-.15-.23-.38-.45-.68.84-.19,1.84-.39,2.93-.6.23.43.25.65.27.79.1.77-.45,1.47-1.22,1.57-.06,0-.11,0-.18,0-.64,0-1.18-.42-1.35-1.04Z"/>
  <path class="cls-1" d="M169.77,225.08c.47.38.63.99.46,1.54-.06.16-.14.3-.25.44-.18.22-.58.7-3.27,1.44l-.35-.82c.76,0,1.39-.61,1.41-1.37l.03-1.13c.1-.05.16-.08.19-.09.51-.42,1.27-.44,1.79,0Z"/>
  <path class="cls-5" d="M170.23,226.62h.05c-.94,3.07-1.85,7.55-.86,11.57.08.35.2.71.3,1.09.49,1.69.76,2.87.13,3.79-.5.71-1.73,1.58-4.69,2.22-1.36.29-3.08.54-5.23.71-6.24.49-10.34-.28-12.17-2.29-1.24-1.35-1.55-3.34-1.02-6.44.99-5.79,1.33-9.04,1.34-9.18.03-.27-.02-.54-.15-.79-.27-.52-.5-1.02-.67-1.5.37.13.98.37,1.78.65.08.69.66,1.23,1.37,1.24h.02c.39,0,.76-.16,1.01-.43,3.15,1,7.32,2.1,10.48,2.1.7,0,1.36-.06,1.94-.18,1.15-.24,2.09-.47,2.84-.68,2.69-.74,3.09-1.23,3.27-1.44.11-.14.2-.28.25-.44ZM167.7,230.65c.21-.75-.23-1.52-.98-1.73-.75-.22-1.53.23-1.73.98-.55,2.02-2.18,8.78.39,11.19.27.26.62.38.97.38.38,0,.75-.15,1.02-.44.53-.56.51-1.45-.06-1.99-.9-.84-.52-5.1.38-8.39ZM162.28,243.47c.77-.12,1.29-.84,1.17-1.61l-.51-3.16c-.47-2.91,0-6.38,0-6.41.1-.77-.43-1.48-1.2-1.58-.78-.11-1.48.43-1.58,1.2-.02.16-.53,3.91,0,7.24l.51,3.16c.11.69.71,1.19,1.39,1.19.08,0,.15,0,.23-.02ZM158.15,242.21v-10.11c0-.78-.63-1.41-1.41-1.41s-1.41.63-1.41,1.41v10.11c0,.78.63,1.41,1.41,1.41s1.41-.63,1.41-1.41ZM153.74,237.32c1.1-4.04-1.43-7.69-1.54-7.85-.44-.64-1.31-.79-1.95-.35-.64.45-.8,1.32-.36,1.96.03.03,1.88,2.75,1.13,5.49-.05.15-.09.31-.15.46l-1.4,3.67c-.27.73.09,1.54.82,1.82.17.06.34.08.5.08.57,0,1.11-.34,1.32-.9l1.39-3.67c.09-.24.17-.48.23-.72Z"/>
  <path class="cls-1" d="M167.71,247.5c1.38,1.58,2.01,2.49,2.29,3.05-1.1.21-2.09.41-2.93.6-.54-.72-1.43-1.79-2.23-2.65-.08-.08-.13-.16-.18-.25,1.14-.2,2.16-.45,3.06-.74Z"/>
  <path class="cls-1" d="M170.41,287.18c-4.13.9-8.92,1.28-14.02,1.28-5.8,0-12.03-.49-18.18-1.25,5.47-.1,11.06-.16,16.77-.16.52,0,1.04,0,1.56,0,4.71,0,9.33.05,13.87.12Z"/>
  <path class="cls-1" d="M169.05,252.9l.14.69c-2.13.42-3.68.81-4.36.98-.7-.49-1.43-.95-2.18-1.38.06-.55.44-1.04,1-1.21.22-.07,1.45-.41,3.41-.84.22.3.38.53.45.68,0,0,0,.03,0,.04.17.62.71,1.04,1.35,1.04.07,0,.12,0,.18,0Z"/>
  <path class="cls-1" d="M168.88,173.75c.02.08.02.16.02.23l-.95,43.63-.21-.04c-.76-.14-1.5.37-1.63,1.13-.02.08-.03.17-.03.25l-.98-.02.97-44.4c.95-.24,1.88-.51,2.8-.79Z"/>
  <path class="cls-1" d="M168.52,172.99c.19.21.32.47.36.76-.93.28-1.86.54-2.8.79v-.62s0-.05.02-.07c.82-.27,1.62-.55,2.43-.86Z"/>
  <path class="cls-1" d="M167.95,217.61l-.06,2.85-.66-.12c-.68-.12-1.15-.71-1.15-1.38,0-.08,0-.17.03-.25.13-.77.87-1.28,1.63-1.13l.21.04Z"/>
  <path class="cls-1" d="M167.89,220.46l-.1,4.73c-.33.15-1.13.45-2.84.86l.16-7.11.98.02c0,.67.48,1.26,1.15,1.38l.66.12Z"/>
  <path class="cls-1" d="M167.52,172.54c.39,0,.75.18,1,.45-.81.31-1.61.59-2.43.86.05-.75.64-1.31,1.43-1.31Z"/>
  <path class="cls-1" d="M167.79,225.18l-.03,1.13c-.02.76-.65,1.37-1.41,1.37h-.03c-.78,0-1.4-.66-1.38-1.43v-.21c1.72-.41,2.51-.71,2.84-.86Z"/>
  <path class="cls-1" d="M166.73,228.92c.75.21,1.18.98.98,1.73-.9,3.29-1.28,7.55-.38,8.39.56.53.59,1.43.06,1.99-.27.29-.65.44-1.02.44-.35,0-.69-.12-.97-.38-2.57-2.41-.95-9.17-.39-11.19.21-.75.98-1.19,1.73-.98Z"/>
  <path class="cls-1" d="M166.92,246.6c.29.32.56.62.8.9-.9.29-1.91.54-3.06.74-.33-.56-.23-1.28.27-1.73.14-.12.29-.22.45-.27.53-.21,1.13-.08,1.54.37Z"/>
  <path class="cls-2" d="M166.8,77.24c5.95,6.45-1.95,24.35-5.69,31.08-.35.14-1.55.49-4.58.32-1.44-.08-2.61-.4-3.51-.79-.9-.38-1.55-.83-1.96-1.18,1.42-2.71,5.56-10.77,7.56-16.04,2.65-7.01-1.37-11.26-1.54-11.43-.05-.06-.09-.09-.15-.13-2.99-2.32-4.63-5.11-4.88-8.3-.51-6.34,4.46-12.64,5.9-14.33.06,0,.11,0,.16-.03,1.2-.28,6.3.18,10.66.72-4.08,4.96-8.11,13.45-1.97,20.1Z"/>
  <path class="cls-1" d="M166.35,227.69l.35.82c-.75.21-1.69.43-2.84.68-.58.12-1.24.18-1.94.18-3.16,0-7.33-1.1-10.48-2.1.24-.24.39-.58.39-.96l.03-1.87c3.81,1.22,8.88,2.52,11.42,1.99.64-.13,1.19-.26,1.67-.38v.21c-.02.78.6,1.43,1.38,1.43h.03Z"/>
  <path class="cls-1" d="M166.09,173.85s0,.05,0,.07v.62c-2.91.77-5.86,1.39-8.86,1.85,3.02-.69,5.98-1.54,8.87-2.53Z"/>
  <path class="cls-1" d="M166.07,174.53l-.97,44.4-.16,7.11c-.48.11-1.03.24-1.67.38-2.54.53-7.61-.77-11.42-1.99l.07-5.7.53-41.23s0-.08,0-.13c1.6-.29,3.2-.62,4.77-.99,3-.46,5.95-1.08,8.85-1.85Z"/>
  <path class="cls-1" d="M165.15,245.28l.23.95c-.16.06-.31.15-.45.27-.5.45-.6,1.17-.27,1.73-1.33.24-2.83.43-4.52.56-1.27.09-2.47.15-3.58.15-4.09,0-7.16-.67-9.29-2.03.22-.62-.03-1.31-.61-1.66-.42-.24-.91-.25-1.32-.06-2.06-2.62-1.78-6.03-1.37-8.42.77-4.55,1.14-7.54,1.27-8.58-.57-1.16-.96-2.26-1.14-3.3l2.04-.33c.07.49.38.92.87,1.12.06.03.15.06.25.1.17.48.39.98.67,1.5.13.24.18.52.15.79,0,.14-.35,3.38-1.34,9.18-.53,3.1-.22,5.09,1.02,6.44,1.83,2.01,5.93,2.78,12.17,2.29,2.16-.17,3.87-.42,5.23-.71Z"/>
  <path class="cls-1" d="M164.84,254.58c-.24.07-.38.1-.4.11-.74.22-1.52-.22-1.73-.97-.05-.18-.07-.36-.05-.53.75.43,1.48.89,2.18,1.38Z"/>
  <path class="cls-1" d="M163.45,241.86c.12.77-.4,1.49-1.17,1.61-.08,0-.15.02-.23.02-.68,0-1.28-.5-1.39-1.19l-.51-3.16c-.53-3.33-.02-7.08,0-7.24.1-.77.81-1.31,1.58-1.2.77.1,1.3.82,1.2,1.58,0,.04-.47,3.51,0,6.41l.51,3.16Z"/>
  <path class="cls-1" d="M162.61,110.71c-.77.44-2.14.79-4.54.79-.52,0-1.08-.02-1.7-.06-1.42-.08-2.64-.35-3.67-.7-3.04-1.06-4.43-2.9-4.5-2.99-.28-.39-.35-.9-.18-1.34,1.46.93,3.01,1.73,4.64,2.35,3.08,1.24,6.43,1.92,9.94,1.95Z"/>
  <path class="cls-1" d="M157.09,79.2c.17.17,4.19,4.42,1.54,11.43-2,5.27-6.14,13.33-7.56,16.04.41.36,1.06.81,1.96,1.18l-.36.91c-1.63-.63-3.18-1.43-4.64-2.35.03-.06.05-.1.08-.15.06-.11,5.58-10.52,7.89-16.62,1.87-4.94-.47-7.95-.88-8.42-3.58-2.81-5.56-6.25-5.87-10.24-.47-6.04,3.02-11.75,5.26-14.74,1.11-.36,2.25-.64,3.42-.84l.18,1.02s-.1.03-.16.03c-1.43,1.69-6.4,7.99-5.9,14.33.25,3.19,1.89,5.98,4.88,8.3.06.04.1.08.15.13Z"/>
  <path class="cls-1" d="M158.15,232.1v10.11c0,.78-.63,1.41-1.41,1.41s-1.41-.63-1.41-1.41v-10.11c0-.78.63-1.41,1.41-1.41s1.41.63,1.41,1.41Z"/>
  <path class="cls-1" d="M156.85,52.73l.19.95c-.27.06-.53.2-.74.41-.09.09-.83.87-1.78,2.15-11.29,3.57-19.49,14.14-19.49,26.59,0,9.92,5.19,18.64,13.01,23.58-.17.44-.1.95.18,1.34.08.09,1.46,1.93,4.5,2.99l-.36.93c-11.74-4.31-20.15-15.61-20.15-28.84,0-14.85,10.6-27.27,24.64-30.1Z"/>
  <path class="cls-1" d="M156.56,285.66v1.4c-.53,0-1.05,0-1.57,0-5.71,0-11.31.06-16.77.16-19.45-2.4-38.14-7.5-40.56-8.41-1.84-.68-2.54-1.9-2.81-2.8-.84-2.76,1.34-5.93,1.59-6.28.16-.22.37-.38.6-.48.26,1.02.69,1.94,1.29,2.75-.4.72-.87,1.78-.87,2.66,0,.19.03.38.08.54.08.27.29.68,1.12.98,3,1.13,34.4,9.49,57.9,9.49Z"/>
  <path class="cls-1" d="M155.12,81.22c.41.47,2.75,3.48.88,8.42-2.32,6.1-7.84,16.51-7.89,16.62-.03.05-.05.09-.08.15-7.82-4.94-13.01-13.66-13.01-23.58,0-12.45,8.2-23.02,19.49-26.59-2.24,2.99-5.73,8.7-5.26,14.74.31,3.98,2.29,7.43,5.87,10.24Z"/>
  <path class="cls-1" d="M157.22,176.38c-1.58.38-3.17.7-4.77.99,0-.14-.04-.28-.09-.4,1.64-.14,3.25-.35,4.87-.59Z"/>
  <path class="cls-1" d="M152.21,229.47c.11.16,2.63,3.81,1.54,7.85l-2.71-.74c.74-2.75-1.11-5.47-1.13-5.49-.44-.64-.28-1.51.36-1.96.64-.44,1.51-.29,1.95.35Z"/>
  <path class="cls-1" d="M151.03,236.57l2.71.74c-.07.24-.14.48-.23.72l-1.39,3.67c-.22.56-.75.9-1.32.9-.16,0-.33-.03-.5-.08-.72-.28-1.09-1.09-.82-1.82l1.4-3.67c.06-.15.1-.31.15-.46Z"/>
  <path class="cls-1" d="M152.45,177.38s0,.08,0,.13l-.53,41.23-1.87-.03c0-.14-.02-.28-.07-.42-.14-.43-.47-.76-.86-.9l.51-39.55c.95-.13,1.88-.29,2.81-.46Z"/>
  <path class="cls-1" d="M152.36,176.97c.06.12.09.26.09.4-.93.17-1.87.33-2.81.46v-.37c0-.09.03-.19.05-.28.89-.05,1.78-.12,2.67-.22Z"/>
  <path class="cls-1" d="M152.08,50.71c.03.35-.08.68-.27.93-.62.2-1.22.41-1.82.65h0c-2,.17-4.64.41-7.58.74,2.17-1.41,4.5-2.59,6.97-3.51.66-.06,1.08-.09,1.2-.1.78-.06,1.45.53,1.52,1.29Z"/>
  <path class="cls-1" d="M151.93,218.73l-.07,5.7c-1.06-.35-2.03-.68-2.8-.97l.05-3.44c.58-.19.96-.74.96-1.32l1.87.03Z"/>
  <path class="cls-1" d="M151.86,224.43l-.03,1.87c0,.38-.15.71-.39.96-.9-.29-1.72-.56-2.4-.81-.02-.07-.02-.12-.02-.19l.04-2.79c.78.29,1.74.62,2.8.97Z"/>
  <path class="cls-1" d="M151.07,176.08c.59,0,1.1.38,1.28.89-.89.09-1.78.17-2.67.22.14-.64.72-1.11,1.39-1.11Z"/>
  <path class="cls-1" d="M151.81,51.64c-.23.33-.6.55-1.02.58-.25.02-.52.04-.8.07.6-.23,1.2-.45,1.82-.65Z"/>
  <path class="cls-1" d="M151.44,227.25c-.25.27-.62.43-1.01.43h-.02c-.71,0-1.29-.54-1.37-1.24.68.24,1.5.52,2.4.81Z"/>
  <path class="cls-1" d="M149.99,218.28c.05.14.07.28.07.42,0,.58-.38,1.13-.96,1.32l.03-2.64c.39.14.72.47.86.9Z"/>
  <path class="cls-1" d="M149.68,177.19c-.02.09-.04.19-.04.28v.37c-4.65.7-9.41,1.06-14.26,1.06-1.68,0-3.35-.05-5.01-.13-.19-.52-.68-.89-1.28-.91-.54-.04-1.04.27-1.28.74-5.15-.39-10.18-1.21-15.06-2.39v-.23c0-.78-.63-1.41-1.41-1.41-.61,0-1.13.39-1.32.94-8.67-2.38-16.82-5.94-24.26-10.5.05-1.15,0-2.3-.16-3.42,12.11,7.8,26.34,12.84,41.67,14.15,5.44,1.09,11.05,1.65,16.81,1.65,1.88,0,3.73-.06,5.58-.19Z"/>
  <path class="cls-1" d="M149.13,217.38l-.03,2.64s0,0-.02,0c-.05.02-1.5.53-2.07,1.95-.15.37-.23.77-.24,1.21-.24.15-.44.38-.56.68-.09.23-.11.49-.08.71l-2.04.33c-.28-1.48-.17-2.83.34-4.03,1.11-2.65,3.7-3.49,3.82-3.53.3-.09.61-.08.89.03Z"/>
  <path class="cls-5" d="M149.1,220.03l-.05,3.44c-.38-.14-.73-.27-1.02-.38-.43-.18-.9-.11-1.27.11,0-.44.09-.84.24-1.21.57-1.43,2.03-1.93,2.07-1.95t.02,0Z"/>
  <path class="cls-1" d="M149.06,223.47l-.04,2.79c0,.07,0,.12.02.19-.8-.28-1.42-.52-1.78-.65-.36-.97-.53-1.85-.49-2.61.37-.23.83-.29,1.27-.11.29.11.64.24,1.02.38Z"/>
  <path class="cls-1" d="M146.66,245.27c.58.35.83,1.04.61,1.66-.61-.38-1.14-.83-1.59-1.32l-.34-.39c.41-.2.9-.19,1.32.06Z"/>
  <path class="cls-1" d="M147.27,246.93c-.03.09-.07.19-.12.27-.54.93-1.08,2.04-1.13,2.37,0,.05,0,.1-.02.15-.86.08-1.75.2-2.65.37-.08-.18-.13-.38-.13-.59,0-.96.83-2.56,1.52-3.73.15-.25.37-.44.61-.55l.34.39c.45.5.98.95,1.59,1.32Z"/>
  <path class="cls-1" d="M147.26,225.8c-.1-.05-.2-.08-.25-.1-.49-.2-.81-.63-.87-1.12-.04-.23-.02-.48.08-.71.12-.29.32-.53.56-.68-.04.76.13,1.64.49,2.61Z"/>
  <path class="cls-1" d="M170.58,9.08c-8.34-2.7-17.24-4.16-26.48-4.16-2.41,0-4.79.1-7.15.3-.53-.02-1.04-.02-1.57-.02-49.28,0-89.36,38.33-89.36,85.44,0,3.15.18,6.26.53,9.33-.81.53-1.69,1.13-2.62,1.79-.49-3.64-.73-7.35-.73-11.12C43.21,41.98,84.56,2.39,135.39,2.39c12.46,0,24.35,2.38,35.2,6.69Z"/>
  <path class="cls-1" d="M169.72,11.76c-8.07-2.62-16.68-4.03-25.61-4.03-46,0-83.42,37.42-83.42,83.42s37.42,83.42,83.42,83.42c4.31,0,8.55-.33,12.69-.97-6.85,1.62-14.03,2.48-21.4,2.48-2.73,0-5.43-.12-8.09-.36-18.06-3.58-34.1-12.82-46.19-25.77-2.96-4.76-6.44-8.19-7.45-9.15-6.68-9.44-11.5-20.27-13.94-31.97-1.2-5.71-1.83-11.63-1.83-17.68,0-45.13,34.86-82.29,79.08-85.93,11.59.19,22.65,2.49,32.77,6.54Z"/>
  <path class="cls-1" d="M145.02,111.06c.37.31.56.81.48,1.31-.08.41-.32.76-.66.96-1.83-.98-3.56-2.13-5.18-3.4,2.75.49,4.61.81,4.68.82.25.05.49.16.68.32Z"/>
  <path class="cls-1" d="M145.39,110.42l-.38.64c-.19-.16-.42-.27-.68-.32-.07,0-1.93-.33-4.68-.82-8.2-6.46-13.46-16.38-13.46-27.47,0-12.28,6.45-23.12,16.2-29.43,2.94-.33,5.59-.57,7.58-.74-12.27,4.76-20.97,16.49-20.97,30.17,0,11.9,6.58,22.32,16.38,27.97Z"/>
  <path class="cls-1" d="M145.99,249.72c-.07.69-.66,1.22-1.38,1.22-.57,0-1.06-.36-1.28-.85.9-.17,1.79-.29,2.65-.37Z"/>
  <path class="cls-1" d="M144.61,250.94l.27,1.74c-.69.1-1.4.23-2.12.38-21.72,4.73-27.34,9.84-27.4,9.88-.56.53-1.45.51-1.98-.05-.53-.55-.53-1.43.02-1.98.17-.17,3.3-3.11,13.9-6.63.25.28.63.45,1.02.45.07,0,.13,0,.21-.02.64-.09,1.11-.6,1.19-1.2,3.43-1.05,7.54-2.14,12.43-3.21.39-.08.79-.16,1.17-.23.22.5.7.85,1.28.85Z"/>
  <path class="cls-1" d="M144.84,113.33c-.22.13-.47.21-.73.21-.08,0-.16,0-.24-.02-.98-.17-24.26-4.2-27.83-5.21-3.8-1.09-7.45-4.2-7.61-4.33l-.1-.1c-2.49-2.63-4.54-5.29-6.12-7.95.3-.49.26-1.09-.05-1.53l1.85-1.03c1.53,2.84,3.64,5.68,6.31,8.51.44.37,3.53,2.87,6.5,3.72,2.48.7,15.68,3.07,22.86,4.33,1.61,1.28,3.35,2.42,5.18,3.4Z"/>
  <path class="cls-1" d="M149.37,49.52c-2.47.92-4.8,2.1-6.97,3.51-9.84,1.09-23.04,3.03-26.7,5.53-3.14,2.13-13.46,9.97-14.68,21.27-.49,4.46.52,8.99,2.98,13.53l-1.85,1.03c-.09-.15-.23-.27-.38-.38-.31-.21-.64-.44-.98-.69-2.21-4.58-3.08-9.21-2.59-13.8.51-4.66,2.38-8.77,4.7-12.2.28-.04.45-.06.46-.06.78-.06,1.36-.73,1.3-1.5,0-.22-.08-.42-.18-.6,3.62-4.58,7.77-7.68,9.62-8.94,5.88-4,29.56-6.23,35.25-6.71Z"/>
  <path class="cls-6" d="M142.4,53.03c-9.75,6.31-16.2,17.15-16.2,29.43,0,11.09,5.26,21.01,13.46,27.47-7.18-1.27-20.37-3.63-22.86-4.33-2.97-.85-6.06-3.36-6.5-3.72-2.67-2.83-4.78-5.67-6.31-8.51-2.47-4.54-3.47-9.07-2.98-13.53,1.22-11.31,11.54-19.15,14.68-21.27,3.67-2.5,16.87-4.44,26.7-5.53Z"/>
  <path class="cls-3" d="M135.39,5.2c.53,0,1.04,0,1.57.02-44.22,3.64-79.08,40.79-79.08,85.93,0,6.06.63,11.97,1.83,17.68l-.88.2c-.94-4.78-4.7-10.24-5.22-10.98-.26-.38-.69-.6-1.14-.6h-.64c-.1,0-.22.02-.32.04-.09-.02-.21-.04-.31-.04-.57,0-2.3.98-4.63,2.52-.36-3.07-.53-6.18-.53-9.33,0-47.11,40.08-85.44,89.36-85.44Z"/>
  <path class="cls-1" d="M129.69,219.59c.07.04,6.23,3.3,4.78,8.94-1.15,4.5-1.53,7.32-.51,11.18,1.06,4,.38,5.62-.34,6.27-1.07,1.43-2.56,2.55-4.45,3.37l-.17-1.13c-.11-.77-.83-1.31-1.59-1.18-.08,0-.17.04-.25.07h0c1.7-.59,3.29-1.5,4.3-2.93.05-.07.09-.13.16-.19.07-.22.26-1.14-.38-3.57-1.11-4.19-.79-7.36.32-11.82.11-.21.17-.44.17-.68,0-.03,0-.06.02-.08.64-2.48-1.42-4.38-2.58-5.23l.09-3.13c.14,0,.28.06.42.12Z"/>
  <path class="cls-1" d="M132.91,39.87c.35.69.07,1.54-.63,1.88-.2.1-.41.15-.63.15-.52,0-1.01-.28-1.26-.77-2.02-3.99-4.1-6.15-5.8-6.06-2.44.13-4.6,4.43-5.18,5.92-.27.73-1.09,1.1-1.81.82-.72-.27-1.1-1.09-.82-1.81.29-.77,2.95-7.48,7.65-7.73,3.02-.16,5.8,2.32,8.47,7.59Z"/>
  <path class="cls-5" d="M129.17,222.6c1.16.85,3.22,2.75,2.58,5.23,0,.03-.02.06-.02.08,0-.14-.03-.29-.08-.43-.24-.73-1.03-1.13-1.77-.89l-.84.28.13-4.28Z"/>
  <path class="cls-1" d="M131.73,227.91c0,.24-.06.48-.17.68.05-.23.1-.45.17-.68Z"/>
  <path class="cls-1" d="M131.73,227.91c-.07.23-.12.46-.17.68-.17.3-.44.54-.79.67l-2.32.77-.31-.93c.49-.21.84-.68.86-1.26l.03-.98.84-.28c.74-.24,1.53.16,1.77.89.05.14.08.29.08.43Z"/>
  <path class="cls-5" d="M131.24,240.42c.64,2.43.44,3.36.38,3.57-.07.06-.11.12-.16.19-1.01,1.43-2.61,2.33-4.3,2.92-1.43.48-2.93.73-4.22.86-7.59.74-15.88-1.73-16.92-2.72-.93-.88.36-3.28,1.4-5.21.58-1.08,1.13-2.1,1.44-3.06,1.03-3.12-.38-5.64-.8-6.3-2.78-6.68,1.35-9.14,1.9-9.44v4.5c-.67-.25-1.43.04-1.75.69-.35.69-.06,1.54.64,1.88.1.06.83.4,1.95.86,2.28.93,6.2,2.31,9.92,2.48-.28.22-.47.54-.51.92-.49,4.28-.84,9.71.26,11.22.28.39.73.6,1.18.6.28,0,.56-.08.8-.25.63-.46.79-1.3.33-1.93-.4-.88-.21-5.53.23-9.32.06-.5-.15-.96-.52-1.25.68-.05,1.34-.15,1.98-.31-.13.22-.22.46-.23.72-.03.89-.22,8.8,1.31,11.59.26.47.74.73,1.24.73.23,0,.46-.06.68-.17.68-.38.93-1.24.55-1.91-.87-1.59-1.06-7.07-.97-10.15.02-.61-.35-1.14-.89-1.34l2.3-.77,2.32-.77c.35-.12.62-.37.79-.67-1.11,4.46-1.43,7.63-.32,11.82ZM117.59,243.12c1.13-1.7.63-7.35.23-10.57-.09-.77-.81-1.31-1.58-1.22s-1.31.8-1.22,1.58c.44,3.51.63,7.83.23,8.65l-1.01,1.51c-.43.65-.25,1.52.39,1.95.24.16.51.24.78.24.46,0,.9-.23,1.17-.63l1.01-1.52ZM112.56,243.71c1.85-2.97.48-10.43.19-11.89-.15-.76-.9-1.26-1.66-1.1-.76.15-1.26.89-1.1,1.65.63,3.19,1.11,8.35.18,9.85-.4.67-.21,1.53.46,1.94.23.14.49.21.74.21.47,0,.93-.23,1.19-.67Z"/>
  <path class="cls-1" d="M130.38,178.76c.07.17.09.35.08.53l-1.2,40.17c-.58-.08-1.16.2-1.44.74-.08.16-.13.32-.15.49l-1.25-.04,1.23-41.44c0-.23.07-.43.18-.62.84.08,1.7.13,2.55.17Z"/>
  <path class="cls-1" d="M129.72,253.13c.02.13.02.27,0,.39-.85.26-1.65.52-2.42.77-.19-.2-.32-.46-.37-.75l-.5-3.32c.98-.23,1.88-.53,2.72-.88l.55,3.79Z"/>
  <path class="cls-1" d="M129.1,177.85c.59.02,1.09.39,1.28.91-.85-.04-1.71-.09-2.55-.17.23-.47.73-.78,1.28-.74Z"/>
  <path class="cls-1" d="M129.26,219.46l-.09,3.13c-.43-.32-.74-.49-.75-.5-.53-.27-.82-.84-.75-1.41.02-.17.08-.33.15-.49.28-.54.86-.83,1.44-.74Z"/>
  <path class="cls-1" d="M129.17,222.6l-.13,4.28-2.83.95v-.06l.22-7.11,1.25.04c-.07.56.22,1.13.75,1.41,0,0,.32.18.75.5Z"/>
  <path class="cls-1" d="M129,248.22l.17,1.13c-.83.36-1.73.65-2.72.88l-.23-1.59c-.1-.68.31-1.32.94-1.53.08-.03.17-.06.25-.07.76-.13,1.48.41,1.59,1.18Z"/>
  <path class="cls-1" d="M129.04,226.87l-.03.98c-.02.57-.38,1.05-.86,1.26-.17.07-.35.1-.53.1h-.05c-.76-.02-1.35-.64-1.36-1.39l2.83-.95Z"/>
  <path class="cls-1" d="M129.73,253.53c-.08.6-.55,1.11-1.19,1.2-.08,0-.14.02-.21.02-.39,0-.77-.17-1.02-.45.77-.25,1.57-.51,2.42-.77Z"/>
  <path class="cls-1" d="M128.15,229.1l.31.93-2.3.77c-.14-.07-.3-.1-.47-.1-.52-.05-.98.23-1.23.64-.64.16-1.3.26-1.98.31-.2-.17-.45-.28-.72-.31-.39-.05-.77.08-1.05.32-3.72-.18-7.64-1.56-9.92-2.48l.03-.08c.17.08.35.11.54.11.78,0,1.41-.63,1.41-1.41v-.87c3.34,1.27,8.27,2.62,11.42,1.57l2.02-.68c0,.75.6,1.37,1.36,1.39h.05c.19,0,.37-.04.53-.1Z"/>
  <path class="cls-1" d="M128.02,242.29c.38.68.13,1.54-.55,1.91-.22.11-.45.17-.68.17-.5,0-.98-.26-1.24-.73-1.53-2.78-1.34-10.7-1.31-11.59,0-.26.09-.51.23-.72.21-.05.41-.11.62-.18l1.08-.36c.54.2.91.73.89,1.34-.09,3.08.09,8.56.97,10.15Z"/>
  <path class="cls-1" d="M127.83,178.59c-.11.19-.17.39-.18.62l-1.23,41.44-.22,7.11v.06l-2.02.68c-3.15,1.05-8.08-.3-11.42-1.57v-50.72c4.88,1.18,9.91,2,15.06,2.39Z"/>
  <path class="cls-1" d="M127.15,247.09h0c-.63.22-1.04.85-.94,1.54l.23,1.59c-1,.24-2.08.42-3.24.53-1.03.09-2.09.14-3.15.14-4.69,0-9.54-.89-12.72-1.99-.09-.2-.23-.38-.4-.52-.41-.33-.96-.39-1.41-.2-.64-.31-1.13-.62-1.45-.92-2.48-2.36-.63-5.81.86-8.59.52-.97,1.01-1.88,1.26-2.62.7-2.15-.47-3.84-.52-3.92-.07-.08-.12-.18-.16-.27-4-9.45,3.12-13.14,3.2-13.18.4-.21.86-.19,1.25,0v2.52c-.55.3-4.68,2.77-1.9,9.44.42.66,1.83,3.18.8,6.3-.31.96-.86,1.98-1.44,3.06-1.04,1.93-2.33,4.33-1.4,5.21,1.04.98,9.33,3.46,16.92,2.72,1.29-.13,2.79-.38,4.22-.86Z"/>
  <path class="cls-1" d="M126.38,125.35c.77,1.79,1.36,4.93.35,8.04-.55-.32-.86-.52-.89-.53-.65-.41-1.52-.22-1.94.43-.04.06-.07.12-.09.18l-.1-.06c1.58-3.32.18-6.75.09-6.95-.3-.72.03-1.55.74-1.85.72-.3,1.54.03,1.85.73Z"/>
  <path class="cls-1" d="M126.16,230.8l-1.08.36c-.21.07-.41.13-.62.18.25-.41.71-.68,1.23-.64.17,0,.33.04.47.1Z"/>
  <path class="cls-1" d="M125.83,132.86s.34.22.89.53c-.28.85-.68,1.71-1.23,2.53-.72-.42-1.13-.68-1.17-.69-.6-.38-.81-1.13-.53-1.76.03-.06.06-.12.09-.18.42-.65,1.29-.84,1.94-.43Z"/>
  <path class="cls-1" d="M124.32,135.23s.45.27,1.17.69c-.76,1.14-1.82,2.23-3.24,3.18-.23.16-.51.23-.78.23-.45,0-.9-.22-1.17-.63-.42-.65-.25-1.52.39-1.95,1.51-1,2.45-2.17,3-3.35l.1.06c-.28.63-.08,1.39.53,1.76Z"/>
  <path class="cls-1" d="M122.49,231.64c.37.29.57.75.52,1.25-.43,3.79-.63,8.44-.23,9.32.46.63.3,1.47-.33,1.93-.23.18-.52.25-.8.25-.45,0-.9-.21-1.18-.6-1.11-1.51-.75-6.94-.26-11.22.04-.38.23-.7.51-.92.27,0,.54.02.81.02.33,0,.65,0,.97-.03Z"/>
  <path class="cls-1" d="M121.76,231.33c.27.03.53.14.72.31-.32.02-.64.03-.97.03-.26,0-.53,0-.81-.02.28-.24.66-.37,1.05-.32Z"/>
  <path class="cls-1" d="M117.82,232.55c.4,3.22.91,8.87-.23,10.57l-1.01,1.52c-.27.4-.71.63-1.17.63-.27,0-.53-.08-.78-.24-.65-.43-.83-1.3-.39-1.95l1.01-1.51c.4-.83.22-5.15-.23-8.65-.09-.78.45-1.48,1.22-1.58s1.48.45,1.58,1.22Z"/>
  <path class="cls-1" d="M103.96,107c8.58,0,15.55,5.72,15.55,12.75s-6.98,12.75-15.55,12.75-15.55-5.72-15.55-12.75,6.98-12.75,15.55-12.75ZM116.7,119.75c0-5.48-5.72-9.94-12.74-9.94s-12.74,4.45-12.74,9.94,5.72,9.94,12.74,9.94,12.74-4.46,12.74-9.94Z"/>
  <path class="cls-7" d="M103.96,109.81c7.02,0,12.74,4.45,12.74,9.94s-5.72,9.94-12.74,9.94-12.74-4.46-12.74-9.94,5.72-9.94,12.74-9.94Z"/>
  <path class="cls-1" d="M112.74,231.82c.29,1.46,1.66,8.92-.19,11.89-.26.43-.72.67-1.19.67-.25,0-.52-.07-.74-.21-.67-.41-.86-1.28-.46-1.94.93-1.5.45-6.67-.18-9.85-.16-.76.34-1.5,1.1-1.65.76-.16,1.51.34,1.66,1.1Z"/>
  <path class="cls-1" d="M112.77,226.93v.87c0,.78-.63,1.41-1.41,1.41-.2,0-.38-.04-.54-.11-.51-.22-.86-.71-.86-1.29v-2.07s.08.04.13.06c.63.31,1.57.72,2.68,1.14Z"/>
  <path class="cls-1" d="M112.77,219.96v6.97c-1.12-.42-2.05-.83-2.68-1.14-.05-.02-.08-.04-.13-.06v-4.5s.02,0,.02,0c.49-.25.77-.74.77-1.26h2.03Z"/>
  <path class="cls-1" d="M112.77,176.2v43.76h-2.03c0-.22-.05-.42-.15-.63-.14-.28-.38-.51-.64-.63v-42.73c0-.17.03-.32.08-.47.9.25,1.81.49,2.73.7Z"/>
  <path class="cls-1" d="M112.77,175.97v.23c-.92-.22-1.83-.45-2.73-.7.19-.54.71-.94,1.32-.94.78,0,1.41.63,1.41,1.41Z"/>
  <path class="cls-1" d="M110.82,229.09l-.03.08c-1.12-.46-1.85-.81-1.95-.86-.69-.35-.98-1.19-.64-1.88.33-.66,1.09-.95,1.75-.69v2.07c0,.58.36,1.08.86,1.29Z"/>
  <path class="cls-1" d="M110.6,219.33c.1.21.15.41.15.63,0,.52-.28,1-.77,1.26,0,0,0,0-.02,0v-2.52c.26.12.5.35.64.63Z"/>
  <path class="cls-1" d="M107.33,248.91c.22.47.16,1.03-.19,1.46-2.46,3.08-8.59,12.27-7.44,17.87.13.62.34,1.17.63,1.67l-1.43.12c-.09-.25-.26-.49-.51-.66-.41-.29-.93-.33-1.36-.15-.03-.14-.07-.28-.09-.42-1.64-8.04,7.61-19.7,8.01-20.2.16-.2.36-.34.57-.41.52.24,1.13.49,1.81.71Z"/>
  <path class="cls-1" d="M106.93,248.4c.18.14.31.32.4.52-.68-.23-1.29-.47-1.81-.71.45-.2.99-.13,1.41.2Z"/>
  <path class="cls-1" d="M104.67,65.77c.06.77-.53,1.44-1.3,1.5,0,0-.18.02-.46.06.51-.75,1.04-1.47,1.58-2.16.1.18.17.38.18.6Z"/>
  <path class="cls-1" d="M103.17,64.46c.56-.04,1.07.24,1.32.7-.54.68-1.08,1.41-1.58,2.16-1.73.23-7.81,1.33-8.89,5.82-.04.15-.08.33-.15.53-.1.35-.23.78-.34,1.32-.29,1.5-.2,2.73-.08,3.86.29,2.71.51,4.67,1.19,6.6,1.29,3.61,3.89,6.19,6.15,7.86.42.87.88,1.73,1.4,2.6,0,.02-.02.03-.03.05-.27.41-.72.63-1.17.63-.27,0-.53-.08-.78-.23-2.78-1.85-6.47-5.08-8.21-9.95-.81-2.24-1.04-4.45-1.34-7.25-.14-1.28-.25-2.81.1-4.69.13-.69.29-1.22.41-1.6.04-.15.08-.28.1-.38,1.74-7.24,11.48-8,11.89-8.03Z"/>
  <path class="cls-1" d="M102.15,94.39c.31.44.35,1.04.05,1.53-.52-.86-.98-1.73-1.4-2.6.34.25.67.49.98.69.15.1.28.23.38.38Z"/>
  <path class="cls-3" d="M94.02,73.15c1.08-4.49,7.15-5.6,8.89-5.82-2.32,3.43-4.19,7.54-4.7,12.2-.5,4.59.38,9.22,2.59,13.8-2.26-1.67-4.86-4.25-6.15-7.86-.68-1.93-.9-3.89-1.19-6.6-.12-1.13-.22-2.36.08-3.86.1-.54.23-.98.34-1.32.07-.21.11-.38.15-.53Z"/>
  <path class="cls-1" d="M98.91,270.04c.15.42.1.91-.18,1.3-.1.14-.24.37-.39.64-.6-.81-1.03-1.73-1.29-2.75.43-.18.95-.14,1.36.15.24.17.41.4.51.66Z"/>
  <path class="cls-3" d="M127.3,175.73c-15.33-1.31-29.55-6.35-41.67-14.15-.56-4.27-2.42-8.27-4.53-11.63,12.09,12.96,28.14,22.19,46.19,25.77Z"/>
  <path class="cls-1" d="M85.63,161.58c.15,1.13.21,2.27.16,3.42-.96-.59-1.9-1.19-2.83-1.82-.09-1.31-.33-2.61-.68-3.87,1.1.79,2.21,1.54,3.35,2.27Z"/>
  <path class="cls-1" d="M85.79,165c-.04.92-.15,1.85-.34,2.78-1.65,8.16-9.02,14.6-21.91,19.13-.15.06-.31.08-.47.08-.04,0-.07,0-.1,0l-1.76-.12c-14.41-.65-24.84-5.31-25.91-11.59-.32-1.91.05-5.09,2.16-7.75,1.28-1.61,2.88-2.59,4.43-3.2,2.53-.97,4.94-.91,5.61-.87.34.02.64.16.86.38.03.58.12,1.14.27,1.72-.25.46-.75.75-1.3.71-.83-.05-5.17-.14-7.66,3.01-1.43,1.8-1.82,4.13-1.58,5.54.7,4.11,8.94,8.61,23.31,9.24l1.51.11c11.72-4.17,18.39-9.87,19.81-16.94.27-1.35.35-2.7.26-4.03.93.63,1.88,1.23,2.83,1.82Z"/>
  <path class="cls-1" d="M85.63,161.58c-1.13-.73-2.25-1.48-3.35-2.27-.28-1.03-.63-2.03-1.05-3.01.17-.36.17-.78,0-1.16l-1.33-2.78c-.54-1.13-1.26-1.91-2.14-2.34-2.32-3.38-4.75-5.91-5.78-6.91-.11-.87-.33-1.67-.66-2.37.02-.03.04-.06.07-.08.52-.58,1.41-.62,1.99-.1.04.04.13.12.27.26,2.27,3.22,4.76,6.27,7.45,9.15,2.11,3.36,3.97,7.36,4.53,11.63Z"/>
  <path class="cls-5" d="M82.96,163.18c.08,1.33,0,2.68-.26,4.03-1.43,7.07-8.09,12.77-19.81,16.94l-1.51-.11c-14.37-.64-22.6-5.14-23.31-9.24-.23-1.41.16-3.74,1.58-5.54,2.49-3.15,6.83-3.06,7.66-3.01.55.04,1.05-.25,1.3-.71.09.35.22.69.36,1.04,2.66,6.42,13.03,9.37,13.47,9.49.12.03.25.05.38.05.62,0,1.18-.4,1.36-1.03.21-.74-.23-1.52-.98-1.73-.09-.03-9.5-2.7-11.63-7.87-.71-1.7-.52-3.49.59-5.45.21-.37.23-.78.11-1.14.3.02.61.03.94.03,4.96,0,11.89-2.8,15.83-7.1.85.86,1.73,1.7,2.63,2.52-.29-.09-.57-.16-.82-.19-.77-.1-1.47.43-1.58,1.2-.1.77.44,1.48,1.21,1.58.12.02,2.99.45,3.13,3.98l.2,4.73c.03.76.65,1.35,1.4,1.35h.07c.77-.03,1.38-.68,1.34-1.46l-.19-4.73c-.05-1.14-.29-2.11-.66-2.93,2.3,1.88,4.7,3.65,7.19,5.3Z"/>
  <path class="cls-5" d="M82.28,159.31c.35,1.27.58,2.56.68,3.87-2.49-1.65-4.89-3.41-7.19-5.3-.96-2.06-2.72-3.12-4.1-3.53-.9-.83-1.78-1.66-2.63-2.52.65-.72,1.22-1.48,1.69-2.28,2.59,2.61,5.35,5.05,8.28,7.33,1.07.83,2.17,1.65,3.28,2.43Z"/>
  <path class="cls-5" d="M81.23,156.3c.42.98.77,1.98,1.05,3.01-1.12-.78-2.21-1.59-3.28-2.43l.05-.06c.25.22.57.33.9.33.21,0,.41-.05.61-.14.32-.15.55-.41.68-.71Z"/>
  <path class="cls-1" d="M81.22,155.14c.18.38.18.81,0,1.16-.95-2.29-2.19-4.43-3.48-6.29.88.43,1.59,1.22,2.14,2.34l1.33,2.78Z"/>
  <path class="cls-1" d="M81.23,156.3c-.12.3-.36.56-.68.71-.2.09-.4.14-.61.14-.33,0-.65-.11-.9-.33-.15-.13-.27-.29-.37-.48l-1.33-2.78c-.6-1.27-1.24-1.23-1.57-1.1-.7.29-1.53-.03-1.84-.72s-.04-1.49.65-1.83c.13-.06,1.32-.6,2.72-.11.15.06.3.11.44.2,1.28,1.87,2.53,4,3.48,6.29Z"/>
  <path class="cls-5" d="M79.05,156.82l-.05.06c-2.93-2.28-5.69-4.73-8.28-7.33.8-1.36,1.28-2.83,1.34-4.37.03-.74,0-1.43-.08-2.08,1.02,1,3.46,3.53,5.78,6.91-.14-.08-.29-.14-.44-.2-1.4-.49-2.59.06-2.72.11-.68.34-.96,1.13-.65,1.83s1.13,1.01,1.84.72c.33-.13.97-.17,1.57,1.1l1.33,2.78c.09.19.22.35.37.48Z"/>
  <path class="cls-1" d="M76.61,165.54c.04.78-.57,1.43-1.34,1.46h-.07c-.75,0-1.37-.59-1.4-1.35l-.2-4.73c-.14-3.53-3.01-3.96-3.13-3.98-.77-.1-1.31-.82-1.21-1.58.11-.77.82-1.3,1.58-1.2.24.03.53.09.82.19,1.32,1.22,2.69,2.4,4.1,3.53.37.82.61,1.78.66,2.93l.19,4.73Z"/>
  <path class="cls-1" d="M71.67,154.35c1.38.41,3.14,1.47,4.1,3.53-1.41-1.13-2.78-2.32-4.1-3.53Z"/>
  <path class="cls-1" d="M81.1,149.95c-2.69-2.88-5.18-5.93-7.45-9.15,1.01.96,4.49,4.39,7.45,9.15Z"/>
  <path class="cls-3" d="M73.65,140.8c-.14-.14-.23-.23-.27-.26-.58-.52-1.47-.48-1.99.1-.03.03-.05.06-.07.08-.92-2.05-2.71-3.38-5.36-3.97-.09-.02-.18-.03-.2-.04-.98-.36-2.33-.13-2.71-.06-.06,0-.11.03-.17.05l-6.06-5.38c-2.03-3.58-3.82-7.31-5.31-11.19,3.31-2.13,6.77-4.95,7.37-7.72.23-1.03.17-2.2-.07-3.4l.88-.2c2.44,11.7,7.27,22.53,13.94,31.97Z"/>
  <path class="cls-1" d="M71.98,143.1c.08.65.11,1.34.08,2.08-.06,1.54-.54,3.01-1.34,4.37-.7-.7-1.39-1.42-2.06-2.15.36-.77.56-1.55.59-2.33.15-3.92-1.76-4.97-3.16-5.37-.08-.17-.18-.3-.32-.42l-2.89-2.56c.06-.02.11-.04.17-.05.38-.08,1.73-.3,2.71.06.02,0,.1.02.2.04,2.65.58,4.44,1.91,5.36,3.97-.45.57-.38,1.41.16,1.9.02,0,.2.18.5.47Z"/>
  <path class="cls-1" d="M71.98,143.1c-.3-.29-.48-.46-.5-.47-.54-.5-.61-1.33-.16-1.9.33.7.54,1.5.66,2.37Z"/>
  <path class="cls-1" d="M70.72,149.55c-.47.8-1.04,1.56-1.69,2.28-.68-.66-1.33-1.34-1.99-2.03.68-.77,1.23-1.58,1.61-2.4.68.73,1.36,1.44,2.06,2.15Z"/>
  <path class="cls-5" d="M66.09,139.69c1.4.4,3.31,1.45,3.16,5.37-.03.79-.23,1.57-.59,2.33-.77-.82-1.51-1.64-2.25-2.48.74-2.81-.23-5.05-.28-5.17,0-.02-.02-.04-.04-.06Z"/>
  <path class="cls-5" d="M68.66,147.4c-.38.83-.93,1.63-1.61,2.4-.66-.69-1.29-1.4-1.92-2.11.24-.34.45-.68.63-1.04.3-.59.52-1.17.66-1.73.74.84,1.48,1.67,2.25,2.48Z"/>
  <path class="cls-1" d="M67.05,149.8c.66.68,1.31,1.37,1.99,2.03-3.94,4.29-10.87,7.1-15.83,7.1-.33,0-.64,0-.94-.03-.11-.32-.33-.6-.65-.78-.2-.11-.4-.17-.61-.18l.1-2.03c.51.13,1.2.21,2.09.21,4.73,0,10.69-2.74,13.84-6.31Z"/>
  <path class="cls-1" d="M66.13,139.75c.05.11,1.02,2.35.28,5.17-.9-1.06-1.78-2.13-2.63-3.23-.04-.23-.09-.42-.13-.55l-.9-.8c-2.16-2.87-4.13-5.88-5.92-9.01l6.06,5.38c-.68.22-1.08.9-.94,1.6.15.77.89,1.27,1.66,1.11.38-.08,1-.11,1.19-.06.12.04.31.09.56.15.22.05.46.1.73.18.02.02.03.04.04.06Z"/>
  <path class="cls-1" d="M66.41,144.92c-.14.56-.36,1.14-.66,1.73-.18.36-.38.7-.63,1.04-.66-.73-1.29-1.48-1.92-2.24,0,0,0-.02.02-.03.78-1.5.71-2.9.55-3.73.85,1.1,1.73,2.17,2.63,3.23Z"/>
  <path class="cls-1" d="M65.77,139.27c.14.12.24.25.32.42-.27-.08-.52-.13-.73-.18-.25-.06-.44-.11-.56-.15-.19-.06-.82-.02-1.19.06-.77.16-1.51-.34-1.66-1.11-.14-.7.26-1.39.94-1.6l2.89,2.56Z"/>
  <path class="cls-5" d="M65.12,147.69c.63.71,1.27,1.42,1.92,2.11-3.15,3.57-9.11,6.31-13.84,6.31-.89,0-1.58-.08-2.09-.21-.65-.16-1-.38-1.13-.61-.21-.39.12-1.21.35-1.56.14-.22.22-.45.23-.68.56.57.88.88.9.9.26.27.62.41.99.41.09,0,.2,0,.29-.03,6.11-1.32,10.28-3.55,12.38-6.65Z"/>
  <path class="cls-1" d="M63.2,145.45c.63.76,1.27,1.51,1.92,2.24-2.1,3.09-6.26,5.33-12.38,6.65-.09.02-.2.03-.29.03-.38,0-.73-.14-.99-.41-.02-.02-.34-.33-.9-.9.04-.49-.19-.98-.62-1.27-.26-.17-.55-.24-.84-.23l-.06-.06c-.14-.4-.45-.73-.84-.87-1.23-1.28-2.73-2.84-4.36-4.59.36-.27.57-.73.53-1.22-.04-.45-.29-.84-.66-1.07l.99-.92c3.75,4.06,6.96,7.34,8.19,8.6,5.35-1.28,8.9-3.32,10.29-5.97Z"/>
  <path class="cls-1" d="M63.19,173.35c.75.21,1.19.98.98,1.73-.18.63-.74,1.03-1.36,1.03-.12,0-.25-.02-.38-.05-.44-.12-10.81-3.07-13.47-9.49-.14-.35-.26-.69-.36-1.04.11-.18.18-.38.19-.61.03-.44-.15-.84-.46-1.11-.08-1.68.38-3.4,1.37-5.17.05-.08.09-.14.15-.21.68.24,1.48.39,2.41.45.12.37.09.78-.11,1.14-1.11,1.96-1.3,3.75-.59,5.45,2.13,5.17,11.53,7.84,11.63,7.87Z"/>
  <path class="cls-1" d="M63.77,141.69c.16.83.23,2.23-.55,3.73,0,0,0,.02-.02.03-3.21-3.85-6.08-7.97-8.57-12.31l8.11,7.2c.34.46.68.91,1.03,1.35Z"/>
  <path class="cls-1" d="M62.74,140.34l-8.11-7.2c-1.31-2.26-2.51-4.58-3.6-6.96l5.79,5.15c1.78,3.13,3.76,6.14,5.92,9.01Z"/>
  <path class="cls-1" d="M63.2,145.45c-1.4,2.65-4.94,4.7-10.29,5.97-1.24-1.26-4.44-4.54-8.19-8.6-1.78-1.92-3.69-4.02-5.57-6.17-13.26-15.17-12.23-17.81-12.19-17.91,2.55-2.86,11.13-9.39,17.47-13.88.81,4.83,2.04,9.54,3.66,14.07-1.43.84-2.85,1.58-4.06,2.15-.43.21-.73.61-.8,1.08s.1.94.46,1.25l10.95,9.72c2.49,4.34,5.36,8.46,8.57,12.31Z"/>
  <path class="cls-1" d="M58.82,109.03c.23,1.2.29,2.37.07,3.4-.6,2.77-4.06,5.59-7.37,7.72-.35-.9-.68-1.8-.98-2.71,2.82-1.88,5.24-3.97,5.6-5.61.67-3.08-2.66-8.92-4.43-11.57-.07,0-.14-.02-.21-.03-.02,0-.04,0-.06,0-.57.23-2.24,1.31-4.47,2.84-.16-1.03-.3-2.06-.41-3.11,2.33-1.54,4.06-2.52,4.63-2.52.1,0,.22.02.31.04.1-.02.22-.04.32-.04h.64c.45,0,.88.23,1.14.6.53.74,4.28,6.2,5.22,10.98Z"/>
  <path class="cls-1" d="M56.83,131.33l-5.79-5.15c-.7-1.5-1.35-3.02-1.95-4.57.77-.44,1.59-.93,2.44-1.47,1.49,3.87,3.27,7.6,5.31,11.19Z"/>
  <path class="cls-1" d="M51.71,100.26c1.76,2.65,5.09,8.49,4.43,11.57-.36,1.64-2.78,3.72-5.6,5.61-1.61-4.62-2.81-9.42-3.56-14.35,2.23-1.53,3.9-2.61,4.47-2.84.02,0,.04,0,.06,0,.07,0,.14.02.21.03Z"/>
  <path class="cls-1" d="M54.63,133.14l-10.95-9.72c-.36-.31-.53-.78-.46-1.25s.37-.87.8-1.08c1.21-.56,2.63-1.3,4.06-2.15.32.9.65,1.79,1,2.67-.73.41-1.4.78-1.98,1.08l3.93,3.49c1.09,2.38,2.29,4.7,3.6,6.96Z"/>
  <path class="cls-1" d="M51.62,158.12c.32.18.53.46.65.78-.93-.06-1.73-.21-2.41-.45.28-.35.71-.53,1.15-.51.21,0,.41.07.61.18Z"/>
  <path class="cls-1" d="M51.12,155.91l-.1,2.03c-.44-.02-.87.16-1.15.51-1.12-.38-1.89-.98-2.34-1.83-.62-1.14-.42-2.34-.11-3.22.15-.02.31-.04.47-.06.77-.08,1.32-.79,1.24-1.56,0-.08-.03-.15-.05-.23,0,0,.03,0,.04,0,.59.61,1.09,1.12,1.46,1.5,0,.23-.08.47-.23.68-.23.35-.55,1.16-.35,1.56.12.23.48.45,1.13.61Z"/>
  <path class="cls-1" d="M50.54,117.44c.31.91.64,1.81.98,2.71-.84.54-1.67,1.03-2.44,1.47-.36-.88-.68-1.77-1-2.67.83-.47,1.65-.98,2.46-1.51Z"/>
  <path class="cls-1" d="M49.95,151.79c.43.29.66.78.62,1.27-.38-.38-.87-.89-1.46-1.5.29,0,.58.07.84.23Z"/>
  <path class="cls-5" d="M47.52,156.62c.45.84,1.23,1.45,2.34,1.83-.06.07-.1.13-.15.21-.98,1.76-1.44,3.49-1.37,5.17-.23-.22-.53-.36-.86-.38-.67-.04-3.08-.09-5.61.87l-.13-.32c.68-.37.94-1.22.57-1.9-.02-.03-1.75-3.35-.47-5.78.8-1.52,2.67-2.49,5.56-2.91-.31.87-.51,2.07.11,3.22Z"/>
  <path class="cls-1" d="M49.11,151.79c.08.77-.47,1.47-1.24,1.56-.16.02-.32.04-.47.06.23-.65.53-1.12.59-1.22.25-.38.66-.59,1.07-.62.02.08.04.15.05.23Z"/>
  <path class="cls-1" d="M49.05,151.5s.02.05.02.07c-.41.03-.82.24-1.07.62-.07.1-.37.57-.59,1.22-2.89.41-4.76,1.39-5.56,2.91-1.28,2.44.45,5.76.47,5.78.37.68.11,1.54-.57,1.9-.22.11-.44.17-.67.17-.5,0-.98-.26-1.24-.74-.1-.19-2.46-4.63-.49-8.41.59-1.13,1.48-2.06,2.68-2.78.18.16.41.28.67.34.09,0,.19.02.27.02.43,0,.85-.2,1.12-.55l.75-.98c.83-.23,1.73-.4,2.72-.52.23-.03.44,0,.65.08.3.31.58.6.84.87Z"/>
  <path class="cls-1" d="M48.34,163.82c.31.26.49.67.46,1.11,0,.23-.08.43-.19.61-.15-.57-.24-1.13-.27-1.72Z"/>
  <path class="cls-1" d="M50.54,117.44c-.81.53-1.63,1.04-2.46,1.51-1.61-4.54-2.85-9.24-3.66-14.07.91-.65,1.76-1.25,2.55-1.79.75,4.93,1.95,9.73,3.56,14.35Z"/>
  <path class="cls-1" d="M49.05,151.5c-.26-.27-.54-.56-.84-.87.39.14.7.47.84.87Z"/>
  <path class="cls-5" d="M48.2,150.63c-.21-.08-.42-.1-.65-.08-.98.11-1.89.28-2.72.52l.12-.16c.48-.62.36-1.5-.26-1.97-.25-.2-.54-.29-.83-.29-.18-1.07-.25-2.02-.19-2.49.06-.04.11-.08.17-.12,1.63,1.75,3.13,3.32,4.36,4.59Z"/>
  <path class="cls-1" d="M46.56,99.97c.11,1.05.25,2.08.41,3.11-.79.54-1.64,1.14-2.55,1.79-.19-1.03-.35-2.07-.48-3.11.93-.66,1.81-1.26,2.62-1.79Z"/>
  <path class="cls-1" d="M44.69,148.94c.62.47.74,1.35.26,1.97l-.12.16c-1.07.29-2.01.68-2.8,1.17-.21-.19-.35-.42-.42-.68-.53-2.03-1.29-5.65-.23-7.16.14-.2.3-.37.49-.49.68.73,1.34,1.44,1.98,2.13-.06.05-.11.08-.17.12-.07.48,0,1.43.19,2.49.29,0,.58.09.83.29Z"/>
  <path class="cls-1" d="M44.84,151.07l-.75.98c-.26.36-.68.55-1.12.55-.08,0-.18,0-.27-.02-.25-.06-.49-.18-.67-.34.8-.49,1.73-.88,2.8-1.17Z"/>
  <path class="cls-1" d="M44.71,142.83l-.99.92c-.24-.16-.54-.23-.86-.21-.37.03-.7.15-.99.37-1.71-1.87-3.5-3.86-5.26-5.89-13.3-15.3-13.41-19.27-11.75-21.13,2.25-2.53,12.05-10.21,19.09-15.12.13,1.04.29,2.08.48,3.11-6.34,4.49-14.92,11.02-17.47,13.88-.04.09-1.07,2.74,12.19,17.91,1.88,2.15,3.79,4.25,5.57,6.17Z"/>
  <path class="cls-1" d="M44.38,144.81c.04.49-.18.95-.53,1.22-.64-.68-1.3-1.4-1.98-2.13.29-.22.63-.34.99-.37.32-.03.62.05.86.21.37.23.62.62.66,1.07Z"/>
</svg>