<svg xmlns="http://www.w3.org/2000/svg" xmlns:xlink="http://www.w3.org/1999/xlink" fill="none" version="1.1" width="50" height="50" viewBox="0 0 50 50"><defs><clipPath id="master_svg0_112_0274"><rect x="0" y="0" width="50" height="50" rx="0"/></clipPath></defs><g><g clip-path="url(#master_svg0_112_0274)"><g><path d="M17.77344,50.39065C22.4219,50.39065,26.1719,46.64065,26.1719,41.99219C26.1719,41.99219,26.1719,33.59375,26.1719,33.59375C26.1719,33.59375,17.77344,33.59375,17.77344,33.59375C13.125,33.59375,9.375,37.34375,9.375,41.99219C9.375,46.64065,13.125,50.39065,17.77344,50.39065C17.77344,50.39065,17.77344,50.39065,17.77344,50.39065Z" fill="#0ACF83" fill-opacity="1"/></g><g><path d="M9.375,25.195315C9.375,20.546875,13.125,16.796875,17.77344,16.796875C17.77344,16.796875,26.1719,16.796875,26.1719,16.796875C26.1719,16.796875,26.1719,33.593775,26.1719,33.593775C26.1719,33.593775,17.77344,33.593775,17.77344,33.593775C13.125,33.593775,9.375,29.843775,9.375,25.195315C9.375,25.195315,9.375,25.195315,9.375,25.195315Z" fill="#A259FF" fill-opacity="1"/></g><g><path d="M9.375,8.39844C9.375,3.75,13.125,0,17.77344,0C17.77344,0,26.1719,0,26.1719,0C26.1719,0,26.1719,16.7969,26.1719,16.7969C26.1719,16.7969,17.77344,16.7969,17.77344,16.7969C13.125,16.7969,9.375,13.0469,9.375,8.39844C9.375,8.39844,9.375,8.39844,9.375,8.39844Z" fill="#F24E1E" fill-opacity="1"/></g><g><path d="M26.171875,0C26.171875,0,34.570315,0,34.570315,0C39.218775,0,42.968775,3.75,42.968775,8.39844C42.968775,13.0469,39.218775,16.7969,34.570315,16.7969C34.570315,16.7969,26.171875,16.7969,26.171875,16.7969C26.171875,16.7969,26.171875,0,26.171875,0C26.171875,0,26.171875,0,26.171875,0Z" fill="#FF7262" fill-opacity="1"/></g><g><path d="M42.968775,25.195315C42.968775,29.843775,39.218775,33.593775,34.570315,33.593775C29.921875,33.593775,26.171875,29.843775,26.171875,25.195315C26.171875,20.546875,29.921875,16.796875,34.570315,16.796875C39.218775,16.796875,42.968775,20.546875,42.968775,25.195315C42.968775,25.195315,42.968775,25.195315,42.968775,25.195315Z" fill="#1ABCFE" fill-opacity="1"/></g></g></g></svg>