<svg xmlns="http://www.w3.org/2000/svg" xmlns:xlink="http://www.w3.org/1999/xlink" fill="none" version="1.1" width="203" height="131" viewBox="0 0 203 131"><g><g><g><g><path d="M41.898441698265074,40.075997151058196C53.41994169826508,42.101689151058196,61.12204169826508,53.095329151058195,59.096241698265075,64.6375291510582C57.070541698265075,76.1586291510582,46.07664169826508,83.86052915105819,34.53404169826508,81.83482915105819C23.012541698265075,79.80912915105819,-0.8745083017349242,65.9457291510582,1.1723516982650757,54.4246291510582C3.2192116982650756,42.903529151058194,30.376941698265075,38.050309151058194,41.91954169826508,40.076006151058195L41.898441698265074,40.075997151058196Z" fill="#00A261" fill-opacity="1"/></g><g><path d="M38.2479,83.18520161743163C36.9396,83.18520161743163,35.6524,83.07970161743164,34.3441,82.84760161743165C28.1191,81.75040161743163,19.1931,77.59350161743164,12.1452,72.52930161743164C7.10191,68.89990161743164,-1.16992,61.68340161743164,0.138373,54.25580161743164C2.37514,41.61637161743164,30.7146,37.07966161743164,42.0673,39.084258617431644C54.1374,41.21545161743164,62.2193,52.75770161743164,60.0881,64.82740161743163C59.0541,70.67240161743163,55.8044,75.75770161743165,50.9511,79.17610161743164C47.1739,81.81370161743163,42.7636,83.20640161743164,38.2479,83.20640161743164L38.2479,83.18520161743163ZM35.8423,40.64572161743164C23.0336,40.64572161743164,3.72565,45.66775161743164,2.16413,54.59340161743164C1.34117,59.21460161743164,5.43488,65.14390161743164,13.348,70.84120161743164C20.0583,75.67330161743163,28.8366,79.76690161743164,34.7028,80.80080161743163C39.9993,81.72930161743164,45.3591,80.54760161743164,49.7694,77.46690161743163C54.1796,74.38610161743165,57.1338,69.74390161743165,58.0623,64.44760161743164C60.0037,53.49620161743164,52.6603,43.00902161743164,41.7086,41.06773161743164C40.0204,40.77232161743164,38.0369,40.62461161743164,35.8423,40.62461161743164L35.8423,40.64572161743164Z" fill="#000000" fill-opacity="1"/></g></g><g><path d="M59.075147189617155,65.65032291870116Q58.94854718961716,65.65032291870116,58.90634718961716,65.65032291870116L1.1512411896171568,55.45859291870117C0.602599189617157,55.35308291870117,0.22276938961715698,54.82556291870117,0.328279889617157,54.27694691870117C0.433786189617157,53.72831791870117,0.961327189617157,53.32740991870117,1.509967189617157,53.45401101870117L59.26504718961716,63.64582291870117C59.81374718961716,63.75132291870117,60.193547189617156,64.27882291870117,60.08804718961716,64.82742291870117C60.003647189617155,65.33382291870117,59.560547189617154,65.67142291870117,59.075147189617155,65.67142291870117L59.075147189617155,65.65032291870116Z" fill="#000000" fill-opacity="1"/></g><g><path d="M21.514311416625976,78.0366023223877C21.261091416625977,78.0366023223877,20.986768416625978,77.93110232238769,20.775755416625977,77.7412023223877C20.374827416625976,77.3403023223877,20.374827416625976,76.6861023223877,20.775755416625977,76.2852023223877L37.04506141662598,60.14299432238769C37.44606141662598,59.742071322387694,38.10016141662598,59.742071322387694,38.50106141662597,60.14299432238769C38.902061416625976,60.5439183223877,38.902061416625976,61.19804232238769,38.50106141662597,61.59896232238769L22.231761416625975,77.7412023223877C22.041851416625978,77.93110232238769,21.767521416625975,78.0366023223877,21.514311416625976,78.0366023223877Z" fill="#000000" fill-opacity="1"/></g><g><path d="M34.51290016235352,82.8475768890381C34.238577162353515,82.8475768890381,33.985360162353516,82.74207688903809,33.774347162353514,82.53107688903809C33.37342016235352,82.13017688903808,33.39451786235352,81.47607688903808,33.774347162353514,81.07517688903809L52.49151016235352,62.84391288903809C52.892410162353514,62.44298988903809,53.54651016235351,62.464095389038086,53.94751016235352,62.84391288903809C54.34841016235352,63.24483688903808,54.32731016235351,63.89895688903809,53.94751016235352,64.29988688903809L35.23036016235351,82.53107688903809C35.04044016235351,82.72097688903808,34.766120162353516,82.82647688903809,34.51290016235352,82.82647688903809L34.51290016235352,82.8475768890381Z" fill="#000000" fill-opacity="1"/></g><g><path d="M10.457058576965332,70.94667740478516C10.203840576965332,70.94667740478516,9.929521576965332,70.84117740478516,9.739606576965333,70.65127740478516C9.338674576965332,70.25037740478516,9.338674576965332,69.59627740478516,9.739606576965333,69.19527740478516L21.619808576965333,57.420969404785154C22.020708576965333,57.020046404785155,22.674908576965333,57.020046404785155,23.075808576965333,57.420969404785154C23.476708576965333,57.82189340478516,23.476708576965333,58.47601740478515,23.075808576965333,58.87693740478515L11.195608576965332,70.65127740478516C11.005698576965331,70.84117740478516,10.731378576965332,70.94667740478516,10.478158576965331,70.94667740478516L10.457058576965332,70.94667740478516Z" fill="#000000" fill-opacity="1"/></g><g><path d="M37.78369649658203,61.89441792140007C37.40379649658203,61.89441792140007,37.02399649658203,61.68341792140007,36.85518649658203,61.30351792140007L27.08513219658203,40.58241792140007C26.85301349658203,40.07598992140007,27.064034196582032,39.46406792140007,27.57046849658203,39.21085072140007C28.07690649658203,38.97873892140007,28.68884649658203,39.18975332140007,28.942076496582033,39.69617192140007L38.712096496582035,60.41731792140007C38.94419649658203,60.92371792140007,38.73319649658203,61.535617921400075,38.22679649658203,61.78891792140007C38.07909649658203,61.85221792140007,37.93139649658203,61.89441792140007,37.78369649658203,61.89441792140007Z" fill="#000000" fill-opacity="1"/></g><g><path d="M53.229997326660154,64.61636002717017C52.85019732666016,64.61636002717017,52.49149732666015,64.40536002717019,52.30159732666016,64.02556002717019L40.96999932666016,40.49801002717018C40.71678232666016,39.991584027170184,40.927795626660156,39.379662027170184,41.45533632666016,39.126445027170185C41.961777326660155,38.87323602717018,42.57371732666016,39.10534752717018,42.826947326660154,39.611766027170184L54.158497326660154,63.139360027170184C54.41169732666016,63.64576002717018,54.200697326660155,64.25766002717017,53.67319732666016,64.51086002717018C53.52549732666016,64.57416002717018,53.37779732666016,64.61636002717017,53.229997326660154,64.61636002717017Z" fill="#000000" fill-opacity="1"/></g><g><path d="M22.337266915893554,59.17236511306763C21.957436915893553,59.17236511306763,21.577606915893554,58.96136511306763,21.408796915893554,58.581565113067626L14.276452615893554,43.45216511306763C14.044333915893555,42.94573711306763,14.255350615893555,42.33381511306763,14.761788915893554,42.08059791306763C15.268226915893555,41.84848611306763,15.880166915893554,42.059500513067626,16.133396915893556,42.56591911306763L23.265746915893555,57.69526511306763C23.497866915893553,58.20176511306762,23.286846915893555,58.81366511306763,22.780406915893554,59.06686511306763C22.632696915893554,59.130165113067626,22.484986915893554,59.17236511306763,22.337266915893554,59.17236511306763Z" fill="#000000" fill-opacity="1"/></g></g><g><g><g><path d="M161.12257259960174,40.07599709145355C149.60111259960175,42.10168909145355,141.89902259960175,53.09532909145355,143.92477459960173,64.63752909145356C145.95052259960175,76.15862909145355,156.94447259960174,83.86052909145354,168.48707259960173,81.83482909145354C180.00857259960173,79.80912909145354,203.89557259960173,65.94572909145356,201.84867259960174,54.42462909145355C199.82297259960174,42.90352909145355,172.64407259960174,38.05030909145355,161.10147259960175,40.07600609145355L161.12257259960174,40.07599709145355Z" fill="#00A261" fill-opacity="1"/></g><g><path d="M164.75210759277343,83.18527200927734C160.23630759277344,83.18527200927734,155.82610759277344,81.81367200927735,152.04890759277345,79.15497200927734C147.19552759277343,75.75767200927734,143.94589759277343,70.65127200927733,142.91190559277345,64.80627200927734C140.78063759277345,52.736572009277346,148.86255759277344,41.19434200927734,160.93270759277343,39.06313700927734C172.30640759277344,37.058542009277346,200.62480759277344,41.595252009277345,202.86160759277345,54.23467200927735C204.16990759277343,61.662272009277345,195.89810759277344,68.87877200927734,190.85480759277345,72.50817200927735C183.80680759277345,77.57237200927734,174.90200759277343,81.72927200927734,168.65590759277345,82.82647200927735C167.34760759277344,83.05867200927734,166.03930759277344,83.16417200927734,164.75210759277343,83.16417200927734L164.75210759277343,83.18527200927734ZM161.31250759277344,41.08884200927734C150.36077759277345,43.03012200927734,143.01742059277345,53.51727200927734,144.95876759277343,64.46867200927734C145.88723759277343,69.76507200927735,148.84145759277345,74.40727200927734,153.25170759277344,77.48797200927734C157.66190759277345,80.56867200927735,163.02170759277345,81.75037200927734,168.31820759277343,80.82197200927735C174.18450759277343,79.78797200927735,182.96280759277343,75.69437200927734,189.67310759277345,70.86227200927735C197.60730759277345,65.14397200927735,201.67990759277345,59.21457200927735,200.85690759277344,54.61457200927734C199.02110759277343,44.148482009277345,172.87620759277343,39.08425000927734,161.31250759277344,41.10994200927735L161.31250759277344,41.08884200927734Z" fill="#000000" fill-opacity="1"/></g></g><g><path d="M143.92477112174987,65.6503774810791C143.43943012174987,65.6503774810791,142.99629812174987,65.2916774810791,142.91188982174987,64.8062774810791C142.80637532174987,64.2576774810791,143.18620512174988,63.7090774810791,143.73485112174987,63.624677481079104L201.48996112174987,53.432905581079105C202.03866112174987,53.3273943810791,202.58726112174986,53.707212481079104,202.67166112174988,54.2558414810791C202.77716112174988,54.8044674810791,202.3973611217499,55.3530874810791,201.84866112174987,55.4374874810791L144.09357112174987,65.6292774810791Q143.96697112174988,65.6292774810791,143.92476112174987,65.6292774810791L143.92477112174987,65.6503774810791Z" fill="#000000" fill-opacity="1"/></g><g><path d="M181.50677070617675,78.0366023223877C181.25357070617676,78.0366023223877,180.97927070617675,77.93110232238769,180.78927070617675,77.7412023223877L164.51997270617676,61.59896232238769C164.11903670617676,61.19804232238769,164.11903670617676,60.5439183223877,164.51997270617676,60.14299432238769C164.92090870617676,59.742071322387694,165.57505070617677,59.742071322387694,165.97599070617676,60.14299432238769L182.24537070617674,76.2852023223877C182.64627070617675,76.6861023223877,182.64627070617675,77.3403023223877,182.24537070617674,77.7412023223877C182.05547070617675,77.93110232238769,181.78107070617676,78.0366023223877,181.50677070617675,78.0366023223877Z" fill="#000000" fill-opacity="1"/></g><g><path d="M168.48701256103516,82.84767359619141C168.23381256103517,82.84767359619141,167.98061256103514,82.7420735961914,167.76961256103516,82.55217359619141L149.05246756103514,64.3209935961914C148.65153166103516,63.920063596191405,148.63044156103516,63.26594259619141,149.05246756103514,62.865018596191405C149.45340356103515,62.464095596191406,150.10755256103516,62.44300659619141,150.50848256103515,62.865018596191405L169.22561256103515,81.09627359619141C169.62651256103516,81.4971735961914,169.64761256103515,82.1512735961914,169.22561256103515,82.55217359619141C169.03571256103515,82.76317359619141,168.76141256103517,82.8687735961914,168.48711256103516,82.8687735961914L168.48701256103516,82.84767359619141Z" fill="#000000" fill-opacity="1"/></g><g><path d="M192.56405322875978,70.94667740478516C192.31075322875978,70.94667740478516,192.03645322875977,70.84117740478516,191.84655322875977,70.65127740478516L179.96635522875977,58.87693740478515C179.56541922875977,58.47601740478515,179.56541922875977,57.82189340478516,179.96635522875977,57.420969404785154C180.36729122875977,57.020046404785155,181.02143322875978,57.020046404785155,181.42237322875977,57.420969404785154L193.30255322875976,69.19527740478516C193.70355322875977,69.59627740478516,193.70355322875977,70.25037740478516,193.30255322875976,70.65127740478516C193.11265322875977,70.84117740478516,192.83835322875976,70.94667740478516,192.56405322875978,70.94667740478516Z" fill="#000000" fill-opacity="1"/></g><g><path d="M165.23740569702147,61.89435773057937C165.0896916970215,61.89435773057937,164.94198069702148,61.85215773057938,164.7942696970215,61.78885773057938C164.28783579702147,61.55675773057938,164.0557166970215,60.94485773057937,164.3089256970215,60.41725773057938L174.0789656970215,39.69616373057938C174.31104569702148,39.189737230579375,174.92304569702148,38.957633730579374,175.45054569702148,39.21084273057938C175.9570456970215,39.44295473057937,176.18914569702147,40.05488373057938,175.93594569702148,40.58240773057938L166.16587569702148,61.30355773057938C165.9970656970215,61.683357730579374,165.61723569702147,61.89435773057937,165.23740569702147,61.89435773057937Z" fill="#000000" fill-opacity="1"/></g><g><path d="M149.7910251235962,64.61640412473679C149.6433101235962,64.61640412473679,149.4956001235962,64.57420412473678,149.3478891235962,64.51090412473678C148.8414547235962,64.25770412473679,148.6304421235962,63.64570412473678,148.86254482359618,63.13930412473678L160.1941251235962,39.61175812473679C160.4473251235962,39.10533142473679,161.05932512359618,38.89432512473679,161.5657251235962,39.12643692473679C162.07212512359618,39.37964612473679,162.2831251235962,39.99157612473679,162.0510251235962,40.49800412473679L150.7194951235962,64.02560412473679C150.5506851235962,64.38430412473679,150.1708551235962,64.61640412473679,149.7910251235962,64.61640412473679Z" fill="#000000" fill-opacity="1"/></g><g><path d="M180.6837901269531,59.172405071258545C180.53607612695313,59.172405071258545,180.38836512695312,59.130205071258544,180.24065412695313,59.066905071258546C179.7342202269531,58.83470507125854,179.50210112695314,58.22280507125855,179.75531012695313,57.695305071258545L186.88765012695313,42.56591107125855C187.1197701269531,42.059484571258544,187.73172012695312,41.82738107125854,188.25926012695314,42.08059007125855C188.76569012695313,42.31270207125854,188.9978101269531,42.924631071258545,188.74460012695312,43.452155071258545L181.61226012695312,58.58150507125855C181.44345012695314,58.96140507125855,181.0636201269531,59.172405071258545,180.6837901269531,59.172405071258545Z" fill="#000000" fill-opacity="1"/></g></g><g><g><path d="M119.3414165254593,34.58970567111969C145.16981652545928,-10.16539432888031,57.83021652545929,-10.16539432888031,83.65861652545928,34.58970567111969C57.83021652545929,-10.16539432888031,14.14981652545929,65.48150567111969,65.8277165254593,65.48150567111969C14.14981652545929,65.48150567111969,57.83021652545929,141.12840567111968,83.65861652545928,96.3733056711197C57.83021652545929,141.12840567111968,145.16981652545928,141.12840567111968,119.3414165254593,96.3733056711197C145.16981652545928,141.12840567111968,188.8498165254593,65.48150567111969,137.1722165254593,65.48150567111969C188.8498165254593,65.48150567111969,145.16981652545928,-10.16539432888031,119.3414165254593,34.58970567111969Z" fill="#FF5B22" fill-opacity="1"/></g><g><path d="M101.51050405273438,131C95.07450405273437,131,88.63850405273438,129.08,84.08060405273437,125.261C80.38780405273437,122.159,75.57660405273438,115.744,78.84740405273438,104.708C70.93430405273438,113.064,62.979004052734375,112.115,58.44210405273438,110.469C47.25827405273438,106.396,38.944244052734376,92.0054,41.01218905273438,80.2944C41.85625405273437,75.5256,45.00039405273438,68.1825,56.20530405273438,65.5026C45.00039405273438,62.8228,41.85625405273437,55.4586,41.01218905273438,50.7109C38.94423405273437,38.9787,47.258264052734376,24.609,58.44210405273438,20.5365C62.979004052734375,18.8906,70.93430405273438,17.9411,78.84740405273438,26.2971C75.57660405273438,15.2613,80.36670405273438,8.84657,84.08060405273437,5.74473C93.19650405273438,-1.91491,109.80350405273437,-1.91491,118.94050405273437,5.74473C122.63330405273437,8.84658,127.44440405273437,15.2613,124.17370405273438,26.2971C132.08680405273438,17.9411,140.04210405273437,18.8906,144.5794040527344,20.5365C155.76240405273438,24.609,164.07640405273438,38.9998,162.00840405273436,50.7109C161.16440405273437,55.4797,158.02040405273436,62.8228,146.81540405273438,65.5026C158.02040405273436,68.1824,161.16440405273437,75.5467,162.00840405273436,80.2944C164.07640405273438,92.0265,155.76240405273438,106.396,144.5794040527344,110.469C140.04210405273437,112.115,132.08680405273438,113.064,124.17370405273438,104.708C127.44440405273437,115.744,122.65440405273438,122.159,118.94050405273437,125.261C114.38250405273438,129.08,107.94650405273437,131,101.51050405273438,131ZM84.56590405273437,96.9009C78.02440405273438,108.232,78.31990405273437,117.749,85.41000405273437,123.699C93.68180405273438,130.641,109.33920405273437,130.641,117.63220405273438,123.699C124.72230405273437,117.749,125.01770405273437,108.232,118.47620405273437,96.9009C118.39180405273437,96.7321,118.32850405273437,96.5632,118.32850405273437,96.3945C118.32850405273437,96.0357,118.51840405273437,95.6981,118.83500405273438,95.5082C119.32030405273437,95.2128,119.95330405273438,95.3816,120.22770405273438,95.888C126.76920405273438,107.219,135.16760405273436,111.714,143.86140405273437,108.549C154.01140405273438,104.856,161.84040405273436,91.288,159.96240405273437,80.6531C158.3584040527344,71.5375,150.25540405273438,66.5155,137.17230405273438,66.5155C136.6025040527344,66.5155,136.13830405273438,66.0513,136.13830405273438,65.4816C136.13830405273438,64.9118,136.6025040527344,64.4476,137.17230405273438,64.4476C150.25540405273438,64.4476,158.3584040527344,59.4256,159.96240405273437,50.31C161.84040405273436,39.6751,154.01140405273438,26.1072,143.86140405273437,22.4145C135.16760405273436,19.2494,126.76920405273438,23.7439,120.22770405273438,35.0751C119.95340405273437,35.5604,119.32030405273437,35.7292,118.83500405273438,35.4549C118.49730405273438,35.265,118.32850405273437,34.9274,118.32850405273437,34.5687C118.32850405273437,34.3999,118.37070405273437,34.21,118.47620405273437,34.0623C125.01770405273437,22.731,124.72230405273437,13.2145,117.63220405273438,7.26404C109.36030405273438,0.321822,93.70300405273437,0.321822,85.41000405273437,7.26404C78.31990405273437,13.2145,78.02440405273438,22.731,84.56590405273437,34.0623C84.65030405273438,34.2311,84.71360405273438,34.3999,84.71360405273438,34.5687C84.71360405273438,34.9274,84.52370405273437,35.265,84.20720405273437,35.4549C83.72190405273437,35.7292,83.08880405273437,35.5604,82.81450405273438,35.0751C76.27300405273436,23.7439,67.87460405273438,19.2494,59.18070405273437,22.4145C49.03081405273437,26.1072,41.20212005273437,39.6751,43.080164052734375,50.31C44.68388405273438,59.4256,52.78690405273437,64.4476,65.86990405273437,64.4476C66.43960405273438,64.4476,66.90390405273438,64.9118,66.90390405273438,65.4816C66.90390405273438,66.0513,66.43960405273438,66.5155,65.86990405273437,66.5155C52.78690405273437,66.5155,44.68388405273438,71.5375,43.080164052734375,80.6531C41.20212005273437,91.288,49.03081405273437,104.856,59.18070405273437,108.549C67.87460405273438,111.714,76.27300405273436,107.219,82.81450405273438,95.888C83.08880405273437,95.4027,83.72190405273437,95.2339,84.20720405273437,95.5082C84.54480405273438,95.6981,84.71360405273438,96.0357,84.71360405273438,96.3945C84.71360405273438,96.5633,84.67140405273437,96.7532,84.56590405273437,96.9009Z" fill="#000000" fill-opacity="1"/></g></g><g><g><g><ellipse cx="101.51053762435913" cy="65.48154103755951" rx="33.340553283691406" ry="33.339508056640625" fill="#FFD700" fill-opacity="1"/></g><g><path d="M101.51050158691406,99.8549961669922C82.56130158691406,99.8549961669922,67.13600158691406,84.43019616699219,67.13600158691406,65.48159616699219C67.13600158691406,46.53289616699219,82.56130158691406,31.129196166992188,101.51050158691406,31.129196166992188C120.45980158691407,31.129196166992188,135.88510158691406,46.553996166992185,135.88510158691406,65.48159616699219C135.88510158691406,84.40909616699219,120.45980158691407,99.8549961669922,101.51050158691406,99.8549961669922ZM101.51050158691406,33.17598616699219C83.70080158691407,33.17598616699219,69.20396158691406,47.67229616699218,69.20396158691406,65.48159616699219C69.20396158691406,83.29079616699218,83.70080158691407,97.78709616699219,101.51050158691406,97.78709616699219C119.32030158691407,97.78709616699219,133.81710158691408,83.29069616699218,133.81710158691408,65.48159616699219C133.81710158691408,47.672396166992186,119.32030158691407,33.17598616699219,101.51050158691406,33.17598616699219Z" fill="#000000" fill-opacity="1"/></g></g><g><g><g><g><g><path d="M84.54483440518379,56.007226306915285C84.54483440518379,53.53841630691528,86.54948440518379,51.51272630691528,89.0394744051838,51.51272630691528C91.52946440518379,51.51272630691528,93.5341144051838,53.51730630691528,93.5341144051838,56.007226306915285L93.5341144051838,64.97512630691529C93.5341144051838,67.44392630691529,91.52946440518379,69.46962630691529,89.0394744051838,69.46962630691529C86.54948440518379,69.46962630691529,84.54483440518379,67.46502630691528,84.54483440518379,64.97512630691529L84.54483440518379,56.007226306915285Z" fill="#FFFFFF" fill-opacity="1"/></g><g><path d="M89.0183823486042,70.48246787185668C87.5412723486042,70.48246787185668,86.16967234860421,69.91276787185669,85.1145823486042,68.85766787185669C84.0806123486042,67.82376787185669,83.4897697486042,66.43106787185668,83.5108597236042,64.9540678718567L83.5108597236042,55.98611787185669C83.5108597236042,52.94757787185669,85.9797423486042,50.47876787185669,89.0183823486042,50.47876787185669C92.0570223486042,50.47876787185669,94.52591234860421,52.94757787185669,94.52591234860421,55.98611787185669L94.52591234860421,64.9540678718567C94.52591234860421,67.99256787185669,92.0570223486042,70.4613678718567,89.0183823486042,70.4613678718567L89.0183823486042,70.48246787185668ZM89.0183823486042,52.54664787185669C87.1192323486042,52.54664787185669,85.5577223486042,54.10811787185669,85.5577223486042,56.00720787185669L85.5577223486042,64.9750678718567C85.5577223486042,65.9035678718567,85.9164423486042,66.76866787185669,86.5706023486042,67.42286787185668C87.2247523486042,68.07696787185668,88.0899223486042,68.4356678718567,89.0184023486042,68.4356678718567C90.9175523486042,68.4356678718567,92.4790623486042,66.87426787185669,92.4790623486042,64.97516787185668L92.4790623486042,56.00722787185669C92.4790623486042,54.10813787185669,90.9175523486042,52.54666787185669,89.0183823486042,52.54664787185669Z" fill="#000000" fill-opacity="1"/></g></g><g><path d="M86.00085094571114,54.593445308914184C86.00085094571114,52.94757530891418,87.33025094571114,51.618205308914185,88.97619094571114,51.618205308914185C90.62212094571113,51.618205308914185,91.95152094571114,52.94755530891418,91.95152094571114,54.593445308914184L91.95152094571114,56.00720530891419L88.97619094571114,57.56867530891419L91.95152094571114,59.066835308914186L91.95152094571114,60.543905308914184C91.95152094571114,62.18980530891419,90.62212094571113,63.519105308914185,88.97619094571114,63.519105308914185C87.33025094571114,63.519105308914185,86.00085094571114,62.18980530891419,86.00085094571114,60.543905308914184L86.00085094571114,54.57232530891419L86.00085094571114,54.593445308914184Z" fill="#000000" fill-opacity="1"/></g></g><g><path d="M93.70296108779907,50.71088142150879C93.30196108779907,50.71088142150879,92.92218108779907,50.47877142150879,92.75338108779907,50.077841421508786C92.12032108779907,48.55857142150879,90.62211108779907,47.56682142150879,88.97619108779907,47.56682142150879C87.33026108779907,47.56682142150879,85.83205108779907,48.55857142150879,85.19899108779907,50.077841421508786C84.98798108779907,50.60537142150879,84.37603108779908,50.83748142150879,83.84849308779907,50.62647142150879C83.32095288779907,50.41547142150879,83.08883408779907,49.80354142150879,83.29984678779907,49.27601142150879C84.27052108779907,46.97602142150879,86.48619108779907,45.49894142150879,88.97619108779907,45.49894142150879C91.46618108779907,45.49894142150879,93.68186108779908,46.97600142150879,94.65256108779907,49.27601142150879C94.86356108779907,49.80354142150879,94.63146108779907,50.39436142150879,94.10386108779907,50.62647142150879C93.97726108779906,50.68977142150879,93.82956108779908,50.71088142150879,93.70296108779907,50.71088142150879Z" fill="#000000" fill-opacity="1"/></g></g><g><g><g><g><path d="M109.50804902613163,56.38702826571465C109.50804902613163,53.91821826571464,111.51269902613163,51.892528265714645,114.00268902613163,51.892528265714645C116.49267902613163,51.892528265714645,118.49732902613164,53.89710826571464,118.49732902613164,56.38702826571465L118.49732902613164,65.35492826571465C118.49732902613164,67.82372826571465,116.49267902613163,69.84942826571465,114.00268902613163,69.84942826571465C111.51269902613163,69.84942826571465,109.50804902613163,67.84482826571464,109.50804902613163,65.35492826571465L109.50804902613163,56.38702826571465Z" fill="#FFFFFF" fill-opacity="1"/></g><g><path d="M114.00268440927982,70.88338082680703C110.96405440927983,70.88338082680703,108.49516440927982,68.41458082680703,108.49516440927982,65.37608082680703L108.49516440927982,56.408130826807025C108.49516440927982,53.36959082680702,110.96405440927983,50.90078082680702,114.00268440927982,50.90078082680702C117.04132440927982,50.90078082680702,119.51016440927982,53.36959082680702,119.51016440927982,56.408130826807025L119.51016440927982,65.37608082680703C119.51016440927982,68.41458082680703,117.04132440927982,70.88338082680703,114.00268440927982,70.88338082680703ZM114.00268440927982,52.92647082680702C112.10353440927982,52.92647082680702,110.54202440927982,54.48794082680702,110.54202440927982,56.38703082680702L110.54202440927982,65.35498082680702C110.54202440927982,67.25398082680702,112.10353440927982,68.81548082680702,114.00268440927982,68.81548082680702C115.90183440927983,68.81548082680702,117.46335440927982,67.25398082680702,117.46335440927982,65.35498082680702L117.46335440927982,56.38703082680702C117.46335440927982,54.48794082680702,115.90183440927983,52.92647082680702,114.00268440927982,52.92647082680702Z" fill="#000000" fill-opacity="1"/></g></g><g><path d="M111.00626184046268,54.593445577135086C111.00626184046268,52.94757557713508,112.33566184046269,51.618205577135086,113.98160184046269,51.618205577135086C115.62753184046268,51.618205577135086,116.95693184046269,52.947555577135084,116.95693184046269,54.593445577135086L116.95693184046269,56.00720557713509L113.98160184046269,57.56867557713509L116.95693184046269,59.06683557713509L116.95693184046269,60.543905577135085C116.95693184046269,62.18980557713509,115.62753184046268,63.519105577135086,113.98160184046269,63.519105577135086C112.33566184046269,63.519105577135086,111.00626184046268,62.18980557713509,111.00626184046268,60.543905577135085L111.00626184046268,54.57232557713509L111.00626184046268,54.593445577135086Z" fill="#000000" fill-opacity="1"/></g></g><g><path d="M118.75056803283691,51.11178861016273C118.34956803283691,51.11178861016273,117.96978803283692,50.879678610162735,117.80098803283691,50.47874861016273C117.16792803283691,48.95947861016273,115.66971803283691,47.96772861016274,114.02379803283691,47.96772861016274C112.37786803283691,47.96772861016274,110.87965803283691,48.95947861016273,110.24659803283691,50.47874861016273C110.03558803283691,51.00627861016274,109.42363803283692,51.23838861016274,108.89610003283691,51.027378610162735C108.36855983283691,50.81637861016274,108.13644103283691,50.204448610162736,108.34745373283691,49.67691861016274C109.31812803283691,47.376928610162736,111.53379803283691,45.899848610162735,114.02379803283691,45.899848610162735C116.51378803283691,45.899848610162735,118.72946803283692,47.37690861016274,119.70016803283691,49.67691861016274C119.91116803283691,50.204448610162736,119.67906803283691,50.795268610162736,119.15146803283692,51.027378610162735C119.0248680328369,51.09067861016273,118.87716803283692,51.11178861016273,118.75056803283691,51.11178861016273Z" fill="#000000" fill-opacity="1"/></g></g><g><g><path d="M86.31737850399017,71.49531893177033C86.31737850399017,73.22559893177032,84.43933850399017,74.61826893177033,82.11814850399017,74.61826893177033C79.79696850399017,74.61826893177033,77.91892850399017,73.22559893177032,77.91892850399017,71.49531893177033C77.91892850399017,69.76503893177032,79.79696850399017,68.37236893177032,82.11814850399017,68.37236893177032C84.43933850399017,68.37236893177032,86.31737850399017,69.76503893177032,86.31737850399017,71.49531893177033Z" fill="#FF7FCB" fill-opacity="1"/></g><g><path d="M82.09704773254394,75.65220658996581C79.20612773254395,75.65220658996581,76.86384773254395,73.79532658996582,76.86384773254395,71.49531658996582C76.86384773254395,69.19530658996582,79.20612773254395,67.33842658996582,82.09704773254394,67.33842658996582C84.98796773254395,67.33842658996582,87.33024773254394,69.19530658996582,87.33024773254394,71.49531658996582C87.33024773254394,73.79532658996582,84.98796773254395,75.65220658996581,82.09704773254394,75.65220658996581ZM82.09704773254394,69.40632658996581C80.36671773254395,69.40632658996581,78.91070773254394,70.37696658996582,78.91070773254394,71.51642658996582C78.91070773254394,72.65587658996581,80.36671773254395,73.60541658996581,82.09704773254394,73.60541658996581C83.82738773254394,73.60541658996581,85.28338773254394,72.63476658996582,85.28338773254394,71.51642658996582C85.28338773254394,70.39807658996583,83.82736773254395,69.40632658996581,82.09704773254394,69.40632658996581Z" fill="#000000" fill-opacity="1"/></g></g><g><g><path d="M125.1232646533966,71.49531893177033C125.1232646533966,73.22559893177032,123.2452246533966,74.61826893177033,120.9240346533966,74.61826893177033C118.6028546533966,74.61826893177033,116.7248146533966,73.22559893177032,116.7248146533966,71.49531893177033C116.7248146533966,69.76503893177032,118.6028546533966,68.37236893177032,120.9240346533966,68.37236893177032C123.2452246533966,68.37236893177032,125.1232646533966,69.76503893177032,125.1232646533966,71.49531893177033Z" fill="#FF7FCB" fill-opacity="1"/></g><g><path d="M120.90292778869629,75.65220658996581C118.01199778869629,75.65220658996581,115.66971778869629,73.79532658996582,115.66971778869629,71.49531658996582C115.66971778869629,69.19530658996582,118.01199778869629,67.33842658996582,120.90292778869629,67.33842658996582C123.79385778869629,67.33842658996582,126.13611778869628,69.19530658996582,126.13611778869628,71.49531658996582C126.13611778869628,73.79532658996582,123.79385778869629,75.65220658996581,120.90292778869629,75.65220658996581ZM120.90292778869629,69.40632658996581C119.1725977886963,69.40632658996581,117.71657778869628,70.37696658996582,117.71657778869628,71.51642658996582C117.71657778869628,72.65587658996581,119.1725977886963,73.60541658996581,120.90292778869629,73.60541658996581C122.63325778869628,73.60541658996581,124.0892777886963,72.63476658996582,124.0892777886963,71.51642658996582C124.0892777886963,70.39807658996583,122.63325778869628,69.40632658996581,120.90292778869629,69.40632658996581Z" fill="#000000" fill-opacity="1"/></g></g><g><path d="M101.51051074523926,82.1302043347168C97.22691074523925,82.1302043347168,93.25979074523926,79.9989943347168,90.89642474523926,76.41184433471679C90.57989774523926,75.94762433471679,90.70651834523926,75.3146003347168,91.19184674523926,74.9980833347168C91.65608474523926,74.6815653347168,92.31023074523925,74.8081824347168,92.60565074523926,75.2934953347168C94.58921074523926,78.2898243347168,97.92325074523926,80.0834043347168,101.51051074523926,80.0834043347168C105.09781074523926,80.0834043347168,108.43191074523926,78.2898243347168,110.41541074523926,75.2934953347168C110.73191074523926,74.8292717647168,111.36501074523926,74.6815653347168,111.82921074523927,74.9980833347168C112.29351074523926,75.3146003347168,112.44121074523926,75.94762433471679,112.12461074523927,76.41184433471679C109.76121074523925,79.9989943347168,105.79421074523925,82.1302043347168,101.51051074523926,82.1302043347168Z" fill="#000000" fill-opacity="1"/></g><g><path d="M90.47438695800781,78.92284628234863C90.15785695800781,78.92284628234863,89.84132795800781,78.77513628234863,89.63031595800781,78.47972628234864C88.63853695800782,77.08705628234863,88.97617055800781,75.14577628234863,90.36886695800781,74.15402728234864C91.76158695800781,73.16227928234863,93.70292695800781,73.49990248234863,94.69470695800781,74.89255628234864C95.03233695800782,75.35677628234863,94.90571695800782,75.98979628234864,94.44147695800781,76.32742628234864C93.97724695800781,76.64393628234863,93.34420695800782,76.53842628234864,93.00656695800781,76.07420628234863C92.66893695800782,75.60998628234863,92.0147969580078,75.48337628234863,91.55055695800782,75.82098628234863C91.08631695800781,76.15861628234863,90.95970695800781,76.81273628234864,91.29732695800782,77.27695628234864C91.63496695800781,77.74118628234864,91.50833695800782,78.37420628234864,91.04410695800782,78.71182628234864C90.85419695800782,78.83842628234864,90.66427695800782,78.90172628234863,90.45325695800781,78.90172628234863L90.47438695800781,78.92284628234863Z" fill="#000000" fill-opacity="1"/></g><g><path d="M112.54668207641602,78.92284635375977C112.33567207641602,78.92284635375977,112.12466207641602,78.85954635375977,111.95584207641602,78.73294635375977C111.49160207641602,78.41642635375976,111.38611207641601,77.76230635375977,111.70262207641602,77.29807635375977C112.04025207641601,76.83385635375977,111.93474207641601,76.17973635375976,111.44939207641602,75.84210635375976C110.98515207641601,75.50448635375976,110.33101207641602,75.63110635375976,109.99337207641602,76.09532635375976C109.67685207641601,76.55954635375977,109.02270407641602,76.66504635375976,108.55846607641601,76.34854635375977C108.09422827641602,76.01091635375977,107.98873007641602,75.37789635375977,108.30524107641601,74.91367635375977C109.29702207641601,73.52100645375977,111.23836207641601,73.18339935375977,112.63108207641602,74.17514735375977C114.02379207641602,75.16689635375977,114.36141207641602,77.10817635375976,113.36963207641601,78.50084635375977C113.17972207641601,78.77515635375977,112.86320207641602,78.94396635375976,112.52556207641601,78.94396635375976L112.54668207641602,78.92284635375977Z" fill="#000000" fill-opacity="1"/></g></g></g></g></svg>