<?xml version="1.0" encoding="UTF-8"?>
<svg xmlns="http://www.w3.org/2000/svg" version="1.1" xmlns:xlink="http://www.w3.org/1999/xlink" viewBox="0 0 500 500">
  <defs>
    <style>
      .cls-1 {
        fill: none;
        stroke: #000;
        stroke-miterlimit: 10;
      }

      .cls-2 {
        fill: #efe77f;
      }

      .cls-3 {
        fill: #fff;
      }

      .cls-4 {
        fill: #ccb6ef;
      }

      .cls-5 {
        fill: #cd924e;
      }

      .cls-6 {
        fill: #90bdff;
      }

      .cls-7 {
        fill: #fdfbef;
      }

      .cls-8 {
        display: none;
      }

      .cls-9 {
        opacity: .7;
      }
    </style>
  </defs>
  <!-- Generator: Adobe Illustrator 28.6.0, SVG Export Plug-In . SVG Version: 1.2.0 Build 709)  -->
  <g>
    <g id="Layer_1" class="cls-8">
      <image class="cls-9" width="563" height="564" transform="translate(0 3) scale(.9)" xlink:href="html-1.png"/>
      <image class="cls-9" width="563" height="564" transform="translate(540 -5) scale(.9)" xlink:href="html-2.png"/>
    </g>
    <g id="_클릭" data-name="클릭">
      <g>
        <g>
          <path d="M436.8,69.6c4.4,9.6,4.8,20.7,1.2,32.8-6.1,20.6-22.2,37.4-43,44.8l-29.1,10.4c-1-.4-1.9-.7-2.6-1-.2,0-.5,0-.7,0l-12.5,5c-.7-.3-1.3-.6-1.9-.9l45.9-16.3c19.9-7.1,35.3-23.1,41.1-42.8,3.4-11.4,3-21.7-1.1-30.8,0,0-.4-1-1.1-2.6-14.5-31.3-50.2-46.8-83.2-36.1L78.1,120.3l-.5-1.4-.5-1.4L348.8,29.2c34.4-11.2,71.7,5,86.8,37.7.8,1.7,1.2,2.7,1.2,2.7Z"/>
          <path class="cls-6" d="M434,70.8c4.1,9.1,4.5,19.4,1.1,30.8-5.8,19.7-21.2,35.7-41.1,42.8l-45.9,16.3c-12.9-5.3-18.6.2-18.9.6-1.5,1.8-2,3.6-1.4,5.2.1.4.4.8.6,1.2l-35.9,11.8-17.7-12-3.5-88.6-16.1,4.8,2,57.8-30-49.6-16.3,4.8,1,28.3h0c-1.4-1-3.2-1.2-4.7-.5-.6.2-1.1.6-1.5,1,0,0-.2,0-.2,0-.5,0-1,.4-1.1.9l-.2,1.9c0,0,0,.1,0,.2l-.9,10.3-20.3-33.7-16.1,4.8,34,56.2-4.1,45.2c-2.5.9-16.8,6-33.9,12,1-3,1.2-6-.7-7.9-1.5-1.5-4-1.7-6.6-.6-4.7,2-9.5,7.8-9.9,14.4-20.6,7.1-40.9,13.7-46.6,14.7-11.7,1.9-38.6-4-56.9-40.5-10.6-21.1-1.7-44.4,7.6-60.2,6.3-10.8,16.3-18.8,28.2-22.7L349.7,32c33-10.7,68.7,4.8,83.2,36.1.7,1.6,1.1,2.5,1.1,2.6ZM402.4,114c0-5-4.1-9-9.1-8.9s-9,4.1-8.9,9.1,4.1,9,9.1,8.9,9-4.1,8.9-9.1ZM383.3,138.6l-3.6-91.7-16.1,4.8,2,57.8-30-49.6-16.2,4.8,2.1,58.1-30.1-49.9-16.1,4.8,47.6,78.7,16.3-4.8-2.2-57.8,30,49.6,16.4-4.8ZM166.7,202.5l-3.6-91.7-16.1,4.8,2,57.8-30-49.6-16.3,4.8,2.1,58.1-30.1-49.9-16.1,4.8,47.6,78.7,16.3-4.8-2.2-57.8,30,49.6,16.4-4.8Z"/>
          <path d="M402.6,254.1c1.5,1,2.3,2.8,2.2,4.6s-1.3,3.4-3,4.1l-69.1,29.5c-.8.3-1.3.9-1.6,1.7s-.3,1.6,0,2.3l36.6,77.3c1.2,2.4.2,5.3-2.2,6.6l-16.5,8.5c-.1,0-.3.1-.4.1h0c.3-.9.6-1.8,1-2.7l15-7.7c1.4-.7,2-2.5,1.3-3.9l-36.6-77.3c-.6-1.2-.6-2.6-.2-3.9s1.4-2.3,2.7-2.8l69.1-29.5c1-.4,1.7-1.4,1.8-2.5,0-1.1-.4-2.1-1.3-2.8l-42-28.4.6-.9,15.1,9.8c.2.1.4.2.6.2s.3,0,.5-.1l26.3,17.8Z"/>
          <path class="cls-7" d="M401.5,255.7c.9.6,1.4,1.7,1.3,2.8-.1,1.1-.8,2-1.8,2.5l-69.1,29.5c-1.3.5-2.2,1.5-2.7,2.8s-.4,2.7.2,3.9l36.6,77.3c.7,1.5.1,3.2-1.3,3.9l-15,7.7c.7-1.6,1.6-3.2,2.7-4.8.3-.5.2-1.1-.3-1.4-.5-.3-1.1-.2-1.4.3-1.6,2.3-2.8,4.7-3.7,7.1-3.2,8.7-2.1,17.7,1.1,25.6-2.7,1-9.8,1.7-14.2,2-.2,0-.3,0-.5.2-2.5-7.7-3.5-15.2-3.6-16.1h0c-1.1-11.4,11.3-23.3,11.4-23.4.4-.4.4-1,0-1.4-.4-.4-1-.4-1.4,0-.5.5-12.8,12.2-12.1,24.3-1.4.7-5.2,2.6-8.9,2.7s-5.8-2-6.1-2.4l-14.6-34.3s0,0,0,0l-21.4-50.2c-.2-.5-.8-.7-1.3-.5-.7.3-68.7,28.8-78.5,31.2-3.4.8-6,.6-7.8-.5-1.5-1-1.9-2.3-2-2.7l3.3-36.9c0,0,0-.1,0-.2l1.9-21,6.3-69.7,28.4-9.4c-1.6,3.4-2.5,7.5-2.5,11.9.1,12.1,7.7,21.9,16.8,21.8s12.1-5.2,14.7-12.6c2.7,1.8,5.7,2.7,8.6,2.7s2.3-.2,3.4-.5c6.8-2,10.9-9.4,10.8-18s-.4-5-1.2-7.6c-1.4-4.8-4-9-7.3-12l22.9-7.6,66.2,44.9,42,28.4ZM266,246.4c2.2-2.9,2.6-6.4.8-7.7-1.7-1.3-5,0-7.2,3-2.2,2.9-2.6,6.4-.9,7.7,1.7,1.3,5,0,7.2-3Z"/>
          <path d="M393.3,105.2c5,0,9,3.9,9.1,8.9s-3.9,9-8.9,9.1-9-3.9-9.1-8.9,3.9-9,8.9-9.1ZM401.9,114c0-4.7-3.9-8.5-8.6-8.4s-8.5,3.9-8.4,8.6,3.9,8.5,8.6,8.4,8.5-3.9,8.4-8.6Z"/>
          <path d="M393.3,105.7c4.7,0,8.5,3.7,8.6,8.4s-3.7,8.5-8.4,8.6-8.5-3.7-8.6-8.4,3.7-8.5,8.4-8.6ZM401.4,114.1c0-4.4-3.7-8-8.1-7.9s-8,3.7-7.9,8.1,3.7,8,8.1,7.9,8-3.7,7.9-8.1Z"/>
          <path d="M393.3,106.2c4.4,0,8,3.5,8.1,7.9s-3.5,8-7.9,8.1-8-3.5-8.1-7.9,3.5-8,7.9-8.1Z"/>
          <path d="M389.1,178.8c5.7,11.4,5.7,24.4.2,38.4-2.8,7.1-7.1,13.5-12.8,18.9,0,0-.1.1-.2.2l-14.6-9.9.6-.9,13.4,8.7c5.2-5.1,9.1-11.1,11.7-17.7,5.3-13.5,5.2-25.8-.2-36.8-6.7-13.5-18.9-19.1-24.3-21.1l2.9-1c6.3,2.6,17,8.7,23.2,21.2Z"/>
          <path class="cls-7" d="M387.3,179.7c5.4,10.9,5.4,23.3.2,36.8-2.6,6.6-6.5,12.6-11.7,17.7l-13.4-8.7c3.6-3.4,15.8-16.1,14.2-30.2-1.1-9.2-7.8-17.1-20-23.5-.4-.2-.9,0-1.2.3,0,0-3.8,4.3-15.8-1.1,0,0-.2,0-.2,0-1.2-.2-3.6-.8-5.6-1.8l15.7-5.6c0,0,.2,0,.2.1.3.1.6.1.8,0l12.1-4.8.5-.2c5.4,1.9,17.7,7.6,24.3,21.1Z"/>
          <path d="M387.2,446.7c1.6,2.2,1.3,4.1.8,5.3-.3.8-.9,1.5-1.5,2.1-.1-.2-.3-.5-.4-.7-.3-.5-.9-.6-1.4-.3.7-.6,1.2-1.2,1.5-1.9.4-1,.3-2.1-.6-3.3-6.9-9.6-12.2-15.4-17.1-14.6-.3-.2-.6-.4-.7-.5-.2-.1-.4-.2-.6-.2l-.3-1c7-2.4,13.6,5.8,20.3,15.1Z"/>
          <path d="M386.5,454.1c1.1,1.9,1.4,3.8,1,5.4-1.3,5.1-8.9,6.8-29.8,9.1-13.1,1.4-22.4,2.1-28.9,2.1-13.1.2-15.6-1.9-16.8-4.5-.6-1.3-.7-2.7-.5-4.3,0-.3.2-.5.5-.7.4.6.9,1.2,1.5,1.8,0,.9,0,1.7.4,2.4,1.6,3.4,9.6,4.9,43.6,1.2,18.2-2,27-3.6,28-7.6.3-1,0-2.3-.6-3.6.6-.4,1.1-.9,1.6-1.3Z"/>
          <polygon points="379.8 46.9 383.3 138.6 367 143.4 336.9 93.8 339.1 151.6 322.8 156.4 275.3 77.8 291.4 73 321.5 122.9 319.4 64.8 335.6 60 365.7 109.6 363.6 51.7 379.8 46.9"/>
          <path d="M386,453.4c.2.2.3.5.4.7-.5.4-1,.9-1.6,1.3-.2-.3-.3-.6-.6-.9-.2-.4-.2-.9,0-1.2,0,0,.1-.1.2-.2h0c.5-.3,1.1-.2,1.4.3Z"/>
          <path class="cls-4" d="M385.6,447.8c.9,1.2,1.1,2.3.6,3.3-.3.7-.8,1.3-1.5,1.9h0c0,0-.1.1-.2.2-4.9,4-17.8,6.6-23.1,7.3-12,2.9-43.9,8.3-47.9-.8-.7-1.7-.7-3.3.1-5,2.1-4.5,9-8.2,14.8-10.6,0,.3.2.5.4.7l7.1,4.9c.2.1.4.2.6.2.3,0,.6-.2.8-.4.3-.5.2-1.1-.2-1.4l1.6-2.3,2,1.4c.2.1.4.2.6.2.3,0,.6-.1.8-.4.3-.5.2-1.1-.3-1.4l-5.9-4.1c.6-.2,1.1-.4,1.5-.5,0,0,.2.2.3.3l7.1,4.9c.2.1.4.2.6.2.3,0,.6-.1.8-.4.3-.5.2-1.1-.3-1.4l-7.1-4.9c-.1,0-.2-.1-.4-.2-.4-1.2-.3-2.2.2-3,1.3-2.1,4.9-2.6,5-2.6.1,0,.3,0,.4-.1.2,0,.3.1.5.1s3.1,0,4.9,2c1,1.1,1.4,2.8,1.2,4.8,0,.3,0,.6.2.8.2.2.5.3.8.3,4.2,0,17.9-.5,19.1-4.6.5-1.6-.9-3-1.9-3.8,4.9-.8,10.2,5.1,17.1,14.6Z"/>
          <path class="cls-5" d="M384.9,455.4c.7,1.4.9,2.6.6,3.6-1,4-9.8,5.6-28,7.6-34,3.7-42.1,2.2-43.6-1.2-.3-.7-.5-1.5-.4-2.4,3.4,3,9.9,3.9,17.1,3.8,13.1-.2,28.5-3.7,31.1-4.3,2-.3,16.5-2.4,23.2-7.1Z"/>
          <path d="M384.3,454.5c.2.3.4.6.6.9-6.8,4.8-21.3,6.9-23.2,7.1-2.7.6-18,4.2-31.1,4.3-7.2,0-13.7-.8-17.1-3.8,0-.2,0-.5,0-.8,0-.5-.3-1.1-.8-1.2-.3,0-.5,0-.7.1-.2-.2-.3-.5-.4-.8-1-2.2-.9-4.5.2-6.7,3.3-6.9,15.7-11.8,21.8-13.9l.2.5c-.2,0-.4.2-.6.4-.3.4-.2,1,.2,1.3-.9.3-2,.7-3.1,1.2l-.3-.2c-.5-.3-1.1-.2-1.4.2-.2.2-.2.5-.2.7-5.8,2.5-12.7,6.2-14.8,10.6-.8,1.7-.9,3.3-.1,5,3.9,9.2,35.9,3.7,47.9.8,5.3-.7,18.2-3.3,23.1-7.3-.3.3-.3.8,0,1.2Z"/>
          <path d="M376.6,195.2c1.6,14.2-10.6,26.8-14.2,30.2l-.6.9-1.9-1.3c0-.1.1-.2.2-.3.2-.1,16.3-14.2,14.5-29.4-1-8.4-7.1-15.6-18.3-21.6-1.6,1.3-6.6,3.8-17.5-1.1-.9-.2-4.8-1-7.7-2.8h.1s2.4-.9,2.4-.9c2.1.9,4.4,1.5,5.6,1.8,0,0,.2,0,.2,0,12,5.4,15.8,1.1,15.8,1.1.3-.4.8-.5,1.2-.3,12.2,6.4,19,14.3,20,23.5Z"/>
          <path d="M361.7,226.3l14.6,9.9c-.1,0-.3.1-.5.1s-.4,0-.6-.2l-15.1-9.8c-.3-.2-.4-.5-.5-.8,0-.2,0-.4.1-.5l1.9,1.3Z"/>
          <path d="M368.5,433.2c1,.8,2.4,2.2,1.9,3.8-1.2,4.1-15,4.6-19.1,4.6s-.6-.1-.8-.3c-.2-.2-.3-.5-.2-.8.2-2.1-.2-3.7-1.2-4.8-1.8-2-4.9-2-4.9-2-.2,0-.4,0-.5-.1.2-.1.4-.4.5-.6,0-.4,0-.8-.5-1.1,0,0,0,0,0,0,.1,0,.3-.1.5-.1s4,0,6.4,2.6c1.2,1.4,1.8,3.1,1.8,5.3,7.6-.2,15.6-1.5,16.2-3.2.1-.3-.3-1.1-1.9-2.1-.3-.2-.4-.4-.4-.7.5,0,.9,0,1.3-.2.3-.1.6-.2,1-.2Z"/>
          <path d="M365.8,157.6l-2.9,1s0,0,0,0l-.5.2-13.1,4.7c-1.5-.7-2.9-1.3-4.2-1.7l2.9-1c.6.3,1.3.6,1.9.9l12.5-5c.2,0,.5,0,.7,0,.7.3,1.6.6,2.6,1Z"/>
          <path class="cls-2" d="M366.6,434.3c1.5,1.1,2,1.8,1.9,2.1-.5,1.7-8.6,3-16.2,3.2,0-2.2-.6-3.9-1.8-5.3-2.4-2.6-6.2-2.6-6.4-2.6s-.3,0-.5.1c-4.4-2.7-7.5-8.8-9.6-15h0c1.2,0,11-.8,14.8-2.2,1.6,3.5,3.6,6.8,5.8,9.6,3.5,4.5,8.3,9,11.6,9.3,0,.3.2.5.4.7ZM354.7,433.5c.5-.3.6-.9.3-1.4l-8.1-11.9c-.3-.5-.9-.6-1.4-.3-.5.3-.6.9-.3,1.4l8.1,11.9c.2.3.5.4.8.4s.4,0,.5-.2ZM345.6,429.6c.5-.3.6-.9.4-1.4l-4.1-7c-.3-.5-.9-.6-1.4-.4s-.6.9-.4,1.4l4.1,7c.2.3.5.5.9.5s.3,0,.5-.1Z"/>
          <path d="M368.5,433.2c-.3,0-.7.1-1,.2-.4.1-.8.2-1.3.2,0-.2,0-.5.2-.7.2-.3.5-.4.8-.4s.4,0,.6.2c.2.1.4.3.7.5Z"/>
          <path d="M366.9,431.5l.3,1c-.3,0-.6.2-.8.4-.1.2-.2.4-.2.7-3.3-.3-8.1-4.8-11.6-9.3-2.2-2.9-4.2-6.1-5.8-9.6.4-.2.8-.3,1.1-.5.4-.2.5-.7.4-1.1,1.6,3.7,3.6,7.1,5.9,10,4.8,6.3,9.2,8.9,10.6,8.5,0,0,0,0,0,0Z"/>
          <path d="M363,158.6l-.5.2.5-.2s0,0,0,0Z"/>
          <path d="M362.5,158.8l-12.1,4.8c-.3.1-.6,0-.8,0,0,0-.2,0-.2-.1l13.1-4.7Z"/>
          <path d="M360.2,226.4l-.6.9-66.2-44.9,2.4-.8,64.1,43.4c-.1.2-.1.3-.1.5,0,.3.2.6.5.8Z"/>
          <path d="M355,432.1c.3.5.2,1.1-.3,1.4-.2.1-.4.2-.5.2-.3,0-.6-.2-.8-.4l-8.1-11.9c-.3-.5-.2-1.1.3-1.4.5-.3,1.1-.2,1.4.3l8.1,11.9Z"/>
          <path d="M352.1,379.8c.5.3.6.9.3,1.4-1.1,1.6-2,3.2-2.7,4.8l-1.5.8c-.3.1-.4.4-.5.6l-.7-.2c.9-2.4,2.1-4.8,3.7-7.1.3-.5.9-.6,1.4-.3Z"/>
          <path class="cls-7" d="M349.3,163.5l-15.7,5.6c-1.2-.6-2.4-1.3-3.1-2.1l14.7-5.2c1.3.4,2.7,1,4.2,1.7Z"/>
          <path d="M348.1,160.7l-2.9,1c-10-3.4-14.3.7-14.5.9-1,1.2-1.3,2.2-1,3.2.1.4.4.8.8,1.2h-.3c0,0-1.8.7-1.8.7-.3-.4-.5-.8-.6-1.2-.6-1.7-.1-3.4,1.4-5.2.3-.3,6-5.9,18.9-.6Z"/>
          <path d="M350.4,413c.1.4,0,.9-.4,1.1-.3.2-.6.3-1.1.5-.3-.6-.5-1.2-.8-1.8.3-.1.6-.2.7-.3.5-.3,1.1-.2,1.4.3,0,0,0,.2.1.3Z"/>
          <path d="M348.2,386.8l1.5-.8c-.4.9-.7,1.8-1,2.7-.4,0-.7-.2-.9-.5-.1-.2-.1-.5,0-.7,0-.3.2-.5.5-.6Z"/>
          <path d="M350.3,412.8c-.3-.5-.9-.6-1.4-.3-.2.1-.4.2-.7.3-3.2-7.9-4.3-17-1.1-25.6l.7.2c0,.2,0,.5,0,.7.2.3.5.5.9.5-2.7,8.2-1.5,16.6,1.6,24.1Z"/>
          <path d="M348.1,412.8c.2.6.5,1.2.8,1.8-3.9,1.4-13.6,2.1-14.8,2.2h0c-.2-.6-.4-1.2-.6-1.8.1-.1.3-.2.5-.2,4.4-.3,11.5-1.1,14.2-2Z"/>
          <path d="M346,428.2c.3.5.1,1.1-.4,1.4-.1,0-.3.1-.5.1-.3,0-.7-.2-.9-.5l-4.1-7c-.3-.5-.1-1.1.4-1.4s1.1-.1,1.4.4l4.1,7Z"/>
          <path d="M345.6,444.5c.5.3.6.9.3,1.4-.2.3-.5.4-.8.4s-.4,0-.6-.2l-7.1-4.9c-.1,0-.2-.2-.3-.3.2,0,.4-.1.4-.1.3,0,.5-.3.6-.5.1-.2.2-.5,0-.8,0,0,0,0,0-.1.1,0,.3,0,.4.2l7.1,4.9Z"/>
          <path d="M343.7,431.9c.4.2.5.6.5,1.1,0,.3-.2.5-.5.6-.3-.2-.5-.5-.5-.9s.2-.7.5-.9c0,0,0,0,0,0Z"/>
          <path d="M343.7,433.6c-.1,0-.2.1-.4.1,0,0-3.7.5-5,2.6-.5.8-.6,1.8-.2,3-.4,0-.8,0-1,.4-.2.3-.2.8,0,1.1-.3,0-.8.2-1.5.5l-1.1-.8c-.2-.2-.5-.2-.8-.2l-.2-.5c1-.4,1.9-.6,2.5-.8-.3-1.4,0-2.7.6-3.8,1-1.6,2.8-2.5,4.2-3-8.7-7.4-12.1-26.3-12.9-31.8l.3-.7c.2,0,.3.1.5.1h0c.5,0,.9-.5.9-1,.1.9,1.2,8.4,3.6,16.1-.3.2-.5.5-.4.9,0,.5.5.9,1,.9h0c2.2,6.2,5.3,12.3,9.6,15-.3.2-.5.5-.5.9s.2.7.5.9Z"/>
          <path d="M341.2,374.1c.4.4.4,1,0,1.4-.1.1-12.5,12-11.4,23.3h0s0,0,0,0c0-.3-.2-.6-.6-.8-.3-.1-.7-.1-.9,0,0,0-.2.1-.5.3-.7-12.1,11.5-23.8,12.1-24.3.4-.4,1-.4,1.4,0Z"/>
          <path d="M341.6,445.5c.5.3.6.9.3,1.4-.2.3-.5.4-.8.4s-.4,0-.6-.2l-2-1.4-5.1-3.5s0,0,0,0c.9-.3,1.7-.6,2.4-.8l5.9,4.1Z"/>
          <path class="cls-4" d="M338.5,445.8l-1.6,2.3-6.7-4.7c1.1-.4,2.2-.8,3.1-1.2,0,0,0,0,0,0l5.1,3.5Z"/>
          <path d="M338.2,439.5c0,.3,0,.5,0,.8-.1.3-.4.4-.6.5,0,0-.1,0-.4.1-.2-.3-.2-.8,0-1.1.2-.3.6-.5,1-.4,0,0,0,0,0,.1Z"/>
          <path d="M336.9,448c.5.3.6.9.2,1.4-.2.3-.5.4-.8.4s-.4,0-.6-.2l-7.1-4.9c-.2-.2-.4-.4-.4-.7.6-.3,1.3-.5,1.9-.8l6.7,4.7Z"/>
          <path d="M333.6,169l-2.4.9h-.1c-1-.6-2-1.4-2.6-2.3l1.8-.6h.3c.7.7,1.9,1.4,3.1,2Z"/>
          <path d="M334.6,440.6l1.1.8c-.6.2-1.4.5-2.4.8-.4-.3-.5-.9-.2-1.3.1-.2.3-.3.6-.4.3,0,.6,0,.8.2Z"/>
          <path d="M334,416.9h0c-.5,0-1-.4-1-.9,0-.4.2-.7.4-.9.2.6.4,1.2.6,1.8Z"/>
          <path d="M331.1,170l-35.3,11.7-3.1-2.1,35.9-11.8c.6.9,1.6,1.7,2.6,2.3Z"/>
          <path d="M329.8,398.8s0,0,0,0c0,.5-.4,1-.9,1h0c-.2,0-.4,0-.5-.1-.3-.2-.4-.4-.5-.8s0-.4,0-.6c.3-.2.5-.3.5-.3.3-.2.6-.2.9,0,.3.1.5.4.6.8Z"/>
          <path d="M329.9,443.1l.3.2c-.6.2-1.2.5-1.9.8,0-.2,0-.5.2-.7.3-.5.9-.6,1.4-.2Z"/>
          <path d="M328.3,399.8l-.3.7c-1.9.9-5.5,2.5-9.2,2.5-5.5,0-7.8-3.2-7.9-3.4,0,0,0-.1,0-.2l-7.8-18.4c.3-.2.5-.4.5-.8,0-.6-.4-1-.9-1.1h-.4s-5.8-13.6-5.8-13.6c.3,0,.5,0,.5,0,.6,0,1.1-.3,1.1-.8,0-.2,0-.3,0-.5l14.6,34.3c.3.4,2.1,2.5,6.1,2.4s7.6-1.9,8.9-2.7c0,.2,0,.4,0,.6,0,.3.2.6.5.8Z"/>
          <path d="M312.7,461.1c.6,0,.9.6.8,1.2,0,.3,0,.5,0,.8-.6-.5-1.1-1.1-1.5-1.8.2-.1.4-.2.7-.1Z"/>
          <path d="M302.6,379.2c.6,0,1,.5.9,1.1,0,.4-.2.6-.5.8l-.8-1.9h.4Z"/>
          <path d="M302.2,379.2l.8,1.9c-.2,0-.3.1-.6.1h-1.1c-8.8-.6-15.5,1.8-19.9,7.1-3.1,3.7-4.9,8.5-5.8,13.6l-.9-.2c0,0,0-.1,0-.2,0-.5-.5-.9-1-1,1-5,2.9-9.7,6.1-13.5,4.9-5.8,12.1-8.5,21.6-7.9h.4s.1,0,.1,0h.2Z"/>
          <path class="cls-7" d="M296.4,365.6l5.8,13.6h-.2s-.1,0-.1,0h-.4c-9.5-.6-16.7,2-21.6,7.9-3.2,3.8-5,8.5-6.1,13.5h0s0,0,0,0c-1.9,0-3.8-.2-5.6-.9-2.3-.8-4.5-1.9-5.5-2.6,2.1-10.6,6.2-18.6,12.3-24.1,8.8-7.9,19-7.6,21.5-7.4Z"/>
          <path d="M298.1,364.4c0,.1,0,.3,0,.5,0,.6-.6.9-1.1.8,0,0-.2,0-.5,0l-.9-2.1c1,0,1.6.1,1.7.1.4,0,.6.3.8.6,0,0,0,0,0,0Z"/>
          <path d="M276.7,314.2l21.4,50.2c-.1-.3-.4-.6-.8-.6-.1,0-.7-.1-1.7-.1l-20.3-47.7c-8.5,3.6-68.4,28.6-77.9,30.9-4,.9-7.2.7-9.4-.8-2.4-1.6-2.8-4-2.9-4.1,0,0,0-.2,0-.2l3.2-35.9c.4,0,.8-.1,1.3-.2.4,0,.8-.4.8-.8l-3.3,36.9c0,.4.5,1.7,2,2.7,1.8,1.2,4.4,1.3,7.8.5,9.8-2.3,77.8-30.9,78.5-31.2.5-.2,1.1,0,1.3.5Z"/>
          <polygon points="295.7 181.6 293.3 182.4 290.2 180.3 292.6 179.5 295.7 181.6"/>
          <path d="M295.6,363.6l.9,2.1c-2.5-.2-12.7-.5-21.5,7.4-6.1,5.5-10.2,13.5-12.3,24.1,0,0-.2-.1-.2-.2-.4-.4-1-.3-1.4.1-.1.1-.2.3-.2.5h-.2c2.2-11.4,6.5-20.1,13.1-26,8.5-7.7,18.1-8.1,21.9-8Z"/>
          <path class="cls-7" d="M293.3,182.4l-22.9,7.6c-.5-.5-1.1-.9-1.6-1.4-.4-.3-.8-.6-1.2-.8l22.6-7.5,3.1,2.1Z"/>
          <polygon points="292.6 179.5 290.2 180.3 275 170 274.9 167.5 292.6 179.5"/>
          <path class="cls-7" d="M275,170l15.2,10.3-22.6,7.5c-3.8-2.5-8-3.2-11.9-2.1-4.2,1.3-7.4,4.6-9.2,9l-.6.2c-1.6-.7-3.3-1-5-1-4.5,0-8.5,2.5-11.4,6.4l-30.5,10.1,3.8-41.6,11.8,19.6,16.3-4.8-1.7-44.7,12.6,8.6,16.9,27.9,16.4-4.8v-.5Z"/>
          <path d="M291.7,446.5c.6,1.5.5,3-.2,4.4-.7,1.2-2,2.1-3.4,2.5v-.9c-.1-.5-.6-1-1.2-.9,1.2-.1,2.3-.8,2.9-1.7.5-.8.5-1.6.1-2.6-1.1-2.6-6.8-12.6-9.1-16.8-.7-1.2-2-2-3.4-2h-.9s0,0-.1,0c-.1-.6-.2-1.2-.3-1.9.1,0,.3,0,.4,0h.9c2.1,0,4.1,1.1,5.2,3,3,5.2,8.1,14.4,9.2,17Z"/>
          <path class="cls-4" d="M289.9,447.3c.4.9.3,1.7-.1,2.6-.6,1-1.6,1.6-2.9,1.7h0c-8,.7-48.5,4.5-58.4,4.6-5.3,0-8.4-.6-10-1.2-1.4-.5-2.3-1.7-2.5-3.2-.4-3.2.4-6,2.3-8.5,4.7-6,15.2-8.8,23.4-10.1l4.9,7.3c.2.3.5.4.8.4s.4,0,.5-.2c.5-.3.6-.9.3-1.4l-4.4-6.5c1-.1,2-.3,2.9-.3l4.1,6.5c.2.3.5.5.9.5s.4,0,.5-.2c.5-.3.6-.9.3-1.4l2.1-1.6.8,1.1c.2.3.5.4.8.4s.4,0,.6-.2c.4-.3.5-.9.2-1.4l-5.1-6.9c0,0-.1-.1-.2-.2.3-.6.4-1.2.5-1.8.4-3.7,6.9-3.6,6.9-3.6.1,0,.3,0,.4,0,.2,0,.3.1.5.1s2.7,0,4,1.8c.9,1.3,1,3.3.2,5.9,0,.3,0,.6.2.9.2.3.5.4.8.4h10.7c.3-.1.6-.3.8-.5s.3-.6.2-.9-.3-1.1-.6-2.8c0,0,0,0,.1,0h.9c1.4,0,2.7.7,3.4,2,2.4,4.2,8,14.2,9.1,16.8Z"/>
          <path d="M288.1,454.8c.3,2.9-1.7,5.6-4.5,6.2-10.8,2.3-34.4,3-50.7,3.2s-8.2,0-11.1,0c-2.9,0-5.4-2.2-5.8-5.1l-.4-3.1c0-.2,0-.4,0-.5.6.6,1.3,1,2,1.3l.3,2.2c.2,1.9,1.9,3.3,3.8,3.3,10.9,0,47.5-.3,61.4-3.3,1.8-.4,3.1-2.1,2.9-4.1v-1.3c.3,0,.6,0,.9,0,.3,0,.7,0,1-.2v1.4Z"/>
          <path d="M287.9,452.5v.9c-.2.1-.6.2-.9.2-.3,0-.6,0-1,0v-1c-.1-.5.3-1,.8-1.1h0c.6,0,1,.4,1.1.9Z"/>
          <path class="cls-5" d="M286.1,455c.2,1.9-1.1,3.7-2.9,4.1-13.9,3-50.5,3.3-61.4,3.3-1.9,0-3.5-1.4-3.8-3.3l-.3-2.2h0c2.6,1,6.2,1.4,10.7,1.4,9.6-.1,47.6-3.6,57.6-4.5v1.3Z"/>
          <path d="M286,452.7v1c-9.8.9-47.9,4.4-57.5,4.5-4.5,0-8.1-.4-10.7-1.3h0s-.1-1-.1-1c0-.5-.6-.9-1.1-.9-.4,0-.6.3-.8.6-1-.9-1.6-2.1-1.8-3.5-.5-3.7.4-7.1,2.7-10,5.2-6.6,16.5-9.6,25.2-10.9,0,0-.2,0-.3.1-.5.3-.6.9-.3,1.4l.4.5c-8.2,1.3-18.7,4.1-23.4,10.1-2,2.5-2.7,5.3-2.3,8.5.2,1.5,1.2,2.7,2.5,3.2,1.6.6,4.7,1.3,10,1.2,9.9-.1,50.4-3.8,58.4-4.6-.5,0-1,.5-.9,1.1Z"/>
          <path d="M277.7,202c.8,2.6,1.1,5.1,1.2,7.6.1,8.6-4,16-10.8,18-1.1.3-2.3.5-3.4.5-2.9,0-5.9-.9-8.6-2.7.1-.3.2-.6.3-1,3.6,2.4,7.6,3.3,11.4,2.2,8.2-2.4,12.2-13.3,9-24.4-1.5-5-4.1-9.1-7.4-11.9l1.1-.4c3.3,3,5.8,7.2,7.3,12Z"/>
          <path d="M276.8,202.3c3.3,11-.8,22-9,24.4-3.8,1.1-7.9.2-11.4-2.2.1-.3.2-.7.3-1,3.4,2.4,7.2,3.3,10.8,2.2,7.7-2.3,11.4-12.6,8.3-23.1-.8-2.6-1.9-4.9-3.3-7-1.2-1.8-2.7-3.5-4.3-4.8l1.1-.4c3.3,2.8,5.9,7,7.4,11.9Z"/>
          <path class="cls-3" d="M275.8,202.5c3.1,10.5-.6,20.9-8.3,23.1-3.6,1.1-7.5.1-10.8-2.2.6-2.4,1-5,.9-7.7s0-1.4-.1-2.1c1.3.2,2.7.2,4.1,0,6.8-1.4,11-8.6,9.5-16.2-.5-2.5-1.6-4.8-3.1-6.6h.2c1.6,1.3,3.1,2.9,4.3,4.7,1.4,2.1,2.5,4.5,3.3,7Z"/>
          <polygon points="275 170 275 170.6 258.7 175.4 241.8 147.5 275 170"/>
          <polygon points="275 170 241.8 147.5 239.3 143.4 274.9 167.5 275 170"/>
          <polygon points="271.5 78.9 274.9 167.5 239.3 143.4 228.6 125.8 229 136.4 212.1 125 211.1 96.7 227.3 91.9 257.4 141.5 255.3 83.7 271.5 78.9"/>
          <path d="M276.9,431.3c0,.3,0,.6-.2.9s-.5.4-.8.4h-10.7c-.3.1-.6,0-.8-.3-.2-.3-.2-.6-.2-.9.8-2.6.8-4.6-.2-5.9-1.3-1.8-4-1.8-4-1.8-.2,0-.4,0-.5-.1.3-.1.6-.5.6-.9,0-.6-.4-1-1-1,0,0,0,0-.2,0-.3-9.1.2-17.1,1.5-24.2h.2c0,.4,0,.7.3,1,.3.2.7.5,1.1.8h0c-1.1,6.6-1.6,14.1-1.2,22.6,1.2.2,3.3.7,4.6,2.5,1.2,1.6,1.4,3.7.8,6.4h8.2c-.8-4-3.1-16.4-1.2-28.1.1,0,.2,0,.4,0,.5,0,.9-.4.9-.8l.9.2c-1.7,9.1-.6,19.1.3,24.7-.3.2-.6.5-.6.9s.4.9.9,1c.3,1.7.6,2.7.6,2.8Z"/>
          <path d="M276,426.7c.1.7.2,1.3.3,1.9-.5,0-.9-.5-.9-1s.2-.8.6-.9Z"/>
          <path d="M274.8,401.6c0,0,0,.2,0,.2,0,.5-.5.8-.9.8-.1,0-.3,0-.4,0,.1-.7.2-1.3.4-2,.5,0,1,.4,1,1Z"/>
          <path class="cls-2" d="M274.7,430.6h-8.2c.6-2.5.3-4.7-.8-6.3-1.3-1.8-3.4-2.3-4.6-2.5-.3-8.4.1-15.9,1.2-22.5,1.4.8,3.5,1.7,5.2,2.3,1.9.7,3.9,1,5.9,1h0c-1.9,11.7.4,24.1,1.2,28ZM269.2,418c.5,0,1-.5,1-1l-.3-10.3c0-.5-.5-1-1-1h0c-.5,0-1,.5-1,1l.3,10.3c0,.5.5,1,1,1h0ZM265,417v-12.3c-.2-.5-.6-1-1.2-1s-1,.5-1,1v12.3c.2.5.6,1,1.2,1s1-.5,1-1Z"/>
          <path d="M273.8,400.6h0c-.1.7-.3,1.3-.4,2h0c-2,0-4-.3-5.9-1-1.7-.6-3.8-1.5-5.2-2.3h0c.1-.7.2-1.4.4-2.1,1,.7,3.2,1.7,5.5,2.6,1.8.7,3.7,1,5.6.9h0Z"/>
          <path d="M271.1,197.4c1.5,7.6-2.7,14.8-9.5,16.2-1.4.3-2.8.3-4.1,0-.3-4-1.5-7.8-3.3-10.8,0,0,0,0,0,0-1.1-2.4-2.8-4.4-4.8-5.8l18.6-6.2c1.5,1.8,2.6,4.1,3.1,6.6Z"/>
          <path d="M270.5,190l-1.1.4c-1-.8-2-1.6-3-2.2l1.3-.4c.4.3.8.5,1.2.8.6.4,1.1.9,1.6,1.4Z"/>
          <path d="M269.4,190.3l-1.1.4c-.2-.2-.4-.3-.6-.5,0,0-.2-.1-.3-.2-.5-.6-1.1-1.1-1.7-1.6l.7-.2c1,.6,2.1,1.3,3,2.2Z"/>
          <path d="M268.3,190.7h-.2c-.2-.2-.4-.5-.7-.7,0,0,.2.1.3.2.2.2.4.3.6.5Z"/>
          <path d="M268,190.8l-18.6,6.2c-.3-.2-.6-.4-.9-.5-.1,0-.3-.2-.4-.3.3-.8.6-1.5,1-2.2l16-5.3c.8.4,1.5.9,2.3,1.4.2.2.5.5.7.8Z"/>
          <path d="M267.6,187.8l-1.3.4c-1.5-.9-3.1-1.5-4.8-1.8-1.8-.5-3.6-.6-5.5-.3-4.3.9-7.7,4.2-9.1,8.4l-.5.2c1.8-4.4,5-7.8,9.2-9,3.9-1.1,8-.4,11.9,2.1Z"/>
          <path d="M270.2,416.9c0,.5-.4,1-1,1h0c-.5,0-1-.4-1-1l-.3-10.3c0-.5.4-1,1-1h0c.5,0,1,.4,1,1l.3,10.3Z"/>
          <path d="M266.9,238.7c1.7,1.3,1.4,4.8-.8,7.7s-5.4,4.3-7.2,3c-1.7-1.3-1.4-4.8.9-7.7,2.2-2.9,5.4-4.3,7.2-3Z"/>
          <path d="M266.4,188.2l-.7.2c-1.2-.9-2.6-1.6-4-2,1.6.3,3.2.9,4.8,1.8Z"/>
          <path d="M265.6,188.4c.6.5,1.2,1,1.7,1.6-.7-.6-1.5-1-2.3-1.4l.5-.2Z"/>
          <path d="M265.6,188.4l-.5.2c-1.9-1-3.9-1.5-5.9-1.4s-2,.2-2.9.4c-3.1.9-5.6,3.2-7.2,6.3l-1.3.4c1.7-3.8,4.6-6.6,8.3-7.7,1.8-.5,3.7-.6,5.6-.3,1.4.4,2.8,1.1,4,2Z"/>
          <path d="M265.1,188.6l-16,5.3c1.6-3.1,4.1-5.4,7.2-6.3,1-.3,1.9-.4,2.9-.4,1.9,0,3.9.5,5.9,1.4Z"/>
          <path d="M264.8,404.7v12.3c.2.5-.3,1-.8,1s-1-.4-1-1v-12.3c-.2-.5.3-1,.8-1s1,.4,1,1Z"/>
          <path d="M262.4,397c0,0,.2.1.2.2-.2.7-.3,1.4-.4,2.1-.5-.3-.9-.5-1.1-.8-.3-.2-.4-.6-.3-.9,0-.2,0-.3.2-.5.4-.4,1-.5,1.4-.1Z"/>
          <path d="M261.6,186.4c-1.9-.3-3.8-.3-5.6.3-3.7,1.1-6.5,3.9-8.3,7.7l-.7.2c1.4-4.3,4.7-7.6,9.1-8.4,1.9-.4,3.7-.3,5.5.3Z"/>
          <path d="M259.3,421.7c.6,0,1,.5,1,1,0,.4-.3.8-.6.9-.3-.2-.5-.5-.5-.8,0-.4,0-.7,0-1.1.1,0,.2,0,.2,0Z"/>
          <path d="M257.5,213.6c0,.7,0,1.4.1,2.1,0,2.7-.3,5.3-.9,7.7-.3-.2-.6-.4-.9-.6.6-2.2.8-4.6.8-7s0-1.6-.1-2.4c.3,0,.7.2,1,.2Z"/>
          <path d="M259.6,423.6c-.1,0-.2,0-.4,0,0,0-6.6-.1-6.9,3.6,0,.6-.2,1.3-.5,1.8h0c-.3-.3-.8-.3-1.2,0-.4.3-.5.9-.2,1.4l.2.3c-.5.5-1.1.9-1.8,1.2l-.4-.6c-.3-.5-.9-.6-1.4-.3s-.6.9-.3,1.4h0c-.9.1-1.9.3-2.9.4l-.9-1.3c-.2-.3-.5-.5-.8-.4,1.7-.3,3.3-.5,4.7-.6,1.8-.2,3.3-1.6,3.5-3.4.5-5.2,7.4-5.4,8.7-5.4,0,.4,0,.7,0,1.1,0,.4.2.7.5.8Z"/>
          <path d="M257.5,213.6c-.4,0-.7-.1-1-.2-.2-1.8-.5-3.5-1-5.1,0-2-.5-3.9-1.3-5.5,1.8,3.1,2.9,6.8,3.3,10.8Z"/>
          <path d="M256.5,213.4c0,.8.1,1.6.1,2.4,0,2.5-.3,4.8-.8,7-.3-.2-.6-.5-.8-.7.4-2,.7-4.1.7-6.3s0-1.8-.2-2.7c.3.1.7.2,1,.3Z"/>
          <path d="M256.7,223.4c0,.3-.2.7-.3,1-.3-.2-.6-.4-.8-.6,0-.3.2-.7.3-1,.3.2.6.4.9.6Z"/>
          <path d="M256.4,224.5c0,.3-.2.6-.3,1-.3-.2-.6-.4-.8-.6.1-.3.2-.7.3-1,.3.2.6.4.8.6Z"/>
          <path d="M256.5,213.4c-.4,0-.7-.2-1-.3,0-.4-.1-.9-.2-1.3.2-1,.3-2,.3-3s0-.3,0-.5c.5,1.6.8,3.3,1,5.1Z"/>
          <path d="M255.8,222.8c0,.4-.2.7-.3,1-.3-.2-.6-.4-.8-.7.1-.4.2-.7.3-1.1.3.3.6.5.8.7Z"/>
          <path d="M255.5,208.3c0,.2,0,.3,0,.5,0,1,0,2-.3,3-1-6-3.9-11-7.8-13.7,0-.2.1-.4.2-.6l.5-.2c3.3,2.3,6,6.2,7.4,11Z"/>
          <path class="cls-3" d="M255.4,213.1c.1.9.2,1.8.2,2.7,0,2.2-.2,4.3-.7,6.3-1.1-1-2.1-2.1-3-3.3,1.4-1.6,2.5-3.6,3.1-5.8.1,0,.3.1.4.2Z"/>
          <path d="M255.3,211.8c0,.4.1.9.2,1.3-.1,0-.3-.1-.4-.2,0-.4.2-.8.2-1.1Z"/>
          <path d="M255.5,223.8c0,.3-.2.7-.3,1-.3-.2-.6-.4-.8-.6.1-.3.2-.7.3-1,.3.2.6.5.8.7Z"/>
          <path d="M255.2,224.8c.3.2.6.4.8.6-2.6,7.4-8.2,12.5-14.7,12.6s-16.6-9.7-16.8-21.8c0-4.3.8-8.4,2.5-11.9l1.3-.4c-1.8,3.5-2.8,7.7-2.8,12.3.1,11.6,7.2,20.9,15.7,20.8s11.5-5,13.9-12.1Z"/>
          <path d="M255.3,211.8c0,.4-.2.8-.2,1.1-3.8-1.5-6.9-5-8.1-9.4,0-1.9.2-3.7.6-5.4,3.9,2.7,6.8,7.7,7.8,13.7Z"/>
          <path class="cls-3" d="M254.9,222.1c0,.4-.2.7-.3,1.1-1.2-1-2.4-2.3-3.4-3.7.2-.2.5-.5.7-.7.9,1.2,1.9,2.4,3,3.3Z"/>
          <path d="M254.4,224.2c.3.2.6.4.8.6-2.4,7.1-7.7,12.1-13.9,12.1s-15.6-9.2-15.7-20.8,1-8.8,2.8-12.3l1.4-.5c-2,3.5-3.2,7.9-3.1,12.7.1,11,6.7,19.9,14.7,19.8s10.8-4.9,13-11.8Z"/>
          <path d="M254.2,202.8c.7,1.7,1.2,3.6,1.3,5.5-1.4-4.8-4-8.7-7.4-11l1.1-.4c1.9,1.5,3.6,3.4,4.9,5.8,0,0,0,0,0,0Z"/>
          <path d="M257,436.2c.3.4.2,1.1-.2,1.4-.2.1-.4.2-.6.2-.3,0-.6-.1-.8-.4l-.8-1.1-4.1-5.5c.5-.5.9-1.1,1.2-1.7h0c0,0,.1.1.2.2l5.1,6.9Z"/>
          <path class="cls-3" d="M254.7,223.2c0,.4-.2.7-.3,1-1.4-1.1-2.7-2.5-3.9-4,.3-.2.5-.4.7-.7,1,1.4,2.2,2.6,3.4,3.7Z"/>
          <path class="cls-3" d="M250.5,220.2c1.2,1.5,2.5,2.9,3.9,4-2.2,6.9-7.2,11.7-13,11.8s-14.6-8.8-14.7-19.8,1.1-9.3,3.1-12.7l2.1-.7c-.8,1.9-1.3,4.1-1.3,6.4,0,7.7,5.8,13.9,12.7,13.9s5.3-1.1,7.3-2.8Z"/>
          <path d="M254.2,202.7c-1.3-2.3-3-4.3-4.9-5.8h0c2.1,1.3,3.8,3.4,4.8,5.8Z"/>
          <path d="M255,212.9c-.6,2.2-1.7,4.2-3.1,5.8-1.7-2.3-3.1-5-4-8-.7-2.5-1.1-4.9-1.1-7.2,1.3,4.5,4.4,7.9,8.1,9.4Z"/>
          <path class="cls-4" d="M254.7,436.3l-2.1,1.6-3.7-5.9c.7-.3,1.3-.7,1.8-1.2l4.1,5.5Z"/>
          <path d="M251.9,218.8c-.2.3-.5.5-.7.7-1.8-2.4-3.3-5.3-4.2-8.5-1.2-4.2-1.4-8.4-.7-12.1,0,1.1,0,2.2.3,3.4,0,.4.2.8.3,1.2,0,2.3.4,4.8,1.1,7.2.9,3,2.3,5.8,4,8Z"/>
          <path d="M251.2,219.5c-.2.2-.5.5-.7.7-1.9-2.5-3.4-5.5-4.4-8.9-1.3-4.6-1.5-9.1-.6-13.1l.9-.3c0,.3,0,.7,0,1-.7,3.7-.5,7.9.7,12.1.9,3.2,2.4,6.1,4.2,8.5Z"/>
          <path d="M252.5,437.9c.3.5.2,1.1-.3,1.4-.2.1-.3.2-.5.2-.3,0-.7-.2-.9-.5l-4.1-6.5c.1,0,.2,0,.3,0,.6,0,1.2-.2,1.7-.5l3.7,5.9Z"/>
          <path d="M249.4,196.9h0c-.3-.2-.5-.4-.8-.5.3.2.6.3.9.5Z"/>
          <path d="M249.3,197l-1.1.4c-.1,0-.2-.2-.4-.3,0-.3.2-.6.3-.9.1,0,.3.1.4.2.3.2.5.4.8.6Z"/>
          <path d="M247.7,194.3l1.3-.4c-.4.7-.7,1.4-1,2.2-.3-.2-.6-.4-.9-.5.2-.4.3-.9.5-1.3Z"/>
          <path d="M250.6,429.1c.4-.3.9-.3,1.2,0-.3.6-.7,1.2-1.2,1.7l-.2-.3c-.3-.4-.2-1.1.2-1.4Z"/>
          <path d="M248.1,196.1c.1,0,.3.2.4.3-.1,0-.3-.2-.4-.2,0,0,0,0,0,0Z"/>
          <path d="M247.8,197.1c.1,0,.3.2.4.3l-.5.2c0-.1,0-.3.1-.4Z"/>
          <path d="M248.1,196.1s0,0,0,0c-.3-.2-.6-.3-.9-.4,0,0,0-.1,0-.2.3.2.6.3.9.5Z"/>
          <path d="M248.1,196.2c-.1.3-.2.6-.3.9-.3-.2-.6-.4-.9-.5,0-.3.2-.5.3-.8h0c.3.1.6.3.9.4Z"/>
          <path d="M247,194.5l.7-.2c-.2.4-.4.8-.5,1.3-.1,0-.3-.2-.4-.2,0-.3.2-.6.3-.8Z"/>
          <path d="M247.8,197.1c0,.1,0,.3-.1.4l-.7.2c-.1,0-.2-.1-.3-.2,0-.3.2-.7.3-1,.3.2.6.3.9.5Z"/>
          <path d="M247.7,197.5c0,.2-.1.4-.2.6-.2-.1-.4-.2-.5-.4l.7-.2Z"/>
          <path d="M246.8,195.4c.1,0,.3.1.4.2,0,0,0,.1,0,.2h0c-.1,0-.3-.1-.4-.2,0,0,0-.1,0-.2Z"/>
          <path d="M246.7,195.6c.1,0,.3,0,.4.2,0,.3-.2.5-.3.8-.1,0-.2-.1-.3-.2,0-.3.1-.5.2-.8Z"/>
          <path d="M246.9,197.7c.2.1.4.2.5.4-.4,1.7-.6,3.5-.6,5.4-.1-.4-.2-.8-.3-1.2-.2-1.1-.3-2.3-.3-3.4,0-.4.1-.7.2-1.1h.4Z"/>
          <path d="M246.5,194.7l.5-.2c0,.3-.2.6-.3.8-.2,0-.3-.2-.5-.2,0-.2.1-.3.2-.4Z"/>
          <path d="M246.9,197.7h-.4s0,0,0-.2c.1,0,.2.1.3.2Z"/>
          <path d="M246.6,196.4c.1,0,.2.1.3.2-.1.3-.2.7-.3,1,0,0-.1,0-.2-.1,0-.4,0-.7.2-1Z"/>
          <path d="M246.8,195.4c0,0,0,.1,0,.2-.2,0-.3-.1-.5-.2,0,0,0-.2,0-.3.2,0,.3.1.5.2Z"/>
          <path d="M246.7,195.6c0,.3-.1.5-.2.8-.2-.1-.4-.2-.6-.3,0-.2.2-.4.2-.7.2,0,.3.1.5.2Z"/>
          <path d="M246.6,197.5v.3c0,0-.3,0-.3,0,0-.2,0-.3,0-.5,0,0,.1,0,.2.1Z"/>
          <path d="M246.5,194.7c0,.1-.1.3-.2.4-.2,0-.3-.1-.5-.2l.6-.2Z"/>
          <path d="M246.4,197.9h.2c0,.3-.2.6-.2,1,0-.3,0-.7,0-1Z"/>
          <path d="M246.6,196.4c0,.3-.1.7-.2,1-.2-.1-.5-.2-.7-.4,0-.3.2-.7.3-1,.2,0,.4.2.6.3Z"/>
          <path d="M246.4,197.4c0,.2,0,.3,0,.5l-.9.3c0-.4.2-.8.3-1.2.2.1.5.2.7.4Z"/>
          <path d="M245.8,194.9c.2,0,.3.1.5.2,0,0,0,.2,0,.3-.4-.1-.7-.2-1.1-.3l.7-.2Z"/>
          <path d="M246.2,195.4c0,.2-.2.4-.2.7-.6-.3-1.1-.5-1.7-.6l.9-.3c.4,0,.7.2,1.1.3Z"/>
          <path d="M246.1,211.3c1,3.4,2.5,6.4,4.4,8.9-2,1.7-4.6,2.7-7.3,2.8-6.9,0-12.6-6.1-12.7-13.9,0-2.3.4-4.4,1.3-6.4l13.6-4.5c-.9,4-.7,8.5.6,13.1Z"/>
          <path d="M248.4,431.4l.4.6c-.5.2-1.1.4-1.7.5,0,0-.2,0-.3,0h0c-.3-.5-.2-1.1.3-1.4s1.1-.2,1.4.3Z"/>
          <path d="M245.8,194.9l-.7.2c-.8-.2-1.5-.2-2.3-.2s-.7,0-1,0c-.3,0-.7,0-1,0-3.7,0-7.1,1.9-9.7,4.8l-1.7.6c2.9-3.9,7-6.3,11.4-6.4s3.4.3,5,1Z"/>
          <path d="M246,196.1c0,.3-.2.6-.3,1-1-.5-2.2-.8-3.3-1l1.9-.6c.6.2,1.2.4,1.7.6Z"/>
          <path d="M245.7,197.1c-.1.4-.2.8-.3,1.2l-13.6,4.5c.7-1.5,1.6-2.9,2.7-4l7.9-2.6c1.1.2,2.2.5,3.3,1Z"/>
          <path d="M248.2,439.3c.3.5.2,1.1-.3,1.4-.2.1-.4.2-.5.2-.3,0-.6-.2-.8-.4l-4.9-7.3c.7-.1,1.5-.2,2.2-.3l4.4,6.5Z"/>
          <path d="M245.2,195.2l-.9.3c-.8-.2-1.6-.4-2.4-.4.3,0,.7,0,1,0,.8,0,1.6,0,2.3.2Z"/>
          <path d="M244.3,195.5l-1.9.6c-.5,0-1,0-1.6,0-1.5,0-2.9.3-4.2.9,1.5-1,3.3-1.7,5.2-1.9.8,0,1.7.2,2.4.4Z"/>
          <path d="M242.4,196.1l-7.9,2.6c.7-.7,1.4-1.3,2.1-1.8,1.3-.6,2.8-.9,4.2-.9s1.1,0,1.6,0Z"/>
          <polygon points="241.8 147.5 229.1 138.9 229 136.4 239.3 143.4 241.8 147.5"/>
          <path d="M240.9,195c.3,0,.7,0,1,0-1.9.2-3.7.9-5.2,1.9-1.2.5-2.4,1.3-3.4,2.2l-2.1.7c2.6-3,6-4.8,9.7-4.8Z"/>
          <path d="M242.9,431.5l.9,1.3c-.7,0-1.4.2-2.2.3l-.4-.5c-.3-.5-.2-1.1.3-1.4,0,0,.2-.1.3-.1,0,0,0,0,0,0h.2s0,0,0,0c.3,0,.6.2.8.4Z"/>
          <polygon class="cls-6" points="239.3 143.4 229 136.4 228.6 125.8 239.3 143.4"/>
          <path d="M242.1,431.1h-.2c0,0,.1,0,.2,0Z"/>
          <path class="cls-3" d="M236.6,196.9c-.8.5-1.5,1.1-2.1,1.8l-1.3.4c1-.9,2.2-1.7,3.4-2.2Z"/>
          <path class="cls-7" d="M234.5,198.7c-1.1,1.1-2,2.5-2.7,4l-2.1.7c1-1.7,2.2-3.1,3.5-4.3l1.3-.4Z"/>
          <path d="M231.1,199.8l2.1-.7c-1.3,1.2-2.5,2.6-3.5,4.3l-1.4.5c.8-1.5,1.7-2.9,2.7-4.1Z"/>
          <path d="M229.4,200.4l1.7-.6c-1,1.2-2,2.6-2.7,4.1l-1.3.4c.7-1.4,1.4-2.7,2.3-3.9Z"/>
          <polygon points="229.1 138.9 230.8 183.6 214.6 188.4 202.7 168.8 205.2 141.5 213.2 154.8 212.2 127.5 229.1 138.9"/>
          <polygon points="229 136.4 229.1 138.9 212.2 127.5 212.1 125 229 136.4"/>
          <path class="cls-7" d="M229.4,200.4c-.9,1.2-1.7,2.5-2.3,3.9l-28.4,9.4.3-3.3,30.5-10.1Z"/>
          <path d="M217.6,455.8v1c-.6-.3-1.3-.7-1.9-1.3.1-.3.4-.5.8-.6.6,0,1.1.3,1.1.9Z"/>
          <path class="cls-7" d="M212.2,127.5l1,27.4-8-13.3,1.2-13h0c.2-1,.8-1.8,1.8-2.2s2-.3,2.8.3l1.3.9Z"/>
          <path d="M212.1,125v2.5c0,0-1.2-.9-1.2-.9-.8-.6-1.9-.7-2.8-.3s-1.6,1.2-1.8,2.2l.2-2c0-.5-.2-.9-.7-1,.4-.4.9-.7,1.5-1,1.6-.6,3.3-.5,4.7.5h0Z"/>
          <path d="M205.9,125.4c.4.1.7.6.7,1l-.2,2h0c-.1.6-.6.9-1.2.8-.5,0-.8-.5-.8-1s0-.1,0-.2c.2-1.1.7-2,1.5-2.7Z"/>
          <path d="M206.3,128.5l-1.2,13-1.7-2.9.9-10.3c0,.5.3.9.8,1,.6.1,1.1-.3,1.2-.8Z"/>
          <path d="M205.6,125.4c0,0,.2,0,.2,0-.8.7-1.3,1.7-1.5,2.7l.2-1.9c0-.6.5-1,1.1-.9Z"/>
          <polygon points="203.4 138.6 205.2 141.5 202.7 168.8 201 165.9 203.4 138.6"/>
          <polygon points="183.1 105 203.4 138.6 201 165.9 167 109.7 183.1 105"/>
          <path d="M202.7,168.8l-3.8,41.6-1.7.6s-.2,0-.4.1l4.1-45.2,1.7,2.9Z"/>
          <path d="M198.9,210.4l-.3,3.3h-.4c-.2.2-.8.4-1.6.7l.3-3.3c.2,0,.3-.1.4-.1l1.7-.6Z"/>
          <path d="M198.7,213.7l-6.3,69.7c0-.2,0-.3-.1-.5-.3-.5-.9-.7-1.4-.4,0,0-.2,0-.5.2l6.2-68.4c.9-.3,1.4-.5,1.6-.6h.4Z"/>
          <path d="M196.9,211.1l-.3,3.3c-4.8,1.7-19,6.8-35.2,12.4.6-1.2,1.2-2.4,1.6-3.7,17-5.9,31.4-11.1,33.9-12Z"/>
          <path d="M192.4,283.4l-1.9,21s0,0,0-.1c0-.5-.6-.9-1.1-.8-.3,0-.5,0-.8.1l1.7-18.5c.9-.4,1.5-.7,1.6-.8.3-.2.5-.5.5-.9Z"/>
          <path d="M192.2,283c0,.1.1.3.1.5,0,.4-.2.7-.5.9-.1,0-.7.4-1.6.8l.2-2.3c.3-.1.4-.2.5-.2.5-.3,1.1,0,1.4.4Z"/>
          <path d="M190.4,282.8l-.2,2.3c-4.6,2-17.9,6.9-28.4.2-9.7-6.2-14-20.4-12.9-42.3,0-.4.3-.7.6-.9.3-.1,6.4-3,7.3-11.3,0-.2,0-.3.2-.5.4-.6,1-1.5,1.6-2.6.9-.3,1.9-.7,2.8-1-1.1,2.1-2.2,3.8-2.7,4.5-.9,7.9-6.1,11.4-7.9,12.4-1,20.8,3.1,34.3,12,40,10.5,6.7,24.7.4,27.5-.9Z"/>
          <path d="M190.4,304.3s0,0,0,.1c0,0,0,.1,0,.2,0,.4-.4.8-.8.8-.4,0-.8.1-1.3.2l.2-2.1c.2,0,.5,0,.8-.1.5,0,1.1.3,1.1.8Z"/>
          <path class="cls-7" d="M190.2,285.1l-1.7,18.5c-18.6,2.7-32.6-.9-41.8-10.5-16.8-17.6-12.3-50.6-11.2-57.4,7.5-2.5,15.4-5.3,23-7.9-.6,1.1-1.2,2-1.6,2.6,0,.1-.2.3-.2.5-.8,8.3-7,11.2-7.3,11.3-.3.2-.6.5-.6.9-1.1,21.9,3.2,36.2,12.9,42.3,10.5,6.7,23.8,1.8,28.4-.2Z"/>
          <path d="M188.5,303.6l-.2,2.1c-3.6.5-7,.8-10.3.8-14,.2-25-3.8-32.7-12-16.9-17.7-13.3-49.2-11.9-58.1.7-.2,1.4-.5,2.2-.7-1.1,6.8-5.6,39.8,11.2,57.4,9.2,9.6,23.2,13.2,41.8,10.5Z"/>
          <polygon points="163.2 110.9 166.7 202.5 150.4 207.3 120.3 157.7 122.5 215.6 106.2 220.4 58.7 141.7 74.8 136.9 104.9 186.8 102.8 128.7 119 123.9 149.1 173.5 147 115.6 163.2 110.9"/>
          <path d="M162.3,215.2c1.9,1.9,1.7,4.9.7,7.9-.8.3-1.7.6-2.5.9,1.2-2.9,1.8-5.9.4-7.3-1.3-1.3-3.3-.6-4.4-.2-3.9,1.7-7.9,6.4-8.6,11.8-.7.2-1.4.5-2.1.7.4-6.6,5.2-12.4,9.9-14.4,2.7-1.1,5.1-.9,6.6.6Z"/>
          <path d="M163,223.1c-.4,1.3-1,2.6-1.6,3.7-.9.3-1.9.7-2.8,1,.7-1.2,1.4-2.5,1.9-3.8.8-.3,1.7-.6,2.5-.9Z"/>
          <path class="cls-7" d="M160.5,223.9c-.6,1.4-1.3,2.7-1.9,3.8-7.6,2.6-15.5,5.4-23,7.9,0-.3,0-.5.1-.7l11.4-3.9c.4-.1.7-.5.7-1s0-1.2.1-1.8c4.3-1.5,8.5-2.9,12.7-4.4Z"/>
          <path d="M147.9,228.3c0,.6-.1,1.2-.1,1.8s-.3.8-.7,1l-11.4,3.9c0,.2,0,.4-.1.7-.7.2-1.4.5-2.2.7.2-1.3.4-2.1.4-2.3,0-.4.3-.6.7-.7l11.3-3.9c0-.1,0-.2,0-.4.7-.2,1.4-.5,2.1-.7Z"/>
          <path d="M145.8,229c0,.1,0,.2,0,.4l-11.3,3.9c-.3.1-.6.4-.7.7,0,.2-.2,1-.4,2.3-15.6,5.2-29.1,9.5-33.7,10.3-1.4.2-2.9.4-4.6.4-14.4.2-38.4-8.5-55.5-42.5-11.2-22.3-2-46.6,7.7-63.1,6.7-11.4,17.3-19.9,29.9-24l.5,1.4.5,1.4c-11.9,3.9-21.9,11.9-28.2,22.7-9.3,15.8-18.2,39.2-7.6,60.2,18.3,36.5,45.2,42.4,56.9,40.5,5.7-.9,26-7.6,46.6-14.7Z"/>
        </g>
        <g>
          <path class="cls-1" d="M350.4,413c1.6,3.7,3.6,7.1,5.9,10,4.8,6.3,9.2,8.9,10.6,8.5,0,0,0,0,0,0,7-2.4,13.6,5.8,20.3,15.1,1.6,2.2,1.3,4.1.8,5.3-.3.8-.9,1.5-1.5,2.1-.5.4-1,.9-1.6,1.3-6.8,4.8-21.3,6.9-23.2,7.1-2.7.6-18,4.2-31.1,4.3-7.2,0-13.7-.8-17.1-3.8-.6-.5-1.1-1.1-1.5-1.8-.2-.2-.3-.5-.4-.8-1-2.2-.9-4.5.2-6.7,3.3-6.9,15.7-11.8,21.8-13.9,1-.4,1.9-.6,2.5-.8-.3-1.4,0-2.7.6-3.8,1-1.6,2.8-2.5,4.2-3-8.7-7.4-12.1-26.3-12.9-31.8-1.9.9-5.5,2.5-9.2,2.5-5.5,0-7.8-3.2-7.9-3.4,0,0,0-.1,0-.2l-7.8-18.4-.8-1.9-5.8-13.6-.9-2.1-20.3-47.7c-8.5,3.6-68.4,28.6-77.9,30.9-4,.9-7.2.7-9.4-.8-2.4-1.6-2.8-4-2.9-4.1,0,0,0-.2,0-.2l3.2-35.9.2-2.1,1.7-18.5.2-2.3,6.2-68.4.3-3.3,4.1-45.2,2.5-27.3.9-10.3"/>
          <path class="cls-1" d="M384.7,453.1c.7-.6,1.2-1.2,1.5-1.9.4-1,.3-2.1-.6-3.3-6.9-9.6-12.2-15.4-17.1-14.6-.3,0-.7.1-1,.2-.4.1-.8.2-1.3.2-3.3-.3-8.1-4.8-11.6-9.3-2.2-2.9-4.2-6.1-5.8-9.6-.3-.6-.5-1.2-.8-1.8-3.2-7.9-4.3-17-1.1-25.6.9-2.4,2.1-4.8,3.7-7.1.3-.5.9-.6,1.4-.3.5.3.6.9.3,1.4-1.1,1.6-2,3.2-2.7,4.8-.4.9-.7,1.8-1,2.7-2.7,8.2-1.5,16.6,1.6,24.1"/>
          <path class="cls-1" d="M298.1,364.4l14.6,34.3c.3.4,2.1,2.5,6.1,2.4s7.6-1.9,8.9-2.7c.3-.2.5-.3.5-.3.3-.2.6-.2.9,0,.3.1.5.4.6.8,0,0,0,0,0,0,.1.9,1.2,8.4,3.6,16.1.2.6.4,1.2.6,1.8,2.2,6.2,5.3,12.3,9.6,15,0,0,0,0,0,0,.4.2.5.6.5,1.1,0,.3-.2.5-.5.6-.1,0-.2.1-.4.1,0,0-3.7.5-5,2.6-.5.8-.6,1.8-.2,3,0,0,0,0,0,.1,0,.3,0,.5,0,.8-.1.3-.4.4-.6.5,0,0-.1,0-.4.1-.3,0-.8.2-1.5.5-.6.2-1.4.5-2.4.8-.9.3-2,.7-3.1,1.2-.6.2-1.2.5-1.9.8-5.8,2.5-12.7,6.2-14.8,10.6-.8,1.7-.9,3.3-.1,5,3.9,9.2,35.9,3.7,47.9.8,5.3-.7,18.2-3.3,23.1-7.3"/>
          <path class="cls-1" d="M190.4,304.6l-3.3,36.9c0,.4.5,1.7,2,2.7,1.8,1.2,4.4,1.3,7.8.5,9.8-2.3,77.8-30.9,78.5-31.2.5-.2,1.1,0,1.3.5l21.4,50.2"/>
          <polyline class="cls-1" points="206.3 128.5 205.2 141.5 202.7 168.8 198.9 210.4 198.7 213.7 192.4 283.4 190.5 304.5"/>
          <path class="cls-1" d="M204.4,128.2l.2-1.9c0-.6.5-1,1.1-.9,0,0,.2,0,.2,0,.4.1.7.6.7,1l-.2,2"/>
          <path class="cls-1" d="M329.8,398.9c0,.5-.4,1-.9,1h0c-.2,0-.4,0-.5-.1-.3-.2-.4-.4-.5-.8s0-.4,0-.6c-.7-12.1,11.5-23.8,12.1-24.3.4-.4,1-.4,1.4,0,.4.4.4,1,0,1.4-.1.1-12.5,12-11.4,23.3h0Z"/>
          <path class="cls-1" d="M350.3,412.8c0,0,0,.2.1.3"/>
          <path class="cls-1" d="M386.5,454.1c1.1,1.9,1.4,3.8,1,5.4-1.3,5.1-8.9,6.8-29.8,9.1-13.1,1.4-22.4,2.1-28.9,2.1-13.1.2-15.6-1.9-16.8-4.5-.6-1.3-.7-2.7-.5-4.3,0-.3.2-.5.5-.7.2-.1.4-.2.7-.1.6,0,.9.6.8,1.2,0,.3,0,.5,0,.8,0,.9,0,1.7.4,2.4,1.6,3.4,9.6,4.9,43.6,1.2,18.2-2,27-3.6,28-7.6.3-1,0-2.3-.6-3.6-.2-.3-.3-.6-.6-.9-.2-.4-.2-.9,0-1.2,0,0,.1-.1.2-.2h0c.5-.3,1.1-.2,1.4.3.2.2.3.5.4.7Z"/>
          <path class="cls-1" d="M376.3,236.2l26.3,17.8c1.5,1,2.3,2.8,2.2,4.6s-1.3,3.4-3,4.1l-69.1,29.5c-.8.3-1.3.9-1.6,1.7s-.3,1.6,0,2.3l36.6,77.3c1.2,2.4.2,5.3-2.2,6.6l-16.5,8.5c-.1,0-.3.1-.4.1h0c-.4,0-.7-.2-.9-.5-.1-.2-.1-.5,0-.7,0-.3.2-.5.5-.6l1.5-.8,15-7.7c1.4-.7,2-2.5,1.3-3.9l-36.6-77.3c-.6-1.2-.6-2.6-.2-3.9s1.4-2.3,2.7-2.8l69.1-29.5c1-.4,1.7-1.4,1.8-2.5,0-1.1-.4-2.1-1.3-2.8l-42-28.4-66.2-44.9-3.1-2.1-15.2-10.3-33.2-22.5-12.6-8.6-16.9-11.4-1.3-.9c-.8-.6-1.9-.7-2.8-.3s-1.6,1.2-1.8,2.2h0c-.1.6-.6.9-1.2.8-.5,0-.8-.5-.8-1s0-.1,0-.2c.2-1.1.7-2,1.5-2.7.4-.4.9-.7,1.5-1,1.6-.6,3.3-.5,4.7.5h0s16.9,11.5,16.9,11.5l10.3,6.9,35.6,24.1,17.7,12,3.1,2.1,64.1,43.4,1.9,1.3,14.6,9.9Z"/>
          <path class="cls-1" d="M242.4,196.1c-.5,0-1,0-1.6,0-1.5,0-2.9.3-4.2.9-1.2.5-2.4,1.3-3.4,2.2-1.3,1.2-2.5,2.6-3.5,4.3-2,3.5-3.2,7.9-3.1,12.7.1,11,6.7,19.9,14.7,19.8s10.8-4.9,13-11.8c.1-.3.2-.7.3-1,.1-.4.2-.7.3-1.1.4-2,.7-4.1.7-6.3s0-1.8-.2-2.7c0-.4-.1-.9-.2-1.3-1-6-3.9-11-7.8-13.7-.2-.1-.4-.2-.5-.4-.1,0-.2-.1-.3-.2,0,0-.1,0-.2-.1-.2-.1-.5-.2-.7-.4-1-.5-2.2-.8-3.3-1Z"/>
          <polygon class="cls-1" points="166.7 202.5 150.4 207.3 120.3 157.7 122.5 215.6 106.2 220.4 58.7 141.7 74.8 136.9 104.9 186.8 102.8 128.7 119 123.9 149.1 173.5 147 115.6 163.2 110.9 166.7 202.5"/>
          <polygon class="cls-1" points="275 170 275 170.6 258.7 175.4 241.8 147.5 239.3 143.4 228.6 125.8 229 136.4 229.1 138.9 230.8 183.6 214.6 188.4 202.7 168.8 201 165.9 167 109.7 183.1 105 203.4 138.6 205.2 141.5 213.2 154.8 212.2 127.5 212.1 125 211.1 96.7 227.3 91.9 257.4 141.5 255.3 83.7 271.5 78.9 274.9 167.5 275 170"/>
          <polygon class="cls-1" points="383.3 138.6 367 143.4 336.9 93.8 339.1 151.6 322.8 156.4 275.3 77.8 291.4 73 321.5 122.9 319.4 64.8 335.6 60 365.7 109.6 363.6 51.7 379.8 46.9 383.3 138.6"/>
          <path class="cls-1" d="M262.3,399.3c-1.1,6.6-1.6,14.1-1.2,22.5,1.2.2,3.3.7,4.6,2.5,1.2,1.6,1.4,3.7.8,6.4h8.2c-.8-4-3.1-16.4-1.2-28.1.1-.7.2-1.3.4-2,1-5,2.9-9.7,6.1-13.5,4.9-5.8,12.1-8.5,21.6-7.9h.4s.1,0,.1,0h.2s.4,0,.4,0c.6,0,1,.5.9,1.1,0,.4-.2.6-.5.8-.2,0-.3.1-.6.1h-1.1c-8.8-.6-15.5,1.8-19.9,7.1-3.1,3.7-4.9,8.5-5.8,13.6-1.7,9.1-.6,19.1.3,24.7.1.7.2,1.3.3,1.9.3,1.7.6,2.7.6,2.8,0,.3,0,.6-.2.9s-.5.4-.8.4h-10.7c-.3.1-.6,0-.8-.3-.2-.3-.2-.6-.2-.9.8-2.6.8-4.6-.2-5.9-1.3-1.8-4-1.8-4-1.8-.2,0-.4,0-.5-.1-.3-.2-.5-.5-.5-.8,0-.4,0-.7,0-1.1-.3-9.1.2-17.1,1.5-24.2,2.2-11.4,6.5-20.1,13.1-26,8.5-7.7,18.1-8.1,21.9-8,1,0,1.6.1,1.7.1.4,0,.6.3.8.6,0,0,0,0,0,0,0,.1,0,.3,0,.5,0,.6-.6.9-1.1.8,0,0-.2,0-.5,0-2.5-.2-12.7-.5-21.5,7.4-6.1,5.5-10.2,13.5-12.3,24.1-.2.7-.3,1.4-.4,2.1"/>
          <path class="cls-1" d="M273.5,402.6h0c-2,0-4-.3-5.9-1-1.7-.6-3.8-1.5-5.2-2.3h0c-.5-.3-.9-.5-1.1-.8-.3-.2-.4-.6-.3-.9,0-.2,0-.3.2-.5.4-.4,1-.5,1.4-.1,0,0,.2.1.2.2,1,.7,3.2,1.7,5.5,2.6,1.8.7,3.7,1,5.6.9h0s0,0,0,0c.5,0,1,.4,1,1,0,0,0,.2,0,.2,0,.5-.5.8-.9.8-.1,0-.3,0-.4,0Z"/>
          <path class="cls-1" d="M286.9,451.6c1.2-.1,2.3-.8,2.9-1.7.5-.8.5-1.6.1-2.6-1.1-2.6-6.8-12.6-9.1-16.8-.7-1.2-2-2-3.4-2h-.9s0,0-.1,0c-.5,0-.9-.5-.9-1s.2-.8.6-.9c.1,0,.3,0,.4,0h.9c2.1,0,4.1,1.1,5.2,3,3,5.2,8.1,14.4,9.2,17,.6,1.5.5,3-.2,4.4-.7,1.2-2,2.1-3.4,2.5-.3.1-.6.2-1,.2-.3,0-.6,0-1,0-9.9.9-48,4.4-57.6,4.5-4.5,0-8.1-.4-10.7-1.3h0c-.8-.3-1.5-.7-2-1.3-1-.9-1.6-2.1-1.8-3.5-.5-3.7.4-7.1,2.7-10,5.2-6.6,16.5-9.6,25.2-10.9"/>
          <path class="cls-1" d="M251.8,429.1c-.3.6-.7,1.2-1.2,1.7-.5.5-1.1.9-1.8,1.2-.5.2-1.1.4-1.7.5,0,0-.2,0-.3,0-.9,0-1.9.2-2.9.3-.7,0-1.4.2-2.2.3-8.2,1.3-18.7,4.1-23.4,10.1-2,2.5-2.7,5.3-2.3,8.5.2,1.5,1.2,2.7,2.5,3.2,1.6.6,4.7,1.3,10,1.2,9.9-.1,50.4-3.8,58.4-4.6"/>
          <path class="cls-1" d="M242.1,431.1c1.7-.3,3.3-.5,4.7-.6,1.8-.2,3.3-1.6,3.5-3.4.5-5.2,7.4-5.4,8.7-5.4.1,0,.2,0,.2,0,.6,0,1,.5,1,1,0,.4-.3.8-.6.9-.1,0-.2,0-.4,0,0,0-6.6-.1-6.9,3.6,0,.6-.2,1.3-.5,1.8"/>
          <path class="cls-1" d="M241.9,431.1h.2"/>
          <path class="cls-1" d="M288,453.4v1.4c.4,2.9-1.6,5.6-4.4,6.2-10.8,2.3-34.4,3-50.7,3.2s-8.2,0-11.1,0c-2.9,0-5.4-2.2-5.8-5.1l-.4-3.1c0-.2,0-.4,0-.5.1-.3.4-.5.8-.6.6,0,1.1.3,1.1.9v1c.1,0,.4,2.2.4,2.2.2,1.9,1.9,3.3,3.8,3.3,10.9,0,47.5-.3,61.4-3.3,1.8-.4,3.1-2.1,2.9-4.1v-1.3c-.1,0-.2-1-.2-1,0-.5.3-1,.9-1.1h0c.6,0,1,.4,1.1.9v.9Z"/>
          <path class="cls-1" d="M242.1,431.1h0"/>
          <path class="cls-1" d="M241.8,431.1s0,0,0,0"/>
          <path class="cls-1" d="M251.8,429.1h0"/>
          <path class="cls-1" d="M188.3,305.7c-3.6.5-7,.8-10.3.8-14,.2-25-3.8-32.7-12-16.9-17.7-13.3-49.2-11.9-58.1.2-1.3.4-2.1.4-2.3,0-.4.3-.6.7-.7l11.3-3.9c0-.1,0-.2,0-.4.4-6.6,5.2-12.4,9.9-14.4,2.7-1.1,5.1-.9,6.6.6,1.9,1.9,1.7,4.9.7,7.9-.4,1.3-1,2.6-1.6,3.7-1.1,2.1-2.2,3.8-2.7,4.5-.9,7.9-6.1,11.4-7.9,12.4-1,20.8,3.1,34.3,12,40,10.5,6.7,24.7.4,27.5-.9.3-.1.4-.2.5-.2.5-.3,1.1,0,1.4.4,0,.1.1.3.1.5,0,.4-.2.7-.5.9-.1,0-.7.4-1.6.8-4.6,2-17.9,6.9-28.4.2-9.7-6.2-14-20.4-12.9-42.3,0-.4.3-.7.6-.9.3-.1,6.4-3,7.3-11.3,0-.2,0-.3.2-.5.4-.6,1-1.5,1.6-2.6.7-1.2,1.4-2.5,1.9-3.8,1.2-2.9,1.8-5.9.4-7.3-1.3-1.3-3.3-.6-4.4-.2-3.9,1.7-7.9,6.4-8.6,11.8,0,.6-.1,1.2-.1,1.8s-.3.8-.7,1l-11.4,3.9c0,.2,0,.4-.1.7-1.1,6.8-5.6,39.8,11.2,57.4,9.2,9.6,23.2,13.2,41.8,10.5.2,0,.5,0,.8-.1.5,0,1.1.3,1.1.8,0,0,0,0,0,.1,0,0,0,.1,0,.2,0,.4-.4.8-.8.8-.4,0-.8.1-1.3.2Z"/>
          <path class="cls-1" d="M362.4,225.4l13.4,8.7c5.2-5.1,9.1-11.1,11.7-17.7,5.3-13.5,5.2-25.8-.2-36.8-6.7-13.5-18.9-19.1-24.3-21.1,0,0,0,0,0,0l-.5.2-12.1,4.8c-.3.1-.6,0-.8,0,0,0-.2,0-.2-.1-1.5-.7-2.9-1.3-4.2-1.7-10-3.4-14.3.7-14.5.9-1,1.2-1.3,2.2-1,3.2.1.4.4.8.8,1.2.7.8,1.9,1.5,3.1,2.1,2.1.9,4.4,1.5,5.6,1.8,0,0,.2,0,.2,0,12,5.4,15.8,1.1,15.8,1.1.3-.4.8-.5,1.2-.3,12.2,6.4,19,14.3,20,23.5,1.6,14.2-10.6,26.8-14.2,30.2Z"/>
        </g>
      </g>
    </g>
  </g>
</svg>