<svg xmlns="http://www.w3.org/2000/svg" xmlns:xlink="http://www.w3.org/1999/xlink" fill="none" version="1.1" width="50" height="47.528564453125" viewBox="0 0 50 47.528564453125"><g><g><path d="M38.2812,0C38.2812,0,11.7188,0,11.7188,0C5.24666,0,0,4.98733,0,11.1395C0,11.1395,0,36.3891,0,36.3891C0,42.5412,5.24666,47.5286,11.7188,47.5286C11.7188,47.5286,38.2812,47.5286,38.2812,47.5286C44.7533,47.5286,50,42.5412,50,36.3891C50,36.3891,50,11.1395,50,11.1395C50,4.98733,44.7533,0,38.2812,0C38.2812,0,38.2812,0,38.2812,0Z" fill="#E14E1D" fill-opacity="1"/></g><g><path d="M9.375,7.055033206939697C9.375,7.055033206939697,11.05664,24.988333206939696,11.05664,24.988333206939696C11.05664,24.988333206939696,32.6797,24.988333206939696,32.6797,24.988333206939696C32.6797,24.988333206939696,31.9541,32.6801332069397,31.9541,32.6801332069397C31.9541,32.6801332069397,24.992,34.4695332069397,24.992,34.4695332069397C24.992,34.4695332069397,18.04297,32.6827332069397,18.04297,32.6827332069397C18.04297,32.6827332069397,17.578319999999998,27.743933206939698,17.578319999999998,27.743933206939698C17.578319999999998,27.743933206939698,11.31641,27.743933206939698,11.31641,27.743933206939698C11.31641,27.743933206939698,12.21191,37.26463320693969,12.21191,37.26463320693969C12.21191,37.26463320693969,24.9906,40.638433206939695,24.9906,40.638433206939695C24.9906,40.638433206939695,37.7855,37.26463320693969,37.7855,37.26463320693969C37.7855,37.26463320693969,39.501000000000005,19.0587332069397,39.501000000000005,19.0587332069397C39.501000000000005,19.0587332069397,16.7625,19.0587332069397,16.7625,19.0587332069397C16.7625,19.0587332069397,16.1916,12.985893206939696,16.1916,12.985893206939696C16.1916,12.985893206939696,40.066199999999995,12.985893206939696,40.066199999999995,12.985893206939696C40.066199999999995,12.985893206939696,40.625,7.055033206939697,40.625,7.055033206939697C40.625,7.055033206939697,9.375,7.055033206939697,9.375,7.055033206939697C9.375,7.055033206939697,9.375,7.055033206939697,9.375,7.055033206939697Z" fill="#FFFFFF" fill-opacity="1"/></g><g><path d="M25,7.055033206939697C25,7.055033206939697,9.375,7.055033206939697,9.375,7.055033206939697C9.375,7.055033206939697,11.05664,24.988333206939696,11.05664,24.988333206939696C11.05664,24.988333206939696,25,24.988333206939696,25,24.988333206939696C25,24.988333206939696,25,19.0587332069397,25,19.0587332069397C25,19.0587332069397,16.7625,19.0587332069397,16.7625,19.0587332069397C16.7625,19.0587332069397,16.1916,12.985893206939696,16.1916,12.985893206939696C16.1916,12.985893206939696,25,12.985893206939696,25,12.985893206939696C25,12.985893206939696,25,7.055033206939697,25,7.055033206939697C25,7.055033206939697,25,7.055033206939697,25,7.055033206939697ZM25,34.4669332069397C25,34.4669332069397,24.992,34.4695332069397,24.992,34.4695332069397C24.992,34.4695332069397,18.04297,32.6827332069397,18.04297,32.6827332069397C18.04297,32.6827332069397,17.578319999999998,27.743933206939698,17.578319999999998,27.743933206939698C17.578319999999998,27.743933206939698,11.31641,27.743933206939698,11.31641,27.743933206939698C11.31641,27.743933206939698,12.21191,37.26463320693969,12.21191,37.26463320693969C12.21191,37.26463320693969,24.9906,40.638433206939695,24.9906,40.638433206939695C24.9906,40.638433206939695,25.0002,40.6358332069397,25.0002,40.6358332069397C25.0002,40.6358332069397,25,34.4669332069397,25,34.4669332069397C25,34.4669332069397,25,34.4669332069397,25,34.4669332069397Z" fill="#EBEBEB" fill-opacity="1"/></g></g></svg>