<svg xmlns="http://www.w3.org/2000/svg" xmlns:xlink="http://www.w3.org/1999/xlink" fill="none" version="1.1" width="50" height="50" viewBox="0 0 50 50"><g><g><path d="M38.2812,0C38.2812,0,11.7188,0,11.7188,0C5.24666,0,0,5.24666,0,11.7188C0,11.7188,0,38.2812,0,38.2812C0,44.7533,5.24666,50,11.7188,50C11.7188,50,38.2812,50,38.2812,50C44.7533,50,50,44.7533,50,38.2812C50,38.2812,50,11.7188,50,11.7188C50,5.24666,44.7533,0,38.2812,0C38.2812,0,38.2812,0,38.2812,0Z" fill="#F0DB4F" fill-opacity="1"/></g><g><path d="M13.146874129560548,41.78363243103027C13.146874129560548,41.78363243103027,16.973048924560548,39.46793243103028,16.973048924560548,39.46793243103028C17.711328924560547,40.77673243103027,18.382808924560546,41.884132431030274,19.993558924560546,41.884132431030274C21.537498924560545,41.884132431030274,22.51093892456055,41.28023243103027,22.51093892456055,38.931032431030275C22.51093892456055,38.931032431030275,22.51093892456055,22.954882431030274,22.51093892456055,22.954882431030274C22.51093892456055,22.954882431030274,27.209778924560545,22.954882431030274,27.209778924560545,22.954882431030274C27.209778924560545,22.954882431030274,27.209778924560545,38.997432431030276,27.209778924560545,38.997432431030276C27.209778924560545,43.864032431030274,24.357078924560547,46.079332431030274,20.194918924560547,46.079332431030274C16.436128924560546,46.079332431030274,14.254298924560548,44.132632431030274,13.146678924560547,41.78323243103027M29.76187892456055,41.28003243103028C29.76187892456055,41.28003243103028,33.58767892456055,39.065032431030275,33.58767892456055,39.065032431030275C34.59487892456055,40.709732431030275,35.903878924560544,41.91793243103027,38.21957892456055,41.91793243103027C40.16657892456055,41.91793243103027,41.407978924560545,40.944532431030275,41.407978924560545,39.60193243103028C41.407978924560545,37.99103243103028,40.13257892456055,37.420332431030275,37.98457892456055,36.48083243103027C37.98457892456055,36.48083243103027,36.810178924560546,35.97713243103027,36.810178924560546,35.97713243103027C33.42007892456054,34.53413243103027,31.171278924560546,32.72163243103027,31.171278924560546,28.895512431030273C31.171278924560546,25.371292431030273,33.85647892456055,22.686132431030273,38.051978924560544,22.686132431030273C41.03907892456054,22.686132431030273,43.18707892456055,23.726752431030274,44.73087892456054,26.445312431030274C44.73087892456054,26.445312431030274,41.07247892456054,28.794722431030273,41.07247892456054,28.794722431030273C40.26677892456055,27.351562431030274,39.39457892456055,26.781052431030275,38.051978924560544,26.781052431030275C36.67577892456055,26.781052431030275,35.80307892456055,27.65371243103027,35.80307892456055,28.794722431030273C35.80307892456055,30.204292431030275,36.67577892456055,30.775002431030273,38.68947892456055,31.647852431030273C38.68947892456055,31.647852431030273,39.864078924560545,32.151172431030275,39.864078924560545,32.151172431030275C43.85797892456055,33.86313243103027,46.10687892456055,35.608032431030274,46.10687892456055,39.53473243103028C46.10687892456055,43.76403243103027,42.78417892456055,46.07973243103027,38.32027892456055,46.07973243103027C33.95717892456055,46.07973243103027,31.137878924560546,43.99883243103027,29.76187892456055,41.28003243103028C29.76187892456055,41.28003243103028,29.76187892456055,41.28003243103028,29.76187892456055,41.28003243103028Z" fill="#323330" fill-opacity="1"/></g></g></svg>