<?xml version="1.0" encoding="UTF-8"?>
<svg xmlns="http://www.w3.org/2000/svg" version="1.1" viewBox="0 0 341 317">
  <defs>
    <style>
      .cls-1 {
        fill: #fff7e9;
      }

      .cls-1, .cls-2, .cls-3, .cls-4 {
        stroke: #000;
        stroke-linecap: round;
        stroke-linejoin: round;
        stroke-width: 3px;
      }

      .cls-5 {
        fill: #fff;
      }

      .cls-6 {
        fill: #c27600;
      }

      .cls-2 {
        fill: none;
      }

      .cls-3 {
        fill: #68cea5;
      }

      .cls-4 {
        fill: #f8c668;
      }

      .cls-7 {
        fill: #95b65c;
      }



#left-arm {
  animation: rotation 3s infinite;
}

@keyframes rotation {
  0% {
    transform: rotate(0deg);
  }
  50% {
    transform: rotate(-10deg);
  }
  100% {
    transform: rotate(0deg);
  }
}

#leap {
  animation: leap-rotation 7s linear infinite;
  transform-origin: 164.2px 119.1px; /* #one 요소의 타원 중심 */
}

@keyframes leap-rotation {
  0% {
    transform: rotate(0deg);
  }

  100% {
    transform: rotate(360deg);
  }
}
    </style>
  </defs>
  <!-- Generator: Adobe Illustrator 28.6.0, SVG Export Plug-In . SVG Version: 1.2.0 Build 709)  -->
  <g>
    <g id="shoes">
      <path class="cls-3" d="M138.7,235.8s-44.2-38.2-51.5-12.6c0,0-5.7,26.4,52.3,15.8"/>
      <path class="cls-3" d="M185.8,243.5c2.8-13.1,9.2-22.1,16.1-22.6.6,0,3.1-.2,4.5,1.3,3,3.1-.4,11.1-3.2,15.3-4.3,6.4-10.7,9.1-14.4,10.2"/>
      <path class="cls-2" d="M136.5,237.3s-19.5-9.5-28.9-8.8-1.5,0-1.5,0"/>
      <path class="cls-2" d="M198.4,231.6s-9.6,7.9-10.7,11.8c-1.1,4-1.1,3.6-1.1,3.6"/>
      <path class="cls-3" d="M138.7,189.3s-.6,69.6,11.9,80.5c0,0,10.3-2.1,11.3-5.1,0,0-20.8-64.2-7.8-85.6l-15.6,4.1.2,6.1Z"/>
      <path class="cls-3" d="M168.6,189.6s.5,65.8,10.5,79.7c0,0,9.8-1.7,11.2-5.9,0,0-14-50.9-9.6-74,4.4-23.1-.6-.8-.6-.8l-11.6,1Z"/>
      <g>
        <path d="M199.8,288.9c.4,1,.3,1.9-.3,2.7-1.2,1.7-4.3,2-5.8,2h0c-6.2,4-13.4,5.3-19.9,5.4s-10-.6-13.5-1.3c-1-.2-1.9-.6-2.7-1.2,0-.3,0-.5-.2-.8-.2-.5-.7-.8-1.3-.8-.4-.6-.7-1.3-.8-2.1.3,0,.7-.2,1-.2.8-.2,1.3-1,1.1-1.8-.2-.7-.8-1.1-1.5-1.1l.9-.8c.1.1.3.2.4.3,0,0,.4.2.9.4v1.8c-.1,1.6,1,3,2.6,3.3,7.3,1.5,21.2,3,31.6-3.9.2-.2.5-.3.9-.3,1.5,0,3.3-.3,3.8-.6-.2-.5-.4-1-.5-1.5h1c.8-.1,1.4-.8,1.4-1.6v-1.5c.5.3.8.9.7,1.5,0,.2-.1.4-.2.6,0,.2.2.7.4,1.4Z"/>
        <path d="M198.6,267.7l.2,17.7c-.2,0-.3-.2-.5-.2-.6,0-1.2.2-1.6.6,0,.1-.1.2-.2.3l-.7-.6-.2-15.5c1.2-1.1,2-2.3,2.4-3.5.3.3.5.7.5,1.1Z"/>
        <path d="M198.4,263.2c.2,1.1.1,2.2-.3,3.4-.3-.2-.6-.4-1-.4s-.4,0-.5.1c.5-1,.6-2,.4-2.8-.6-2.5-4.1-3.7-5-4l-2.2-.3v4c0,0,0,0,0,.1-.3,2-10.9,6-10.9,6l-3-3.8c-1.3.3-3.3,2.9-3.2,5.1-.3-.5-.9-.7-1.5-.6,0-.5.1-.9.3-1.4.7-2.2,2.5-4.3,4.1-4.7.6-.1,1.2,0,1.5.5l2.3,3c3.9-1.5,8.1-3.5,8.9-4.5v-3.7c0-.4.1-.9.5-1.2.3-.3.8-.4,1.2-.4l2.2.4c0,0,.2,0,.2,0,2,.6,5.3,2.1,6,5Z"/>
        <path d="M198.9,285.4v1.5c0,.8-.6,1.5-1.4,1.5h-1c-.2-.9-.3-1.6,0-2.3,0-.1.1-.2.2-.3.4-.5,1-.7,1.6-.6.2,0,.4,0,.5.2Z"/>
        <path d="M197.1,266.2c.4,0,.7.1,1,.4-.5,1.2-1.3,2.4-2.4,3.5v-2.2c.4-.5.7-1,.9-1.5.2,0,.3-.1.5-.1Z"/>
        <path d="M197,263.5c.2.8,0,1.8-.4,2.8-.6.2-1,.8-.9,1.4h0c-1.6,2.1-4.5,4-8.5,5,0,0-.1,0-.2,0-.6-.3-1.4-.2-1.9.4-7.9,1.6-11.2.4-12.1-1.4h0c0-.2,0-.5,0-.7,0-.2-.1-.3-.2-.4-.2-2.2,1.9-4.8,3.2-5.1l3,3.8s10.6-3.9,10.9-6c0,0,0,0,0-.1v-4c0,0,2.1.3,2.1.3.9.3,4.4,1.5,5,4ZM186.8,271.3c6.1-1.4,9.2-5.4,8.7-7.4-.3-1.3-2.3-2.3-3.9-2.8h-.3s0,2.2,0,2.2c0,.1,0,.3,0,.4-.3,1.9-4.3,4.3-11.9,7.1-.6.2-1.3,0-1.7-.5l-2.2-2.8c-.7.8-1.6,2.3-1.3,3.4.4,1.5,3.9,2.5,12.5.4Z"/>
        <path class="cls-6" d="M196.5,288.5c.1.4.3.9.5,1.5-.5.4-2.3.7-3.8.6-.3,0-.6,0-.9.3-10.4,6.9-24.2,5.4-31.6,3.9-1.6-.3-2.7-1.7-2.6-3.3v-1.8c2.4,1.1,9.2,3.7,17.9,3.6,5.3,0,11.4-1.3,17.7-4.5l2.7-.2Z"/>
        <path d="M195.9,285.5l.7.6c-.3.6-.3,1.4,0,2.3l-2.7.2c-6.3,3.2-12.4,4.4-17.7,4.5-8.7.2-15.4-2.5-17.8-3.6v-.5c0-.8-.6-1.5-1.4-1.5-.2,0-.3,0-.4,0-.8-2.5-.6-4.9.5-7.2.4-.9,1-1.7,1.6-2.5.2.2.4.3.7.3s.4,0,.6-.2l8.1-5.7c.3-.2.4-.5.4-.8v-.5c1.5-.7,2.6-1,2.7-1.1,0,0,0,0,.1,0,0,1.1.2,2.1.8,2.9h0c0,0-9.6,3.2-12.3,8.8-.8,1.6-.9,3.2-.4,5,2.9,1.3,17.8,7.4,33.4-.9.2,0,.4-.1.6-.2l2.6-.2Z"/>
        <path d="M196.6,266.3c-.2.5-.6,1-.9,1.5h0c0-.7.4-1.3.9-1.5Z"/>
        <path d="M195.6,267.8v2.2c-1.7,1.6-4.1,3-7.2,3.9-.6-.6-1.2-1-1.3-1.1h-.2c0,0,.1-.1.2-.1,4-1,6.9-2.9,8.5-4.9Z"/>
        <path class="cls-7" d="M195.5,263.9c.5,2.1-2.7,6-8.7,7.4-8.6,2-12.1,1-12.5-.4-.3-1.1.5-2.6,1.3-3.4l2.2,2.8c.4.5,1.1.7,1.7.5,7.6-2.8,11.6-5.2,11.9-7.1,0-.1,0-.3,0-.4v-2.2s.3,0,.3,0c1.6.5,3.6,1.6,3.9,2.8Z"/>
        <path class="cls-7" d="M195.6,270l.2,15.5-2.6.2c-.2,0-.4,0-.6.2-15.6,8.2-30.5,2.2-33.4.9-.5-1.7-.4-3.4.4-5,2.7-5.6,12.2-8.8,12.3-8.8h0c.1.2.3.3.4.5,1.3,1.4,3.5,2,6.7,2s3.6-.3,5.8-.7c.1.2.3.4.5.6.3.2,1.7,1.3,1.8,2.4.1.8.8,1.3,1.5,1.3s.1,0,.2,0c.8-.1,1.4-.9,1.3-1.7-.2-1.4-1.1-2.6-1.8-3.4,3.1-.9,5.5-2.3,7.2-3.9Z"/>
        <path d="M190.2,277.3c.1.8-.4,1.6-1.3,1.7,0,0-.1,0-.2,0-.7,0-1.4-.5-1.5-1.3-.2-1.1-1.5-2.2-1.8-2.4-.2-.2-.4-.4-.5-.6.8-.2,1.7-.3,2.5-.6.3,0,.6-.2.9-.2.8.8,1.6,2,1.8,3.4Z"/>
        <path d="M188.4,273.9c-.3,0-.6.2-.9.2-.9.2-1.7.4-2.5.6-.2-.5-.2-1,.1-1.5,0,0,0,0,0,0,.6-.1,1.2-.3,1.9-.4h.2c.1.2.7.6,1.3,1.2Z"/>
        <path d="M185.1,273.2c.4-.6,1.2-.7,1.9-.4-.6.2-1.3.3-1.9.4Z"/>
        <path d="M185.1,273.2s0,0,0,0c-.3.5-.3,1-.1,1.5-2.2.4-4.2.7-5.8.7-3.2,0-5.4-.6-6.7-2-.2-.2-.3-.3-.4-.5.6-.2.9-.7,1-1.2.9,1.9,4.2,3.1,12.1,1.4Z"/>
        <path d="M173,271.1c0,.2,0,.4,0,.7-.2-.3-.3-.7-.3-1.1.1.1.2.3.2.4Z"/>
        <path d="M173,271.7h0c0,.6-.5,1-1,1.2-.6-.8-.8-1.8-.8-2.9.6-.1,1.2,0,1.5.6,0,.4.1.8.3,1.1Z"/>
        <path d="M168.7,265.1c0,.6-.1,1.2-.4,1.7,0-.3-.3-.5-.5-.6-.3-.1-.6-.1-.8,0,.2-.4.2-.7.2-1.1,0-4.2-4.3-5.1-4.3-5.1h-1.6s.5,5,.5,5c-1,1.4-11.9,4.8-11.9,4.8l-4.1-4.4s-3.4,10.9,9.8,7.8c0,0,0,.1,0,.2,0,.3,0,.6.2.9l.3.4c-1.6.4-3,.6-4.3.6-2.6,0-4.6-.6-6-2.1-.3-.3-.5-.6-.7-.9,0-.2,0-.4,0-.6,0-.4-.3-.8-.7-1-.8-2.7,0-5.5.1-5.7.2-.5.6-.9,1.1-1,.5-.1,1.1,0,1.4.4l3.5,3.7c4-1.3,8.4-2.9,9.9-3.7l-.4-4.2c0-.4,0-.8.4-1.1.3-.3.7-.5,1.1-.5h1.6c.1,0,.2,0,.3,0,1.9.4,5.4,2.2,5.5,6.5Z"/>
        <path d="M168.4,267.1v4c-2.8,1.2-7.1,3.5-9.9,6.8,0,0,0,0,0,0l-2.5-3.1s0,0,0,0c0,0,0,0,.1,0,.8-.3,2.1-.8,3.6-1.4-.6.3-1.2.6-1.8.9l1.4,1.7,6.9-4.8v-1.7c.9-.8,1.6-1.6,2-2.5,0,0,0,.2,0,.3Z"/>
        <path d="M168.4,266.8h0c-.4.9-1.1,1.8-2,2.5v-.2c-1.4,1-2.9,2-4.4,2.9-.7.4-1.4.8-2.1,1.2,0,0,0,0,0,0-1.5.7-2.8,1.1-3.6,1.4,0,0,0,0-.1,0,0,0,0,0,0,0l-.3-.4c-.2-.2-.3-.6-.2-.9,0,0,0-.2,0-.2h.1s9.7-3.4,11.3-7.1c.3-.1.6-.1.8,0,.3.1.4.3.5.6Z"/>
        <path d="M168.4,271.1v.5c0,.3-.2.6-.4.8l-8.1,5.7c-.2.1-.4.2-.6.2s-.5,0-.7-.3c2.7-3.3,7-5.6,9.8-6.8Z"/>
        <path d="M167.2,265.1c0,.4,0,.7-.2,1.1,0,0-.2,0-.2.1-1.8,1.5-3.8,2.8-5.8,4-1.6.9-3.2,1.8-4.9,2.5-.2,0-.4.2-.5.4-13.1,3.1-9.8-7.8-9.8-7.8l4.1,4.4s10.9-3.4,11.9-4.8l-.5-5h1.6s4.2.8,4.3,5ZM165.7,265.2c0-2.3-1.9-3.2-2.7-3.5l.3,3.3c0,.3,0,.7-.3,1-1.1,1.5-7.5,3.8-12.7,5.4-.5.2-1.1,0-1.5-.4l-1.9-2c0,.9.3,1.7.9,2.3,1.2,1.3,3.8,1.5,7.4.6,5.1-1.8,10.5-4.9,10.5-6.7Z"/>
        <path d="M166.8,266.3c0,0,.1-.1.2-.1-1.6,3.8-11.3,7.1-11.3,7.1h-.1c.1-.2.3-.3.5-.4,1.7-.7,3.3-1.6,4.9-2.5,2-1.2,4-2.5,5.8-4Z"/>
        <path d="M166.4,269.2v.2c-1.8,1.6-4.3,2.9-6.5,3.9.7-.4,1.4-.8,2.1-1.2,1.5-.9,3-1.9,4.4-2.9Z"/>
        <path class="cls-7" d="M166.4,269.4v1.7s-7,4.8-7,4.8l-1.4-1.7c.6-.3,1.2-.6,1.8-.9,0,0,0,0,0,0,2.2-1,4.7-2.3,6.5-3.9Z"/>
        <path class="cls-7" d="M163,261.6c.8.3,2.7,1.2,2.7,3.5s-5.4,4.9-10.5,6.7c-3.6.9-6.2.7-7.4-.6-.6-.6-.8-1.5-.9-2.3l1.9,2c.4.4,1,.6,1.5.4,5.2-1.6,11.7-3.9,12.7-5.4.2-.3.3-.7.3-1l-.3-3.3Z"/>
        <path class="cls-7" d="M158.4,277.9s0,0,0,0c-.6.8-1.2,1.6-1.6,2.5-1.1,2.3-1.3,4.7-.5,7.2-.6.2-1.1.7-1.1,1.4v.7c-18.7,4.6-24.7-1.5-25.6-2.6-.5-2.5,0-4.7,1.3-6.7,3.6-5.4,12.7-7,12.8-7,.6-.1,1.1-.6,1.2-1.2.2.3.4.7.7.9,1.3,1.4,3.3,2.1,6,2.1s2.7-.2,4.3-.6l2.5,3.1Z"/>
        <path d="M156.8,287.5c.8,0,1.5.7,1.4,1.5v.5c-.5-.2-.8-.4-.9-.4-.2,0-.3-.2-.4-.3-.1-.1-.2-.3-.3-.5,0-.2-.2-.5-.2-.7.1,0,.3,0,.4,0Z"/>
        <path d="M157.4,295.6c.1.3.2.5.2.8-.6-.4-1-1-1.4-1.6.5,0,1,.3,1.3.8Z"/>
        <path d="M157.5,290.7c.2.8-.3,1.6-1.1,1.8-.3,0-.7.2-1,.2,0-.5-.1-1-.1-1.5v-1.6c.2,0,.3,0,.4,0s.2,0,.3,0c.7,0,1.3.4,1.5,1.1Z"/>
        <path class="cls-7" d="M156.9,288.8l-.9.8c-.1,0-.2,0-.3,0s-.2,0-.4,0v-.7c0-.7.5-1.2,1.1-1.4,0,.2.1.5.2.7,0,.2.2.3.3.5Z"/>
        <path d="M157.6,296.4c0,.5-.3,1-.8,1.2-3.2,1.7-6.9,2.3-10.6,2.4-5.8.1-11.6-1.3-15.4-2.4-2.8-.9-4.7-3.6-4.4-6.5v-1.7c.2-.4.3-.7.6-.9,0,0,0,0,0,0,0,.1.8,1.2,2.4,2.4v.4c-.2,1.5.8,3,2.3,3.4,5.7,1.7,16.4,4.1,23.7.2.2-.1.5-.2.8-.2.4.6.9,1.2,1.4,1.6Z"/>
        <path class="cls-6" d="M156.2,294.8c-.3,0-.5,0-.8.2-7.3,3.8-18,1.5-23.7-.2-1.5-.4-2.5-1.9-2.3-3.4v-.4c2.4,1.7,6.7,3.6,14,3.5,3.3,0,7.3-.5,11.9-1.7.2.7.4,1.4.8,2.1Z"/>
        <path d="M155.3,289.7v1.6c0,.5,0,1,0,1.5-4.7,1.1-8.6,1.6-11.9,1.7-7.3.1-11.7-1.8-14-3.5v-1.3c.2-.8-.4-1.6-1.3-1.6-.5,0-.9.2-1.2.5,0-.1-.1-.3-.2-.4-.8-3.5-.2-6.6,1.6-9.3,4.3-6.4,14.4-8.2,14.8-8.2.4,0,.7,0,1,.2.1.6.4,1.1.7,1.6-.1.6-.6,1.1-1.2,1.2,0,0-9.2,1.6-12.8,7-1.3,2-1.7,4.2-1.3,6.7.9,1.1,6.9,7.2,25.6,2.6Z"/>
        <path d="M145,271.8c0,.2,0,.4,0,.6-.3-.5-.5-1.1-.7-1.6.4.2.6.6.7,1Z"/>
        <path d="M128.2,288c.8,0,1.4.8,1.4,1.6v1.3c-1.8-1.2-2.5-2.3-2.6-2.4,0,0,0,0,0,0,.3-.3.7-.5,1.2-.5Z"/>
      </g>
    </g>
    <g id="right-arm">
      <path class="cls-3" d="M237,156.4c27.6-6.2,43.6-23.9,48.5-29.9,0,0,1-6.8,2.4-8.2s-4.8-10.7,5.2-13.4c0,0,7.1-.6,6.9,12.1,0,0,9.9-2.7,15.5,5.9,0,0,10.5,5.1,4.8,12.1,0,0,.7,3.5-.8,4.9s-7.8,2-13.4-2.3c0,0-10.3,5.1-17.3.7-6.5,7-17.3,16.5-32.9,23.2-32.8,14.1-63.3,5.7-72.7,2.7l4.8-11.2c7.6,2.8,26.2,8.3,49.1,3.1Z"/>
      <path class="cls-2" d="M316.1,123.7s-5.6-2.9-7.8-.8"/>
      <path class="cls-2" d="M318.7,134.4s-8.4-7.9-11.9-5.8"/>
      <path class="cls-2" d="M305.3,132.8s3.9-10.3-.4-13.3"/>
    </g>
    <g id="left-arm">
      <path class="cls-3" d="M104.7,143.7c-14.3-4.6-22.3-15.3-27.9-23-14.1-19.3-18.1-40.5-19.4-52.2,0,0,1.9-5,1.9-7s10.9-4.2,5.8-13.1c0,0-4.6-5.4-13.4,3.7,0,0-5.2-8.9-15.1-6.7,0,0-11.1-3.8-11.9,5.2,0,0-3,2.1-2.9,4.1s4.1,6.9,11.1,7.8c0,0,5.2,10.9,13.2,12.8,0,0,18.4,71.2,55.5,80.3l10.2,3.5,3.1-13.3c-2.5-.2-6-.7-10.1-2Z"/>
      <path class="cls-2" d="M35.5,45.4s6,1.9,6.1,4.9"/>
      <path class="cls-2" d="M26.1,51s11.5.3,12.6,4.3"/>
      <path class="cls-2" d="M36.8,59.4s4.5-10.1,9.7-9.2"/>
    </g>
    <g id="right-arm-2" data-name="right-arm">
      <path class="cls-2" d="M214,156.8"/>
    </g>
    <g id="leap">
      <circle class="cls-1" cx="148.6" cy="70.3" r="27.7"/>
      <circle class="cls-1" cx="200" cy="78.7" r="27.7"/>
      <path class="cls-1" d="M196.7,141.1c1.3.6,15.7,7,18.6,22.1,2.7,14.2-6.6,27.3-17.6,32.7-15.3,7.5-34.8.6-40.3-10.2-1.5-3.1-1.9-6.4-2.4-10.4-1.5-12.6,3-17.7,3-17.7,0,0,0,0,0,0,0,0,0,0,0,0,0,0,1.2-1.1,2.3-2.1"/>
      <path class="cls-1" d="M160.9,156.4s-4.1,40.5-43.3,31.9c0,0-29.5-11.7-8.5-48l.2-.6s6.2-9.3,15-12.2"/>
      <path class="cls-1" d="M128.1,134.1s-44.9,23.7-47.2-21.2c-.7-13.4,2.8-21.5,7.9-26.3.6-.5,2.5-2.2,5.4-3.6,12.3-5.9,28.2-.4,28.2-.4,4.2,1.2,8.9,2.9,13.7,5.4,1.6.8,3,1.6,4.4,2.4"/>
      <path class="cls-2" d="M177.1,155.6s5.7,10.8,9.6,14.5l3.8,3.7"/>
      <path class="cls-1" d="M140,150.1s-4.3,10.9-8.1,13.1l-3.7,2.2"/>
      <path class="cls-2" d="M124.7,111s-19.3,6.5-24.9.4"/>
      <path class="cls-1" d="M197,100.8s39.6-31.8,50.3,11.8c3.2,13.1,1.4,21.7-2.8,27.3-.5.6-2,2.6-4.6,4.6-10.9,8.1-27.6,5.7-27.6,5.7-4.4-.4-9.3-1.2-14.5-2.7-1.7-.5-3.3-1-4.8-1.6"/>
      <path class="cls-2" d="M203.8,121s16.7,1.6,18,3.5"/>
      <path class="cls-2" d="M147.2,54.5s-5.9,23.2,3.7,27"/>
      <path class="cls-2" d="M206.6,74.5s-15.4,5.9-15.9,15"/>
    </g>
    <g id="one">
      <ellipse class="cls-4" cx="164.2" cy="119.1" rx="37.8" ry="35.7" transform="translate(-2.1 2.9) rotate(-1)"/>
      <path class="cls-2" d="M168.6,93.2c-.7-.6-2.1-1.7-4.2-2.2-2.9-.6-5.2.3-6,.6"/>
      <path class="cls-2" d="M176.1,95.5c1-.2,4.1-.8,6.5,1.1.3.2.5.5.8.8.2.2.4.5.6.7,1,1.2,1.7,2.5,2.2,3.6"/>
      <ellipse class="cls-5" cx="171.9" cy="114.5" rx="12" ry="7.5" transform="translate(17.8 252.1) rotate(-75.4)"/>
      <ellipse class="cls-5" cx="158.2" cy="110.3" rx="12.8" ry="7.4" transform="translate(11.6 235.6) rotate(-75.4)"/>
      <path class="cls-2" d="M143.8,110s-1.1,6.9-7.9,3.5"/>
      <path class="cls-2" d="M185.7,122.1s-3.2,7.4,2.3,8.4"/>
      <path class="cls-2" d="M140.5,115.1c-1.3,11.7,2.5,21.8,9.9,25.9,3.8,2.1,7.7,2,10,2,13.1-.4,22-10.8,24.1-13.6"/>
      <ellipse cx="154.5" cy="108.2" rx="7.5" ry="3.3" transform="translate(16.6 237) rotate(-78)"/>
      <ellipse cx="168.7" cy="112.9" rx="7.5" ry="3.3" transform="translate(23.2 254.5) rotate(-78)"/>
    </g>
  </g>
</svg>