<?xml version="1.0" encoding="UTF-8"?>
<svg xmlns="http://www.w3.org/2000/svg" version="1.1" viewBox="0 0 344 387">
  <defs>
    <style>
      .cls-1, .cls-2 {
        fill: #fff;
      }

      .cls-3, .cls-2, .cls-4, .cls-5, .cls-6 {
        stroke: #000;
        stroke-linecap: round;
        stroke-linejoin: round;
        stroke-width: 3px;
      }

      .cls-3, .cls-7 {
        fill: #fb3e18;
      }

      .cls-8, .cls-6 {
        fill: #ee655a;
      }

      .cls-4 {
        fill: none;
      }

      .cls-5 {
        fill: #f23f0f;
      }
    </style>
  </defs>
  <!-- Generator: Adobe Illustrator 28.6.0, SVG Export Plug-In . SVG Version: 1.2.0 Build 709)  -->
  <g>
    <g id="Layer_1">
      <circle id="_뒤의_원" data-name="뒤의_원" class="cls-5" cx="157.9" cy="182.8" r="89.6"/>
      <circle id="_앞의원" data-name="앞의원" class="cls-6" cx="171.3" cy="182.8" r="89.6"/>
      <ellipse cx="200.5" cy="124.9" rx="3.4" ry="8.6"/>
      <path class="cls-2" d="M87.1,156.1c2.3,1.7,5.6,3.8,10.1,4.8,6,1.4,8.3-.5,13.4,1.4,5.5,2.1,4.7,5,9.4,6.3,5.8,1.6,8.6-2.3,14.7-1.1,4.1.8,7,3.4,8.8,5.4,0,0-2.9,14.1,0,19.6,2.9,5.5,0,.4,0,.4,0,0-3.8,6-14.4,5-4.9-.5-7.4.6-8.1.7-4.9,1.3-5.1,3.5-9.3,4.9-5.7,1.9-8-1.2-13.6,0-2.7.6-6.6,2.3-10.7,7.6,0,0-13.5-34-.3-55Z"/>
      <path class="cls-2" d="M199.7,172.4s4.7-5.9,9.1-5,12,3.4,15.1.8,10.8-7.2,18.3-6.3,13.7-7.3,13.7-7.3c0,0,10.3,31.1.7,55.6,0,0-6.3-7-14.4-6.4-8.1.6-13.3-6.5-17.7-7.1-4.4-.6-14.3,3.4-18,1.1s-6.8-5.5-6.8-5.5c0,0,2.2-9.5,0-19.9Z"/>
      <circle class="cls-3" cx="171.5" cy="183.4" r="29"/>
      <path class="cls-4" d="M167.6,110.1s6.3,8.1,24,.7c17.7-7.4,16.4,8.6,16.4,8.6,0,0,3.2,24.3-15.6,20.6s-20.5-5-22-2.6"/>
      <ellipse cx="173.1" cy="141.6" rx="5.9" ry="5.1" transform="translate(-11.6 267.7) rotate(-73.6)"/>
      <circle cx="171.3" cy="182.6" r="4.8"/>
      <g>
        <path d="M272.1,309.3c0,.3,0,.5,0,.8,0,.5-.2.9-.6,1.2-.2.2-.5.3-.7.3-.3-.5-.3-1.2,0-1.7.3-.4.7-.6,1.2-.6Z"/>
        <path d="M258.9,300.7c.5.5.7,1.2.3,1.9,0,0-.1.2-.3.6-.6-.1-1.1-.6-1.2-1.2,0-.1,0-.3,0-.4,0-.5.4-1,.8-1.2.1.1.3.2.4.4Z"/>
        <path class="cls-1" d="M244.4,302.6c.3.9,1.4,5.8-6.6,6.2-8,.4-13.6,1.1-16.2,5.7s-5.5,4.6-5.5,3.7v-.9s5.4-15.4,14.7-16.6c9.3-1.2,13.3.9,13.6,1.9Z"/>
        <path class="cls-1" d="M247.9,332.7c-6.3,14.3-15.5,22.9-22.1,27.6,1.8-2.2,3.5-4.7,5.2-7.7,2.9-5,24.8-44.2,27.9-49.6,0,0,0,0,.1,0,0,0,8.4.9,9.9,5.5-3.8.5-12.2,4.1-21,24.1Z"/>
        <path class="cls-8" d="M272.7,326.9c-12.2,27.9-30.2,41.6-53.4,40.8,3.4-1.4,21-10,31.4-33.8,10.4-23.7,19.5-22.3,19.6-22.3.2,0,.4,0,.5,0,.1.2.2.3.4.4.2.2,6,4.5,1.5,14.9Z"/>
        <path d="M250.7,333.9c-10.4,23.8-28,32.3-31.4,33.8-.4,0-.7,0-1.1,0,2.5-1.7,5.1-4.1,7.7-7.3,6.6-4.7,15.8-13.3,22.1-27.6,8.8-19.9,17.2-23.5,21-24.1-1.5-4.7-9.8-5.5-9.9-5.5,0,0,0,0-.1,0,.2-.4.3-.6.3-.6.3-.6.2-1.4-.3-1.9-.1-.1-.3-.2-.4-.4.2-.1.5-.2.8-.1.5,0,12,1.2,12.8,9.2-.5,0-.9.2-1.2.6-.4.5-.4,1.2,0,1.7-.2,0-.4,0-.5,0,0,0-9.2-1.3-19.6,22.3Z"/>
        <path d="M218.8,367.9c-.2,0-.4.1-.5.1s-.3,0-.5,0c.1,0,.3-.2.4-.3.4,0,.7,0,1.1,0-.3.1-.5.2-.5.2Z"/>
        <path d="M218.2,367.6c-.1.1-.3.2-.4.3-.2,0-.4-.2-.6-.4h1Z"/>
        <path d="M225.9,360.4c-4.7,3.4-8.1,4.7-8.2,4.8-.1,0-.3.1-.4.2l-.4-.5c4.1-3,8-7.5,11.5-13.6,2.8-4.9,23.7-42.2,27.6-49.1l1.7-.2c.1.6.6,1.1,1.2,1.2-3,5.4-25,44.6-27.9,49.6-1.7,3-3.4,5.5-5.2,7.7Z"/>
        <path d="M221.1,370.7c-2,0-3.9,0-5.8-.3-.4,0-.8-.2-1-.6,1.1-.5,2.3-1.2,3.5-1.9.1,0,.3,0,.5,0s.4,0,.5-.1c0,0,.2-.1.5-.2,23.3.9,41.2-12.8,53.4-40.8,4.5-10.4-1.3-14.7-1.5-14.9-.2-.1-.3-.3-.4-.4.3,0,.5-.1.7-.3.3-.3.6-.7.6-1.2s0-.6,0-.8c.3,0,.6,0,.9.3,0,0,8.1,5.8,2.5,18.5-15,34.4-36.9,42.6-54.4,42.6Z"/>
        <path d="M217.7,365.1c0,0,3.5-1.4,8.2-4.8-2.6,3.2-5.1,5.5-7.7,7.3h-1c-.1-.2-.3-.4-.4-.6-.2-.6,0-1.3.5-1.7.1,0,.2-.2.4-.2Z"/>
        <path d="M217.7,367.9c-1.2.8-2.3,1.4-3.5,1.9-.2-.3-.4-.7-.3-1.1,0-.8.8-1.4,1.6-1.4.5,0,1,.1,1.5.1.2.2.4.3.6.4Z"/>
        <path d="M238.2,296.3c-14.9,1.3-27.1,16.2-27.2,16.3-.2.2-.5.4-.8.5,0-1.6-.2-2.8-.5-3.7,3.5-3.9,14.5-14.9,28.2-16.1,7.4-.7,14.3,1.7,20.6,7-.4.2-.8.7-.8,1.2,0,.1,0,.3,0,.4l-1.7.2c-5.5-4.4-11.5-6.4-17.8-5.9Z"/>
        <path d="M209.8,309.4c.2.9.4,2,.5,3.7-.5.2-1,0-1.4-.3-.4-.3-.6-.7-.6-1.2s.1-.7.3-.9c0-.1.5-.6,1.1-1.3Z"/>
        <path class="cls-7" d="M230.8,300.7c-9.3,1.2-14.7,16.6-14.7,16.6v.9c0,.9,3,.9,5.5-3.7s8.2-5.3,16.2-5.7c8-.4,6.9-5.3,6.6-6.2-.3-.9-4.3-3.1-13.6-1.9ZM202.8,368.8c-8.3-1-14.4-3-18.2-6.1-1.3-1-2.3-2.2-3-3.4-2.1-3.5-2.2-8-.2-13.5,1.2.5,2.6,1,4,1.4.1,0,.2,0,.3,0,.2,0,2.4.2,5.5.2,5.3,0,13.2-.6,17.8-3.9.5-.4.7-1,.6-1.6l-1.6-6.5c.1-.1.3-.3.4-.4.5-.6.6-1.2.6-1.5.1-.8.7-6.3,1.1-12,.2-3.7.2-6.5.2-8.5.3,0,.5-.2.8-.5.1-.1,12.3-15,27.2-16.3,6.3-.6,12.3,1.4,17.8,5.9-3.9,6.9-24.8,44.2-27.6,49.1-3.5,6.1-7.4,10.7-11.5,13.6-4.4,3.2-9.2,4.5-14.1,4Z"/>
        <path d="M210.2,371.3c-1.6.4-3.2.6-4.7.6,1.5-.9,2-1.6,2-1.6.5-.7,1.4-.9,2.1-.4.5.3.7.8.7,1.4Z"/>
        <path d="M206.2,334.3c.8-.2,1.6.3,1.8,1.1h0c-.6.7-1.5,1.2-2.7,1.6l-.2-.9c-.2-.8.3-1.6,1.1-1.8Z"/>
        <path d="M200.2,317.1c0-.8.8-1.4,1.7-1.3.8,0,1.4.8,1.3,1.7-.5,4.6-.3,9.4.5,10.2s.6,1.5,0,2.1c-.3.3-.7.4-1.1.4s-.8-.1-1.1-.4c-2.4-2.4-1.6-10.3-1.4-12.7Z"/>
        <path d="M202.5,305.3c.3,0,2.6-.2,5.8,1.7.5.3,1.1.9,1.5,2.4-.7.7-1,1.2-1.1,1.3-.2.3-.3.6-.3.9h-1.2c-.1-1-.3-1.8-.5-2.1-2.3-1.3-3.9-1.2-3.9-1.2h-.1c-.1-.9-.2-1.9-.4-2.9,0,0,.2,0,.3,0Z"/>
        <path d="M202.6,308.2c-.2,0-.4,0-.5-.1-.1-.8-.2-1.6-.4-2.6.1,0,.3-.2.5-.2.2,1.1.3,2.1.4,2.9Z"/>
        <path d="M201.8,305.5c.1.9.3,1.8.4,2.6-.2,0-.4-.2-.6-.4,0-.5-.1-1.1-.2-1.7.1-.2.2-.4.4-.5Z"/>
        <path d="M201.3,306.1c0,.6.2,1.1.2,1.7-.2-.2-.4-.5-.4-.9,0-.3,0-.5.2-.8Z"/>
        <path d="M196.6,331.5c-1.4-1.7-1.4-9.1-1.3-13.3,0-.8.7-1.5,1.5-1.5.8,0,1.5.7,1.5,1.5-.1,4.7.1,10.4.7,11.4.5.6.4,1.6-.3,2.1-.3.2-.6.3-.9.3-.5,0-.9-.2-1.2-.6Z"/>
        <path d="M190.7,330.2c.7-2.6-.5-9.3-1-11.6-.2-.8.3-1.6,1.2-1.8.8-.2,1.6.4,1.8,1.1.2.9,1.9,9.2.9,13-.2.7-.8,1.1-1.4,1.1s-.3,0-.4,0c-.8-.2-1.3-1-1.1-1.8Z"/>
        <path class="cls-1" d="M194.5,375.3c-2.7.4-4.9-.1-6.4-1.5-2.1-1.9-2.6-5.2-2.7-7,4.2,2.4,9.9,4.1,17,4.9.8.1,1.7.2,2.6.2s.3,0,.5,0c-1.8,1.1-5.2,2.5-11.1,3.4Z"/>
        <path class="cls-1" d="M181.2,333.5c2.2,2.2,7.7,5,14.7,5s1.8,0,2.7-.1c2.9-.3,5.1-.8,6.8-1.4l1.1,4.7c-6.2,3.6-18.7,2.7-20.2,2.6-1.9-.6-3.6-1.2-5-1.9-3.5-1.6-5.5-3.5-5.7-5.3-.3-2.6,2.7-5.2,4.2-6.2,0,.9.6,1.8,1.5,2.7Z"/>
        <path d="M186.1,330.2c.8-2.7-.9-9.2-1.6-11.5-.2-.8.2-1.6,1-1.9.8-.2,1.6.2,1.9,1,.3.9,2.8,9.2,1.6,13.2-.2.6-.8,1.1-1.4,1.1s-.3,0-.4,0c-.8-.2-1.3-1.1-1-1.9Z"/>
        <path d="M188.9,271.2l-8.2,1.7c0,0,0-.1.1-.2l-.5-.2,8.6-1.8c7.2,3.9,11.2,24.1,12.8,34.9-.2.1-.3.3-.4.5-1.5-10.6-5.4-30.9-12.4-34.9Z"/>
        <path d="M184.6,313.4c1.6-8.7-9-29.9-10.5-32.9,3.4-3.1,5.6-5.7,6.6-7.7l8.2-1.7c7,4,10.9,24.3,12.4,34.9-.1.2-.2.5-.2.8,0,.3.2.6.4.9.3,2.3.5,3.9.6,4.5-3.5,2.9-14.9,1.5-17.5,1.2Z"/>
        <path d="M184.6,362.7c3.8,3.1,9.9,5.1,18.2,6.1,4.9.6,9.6-.8,14.1-4l.4.5c-.5.4-.7,1.1-.5,1.7,0,.2.2.4.4.5-.5,0-1,0-1.5-.1-.8,0-1.6.5-1.6,1.4,0,.4,0,.8.3,1.1-1.4.6-2.7,1.1-4,1.4,0-.5-.2-1.1-.7-1.4-.7-.4-1.6-.2-2.1.4,0,0-.5.7-2,1.6-.2,0-.3,0-.5,0-.9,0-1.8,0-2.6-.2-7.2-.9-12.9-2.5-17-4.9,0-.4,0-.7,0-.9s0-.4,0-.4c0-.8-.6-1.5-1.4-1.6h0l.7-1.2Z"/>
        <path d="M185.4,366.8c-1.1-.6-2-1.3-2.9-2,.2-.5.8-.9,1.4-.9h0c.8,0,1.5.8,1.4,1.6,0,0,0,.1,0,.4s0,.5,0,.9Z"/>
        <path d="M183.6,313.7c.4-1.4.3-3.3,0-5.5.2-.2.3-.4.4-.7.5,2.5.6,4.7.2,6.4,0,0,14.8,2.2,18.6-1.4,0,0-.2-1.6-.5-4.3.2,0,.3.1.5.1.3,2.3.5,3.9.5,4.1v.2s-.1.2-.1.2c-1.9,1.8-6,2.2-9.9,2.2s-8.8-.6-9.1-.7h-.5c0,0,.1-.6.1-.6Z"/>
        <path d="M183.6,306.3c.2.4.3.8.2,1.2,0-.4-.2-.8-.2-1.2Z"/>
        <path class="cls-8" d="M201.9,315.8c-.8,0-1.6.5-1.7,1.3-.3,2.4-1,10.3,1.4,12.7.3.3.7.4,1.1.4s.8-.1,1.1-.4c.6-.6.6-1.5,0-2.1s-1.1-5.6-.5-10.2c.1-.8-.5-1.6-1.3-1.7ZM195.4,318.2c-.1,4.2,0,11.6,1.3,13.3s.8.6,1.2.6.6-.1.9-.3c.6-.5.8-1.4.3-2.1-.5-1-.8-6.7-.7-11.4,0-.8-.6-1.5-1.5-1.5-.8,0-1.5.6-1.5,1.5ZM189.7,318.6c.5,2.3,1.7,9,1,11.6-.2.8.3,1.6,1.1,1.8.1,0,.2,0,.4,0,.7,0,1.3-.5,1.4-1.1,1-3.8-.7-12.1-.9-13-.2-.8-1-1.3-1.8-1.1-.8.2-1.3,1-1.2,1.8ZM187.4,317.8c-.2-.8-1.1-1.2-1.9-1-.8.2-1.2,1.1-1,1.9.7,2.3,2.4,8.8,1.6,11.5-.2.8.2,1.6,1,1.9.1,0,.3,0,.4,0,.7,0,1.2-.4,1.4-1.1,1.2-4-1.3-12.3-1.6-13.2ZM180.2,318.3c-2.3-5.3,3-9.8,3.2-10,0,0,.1-.1.1-.1.4,2.2.4,4.1,0,5.5v.5c-.1,0,.4,0,.4,0,.3,0,4.6.7,9.1.7s8-.5,9.9-2.2l.2-.2v-.2c0-.3-.2-1.8-.5-4.1h.1s1.6,0,3.9,1.2c.2.4.4,1.1.5,2.3.4,4.3-.2,13.5-1.1,21.5-.2.3-1.6,1.5-7.8,2.1-8.6.9-15.1-3.4-15.5-4.8,0-.3,0-.6,0-.9.1-2.2,0-5.4-2.6-11.4Z"/>
        <path d="M183.6,306.3s0,0,0,0c0,.4.2.8.2,1.2t0,0c0,.3-.2.5-.4.7-.1-.8-.3-1.6-.5-2.4.2,0,.4.2.6.4,0,0,0,0,0,0Z"/>
        <path d="M182.5,364.8c.9.7,1.8,1.4,2.9,2,.1,1.8.6,5,2.7,7,1.5,1.4,3.6,1.9,6.4,1.5,5.9-.8,9.2-2.2,11.1-3.4,1.5,0,3.1-.2,4.7-.6,0,.2,0,.5-.2.7-.3.5-3.2,4.6-15.1,6.3-.7.1-1.5.2-2.1.2-2.7,0-5-.8-6.7-2.4-4-3.7-3.7-10.4-3.6-10.6,0-.2,0-.4.1-.5Z"/>
        <path d="M180,330.7c.4-.2.7-.7.7-1.1h2.1c0,.4,0,.7,0,1,.4,1.4,6.9,5.7,15.5,4.8,6.1-.6,7.5-1.9,7.8-2.1,1-8.1,1.5-17.2,1.1-21.5h1.2c0,.3.2.8.6,1,.4.3.9.4,1.4.3,0,2,0,4.8-.2,8.5-.3,5.6-1,11.1-1.1,12,0,.4-.1.9-.6,1.5-.1.1-.2.3-.4.4h0c-.2-.9-1-1.4-1.8-1.2s-1.3,1-1.1,1.8l.2.9c-1.7.6-3.9,1.1-6.8,1.4-.9,0-1.8.1-2.7.1-7,0-12.5-2.8-14.7-5-.9-.9-1.4-1.8-1.5-2.7,0,0,.2-.1.3-.2Z"/>
        <path d="M185.5,347.2c-1.5-.5-2.8-.9-4-1.4.1-.3.2-.6.4-.9.3-.8,0-1.6-.8-1.9l.2-.5c1.4.7,3.1,1.3,5,1.9,1.5.1,14,1,20.2-2.6l-1.1-4.7c1.2-.4,2.1-.9,2.7-1.5l1.6,6.5c.1.6,0,1.2-.6,1.6-4.5,3.3-12.4,3.9-17.8,3.9s-5.3-.2-5.5-.2c-.1,0-.2,0-.3,0Z"/>
        <path d="M181.4,345.7c-1-.4-1.9-.8-2.7-1.3,0-.2.2-.5.3-.8.3-.8,1.2-1.2,2-.8.8.3,1.1,1.2.8,1.9-.1.3-.2.6-.4.9Z"/>
        <path d="M180.9,272.6c0,0,0,.1-.1.2h0c-.5.6-1,1.1-1.6,1.7.6-.8,1-1.5,1.3-2.1l.5.2Z"/>
        <path d="M180.4,272.4h-.6c0,0,0-.1.1-.2l.4.2Z"/>
        <path d="M180.7,329.6c0,.4-.3.8-.7,1.1,0,0-.2.1-.3.2,0-.1,0-.3,0-.4,0-.7.1-1.5,0-2.4.3.1.5.3.7.6.2.3.3.6.2,1Z"/>
        <path d="M177.4,319.5c-3.2-7.4,3.8-13.3,4.1-13.5.5-.4,1.1-.4,1.6-.2.2.8.4,1.6.5,2.4,0,0,0,0-.1.1-.2.2-5.5,4.6-3.2,10,2.6,6,2.8,9.1,2.6,11.4h-2.1c0-.4,0-.7-.2-1-.2-.3-.4-.5-.7-.6,0-1.9-.6-4.4-2.4-8.5Z"/>
        <path d="M179,360.8c-2.6-4.4-2.7-9.9-.3-16.3.8.4,1.7.9,2.7,1.3-2,5.5-1.9,10,.2,13.5.8,1.3,1.8,2.4,3,3.4l-.7,1.2c-.6,0-1.1.4-1.4.9-1.4-1.2-2.6-2.5-3.5-4Z"/>
        <path d="M178.6,274.2c.5-.6.9-1.2,1.2-1.8h.6s-.7.7-1.8,1.8Z"/>
        <path d="M180.1,271.9l8.9-1.8h.2c7.5,4.1,11.4,24.2,13,35.2-.2,0-.3.1-.5.2-1.6-10.8-5.5-31-12.8-34.9l-8.6,1.8-.4-.2c0,0,0,.2-.1.2h-.2c.1-.1.2-.2.4-.4h.1Z"/>
        <path d="M172.5,337.4c-.7-5.2,5.6-9.1,5.9-9.3.4-.3,1-.3,1.4,0,0,.9,0,1.7,0,2.4,0,.1,0,.3,0,.4-1.5,1-4.5,3.6-4.2,6.2.2,1.8,2.2,3.7,5.7,5.3l-.2.5c-.8-.3-1.6,0-2,.8-.1.2-.2.5-.3.8-3.8-2-5.8-4.3-6.2-7.1Z"/>
        <path d="M175.3,278.8c1-1.1,2.4-2.7,3.8-4.2-1,1.3-2.3,2.7-3.8,4.2Z"/>
        <path d="M174.9,278.4c1.1-1.3,2.6-2.9,3.7-4.1-.9,1.2-2.2,2.6-3.7,4.1Z"/>
        <path d="M173,280.1c.3-.7,1.6-2.5,6.6-7.7h.2c-.3.5-.7,1.1-1.2,1.8,0,0,0,0,0,0-1.2,1.2-2.7,2.9-3.7,4.1-.5.5-1.1,1.1-1.8,1.6,0,0,0,0,0,0Z"/>
        <path d="M180.7,272.8c-1,2-3.3,4.6-6.6,7.7,0,0,0-.1,0-.2.1-.3.6-.8,1.2-1.6h0c1.5-1.6,2.9-3,3.8-4.3.5-.5,1.1-1.1,1.6-1.6h0Z"/>
        <path d="M174.1,280.5c1.5,3,12.1,24.2,10.5,32.9,2.6.3,14,1.6,17.5-1.2,0-.6-.2-2.2-.6-4.5.2.2.4.3.6.4.3,2.7.5,4.3.5,4.3-3.9,3.6-18.6,1.4-18.6,1.4.4-1.6.3-3.9-.2-6.4t0,0c0-.4,0-.8-.2-1.2,0,0,0,0,0,0-2.1-9.6-8.6-22.8-9.9-25.4,0,0,0,0,.1,0,0,0,.2-.2.3-.3Z"/>
        <path d="M183,305.8c-2.2-9.3-8.3-21.8-9.7-24.6.1-.1.3-.2.4-.3,1.3,2.6,7.8,15.8,9.9,25.4,0,0,0,0,0,0-.2-.2-.4-.3-.6-.4Z"/>
        <path d="M173.8,280.8s0,0-.1,0c-.2-.3-.2-.5-.2-.5.6-.5,1.2-1.1,1.7-1.6-.6.7-1.1,1.3-1.2,1.6,0,0,0,.1,0,.2,0,0-.2.2-.3.3Z"/>
        <path d="M173.5,280.4c0-.2.5-1,1.4-2,1.6-1.5,2.8-2.9,3.7-4.1,0,0,0,0,0,0,1-1.1,1.8-1.8,1.8-1.8-.3.7-.8,1.4-1.3,2.1-1.5,1.6-2.9,3.1-3.8,4.2h0c-.5.6-1.1,1.1-1.7,1.7Z"/>
        <path d="M173.7,280.9c-.1.1-.3.2-.4.3-.1-.2-.2-.4-.2-.5.1-.1.2-.2.4-.3,0,0,0,.2.2.5Z"/>
        <path d="M173.5,280.4c-.1.1-.2.2-.4.3,0,0,0-.1,0-.1h0c0-.1-.1-.2,0-.5,0,0,0,0,0,0,.6-.6,1.2-1.1,1.8-1.6-.9,1-1.5,1.9-1.4,2Z"/>
        <path d="M159.7,356.2c-.5.9-1.1,1.7-1.8,2.4-.3-.2-.5-.3-.6-.3-.8-.3-1.1-1.2-.8-2,0,0,0-.1.1-.2.4-.6,1.2-.9,1.9-.6,0,0,.5.2,1.2.6Z"/>
        <path d="M173.3,281.2c-9.2,8.3-24.4,18.3-32.7,23.7-.1-.2-.2-.3-.3-.4,8.4-5.3,23.5-15.4,32.8-23.7,0,.1.1.2.2.5Z"/>
        <path d="M139.9,304.1c8.4-5.4,23.9-15.6,33.1-24-.1.3,0,.4,0,.5h0s0,0,0,.1c-9.3,8.3-24.4,18.4-32.8,23.7,0,0,0,0,0-.1,0-.1-.2-.2-.3-.3Z"/>
        <path d="M140.2,304.4s0,0,0,.1c-.9.6-1.8,1.1-2.5,1.6-.1-.1-.2-.3-.2-.5.7-.4,1.5-1,2.4-1.5.1,0,.2.2.3.3Z"/>
        <path d="M140.6,304.9c-.9.6-1.8,1.1-2.5,1.6-.1-.2-.2-.3-.2-.3,0,0,0,0,0-.1.7-.5,1.6-1,2.5-1.6,0,0,.2.2.3.4Z"/>
        <path d="M138.1,304.1c.6-.4,1.3-.4,1.8,0-.9.6-1.7,1.1-2.4,1.5-.1-.6,0-1.2.6-1.5Z"/>
        <path d="M135.4,288.5c8.4-5.7,20.2-14.7,20.2-14.7l.3.4c-1.8,1.4-13,9.9-20.9,15.2.2-.2.3-.5.4-.8Z"/>
        <path d="M135.3,287.9c6-4.1,14.2-10.1,20-14.5l.3.4s-11.9,9-20.2,14.7c0-.2,0-.4,0-.6Z"/>
        <path d="M135.3,287.9c0,.2,0,.4,0,.6-.7.4-1.3.9-1.9,1.3-.2,0-.4-.1-.5-.3.7-.5,1.5-1,2.4-1.6Z"/>
        <path d="M135.4,288.5c0,.3-.2.6-.4.8-.2.1-.4.3-.7.4-.3.1-.6.1-.9,0,.6-.4,1.3-.8,1.9-1.3Z"/>
        <path d="M135,289.3c-.2.2-.4.3-.6.4,0,0,0,0,0,0,.2-.1.4-.3.7-.4Z"/>
        <path d="M134.2,307.7c-2.2-.7-4.8-9-6.1-14.5,1.2-.4,3.5-1.7,6.2-3.6,0,0,0,0,0,0,.2,0,.4-.2.6-.4,7.9-5.2,19.1-13.8,20.9-15.2l-.3-.4,24.1-1.3c-5,5.2-6.3,7-6.6,7.7-9.2,8.3-24.7,18.6-33.1,24-.5-.4-1.3-.4-1.8,0-.5.4-.7,1-.6,1.5-1.8,1.1-2.9,1.8-3.4,2.1Z"/>
        <path d="M134.3,308.3c-3.5-.5-6.7-15.4-6.7-15.4.8,0,3-1.3,5.9-3.1.3,0,.6,0,.9,0-2.8,1.8-5,3.2-6.2,3.6,1.2,5.5,3.8,13.7,6.1,14.5.4-.3,1.6-1,3.4-2.1,0,.2,0,.3.2.5-2.2,1.4-3.5,2.2-3.5,2.2Z"/>
        <path d="M132.8,308c-2.9-2.8-5.1-12.1-5.7-14.5,0-.2,0-.3,0-.4v-.6c-.1,0,.5,0,.5,0,.6,0,2.6-1.1,5.4-2.9.1.1.3.2.5.3-2.9,1.9-5.1,3.1-5.9,3.1,0,0,3.2,14.8,6.7,15.4,0,0,1.3-.8,3.5-2.2,0,0,0,0,0,.1,0,0,0,.1.2.3-2.1,1.4-3.4,2.1-3.5,2.2h-.2c0,0-.2,0-.2,0-.5,0-.9-.4-1.4-.8Z"/>
        <path d="M127,302.5l-8.1,4c-.2.1-.4.2-.7.2-.5,0-1.1-.3-1.3-.8-.4-.7,0-1.6.7-2l8.1-4c.7-.4,1.6,0,2,.7.4.8,0,1.6-.7,2Z"/>
        <path class="cls-8" d="M124.4,316.1c.5,0,1-.2,1.2-.7.6-.6,4.2-2.4,7.2-3.6.8-.3,1.1-1.2.8-1.9-.2-.6-.8-1-1.4-1l.6-.9c.4.4.9.7,1.4.8h.2s.2,0,.2,0c0,0,1.4-.8,3.5-2.2.6.9,2.5,3.7,3.6,6.8,0,0,0,.2,0,.3-.8,1.2-6.5,1.2-9,1.2-.8,0-1.6,0-2.2,0-2.2,0-4,1-5.3,2l-.8-.7Z"/>
        <path d="M113.7,298c7.1,0,10.5-4.8,10.6-5,.5-.7,1.4-.9,2.1-.4.3.2.5.5.6.9,0,.4,0,.8-.2,1.2-.2.3-4.3,6.3-13.1,6.3s-1.3-.5-1.5-1.2c0,0,0-.2,0-.3,0-.8.7-1.5,1.5-1.5Z"/>
        <path d="M123.6,315.9c-.7-.4-.9-1.4-.5-2.1.8-1.4,5.2-3.4,8.6-4.8.2,0,.4-.1.6-.1.6,0,1.1.4,1.4,1,.3.8,0,1.6-.8,1.9-3,1.2-6.6,2.9-7.2,3.6-.3.5-.8.7-1.2.7s-.5,0-.8-.2Z"/>
        <path d="M158.3,350.5c.3-3.2.8-14.3-6.7-21.8-5.8-5.9-15-8.2-27.3-7.1.4,0,.8-.3,1.1-.7,0,0,1.1-1.7,3.1-2.6,11.1-.3,19.6,2.5,25.3,8.2,8.2,8.2,8,19.7,7.6,24.2-.2,2.1-.7,3.9-1.6,5.4-.7-.4-1.1-.6-1.2-.6-.7-.3-1.5,0-1.9.6l-.4-.2c1.1-1.4,1.8-3.1,2-5.4Z"/>
        <path d="M123.7,321.6c0-.3.1-.5,0-.8-.2-.6-.6-1-1.1-1.1.1-.4.5-.8.9-.9.1,0,.3-.1.4-.1,1.5-.2,3-.2,4.5-.3-2,.9-3.1,2.6-3.1,2.6-.2.4-.6.6-1.1.7,0,0,0,0,0,0,0,0-.1,0-.2,0,0,0-.2,0-.3,0,0,0,0,0,0,0Z"/>
        <path d="M124,321.6s0,0-.1,0c0,0,0,0-.1,0,0,0,.2,0,.3,0Z"/>
        <path d="M144.5,312.4c.5,1.4,0,2.4-.4,3-1.6,2.2-5.9,2.4-11.4,2.4-.8,0-1.5,0-2.1,0-.8,0-1.5.2-2.2.5-1.4,0-2.9.1-4.5.3-.1,0-.3,0-.4.1v-.2c.3-.5.9-1.1,1.7-1.7,1.3-1,3.1-1.9,5.3-2,.6,0,1.4,0,2.2,0,2.4,0,8.2,0,9-1.2,0,0,0-.2,0-.3-1-3.1-2.9-5.9-3.6-6.8.8-.5,1.6-1,2.5-1.6.8,1.2,2.8,4.1,3.9,7.5Z"/>
        <path d="M123.7,321.6h0,0Z"/>
        <path d="M123.7,320.8c0,.3,0,.6,0,.8-.6-.1-1.1-.7-1.2-1.3,0-.2,0-.4,0-.6.5.1,1,.5,1.1,1.1Z"/>
        <path class="cls-1" d="M124.9,325.7c6.9-3,28.1,7.7,27.7,15-.4,7.3-8.1,3.9-10.4-.6-2.3-4.5-9.3-6.7-15.9-8.9-6.6-2.1-1.9-5-1.9-5l.5-.5Z"/>
        <path d="M122.6,320.3c0,.7.6,1.2,1.2,1.3h0c-.2,0-.5,0-.7-.1-1.1-.2-2.1-.7-3.1-1.3,1.2-.3,2-.5,2-.5.2,0,.5,0,.7,0,0,.2,0,.4,0,.6Z"/>
        <path d="M119.9,309l7.7-3.2c.8-.3,1.6,0,2,.8.3.8,0,1.6-.8,2l-7.7,3.2c-.2,0-.4.1-.6.1-.6,0-1.1-.3-1.4-.9-.3-.8,0-1.6.8-2Z"/>
        <path class="cls-8" d="M125.7,299.8l-8.1,4c-.7.4-1,1.3-.7,2,.3.5.8.8,1.3.8s.5,0,.7-.2l8.1-4c.7-.4,1-1.3.7-2-.4-.7-1.3-1-2-.7ZM113.7,301c8.8,0,12.9-6.1,13.1-6.3.2-.4.3-.8.2-1.2h.2c.6,2.4,2.8,11.7,5.7,14.5l-.6.9c-.2,0-.4,0-.6.1-3.5,1.4-7.8,3.3-8.6,4.8-.4.7-.2,1.7.5,2.1.2.1.5.2.8.2l.8.7c-.8.6-1.4,1.2-1.8,1.7-4.2-1.1-8.1-6.8-10.2-11.9-1.2-2.8-1.8-5-2.1-6.6l1.1-.2c.1.7.7,1.2,1.5,1.2ZM119.9,309c-.8.3-1.1,1.2-.8,2,.2.6.8.9,1.4.9s.4,0,.6-.1l7.7-3.2c.8-.3,1.1-1.2.8-2-.3-.8-1.2-1.1-2-.8l-7.7,3.2Z"/>
        <path d="M116.3,291.4c0,0,0,.1,0,.2-.2.8-1,1.3-1.8,1.1,0,0,0,0,0,0,.6-.4,1.2-.8,1.9-1.3Z"/>
        <path class="cls-8" d="M111.1,300c-.2-1.2-.2-2,0-2.4,2.6-.5,6-3,9.7-5.7,2.7-2,5.5-4.1,7.4-4.8,3-1.1,4.2,1.3,4.4,1.9.1.2.2.4.4.6-2.8,1.8-4.8,2.9-5.4,2.9h-.6v.6c.1.1.2.2.2.4h-.2c0-.3-.3-.6-.6-.9-.7-.5-1.6-.3-2.1.4-.1.2-3.5,5-10.6,5s-1.5.7-1.5,1.5,0,.2,0,.3l-1.1.2Z"/>
        <path d="M113.5,324.2c-.8-.1-1.7-.4-2.6-.9.1,0,.3-.2.5-.2.7-.4,1.6,0,2,.6,0,.2.1.3.2.5Z"/>
        <path d="M113.4,323.7c-.4-.7-1.3-1-2-.6-.2,0-.3.2-.5.2-.2,0-.3-.2-.5-.2.4-.3.6-.9.6-1.4-.1-.8-.8-1.3-1.5-1.3l.8-.9c2,1.4,3.6,1.9,4.3,1.8,2-.3,3.9-.8,5.4-1.1,1,.6,2.1,1.1,3.1,1.3.2,0,.5,0,.7.1-.1.5-.5.9-1,1-.2,0-3.9,1-7.7,1.6-.2,0-.4,0-.6,0s-.6,0-.9,0c0-.2,0-.3-.2-.5Z"/>
        <path d="M104.1,331.5c-.6,0-1.2-.4-1.4-1-.3-1-.8-2.4,8.2-7.1.9.5,1.9.8,2.6.9,0,.6-.2,1.2-.8,1.5-2.9,1.5-6.4,3.6-7.2,4.5,0,.5-.4,1-1,1.2-.2,0-.3,0-.5,0Z"/>
        <path d="M119.9,320.2c-7.2-4.4-12.1-17.2-11.9-22.1.1-2.8,1.7-3.4,2.4-3.5,1-.1,2.4-.9,4-2,0,0,0,0,0,0,.8.2,1.6-.3,1.8-1.1s0-.1,0-.2c.9-.6,1.8-1.3,2.6-1.9,3-2.2,5.8-4.4,8.1-5.2,4.4-1.7,7.4,1.2,8.3,3.5,0,0,0,0,0,.1-.8.6-1.6,1.1-2.4,1.6-.2-.2-.3-.4-.4-.6-.2-.5-1.4-3-4.4-1.9-1.9.7-4.7,2.8-7.4,4.8-3.6,2.7-7.1,5.2-9.7,5.7-.1.4-.1,1.2,0,2.4.2,1.6.9,3.9,2.1,6.6,2.2,5.1,6,10.8,10.2,11.9v.2c-.3.1-.7.5-.8.9-.2,0-.5,0-.7,0,0,0-.8.2-2,.5Z"/>
        <path d="M110.4,323.1c-1.1-.6-2.3-1.4-3.4-2.3.7-.1,1.5-.2,2.3-.4,0,0,.2,0,.2,0,.7,0,1.4.5,1.5,1.3,0,.5-.2,1.1-.6,1.4Z"/>
        <path class="cls-1" d="M108,298.1c-.2,4.9,4.8,17.8,11.9,22.1-1.4.3-3.4.8-5.4,1.1-.7.1-2.3-.4-4.3-1.8-.6-.4-1.3-.9-1.9-1.5-2.4-2.1-7.8-7.9-7.5-16.9,0-3.3,1.1-5.7,3.1-7.1,3.8-2.9,10.2-1.5,10.5-1.4-1.6,1.1-3.1,1.9-4,2-.7,0-2.3.6-2.4,3.5Z"/>
        <path d="M110.4,323.1c-.2.1-.4.3-.7.3-4.1.6-9.1,1.6-10,2.1-.3.3-.6.4-1,.4s-.8-.1-1-.4c-.6-.6-.6-1.5,0-2.1.8-.9,4-1.7,9.3-2.6,1.1.9,2.3,1.7,3.4,2.3Z"/>
        <path d="M98.5,299c0-.2-.2-.4-.4-.6.5-2.9,1.9-5.2,4-6.8,5.1-3.8,12.8-1.9,13.1-1.9.7.2,1.2.9,1.1,1.6-.6.5-1.3.9-1.9,1.3-.4,0-6.7-1.5-10.5,1.4-1.9,1.5-3,3.9-3.1,7.1-.3,9,5.2,14.8,7.5,16.9.7.6,1.3,1.1,1.9,1.5l-.8.9c0,0-.1,0-.2,0-.8.1-1.6.2-2.3.4-.2-.2-.4-.3-.6-.5-2.7-2.3-8.9-8.9-8.6-19.2,0,0,0-.2,0-.3.6-.3.9-1.1.7-1.8Z"/>
        <path d="M98.5,299c.2.7,0,1.5-.7,1.8,0-.8.1-1.6.3-2.4.2.1.3.4.4.6Z"/>
        <path class="cls-7" d="M142.2,340c2.3,4.5,10,7.9,10.4.6.4-7.3-20.8-17.9-27.7-15l-.5.5s-4.7,2.8,1.9,5c6.6,2.2,13.6,4.3,15.9,8.9ZM151.6,328.7c7.5,7.5,7,18.6,6.7,21.8-.2,2.3-.9,4-2,5.4-.4.5-.8.9-1.3,1.2-5.9,4.6-20.3,3.4-40,.3-28.9-4.6-26.5-25.5-26.4-26.4,0-.4,0-.9-.4-1.2,0,0,0,0-.1-.1-.7-.9-4.8-6.4-3.9-15,.1-1.2.4-2.3.9-3.4,3-6.9,12.4-10.4,12.5-10.4,0,0,.2,0,.2-.1,0,0,0,.2,0,.3-.3,10.3,5.9,16.9,8.6,19.2.2.2.4.3.6.5-5.4.9-8.5,1.7-9.3,2.6-.6.6-.6,1.5,0,2.1.3.3.7.4,1,.4s.7-.1,1-.4c.9-.6,5.9-1.5,10-2.1.3,0,.5-.2.7-.3.2,0,.3.2.5.2-9,4.7-8.6,6.2-8.2,7.1.2.6.8,1,1.4,1s.3,0,.5,0c.5-.2.9-.6,1-1.2.8-.9,4.2-2.9,7.2-4.5.6-.3.9-.9.8-1.5.3,0,.6,0,.9,0s.4,0,.6,0c3.8-.6,7.5-1.6,7.7-1.6.5-.1.9-.5,1-1h0c0,0,0,0,.1,0,0,0,0,0,.1,0,0,0,.1,0,.2,0,0,0,0,0,0,0,12.3-1.1,21.5,1.2,27.3,7.1Z"/>
        <path d="M84,310.8c.2-.6,0-1.3-.7-1.7-.1,0-.3-.1-.4-.2,3.9-7.3,13.2-10.7,13.7-10.9.5-.2,1.1,0,1.5.3-.1.8-.2,1.6-.3,2.4,0,0-.2,0-.2.1,0,0-9.4,3.5-12.5,10.4l-1.1-.5Z"/>
        <path class="cls-1" d="M141.4,363.2c7.5,0,12.3-1.2,15.5-3.7.4-.3.7-.6,1.1-.9.7.4,2.1,1.2,3.4,2.5.5.5,1.4,2.1.7,4-.9,2.4-5.4,8.3-29.2,10-34,2.4-44.9-28-45.4-29.3-.2-.4-.5-.7-.9-.9l.3-4.1c2.5,7.5,9.3,16.7,27.6,19.6,11.6,1.8,20.2,2.7,26.8,2.7Z"/>
        <path d="M155,357.1c.5-.4.9-.8,1.3-1.2l.4.2c0,0,0,.1-.1.2-.3.8,0,1.6.8,2,0,0,.2.1.6.3-.3.3-.7.6-1.1.9-3.2,2.4-7.9,3.7-15.5,3.7s-15.2-.9-26.8-2.7c-18.3-2.9-25.1-12.2-27.6-19.6l.6-7.4c0-.5-.2-1-.6-1.3l.4-.8c.3-.5.2-1,0-1.5h.8c0,0,.1,0,.1,0,.3.3.4.8.4,1.2-.1.9-2.5,21.9,26.4,26.4,19.7,3.1,34.1,4.2,40-.3Z"/>
        <path d="M163.4,359c1.2,1.1,2.6,4,1.4,7.2-1.6,4.5-8.4,10.3-31.8,12-1.4,0-2.7.1-4,.1-33.2,0-44.4-31.2-44.5-31.5s0-.1,0-.2c.5,0,.9-.1,1.3-.4.4-.2.7-.7.7-1.2v-.2c.4.2.7.5.9.9.4,1.3,11.4,31.8,45.4,29.3,23.7-1.7,28.3-7.5,29.2-10,.7-1.9-.2-3.5-.7-4-1.4-1.3-2.7-2.1-3.4-2.5.7-.7,1.3-1.5,1.8-2.4.9.5,2.3,1.4,3.7,2.8Z"/>
        <path d="M87.5,333.5l-.6,7.4c-.8-2.4-1.2-4.6-1.3-6.3l1.3-2.4c.4.3.7.8.6,1.3Z"/>
        <path d="M86.6,345.1c0,.5-.3.9-.7,1.2-.4.2-.8.4-1.3.4-.1-.7.3-1.5,1-1.7.4-.1.7-.1,1.1,0v.2Z"/>
        <path d="M86.9,332.1l-1.3,2.4c0-1-.1-1.9,0-2.6.2,0,.4-.1.6,0,.3,0,.5.1.8.3Z"/>
        <path d="M85.6,331.3c-.2-.3-.6-.8-.9-1.3h0c.4-.8,1.3-1.1,2-.7.2.1.4.3.6.6.3.4.3,1,0,1.5l-.4.8c-.2-.2-.5-.3-.8-.3-.2,0-.4,0-.6,0,0-.2,0-.4,0-.6Z"/>
        <path d="M85.6,334.5l-1.4,2.6.3-3.9c0-.6.5-1.1,1-1.3,0,.7,0,1.5,0,2.6Z"/>
        <path class="cls-1" d="M84.6,330l-4.4,8.2c-2.2-7.8-.8-15.3.9-20.4.1,5.8,2.1,10,3.5,12.2Z"/>
        <path d="M85.5,344.9c-.7.2-1.1,1-1,1.7h0c-1.9,0-3.9-1.7-4.9-2.6-.2-.2-.4-.5-.4-.7.2.1.4.2.6.2h0c.6,0,1.1-.3,1.3-.8l.5-.9c.6.6,1.4,1.1,2,1.5l.5-6.2,1.4-2.6c.1,1.7.5,3.9,1.3,6.3l-.3,4.1c-.3-.1-.7-.1-1.1,0Z"/>
        <path d="M85.1,311.3c-.5,1-.8,2.2-.9,3.4-.8,8.6,3.2,14.1,3.9,15h-.8c-.1-.1-.3-.3-.6-.4-.7-.4-1.6-.1-2,.6h0c-1.4-2.1-3.4-6.3-3.5-12.1h0c1.3-4,2.8-6.6,2.8-6.6,0-.1.1-.2.1-.4l1.1.5Z"/>
        <path class="cls-1" d="M81.7,341.8l2.5-4.7-.5,6.2c-.6-.3-1.4-.9-2-1.5Z"/>
        <path d="M83.3,309.1c.6.3.9,1,.7,1.7,0,.1,0,.2-.1.4,0,0-1.5,2.6-2.8,6.6,0-1.1,0-2.2.1-3.4.2-2,.8-3.8,1.7-5.4.1,0,.3,0,.4.2Z"/>
        <path d="M81.2,342.7c-.3.5-.8.8-1.3.8h0c-.2,0-.4,0-.6-.2-.1-.5,0-1,.4-1.4.6-.6,1.5-.6,2.1,0,0,0,0,0,0,0l-.5.9Z"/>
        <path d="M84.5,333.2l-.3,3.9-2.5,4.7s0,0,0,0c-.6-.6-1.6-.5-2.1,0-.4.4-.5.9-.4,1.4-.3-.1-.5-.4-.7-.7l-.2-.4c-6.3-16.1,2.6-31.8,3-32.5.3-.6,1-.9,1.6-.7-.9,1.6-1.5,3.4-1.7,5.4-.1,1.2-.1,2.3-.1,3.4h0c-1.7,5.2-3.1,12.7-.9,20.4l4.4-8.2c.4.6.7,1,.9,1.3,0,.2,0,.4,0,.6-.5.2-1,.7-1,1.3Z"/>
      </g>
      <path d="M87.1,149.2l-4.4,20.2s-12.6-12.4-16.4-11.9c-3.8.5-14.6,38.8-14.6,38.8-17.4,1.3-18.1-9-18.1-9,.7-1.9,1.4-3.8,2.1-5.7,7.2-19.8,16-41,24.4-46.2,9.2-5.7,27,13.8,27,13.8Z"/>
      <path class="cls-2" d="M35.5,182.2s-12.3-3.6-13,3.9,5.4,16.7,25.4,19.3,15.8-12.2,5.8-15.8l-2,6.7s-16.3.7-18.1-9l1.8-5.1Z"/>
      <path class="cls-2" d="M24.1,194.9s-18.9,34.7,0,42.8c0,0,8.4,6.2,12.8,2.6,0,0,2.2,11.8,11.5,11.1s8.8-11.5,8.8-11.5c0,0,14.1-10,11.3-21s-8.8-14.1-8.8-14.1c0,0-24.2,3.1-35.5-9.7Z"/>
      <path class="cls-4" d="M24.2,227.6s-.4,8.3,1.1,9.6"/>
      <path class="cls-4" d="M32.6,228.8s7,6.4,4.3,10.7"/>
      <path class="cls-4" d="M58.3,221.7s-3.1,12.7-1.8,16.8"/>
      <path class="cls-2" d="M282.8,171.3s-11.4,0-11-8.9c.4-8.9,20.9-9.1,20.9-9.1,10.8-1,18.3,3.3,18.9,7.7.4,3-2.4,6.6-5.3,8.4-3.2,2-6.4,1.9-7.5,1.9v-6.4h-15.9v6.4Z"/>
      <path class="cls-2" d="M275.5,156.3s-22.1-22,1.4-30.3c7-2.5,17.8-4.4,21.1.6,1.5,2.3,1.6,6.2-.2,8.6-1.1,1.4-2.7,2-3.8,2.4-2.7,1-5.1.7-6.4.5,1.3.6,3.1,1.9,5.1,3.8,2.4,2.4,4.6,5.7,3.6,9.4l-.7,1.6s-9.1-1.2-20.2,3.4Z"/>
      <path class="cls-2" d="M271.8,126.6s-10.6-23.8,0-27,13.9,18.6,12.6,23.5"/>
      <path class="cls-2" d="M280.5,101.2s5.2-7.4,10.6-3.2,2.7,22,1.4,24.6l-7.3.6s.5-10.4-4.7-22Z"/>
      <path class="cls-2" d="M294.3,102.7s6.7-3.9,9.3,1.5,0,20.1-5.6,22c0,0-2.6-3.7-5.4-2.9,0,0,4-13,1.7-20.6Z"/>
      <path class="cls-2" d="M305.6,107.6c.5,0,5.3.5,7.1,4.1,1.2,2.4.4,4.8-.1,6.6-2.3,7.2-9.4,11.1-12.1,12.3,0,0-.4-3.3-1.3-4.3s5.2-3.1,6.5-18.7Z"/>
      <path class="cls-2" d="M310,125.3c1.3,2.8,3.6,9.1,2.7,17.2-.7,6.3-3.2,11-4.7,13.5-2.4-.8-4.5-1.5-6.5-2.1,0,0-2.9-.8-5.4-.8-.3,0-.3-.3-.4-.3-.9.5,5.6-7.1-7.4-14.7,0,0,7.6,2.4,12.1-7.6,0,0,6.1-4.4,9.6-5.3Z"/>
      <path d="M298.8,165.4s.8,35.7-6.2,39.9c-7,4.2-12.4,6.3-31.7-8.9v-24.2s16.9,16.5,19.6,15c2.7-1.5,2.4-21.9,2.4-21.9,0,0,14-1.5,15.9,0Z"/>
      <path class="cls-2" d="M130,96s-1.7-49.6,19.4-46.7,18.6,27.8,18.6,27.8l-.5,15.3s-30.5-1.2-37.6,3.6Z"/>
      <path class="cls-2" d="M196.3,49.2c-25.5-5.4-22.3,45.5-22.3,45.5,5.5-3.9,41.2,8.8,41.2,8.8,0,0,6.6-49-18.9-54.4Z"/>
      <path d="M137.3,54.3s10.4,12.4,10.2,15.9l-8.9,6.7,9.5,3.5v12.1l-18.1,4.6s.8-36.2,7.3-42.8Z"/>
      <path d="M182.6,54.7s10.9,9.4,10.5,15.9l-8,5.8,9.5,4.2v15.1s-18.9-5.4-19.7-4.2,1.8-33.2,7.7-36.7Z"/>
      <path class="cls-4" d="M215.1,102.9s-31.5-11.4-41-10.4"/>
      <circle cx="251.3" cy="68.4" r="6.7"/>
      <circle cx="274.1" cy="63.4" r="6.7"/>
      <polygon points="244.5 18.2 249.6 63.4 251.3 63.4 247.9 27.9 269 23.6 274.1 58 276.2 57 269.8 11.7 244.5 18.2"/>
      <ellipse cx="316.4" cy="79.8" rx="3.9" ry="4.1"/>
      <path d="M323.2,48.1s-2.5,4.4-1.5,7.6c1,3.1-3,4.9-3,6.6s1.1,4.4.9,6-2.9,3.4-3.1,5.2,0,2.8,0,2.8l1.5-.2s.5-3.8,1.8-4.7,1.4-6.6,1.4-8.2,1.5-2.3,2-3.9.6-5.7.6-5.7l10.4,4.7,2.2-5.1s-11.8-5.3-13.2-5Z"/>
    </g>
  </g>
</svg>