<svg xmlns="http://www.w3.org/2000/svg" xmlns:xlink="http://www.w3.org/1999/xlink" fill="none" version="1.1" width="50" height="50" viewBox="0 0 50 50"><defs><clipPath id="master_svg0_112_0650"><rect x="0" y="0" width="50" height="50" rx="0"/></clipPath><clipPath id="master_svg1_112_0651"><rect x="0" y="0" width="50" height="50" rx="0"/></clipPath></defs><g clip-path="url(#master_svg0_112_0650)"><g clip-path="url(#master_svg1_112_0651)"><g><g><path d="M38.2812,0C38.2812,0,11.7188,0,11.7188,0C5.24666,0,0,5.24666,0,11.7188C0,11.7188,0,38.2812,0,38.2812C0,44.7533,5.24666,50,11.7188,50C11.7188,50,38.2812,50,38.2812,50C44.7533,50,50,44.7533,50,38.2812C50,38.2812,50,11.7188,50,11.7188C50,5.24666,44.7533,0,38.2812,0C38.2812,0,38.2812,0,38.2812,0Z" fill="#001E36" fill-opacity="1"/></g><g><path d="M11.25,34.77343631896973C11.25,34.77343631896973,11.25,13.335937318969727,11.25,13.335937318969727C11.25,13.190038318969727,11.3125003,13.106836318969727,11.458399,13.106836318969727C11.8125,13.106836318969727,12.145899,13.106835318969727,12.625,13.085937318969727C13.125,13.065038918969726,13.645900000000001,13.065039418969727,14.208400000000001,13.044336218969727C14.770900000000001,13.023437818969727,15.375,13.023436918969727,16.0209,13.002538518969727C16.6666,12.981835377460726,17.2916,12.981836318969734,17.9166,12.981836318969734C19.625,12.981836318969734,21.041600000000003,13.190039318969726,22.208399999999997,13.627539318969726C23.2542,13.982716318969727,24.2078,14.566306318969726,25,15.335936318969726C25.671300000000002,16.009466318969725,26.189999999999998,16.819426318969725,26.520899999999997,17.710936318969726C26.833399999999997,18.585936318969726,27,19.481836318969727,27,20.419336318969727C27,22.21093631896973,26.583399999999997,23.690036318969725,25.75,24.856836318969727C24.916600000000003,26.02343631896973,23.75,26.89843631896973,22.395899999999997,27.39843631896973C20.979100000000003,27.919336318969727,19.416600000000003,28.106836318969727,17.7084,28.106836318969727C17.2084,28.106836318969727,16.875,28.106836318969727,16.6666,28.08593631896973C16.4584,28.065036318969725,16.1666,28.065036318969725,15.770900000000001,28.065036318969725C15.770900000000001,28.065036318969725,15.770900000000001,34.75253631896973,15.770900000000001,34.75253631896973C15.791599999999999,34.89843631896973,15.6875,35.02343631896973,15.541599999999999,35.04433631896973C15.541599999999999,35.04433631896973,11.500001,35.04433631896973,11.500001,35.04433631896973C11.3333989,35.04433631896973,11.25,34.96093631896973,11.25,34.77343631896973C11.25,34.77343631896973,11.25,34.77343631896973,11.25,34.77343631896973ZM15.791599999999999,17.127536318969725C15.791599999999999,17.127536318969725,15.791599999999999,24.127536318969725,15.791599999999999,24.127536318969725C16.0834,24.14843631896973,16.3541,24.169336318969727,16.6041,24.169336318969727C16.6041,24.169336318969727,17.7084,24.169336318969727,17.7084,24.169336318969727C18.5209,24.169336318969727,19.333399999999997,24.044336318969727,20.104100000000003,23.794336318969727C20.770899999999997,23.606836318969727,21.354100000000003,23.21093631896973,21.8125,22.690036318969725C22.25,22.169336318969727,22.458399999999997,21.46093631896973,22.458399999999997,20.544336318969727C22.478,19.893266318969726,22.311700000000002,19.25008631896973,21.979100000000003,18.690036318969725C21.625,18.148436318969726,21.125,17.731836318969727,20.520899999999997,17.502536318969725C19.75,17.190036318969725,18.9166,17.065036318969725,18.0625,17.085936318969726C17.5209,17.085936318969726,17.0416,17.085936318969726,16.6459,17.106836318969727C16.2291,17.085936318969726,15.9375,17.106836318969727,15.791599999999999,17.127536318969725C15.791599999999999,17.127536318969725,15.791599999999999,17.127536318969725,15.791599999999999,17.127536318969725ZM40,22.856836318969727C39.375,22.52343631896973,38.7084,22.294336318969727,38,22.14843631896973C37.2291,21.981836318969727,36.4584,21.877536318969725,35.6666,21.877536318969725C35.25,21.856836318969727,34.8125,21.919336318969727,34.4166,22.02343631896973C34.1459,22.08593631896973,33.9166,22.231836318969727,33.7709,22.440036318969725C33.6666,22.606836318969727,33.6041,22.815036318969725,33.6041,23.002536318969725C33.6041,23.190036318969725,33.6875,23.377536318969725,33.8125,23.544336318969727C34,23.77343631896973,34.25,23.96093631896973,34.5209,24.106836318969727C35.0039,24.357036318969726,35.4974,24.586336318969728,36,24.794336318969727C37.125,25.169336318969727,38.2084,25.690036318969725,39.2084,26.315036318969725C39.8959,26.752536318969725,40.4584,27.33593631896973,40.8541,28.044336318969727C41.1875,28.71093631896973,41.3541,29.440036318969728,41.3334,30.190036318969728C41.3541,31.169336318969727,41.0625,32.14843631896973,40.5209,32.96093631896973C39.939800000000005,33.792536318969724,39.1289,34.436836318969725,38.1875,34.81503631896973C37.1666,35.25253631896973,35.9166,35.48183631896973,34.4166,35.48183631896973C33.4584,35.48183631896973,32.5209,35.39843631896973,31.5834,35.21093631896973C30.8486,35.08403631896972,30.134,34.85983631896973,29.4584,34.54433631896973C29.3125,34.46093631896973,29.2084,34.31503631896973,29.2291,34.14843631896973C29.2291,34.14843631896973,29.2291,30.523436318969726,29.2291,30.523436318969726C29.2291,30.460936318969726,29.25,30.377536318969728,29.3125,30.335936318969726C29.375,30.294336318969727,29.4375,30.315036318969728,29.5,30.356836318969727C30.3125,30.835936318969726,31.1666,31.169336318969727,32.0834,31.377536318969728C32.875,31.585936318969726,33.7084,31.690036318969728,34.5416,31.690036318969728C35.3334,31.690036318969728,35.8959,31.585936318969726,36.2709,31.398436318969726C36.6041,31.252536318969728,36.8334,30.898436318969726,36.8334,30.523436318969726C36.8334,30.231836318969727,36.6666,29.960936318969726,36.3334,29.690036318969728C36,29.419336318969727,35.3125,29.106836318969727,34.2916,28.71093631896973C33.2444,28.341936318969726,32.2499,27.83763631896973,31.3334,27.21093631896973C30.6806,26.745636318969726,30.1397,26.140636318969726,29.75,25.440036318969725C29.4166,24.77343631896973,29.25,24.044336318969727,29.2709,23.315036318969725C29.2709,22.419336318969727,29.5209,21.565036318969725,29.9791,20.794336318969727C30.5,19.960936318969726,31.2709,19.294336318969727,32.1666,18.877536318969725C33.1459,18.377536318969725,34.375,18.148436318969726,35.8541,18.148436318969726C36.7084,18.148436318969726,37.5834,18.210936318969726,38.4375,18.335936318969726C39.0625,18.419336318969727,39.6666,18.585936318969726,40.2291,18.815036318969725C40.3125,18.835936318969726,40.3959,18.919336318969727,40.4375,19.002536318969725C40.4584,19.085936318969726,40.4791,19.169336318969727,40.4791,19.252536318969725C40.4791,19.252536318969725,40.4791,22.64843631896973,40.4791,22.64843631896973C40.4791,22.731836318969727,40.4375,22.815036318969725,40.375,22.856836318969727C40.1875,22.89843631896973,40.0834,22.89843631896973,40,22.856836318969727C40,22.856836318969727,40,22.856836318969727,40,22.856836318969727Z" fill="#31A8FF" fill-opacity="1"/></g></g></g></g></svg>