<?xml version="1.0" encoding="UTF-8"?>
<svg xmlns="http://www.w3.org/2000/svg" version="1.1" viewBox="0 0 182 114">
  <defs>
    <style>
      .cls-1 {
        fill: #ff99c8;
        stroke: #000;
        stroke-linejoin: round;
      }

      .cls-1, .cls-2, .cls-3 {
        stroke-linecap: round;
        stroke-width: 2px;
      }

      .cls-2 {
        stroke: #fff;
      }

      .cls-2, .cls-3 {
        fill: none;
        stroke-miterlimit: 10;
      }

      .cls-3 {
        stroke: #fcd8da;
      }
    </style>
  </defs>
  <!-- Generator: Adobe Illustrator 28.6.0, SVG Export Plug-In . SVG Version: 1.2.0 Build 709)  -->
  <g>
    <g id="Layer_1">
      <path class="cls-3" d="M12.3,85.3l-1.1,8.6c0,.9.5,1.7,1.4,1.2l8.7,1.2"/>
      <path class="cls-3" d="M172.9,29.6l1-7.7c.1-.9-.4-1.7-1.3-2l-8.4-1.7"/>
      <path class="cls-1" d="M3.7,14.5l1.6,30.6c0,.9.5,1.8,1.2,2.4,4.9,3.9,22.7,20.7,2.1,39-.7.6-1.2,1.6-1.1,2.5l.2,18.9c0,1.9,1.6,3.3,3.5,3.3l165.6-7.7c1.9,0,3.3-1.6,3.3-3.4l-.5-21.7c0-1.1-.6-2.1-1.5-2.7-5-3.3-20.1-15.6-2.6-35.4.6-.6.9-1.4.8-2.3l-.9-31.9c0-1.9-1.6-3.3-3.6-3.2L7,11c-1.9,0-3.4,1.7-3.3,3.5Z"/>
      <path class="cls-2" d="M19.7,16.4l-8.4,1c-.6.1-1.3.9-1.3,1.8l.2,8.5"/>
      <path class="cls-2" d="M12.3,96.7l.4,8.6c0,.9.8,1.6,1.6.9l8.8-.3"/>
      <path class="cls-2" d="M168.8,19l-.4-7.8c0-.9-.7-1.6-1.6-1.7l-8.5-.2"/>
      <path class="cls-2" d="M166.9,99.3l7.7-1.2c.9-.1,1.5-.9,1.5-1.8l-.7-8.5"/>
    </g>
  </g>
</svg>