<svg xmlns="http://www.w3.org/2000/svg" xmlns:xlink="http://www.w3.org/1999/xlink" fill="none" version="1.1" width="54" height="51.52857971191406" viewBox="0 0 54 51.52857971191406"><g><path d="M43.11,17.405C42.5778,17.21,42.0412,17.0293,41.5006,16.863C41.5914,16.4666,41.675,16.0749,41.7492,15.6901C42.9676,9.3713,42.1711,4.280749999999999,39.4506,2.604695C36.8422,0.9979199999999999,32.5764,2.673348,28.2682,6.67923C27.8436,7.07471,27.4284,7.48161,27.023,7.89954C26.7517,7.62165,26.4755,7.34914,26.1947,7.08217C21.6795,2.798969,17.1537,0.9937499999999999,14.4361,2.6746C11.83008,4.286379999999999,11.0584,9.071860000000001,12.1553,15.0603C12.2644,15.6534,12.3876,16.243499999999997,12.5248,16.829900000000002C11.88418,17.0244,11.26602,17.2314,10.67441,17.451700000000002C5.380660000000001,19.4237,2,22.5139,2,25.7193C2,29.0299,5.629300000000001,32.3505,11.14297,34.364C11.58998,34.5265,12.0407,34.6771,12.4947,34.8157C12.3473,35.4473,12.2164,36.0832,12.1021,36.7226C11.05645,42.6071,11.87305,47.2795,14.4721,48.8811C17.156399999999998,50.535,21.6619,48.8352,26.0488,44.7379C26.4045,44.4047,26.7524,44.0622,27.0922,43.7106C27.5312,44.1631,27.9819,44.6025,28.4438,45.0281C32.6934,48.9349,36.8902,50.5125,39.4867,48.9065C42.1686,47.2478,43.0402,42.2284,41.9086,36.1216C41.8194,35.6432,41.7195,35.1671,41.6088,34.6939C41.9252,34.5937,42.2357,34.4906,42.5385,34.3834C48.2705,32.3544,52,29.0741,52,25.7193C52,22.5022,48.5102,19.3911,43.11,17.405C43.11,17.405,43.11,17.405,43.11,17.405ZM41.8668,32.2173C41.5931,32.313900000000004,41.3131,32.407399999999996,41.027,32.498000000000005C40.3941,30.3577,39.5402,28.0819,38.4951,25.7304C39.4924,23.435,40.3135,21.1882,40.9285,19.0618C41.44,19.22,41.9363,19.3867,42.4148,19.5626C47.0418,21.2646,49.8641,23.7805,49.8641,25.7193C49.8641,27.7843,46.816,30.4651,41.8668,32.2173C41.8668,32.2173,41.8668,32.2173,41.8668,32.2173ZM39.8133,36.5648C40.3137,39.265,40.385,41.7065,40.0535,43.6152C39.7559,45.3303,39.157,46.4736,38.4164,46.9316C36.8408,47.9061,33.4711,46.6395,29.8369,43.2982C29.4073,42.9025,28.9881,42.494,28.5797,42.0733C29.9887,40.4271,31.3967,38.5134,32.7709,36.3879C35.1881,36.1587,37.4717,35.784,39.5426,35.2725C39.6448,35.7124,39.735,36.1432,39.8133,36.5648C39.8133,36.5648,39.8133,36.5648,39.8133,36.5648ZM19.0461,46.7632C17.5066,47.344,16.2805,47.3607,15.5393,46.9041C13.9621,45.9323,13.3064,42.1806,14.2008,37.1483C14.3071,36.5536,14.4288,35.9622,14.5658,35.3748C16.6139,35.8589,18.8809,36.2069,21.3037,36.4169C22.6873,38.4967,24.1359,40.4083,25.5959,42.0823C25.2856,42.403,24.968,42.7156,24.6434,43.0197C22.7033,44.8314,20.7594,46.1168,19.0461,46.7632C19.0461,46.7632,19.0461,46.7632,19.0461,46.7632ZM11.83398,32.2046C9.395900000000001,31.3142,7.38242,30.1571,6.00234,28.8945C4.76211,27.7599,4.13613,26.6333,4.13613,25.7193C4.13613,23.7741,6.85039,21.2929,11.37754,19.6067C11.92695,19.4022,12.502,19.2091,13.0986,19.028C13.7244,21.2024,14.5451,23.4759,15.5355,25.7748C14.5322,28.1078,13.6998,30.4175,13.068,32.617599999999996C12.6535,32.490700000000004,12.2421,32.353,11.83398,32.2046C11.83398,32.2046,11.83398,32.2046,11.83398,32.2046ZM14.2516,14.6219C13.3119,9.49129,13.9359,5.62105,15.5064,4.64968C17.1791,3.61509,20.8779,5.09019,24.7766,8.788689999999999C25.0308,9.0304,25.2809,9.27702,25.5268,9.52843C24.074,11.1951,22.6387,13.0926,21.2674,15.1601C18.9158,15.393,16.6648,15.7669,14.5953,16.267899999999997C14.4678,15.7225,14.3532,15.1735,14.2516,14.6219C14.2516,14.6219,14.2516,14.6219,14.2516,14.6219ZM35.8193,20.3122C35.3305,19.4101,34.8236,18.5193,34.2988,17.6406C35.8941,17.856099999999998,37.4227,18.1422,38.858,18.4919C38.4271,19.9677,37.89,21.5104,37.2578,23.0921C36.7957,22.1553,36.3161,21.2285,35.8193,20.3122C35.8193,20.3122,35.8193,20.3122,35.8193,20.3122ZM27.024,11.15962C28.0092,12.3,28.9959,13.5731,29.9664,14.9545C27.9977,14.8552,26.0256,14.8548,24.0568,14.9533C25.0283,13.5846,26.0234,12.3132,27.024,11.15962C27.024,11.15962,27.024,11.15962,27.024,11.15962ZM18.1723,20.3276C17.6817,21.2366,17.211100000000002,22.1576,16.7607,23.09C16.1389,21.5139,15.6066,19.9641,15.1721,18.4675C16.598599999999998,18.1266,18.1199,17.8478,19.7051,17.636200000000002C19.1745,18.5203,18.6634,19.4179,18.1723,20.3276C18.1723,20.3276,18.1723,20.3276,18.1723,20.3276ZM19.7506,33.964600000000004C18.1129,33.7692,16.5688,33.5049,15.1426,33.173100000000005C15.584,31.6498,16.1279,30.067,16.7633,28.4571C17.215400000000002,29.3902,17.688000000000002,30.3118,18.1807,31.2211C18.6873,32.156,19.2119,33.071600000000004,19.7506,33.964600000000004C19.7506,33.964600000000004,19.7506,33.964600000000004,19.7506,33.964600000000004ZM27.083,40.4396C26.0705,39.2728,25.0607,37.9817,24.0746,36.5932C25.032,36.6333,26.008,36.6537,27,36.6537C28.0191,36.6537,29.0266,36.6293,30.0182,36.5821C29.0445,37.9957,28.0615,39.2886,27.083,40.4396C27.083,40.4396,27.083,40.4396,27.083,40.4396ZM37.2779,28.3749C37.9463,30.0025,38.5096,31.5769,38.9568,33.074200000000005C37.5072,33.4276,35.942,33.7123,34.2928,33.9237C34.8213,33.0286,35.333,32.122299999999996,35.8277,31.2055C36.3308,30.2736,36.8143,29.3298,37.2779,28.3749C37.2779,28.3749,37.2779,28.3749,37.2779,28.3749ZM33.9775,30.0653C33.2201,31.471,32.420100000000005,32.85,31.5789,34.2001C30.055,34.3155,28.5277,34.3728,27,34.3719C25.4439,34.3719,23.9305,34.3201,22.473,34.2191C21.6098,32.8721,20.7945,31.4907,20.0291,30.0778C19.2672,28.6725,18.5557,27.2367,17.895899999999997,25.7736C18.554,24.3101,19.2635,22.8736,20.0229,21.4672C20.0229,21.4672,20.0227,21.4674,20.0227,21.4674C20.7816,20.0605,21.5903,18.685,22.4471,17.3438C23.934,17.223599999999998,25.4588,17.161,26.9998,17.161C28.5479,17.161,30.0748,17.2243,31.5613,17.3453C32.409400000000005,18.6845,33.213,20.0553,33.9705,21.4551C34.7322,22.8585,35.4511,24.2879,36.126,25.7412C35.458,27.2093,34.7414,28.6516,33.9775,30.0653C33.9775,30.0653,33.9775,30.0653,33.9775,30.0653ZM38.3838,4.58145C40.058,5.61312,40.7092,9.77341,39.6572,15.2291C39.5898,15.5775,39.5149,15.9315,39.4326,16.2913C37.358,15.7796,35.1055,15.3992,32.7471,15.1628C31.3732,13.0725,29.9496,11.17214,28.5205,9.52697C28.8951,9.141259999999999,29.2785,8.76553,29.6705,8.40014C33.3619,4.968109999999999,36.8119,3.613,38.3838,4.58145C38.3838,4.58145,38.3838,4.58145,38.3838,4.58145ZM27,20.9491C29.4658,20.9491,31.4648,23.0848,31.4648,25.7193C31.4648,28.3538,29.4658,30.4895,27,30.4895C24.5342,30.4895,22.5352,28.3538,22.5352,25.7193C22.5352,23.0848,24.5342,20.9491,27,20.9491C27,20.9491,27,20.9491,27,20.9491Z" fill="#FFFFFF" fill-opacity="1"/><path d="M40.5388,50.6074Q45.941,47.2663,43.9209,36.008Q44.2214,35.8951,44.5131,35.7798Q54,32.0273,54,25.7193Q54,19.2832,43.8132,15.5326Q43.8961,15.0739,43.9668,14.6282Q45.6429,4.07058,40.4997,0.90191Q35.1489,-2.39417,27.0155,5.113440000000001Q26.7628,4.88231,26.5127,4.661490000000001Q18.6489,-2.2826500000000003,13.3841,0.97366Q8.136289999999999,4.21932,10.18803,15.4206Q10.19485,15.4577,10.2017,15.4946Q10.08831,15.5358,9.976479999999999,15.5774Q0,19.2938,0,25.7193Q0,29.0493,3.13651,31.9876Q5.81751,34.4992,10.17555,36.1384L10.1755,36.1386Q10.15407,36.2545,10.13331,36.3707Q10.01133,37.0571,9.917449999999999,37.7133Q8.5092,47.5559,13.4229,50.5838Q16.2434,52.3216,20.3049,50.846Q23.6407,49.634,27.0888,46.4992L27.0892,46.4995Q27.5939,46.9635,28.0881,47.3856Q35.5054,53.7207,40.5388,50.6074ZM41.7492,15.6901C41.675,16.0749,41.5914,16.4666,41.5006,16.863C42.0412,17.0293,42.5778,17.21,43.11,17.405C48.5102,19.3911,52,22.5022,52,25.7193C52,29.0741,48.2705,32.3544,42.5385,34.3834C42.2357,34.4906,41.9252,34.5937,41.6088,34.6939C41.7195,35.1671,41.8194,35.6432,41.9086,36.1216C43.0402,42.2284,42.1686,47.2478,39.4867,48.9065C36.9071,50.502,32.748000000000005,48.9553,28.5268,45.1041C28.4991,45.0789,28.4715,45.0535,28.4438,45.0281C27.9819,44.6025,27.5312,44.1631,27.0922,43.7106C26.7524,44.0622,26.4045,44.4047,26.0488,44.7379C25.9474,44.8326,25.8459,44.926,25.7444,45.0182L25.7444,45.0182C21.4546,48.912,17.0943,50.4968,14.4721,48.8811C11.87305,47.2795,11.05645,42.6071,12.1021,36.7226C12.2164,36.0832,12.3473,35.4473,12.4947,34.8157C12.0407,34.6771,11.58998,34.5265,11.14297,34.364C5.629300000000001,32.3505,2,29.0299,2,25.7193C2,22.5139,5.380660000000001,19.4237,10.67441,17.451700000000002C11.26602,17.2314,11.88418,17.0244,12.5248,16.829900000000002C12.3876,16.243499999999997,12.2644,15.6534,12.1553,15.0603C11.0584,9.071860000000001,11.83008,4.286379999999999,14.4361,2.6746C17.0778,1.0407039999999999,21.4281,2.700835,25.8163,6.72905L25.8164,6.72912C25.9425,6.84486,26.0686,6.96255,26.1947,7.08217C26.4755,7.34914,26.7517,7.62165,27.023,7.89954C27.4284,7.48161,27.8436,7.07471,28.2682,6.67923C28.299,6.65063,28.3297,6.62215,28.3605,6.59379C32.6372,2.649594,36.8608,1.009391,39.4506,2.604695C42.1711,4.280749999999999,42.9676,9.3713,41.7492,15.6901ZM39.8178,14.3265C40.6332,9.31799,39.9644,5.55544,38.3838,4.58145C36.8119,3.613,33.3619,4.968109999999999,29.6705,8.40014C29.2785,8.76553,28.8951,9.141259999999999,28.5205,9.52697C29.9496,11.17214,31.3732,13.0725,32.7471,15.1628C34.5953,15.3481,36.3785,15.6218,38.062,15.9778L38.0622,15.9778L39.4326,16.2913C39.5149,15.9315,39.5898,15.5775,39.6572,15.2291C39.716,14.9241,39.7695,14.6231,39.8178,14.3265ZM14.1956,14.307C14.2136,14.4114,14.2323,14.5164,14.2516,14.6219C14.3532,15.1735,14.4678,15.7224,14.5953,16.2678L14.5953,16.267899999999997L14.5954,16.267899999999997C14.8057,16.217,15.0178,16.1674,15.2317,16.1191L15.2318,16.1191C17.1234,15.6924,19.1548,15.3693,21.2674,15.1601C22.6387,13.0926,24.074,11.1951,25.5268,9.52843C25.2809,9.27702,25.0308,9.0304,24.7766,8.788689999999999C20.8779,5.09019,17.1791,3.61509,15.5064,4.64968C13.9682,5.60107,13.338,9.33332,14.1956,14.307ZM33.8918,13.2755Q32.5822,11.34399,31.2431,9.67081Q33.578900000000004,7.54277,35.6048,6.68104Q37.0089,6.08379,37.3346,6.28413L37.3347,6.28422Q37.809,6.57676,38.0595,8.50404Q38.3593,10.8105,37.8627,13.8952Q35.9453,13.5161,33.8918,13.2755ZM16.5584,6.35062Q14.9965,7.31671,16.1508,13.8825L16.1518,13.8823Q17.8726,13.5473,19.7031,13.3216Q19.9152,13.2955,20.1288,13.2708Q21.3467,11.49165,22.6087,9.90776Q22.7003,9.79279,22.792,9.679Q20.6864,7.79499,18.7987,6.90896Q18.6549,6.84143,18.5122,6.77969Q16.9548,6.10549,16.5584,6.35062ZM28.4465,12.8969C28.9558,13.5514,29.4633,14.2384,29.9664,14.9545C29.1263,14.9121,28.2855,14.8878,27.4447,14.8814C27.1589,14.8792,26.8732,14.8792,26.5875,14.8812C26.3405,14.8829,26.0936,14.8862,25.8467,14.891C25.2499,14.9027,24.6532,14.9235,24.0568,14.9533C24.4151,14.4485,24.7767,13.9569,25.1405,13.4796C25.2907,13.2826,25.4412,13.088,25.5921,12.896C25.6377,12.8379,25.6834,12.78,25.7291,12.7223C26.1587,12.1804,26.5909,11.65899,27.024,11.15962C27.0891,11.23499,27.1542,11.31094,27.2194,11.38746C27.3247,11.51129,27.4301,11.63662,27.5355,11.76341C27.7951,12.0759,28.0547,12.3972,28.3138,12.7271C28.358,12.7834,28.4023,12.84,28.4465,12.8969ZM17.895899999999997,25.7736C18.5138,24.3996,19.177,23.0493,19.8842,21.7255C19.9302,21.6393,19.9764,21.5533,20.0228,21.4674L20.0229,21.4672L20.0227,21.4674L20.0228,21.4672C20.0691,21.3814,20.1155,21.2958,20.1622,21.2102C20.8805,19.8928,21.6426,18.6032,22.4471,17.3438C23.1548,17.2866,23.871,17.2424,24.5935,17.2119C25.3891,17.1782,26.1922,17.161,26.9998,17.161C28.5479,17.161,30.0748,17.2243,31.5613,17.3453C32.409400000000005,18.6845,33.213,20.0553,33.9705,21.4551C34.7322,22.8585,35.4511,24.2879,36.126,25.7412C35.458,27.2093,34.7414,28.6516,33.9775,30.0653C33.2201,31.471,32.420100000000005,32.85,31.5789,34.2001C30.055,34.3155,28.5277,34.3728,27,34.3719C25.4439,34.3719,23.9305,34.3201,22.473,34.2191C21.6098,32.8721,20.7945,31.4907,20.0291,30.0778C19.3473,28.8202,18.7058,27.5382,18.1057,26.2341C18.0352,26.0809,17.9653,25.9274,17.895899999999997,25.7736ZM17.149900000000002,18.046C17.9788,17.8896,18.8323,17.7527,19.7051,17.636200000000002C19.2678,18.3649,18.8437,19.1027,18.4331,19.849C18.3456,20.0081,18.2586,20.1677,18.1723,20.3276C18.1105,20.442,18.0491,20.5567,17.988,20.6715C17.563499999999998,21.4687,17.154400000000003,22.275,16.7607,23.09C16.4176,22.2203,16.1018,21.3587,15.8145,20.5096C15.8,20.4666,15.7856,20.4238,15.7712,20.3809C15.5546,19.735,15.3547,19.0966,15.1721,18.4675C15.808,18.3155,16.462699999999998,18.1759,17.133499999999998,18.0491L17.149900000000002,18.046ZM38.2063,20.5413C37.9197,21.3769,37.6029,22.2287,37.2578,23.0921C36.8611,22.2878,36.4515,21.4909,36.0291,20.7017C35.9595,20.5717,35.8896,20.4418,35.8193,20.3122C35.7369,20.1601,35.6539,20.0083,35.5705,19.8568C35.159,19.11,34.7351,18.3711,34.2988,17.6406C35.1725,17.7586,36.0262,17.8978,36.8555,18.057C36.8699,18.0598,36.8844,18.0626,36.8988,18.0654C37.5686,18.1947,38.2225,18.3371,38.858,18.4919C38.6753,19.1177,38.4734,19.7556,38.2534,20.4033C38.2378,20.4493,38.2221,20.4953,38.2063,20.5413ZM15.4873,25.6626C14.7234,23.8801,14.0618,22.1136,13.5143,20.3975L13.5143,20.3973C13.3674,19.937,13.2288,19.4804,13.0986,19.028C12.502,19.2091,11.92695,19.4022,11.37754,19.6067C11.31905,19.6285,11.26087,19.6504,11.20298,19.6725C6.78071,21.3569,4.13613,23.7992,4.13613,25.7193C4.13613,26.6333,4.76211,27.7599,6.00234,28.8945C7.25657,30.042,9.033940000000001,31.1023,11.17773,31.9545C11.39284,32.04,11.61165,32.123400000000004,11.83398,32.2046C11.86869,32.2172,11.90343,32.2298,11.93819,32.2422C11.98677,32.259699999999995,12.0354,32.2769,12.0841,32.2941C12.41,32.408699999999996,12.738,32.5166,13.068,32.617599999999996C13.2262,32.0666,13.397,31.5088,13.5799,30.9454C13.6052,30.8676,13.6307,30.7897,13.6564,30.7117C14.1882,29.099,14.8182,27.4428,15.5355,25.7748C15.5194,25.7374,15.5033,25.7,15.4873,25.6626ZM38.4951,25.7304C39.2754,27.4862,39.9492,29.1997,40.5039,30.8462C40.6921,31.4049,40.8667,31.9558,41.027,32.498000000000005C41.3131,32.407399999999996,41.5931,32.313900000000004,41.8668,32.2173C42.2255,32.0903,42.5743,31.9584,42.9126,31.8222C47.2419,30.0797,49.8641,27.6346,49.8641,25.7193C49.8641,23.8379,47.2065,21.4131,42.8212,19.7159C42.6873,19.6641,42.5518,19.613,42.4148,19.5626C41.9363,19.3867,41.44,19.22,40.9285,19.0618L40.9284,19.062L40.4213,20.7017L40.4212,20.702C39.8856,22.3311,39.2394,24.0172,38.4951,25.7304ZM23.7005,19.2602Q24.462,19.2142,25.227,19.1895Q25.1518,19.2111,25.0772,19.2346Q23.8564,19.6202,22.8449,20.5266L22.8489,20.5197Q23.2183,19.8882,23.6017,19.2662Q23.6513,19.2631,23.7005,19.2602ZM30.4061,19.2735Q30.7871,19.8956,31.1549,20.5264Q31.1422,20.5151,31.1294,20.5037Q30.0664,19.5606,28.7734,19.1896L28.7949,19.1903Q29.6007,19.2167,30.4021,19.2669L30.4061,19.2735ZM31.4648,25.7193C31.4648,23.0848,29.4658,20.9491,27,20.9491C24.5342,20.9491,22.5352,23.0848,22.5352,25.7193C22.5352,28.3538,24.5342,30.4895,27,30.4895C29.4658,30.4895,31.4648,28.3538,31.4648,25.7193ZM6.13613,25.7193Q6.13613,23.7412,11.79721,21.5858L11.79743,21.5864Q11.8207,21.6567,11.84415,21.7269Q12.5107,23.7225,13.364,25.7754Q13.3402,25.8328,13.3165,25.89Q12.4468,27.996,11.7718,30.039Q11.74322,30.0275,11.71473,30.0159Q8.97575,28.9041,7.35235,27.4189Q6.13613,26.3062,6.13613,25.7193ZM47.8641,25.7193Q47.8641,27.7774,42.3032,29.9243L42.2999,29.9146Q42.2833,29.8662,42.2663,29.8173Q41.5795,27.8297,40.6737,25.7211Q40.6921,25.677,40.7103,25.6336Q41.5655,23.5854,42.2214,21.6283L42.2221,21.6262Q47.8641,23.7817,47.8641,25.7193ZM33.872699999999995,25.8458Q33.630700000000004,26.3573,33.3806,26.8642Q33.384699999999995,26.8374,33.3886,26.8102Q33.4648,26.2811,33.4648,25.7193Q33.4648,25.1857,33.396,24.6817Q33.4105,24.7105,33.424800000000005,24.7393Q33.6753,25.2422,33.9183,25.7492Q33.8959,25.7968,33.872699999999995,25.8458ZM20.1152,25.732Q20.3527,25.2238,20.5988,24.7204Q20.5941,24.7561,20.5898,24.7919Q20.5352,25.2439,20.5352,25.7193Q20.5352,26.309,20.6192,26.8626Q20.6032,26.8302,20.5879,26.7988Q20.3377,26.2882,20.0963,25.7724Q20.1059,25.7518,20.1152,25.732ZM36.8302,33.5282C36.0109,33.68,35.1636,33.8121,34.2928,33.9237C34.7219,33.1969,35.14,32.4627,35.5469,31.7215C35.6411,31.5498,35.7347,31.3779,35.8277,31.2055C35.9077,31.0574,35.9871,30.909,36.0661,30.7602C36.484,29.9733,36.888,29.178,37.2779,28.3749C37.6309,29.2345,37.9546,30.0793,38.2474,30.9057C38.2782,30.9927,38.3086,31.0794,38.3388,31.166C38.5644,31.8142,38.7706,32.450900000000004,38.9568,33.074200000000005C38.3242,33.2284,37.6695,33.3696,36.9955,33.4972C36.9406,33.5077,36.8854,33.518,36.8302,33.5282ZM17.9917,30.8698C17.5668,30.0746,17.1573,29.2702,16.7633,28.4571C16.4207,29.325,16.104799999999997,30.1851,15.8171,31.0322C15.7915,31.1077,15.766,31.1832,15.7408,31.2585C15.5245,31.9053,15.3248,32.5443,15.1426,33.173100000000005C15.7755,33.3203,16.4316,33.4543,17.108800000000002,33.574799999999996C17.1434,33.581,17.178,33.5871,17.212699999999998,33.593199999999996C18.0296,33.7365,18.8768,33.860299999999995,19.7506,33.964600000000004C19.3187,33.2487,18.8959,32.518299999999996,18.4842,31.775C18.3823,31.5912,18.2812,31.4065,18.1807,31.2211C18.1174,31.1042,18.0543,30.9871,17.9917,30.8698ZM30.3223,32.278999999999996Q29.3281,32.3352,28.3326,32.3575Q28.3394,32.3561,28.3466,32.3545Q29.9925,32.0108,31.2863,30.7914Q31.2557,30.8449,31.2254,30.8976Q30.8272,31.5903,30.4144,32.273700000000005Q30.3675,32.276399999999995,30.3223,32.278999999999996ZM23.6141,32.277699999999996Q23.1643,31.5503,22.7339,30.8103Q22.8018,30.8738,22.8706,30.9349Q24.1149,32.0389,25.6744,32.3589Q25.6377,32.3581,25.604,32.3574Q24.5992,32.3365,23.6186,32.2851L23.6141,32.277699999999996ZM32.7709,36.3879C31.3967,38.5134,29.9887,40.4271,28.5797,42.0733C28.9881,42.494,29.4073,42.9025,29.8369,43.2982C33.4711,46.6395,36.8408,47.9061,38.4164,46.9316C39.157,46.4736,39.7559,45.3303,40.0535,43.6152C40.3573,41.8662,40.3228,39.6697,39.9299,37.2368C39.894,37.0147,39.8552,36.7907,39.8133,36.5648C39.735,36.1432,39.6448,35.7124,39.5426,35.2725L38.5097,35.5125L38.5095,35.5125C36.7209,35.9027,34.7926,36.1962,32.7709,36.3879ZM15.5393,46.9041C16.2805,47.3607,17.5066,47.344,19.0461,46.7632C20.7594,46.1168,22.7033,44.8314,24.6434,43.0197C24.968,42.7156,25.2856,42.403,25.5959,42.0823C24.1359,40.4083,22.6873,38.4967,21.3037,36.4169C18.9641,36.2141,16.7698,35.8826,14.7776,35.4242L14.7774,35.4242C14.7066,35.4079,14.6361,35.3914,14.5658,35.3748C14.4288,35.9622,14.3071,36.5536,14.2008,37.1483C14.1897,37.211,14.1787,37.2735,14.1681,37.3358C13.3229,42.2737,13.9818,45.9444,15.5393,46.9041ZM25.6009,38.6404C25.0878,37.9858,24.5781,37.3022,24.0746,36.5932C24.9015,36.6278,25.7424,36.6478,26.5954,36.6526C26.73,36.6533,26.8648,36.6537,27,36.6537C27.1728,36.6537,27.3453,36.653,27.5174,36.6516C28.3603,36.6448,29.1948,36.6213,30.0182,36.5821C29.5247,37.2986,29.0287,37.9841,28.5322,38.6359C28.4752,38.7106,28.4183,38.785,28.3613,38.8588C27.9351,39.4114,27.5086,39.9389,27.083,40.4396C26.6496,39.9401,26.2167,39.4179,25.7859,38.875C25.7242,38.7972,25.6625,38.719,25.6009,38.6404ZM33.9324,38.2785Q36.0415,38.0425,37.9738,37.6656Q37.9881,37.7551,38.0016,37.8436Q38.4807,40.9833,38.083,43.273Q37.7889,44.9681,37.3645,45.2306Q37.2788,45.2835,37.1293,45.2883Q36.6808,45.3025,35.6574,44.8829Q33.6398,44.0555,31.2924,41.9191Q31.3797,41.8082,31.4669,41.6961Q32.7,40.1113,33.9213,38.2798L33.9324,38.2785ZM20.1803,38.3263Q21.4978,40.2449,22.8641,41.937Q22.7423,42.046,22.6213,42.1516Q20.3486,44.1342,18.3401,44.8919Q16.9422,45.4193,16.5883,45.2013Q15.0072,44.2271,16.1267,37.7451L16.1271,37.7452Q16.1475,37.7489,16.1677,37.7527Q18.0737,38.1028,20.1752,38.3189L20.1803,38.3263Z" fill-rule="evenodd" fill="#1B95C5" fill-opacity="1"/></g></svg>