<svg xmlns="http://www.w3.org/2000/svg" xmlns:xlink="http://www.w3.org/1999/xlink" fill="none" version="1.1" width="180.1430206298828" height="118.9453125" viewBox="0 0 180.1430206298828 118.9453125"><g><g><path d="M9.721363374023438,4.1219596875L7.221363374023437,35.2219296875C7.221363374023437,36.1219296875,7.4213633740234375,37.1219296875,8.121363374023439,37.7219296875C12.321383374023437,42.4219296875,27.521383374023436,61.7219296875,4.9213633740234375,77.3219296875C4.121363374023438,77.9219296875,3.6213633740234377,78.7219296875,3.4213633740234375,79.7219296875L1.0213584740234376,98.7219296875C0.8213583740234375,100.6219296875,2.1213633740234377,102.3219296875,4.021363374023437,102.5219296875L167.22108337402344,117.9219296875C169.02108337402345,118.1219296875,170.72108337402344,116.7219296875,170.92108337402342,114.9219296875L173.32108337402343,93.0219296875C173.42108337402342,91.9219296875,173.02108337402345,90.8219296875,172.22108337402344,90.1219296875C167.82108337402343,86.1219296875,154.72108337402344,71.5219296875,174.52108337402345,54.1219296875L179.12108337402344,19.6219296875C179.32108337402343,17.7219296875,177.92108337402342,16.1219296875,176.12108337402344,15.9219296875L13.421383374023437,1.0219573875C12.471383374023437,0.9219569875,11.596383374023437,1.2219576875,10.933863374023437,1.7844576875C10.271363374023437,2.3469596875,9.821363374023438,3.1719596875,9.721363374023438,4.1219596875Z" fill="#F03B42" fill-opacity="1"/><path d="M13.526083374023438,0.02736068749999998L13.518983374023437,0.026709687500000023Q11.683583374023437,-0.16392031249999994,10.286633374023438,1.0221629875Q8.919983374023438,2.1825196875,8.726853374023438,4.0172696875Q8.725563374023437,4.0295396875,8.724573374023437,4.0418296875L6.2245733740234375,35.1418296875Q6.221363374023437,35.1818296875,6.221363374023437,35.2219296875Q6.221363374023437,37.3618296875,7.415723374023438,38.4331296875Q13.999183374023438,45.8186296875,15.591483374023438,53.6341296875Q18.28998337402344,66.8790296875,4.353283374023437,76.4990296875Q4.337093374023437,76.5101296875,4.321363374023438,76.5219296875Q2.8157133740234377,77.6512296875,2.4407833740234377,79.5258296875Q2.4337433740234378,79.5610296875,2.4292433740234376,79.5966296875L0.029242374023437545,98.5966296875Q-0.1663366259765624,100.4525296875,0.9460521740234376,101.8749296875Q2.0777333740234374,103.3229296875,3.9166733740234374,103.5169296875L167.12708337402344,118.9179296875Q168.87408337402343,119.1119296875,170.30308337402343,117.9469296875Q171.72008337402343,116.7929296875,171.91508337402342,115.0319296875L174.31508337402343,93.1309296875Q174.52608337402344,90.8102296875,172.88008337402343,89.3694296875Q166.73508337402345,83.7830296875,165.27408337402343,76.9382296875Q162.87308337402345,65.6894296875,175.18108337402344,54.8731296875Q175.31808337402344,54.7534296875,175.40308337402342,54.5936296875Q175.48908337402344,54.4338296875,175.51308337402344,54.2541296875L180.11308337402343,19.7541296875Q180.11408337402344,19.7404296875,180.11608337402345,19.7266296875Q180.30808337402343,17.9016296875,179.14108337402342,16.495729687500003Q178.00308337402345,15.1248296875,176.23208337402343,14.9281296875L13.526083374023438,0.02736068749999998ZM11.581083374023438,2.5467496875Q12.328183374023437,1.9124126875,13.316683374023437,2.0164596875000003L13.330183374023438,2.0177896875L176.01108337402343,16.9158296875Q178.36608337402345,17.1776296875,178.12808337402345,19.5042296875L173.57908337402344,53.6201296875Q160.70108337402343,65.0940296875,163.31808337402344,77.3557296875Q164.91408337402345,84.8300296875,171.56308337402345,90.8745296875Q172.44208337402344,91.6442296875,172.32708337402343,92.9130296875L169.92708337402343,114.8119296875Q169.82208337402344,115.7589296875,169.04008337402342,116.3969296875Q168.26108337402343,117.0309296875,167.31508337402343,116.9259296875L4.126043374023437,101.5279296875Q1.7578113740234373,101.2779296875,2.0134733740234374,98.8473296875L4.4086933740234375,79.8851296875Q4.638233374023438,78.7920296875,5.506773374023438,78.1329296875Q20.511783374023437,67.7659296875,17.551183374023438,53.2348296875Q15.846083374023438,44.8656296875,8.867013374023436,37.0556296875Q8.822673374023438,37.0060296875,8.772153374023437,36.9627296875Q8.229763374023438,36.4978296875,8.221483374023437,35.2605296875L10.717093374023438,4.215219687499999Q10.829293374023438,3.1850696875,11.581083374023438,2.5467496875Z" fill-rule="evenodd" fill="#000000" fill-opacity="1"/></g><g><path d="M12.041528489990235,16.43859816040039L12.041458489990234,16.43911816040039Q12.021358489990234,16.579818160400393,12.021358489990234,16.72195816040039Q12.021358489990234,16.820258160400392,12.030988489990234,16.91795816040039Q12.040618489990234,17.015758160400388,12.059788489990234,17.11215816040039Q12.078958489990235,17.20845816040039,12.107478489990234,17.30255816040039Q12.135998489990234,17.39655816040039,12.173598489990233,17.48735816040039Q12.211198489990235,17.57805816040039,12.257518489990234,17.66475816040039Q12.303828489990234,17.751358160400393,12.358418489990234,17.83305816040039Q12.413008489990235,17.91475816040039,12.475338489990234,17.99075816040039Q12.537668489990235,18.06665816040039,12.607148489990234,18.13615816040039Q12.676618489990235,18.20565816040039,12.752568489990235,18.26795816040039Q12.828518489990234,18.33035816040039,12.910218489990234,18.38485816040039Q12.991908489990234,18.43945816040039,13.078565489990234,18.48575816040039Q13.165217489990233,18.532158160400392,13.255991489990235,18.56975816040039Q13.346766489990234,18.60735816040039,13.440789489990234,18.63585816040039Q13.534812489990234,18.66435816040039,13.631177489990234,18.68355816040039Q13.727543489990234,18.70265816040039,13.825324489990235,18.71235816040039Q13.923104789990234,18.72195816040039,14.021358489990234,18.72195816040039Q14.110724089990235,18.72195816040039,14.199733489990235,18.71395816040039Q14.288743489990235,18.70605816040039,14.376687489990234,18.69015816040039Q14.464630489990235,18.67425816040039,14.550808489990235,18.65055816040039Q14.636985489990234,18.62695816040039,14.720709489990234,18.59565816040039Q14.804433489990235,18.56445816040039,14.885037489990234,18.52585816040039Q14.965640489990234,18.48725816040039,15.042478489990234,18.44165816040039Q15.119318489990235,18.39605816040039,15.191788489990234,18.34375816040039Q15.264248489990234,18.29145816040039,15.331758489990234,18.23285816040039Q15.399278489990234,18.17435816040039,15.461298489990234,18.10995816040039Q15.523318489990235,18.045658160400393,15.579348489990235,17.97605816040039Q15.635388489990234,17.90635816040039,15.684988489990234,17.83205816040039Q15.734588489990234,17.757758160400392,15.777368489990234,17.67925816040039Q15.820138489990235,17.60075816040039,15.855748489990233,17.51885816040039Q15.891358489990235,17.43685816040039,15.919508489990234,17.35205816040039Q15.947658489990234,17.267258160400388,15.968138489990235,17.180258160400392Q15.988618489990234,17.09325816040039,16.001258489990235,17.004758160400392L16.001328489990236,17.00425816040039L17.181008489990234,8.74656816040039L25.203258489990233,9.218468160400391L25.203958489990235,9.21850816040039Q25.262558489990234,9.22195816040039,25.321358489990235,9.22195816040039Q25.419658489990233,9.22195816040039,25.517358489990237,9.212328160400391Q25.615158489990236,9.202698160400391,25.711558489990235,9.18352816040039Q25.807858489990235,9.16435816040039,25.901958489990236,9.13583816040039Q25.995958489990237,9.107318160400391,26.086758489990235,9.069718160400392Q26.177458489990237,9.03211816040039,26.264158489990237,8.98579816040039Q26.350758489990234,8.93948816040039,26.432458489990232,8.88489816040039Q26.514158489990237,8.83030816040039,26.590158489990234,8.767978160400391Q26.666058489990235,8.70564816040039,26.735558489990233,8.636168160400391Q26.805058489990234,8.56669816040039,26.867358489990234,8.49074816040039Q26.929758489990235,8.414798160400391,26.984258489990232,8.333098160400391Q27.038858489990233,8.251408160400391,27.085158489990235,8.164748160400391Q27.131558489990233,8.07809816040039,27.169158489990235,7.9873281604003905Q27.206758489990236,7.896548160400391,27.235258489990237,7.80252816040039Q27.263758489990234,7.70850416040039,27.282958489990236,7.612139160400391Q27.302058489990234,7.515773160400391,27.311758489990233,7.417992160400391Q27.321358489990235,7.3202121604003905,27.321358489990235,7.221958160400391Q27.321358489990235,7.12738516040039,27.312458489990235,7.033234160400391Q27.303558489990234,6.939083160400391,27.285758489990236,6.84619416040039Q27.267958489990235,6.753305860400391,27.241558489990233,6.66250836040039Q27.215058489990234,6.57171116040039,27.180158489990234,6.4838141604003905Q27.145258489990233,6.395918160400391,27.102258489990234,6.311708160400391Q27.059158489990235,6.2274981604003905,27.008358489990236,6.147724160400391Q26.957558489990234,6.067951160400391,26.899458489990234,5.993328160400391Q26.841358489990235,5.918704160400391,26.776458489990233,5.849895160400391Q26.711658489990235,5.781087160400391,26.640558489990234,5.718708160400391Q26.569458489990232,5.65632816040039,26.492758489990234,5.600938160400391Q26.416158489990234,5.54553816040039,26.334658489990233,5.4976281604003905Q26.253058489990234,5.449718160400391,26.167358489990235,5.409708160400391Q26.081658489990232,5.369708160400391,25.992558489990234,5.337968160400391Q25.903558489990232,5.306218160400391,25.811858489990236,5.283028160400391Q25.720158489990233,5.25983816040039,25.626658489990234,5.2453981604003905Q25.533258489990235,5.230958160400391,25.438758489990235,5.225408160400391L16.880128489990234,4.721958160400391L16.821358489990235,4.721958160400391Q15.467928489990234,4.721958160400391,14.419645489990234,5.770245160400391Q13.545326489990234,6.64456466040039,13.268985489990234,7.888098160400391L13.252322489990235,7.963078160400391L12.041528489990235,16.43859816040039Z" fill-rule="evenodd" fill="#FCD8DA" fill-opacity="1"/></g><g><path d="M12.605198489990235,86.47570134570313Q12.621358489990234,86.34934234570312,12.621358489990234,86.22195434570312Q12.621358489990234,86.12370064570312,12.611728489990234,86.02592034570313Q12.602098489990235,85.92813934570313,12.582928489990234,85.83177334570313Q12.563758489990235,85.73540834570312,12.535238489990235,85.64138534570313Q12.506718489990234,85.54736234570312,12.469118489990235,85.45658734570313Q12.431518489990234,85.36581334570313,12.385198489990234,85.27916134570313Q12.338888489990234,85.19250434570313,12.284298489990235,85.11081434570312Q12.229708489990234,85.02911434570312,12.167378489990234,84.95316434570313Q12.105048489990235,84.87721434570312,12.035568489990235,84.80774434570313Q11.966098489990234,84.73826434570313,11.890148489990235,84.67593434570313Q11.814198489990234,84.61360434570312,11.732498489990235,84.55901434570312Q11.650808489990235,84.50442434570313,11.564148489990234,84.45811434570312Q11.477498489990234,84.41179434570313,11.386728489990235,84.37419434570313Q11.295948489990234,84.33659434570312,11.201928489990234,84.30807434570312Q11.107908489990233,84.27955434570312,11.011538489990235,84.26038434570313Q10.915178489990234,84.24121434570313,10.817388489990234,84.23158434570313Q10.719608489990234,84.22195434570312,10.621358489990234,84.22195434570312Q10.531078489990234,84.22195434570312,10.441156489990234,84.23008434570312Q10.351238489990234,84.23822434570313,10.262419489990235,84.25442434570313Q10.173600489990234,84.27063434570313,10.086602489990234,84.29477434570313Q9.999604489990235,84.31891434570312,9.915135489990234,84.35079434570312Q9.830666489990234,84.38267434570312,9.749413489990234,84.42203434570312Q9.668160489990234,84.46139434570313,9.590784889990234,84.50791434570313Q9.513408999990235,84.55444434570313,9.440539589990234,84.60774434570313Q9.367670489990234,84.66105434570312,9.299900489990234,84.72070434570313Q9.232130489990235,84.78036434570312,9.170010489990235,84.84587434570312Q9.107890489990234,84.91139434570313,9.051927489990234,84.98224434570312Q8.995963489990235,85.05309434570313,8.946611489990234,85.12869434570312Q8.897258489990234,85.20429434570312,8.854918489990235,85.28403734570313Q8.812578489990234,85.36377934570312,8.777595489990235,85.44701134570313Q8.742612489990234,85.53024334570313,8.715271489990235,85.61628834570313Q8.687930489990235,85.70233434570312,8.668453489990235,85.79049334570313Q8.648975489990235,85.87865234570313,8.637521489990235,85.96820734570312L8.637463489990234,85.96865634570312L7.521358489990234,94.69456434570313L7.521358489990234,94.82195434570312Q7.521358489990234,96.36395434570312,8.433858489990234,97.32445434570312Q9.127261489990234,98.05435434570313,10.107961489990235,98.16035434570313Q10.639058489990234,98.21775434570313,11.160658489990235,98.07385434570313L19.348088489990232,99.20315434570313Q19.48407848999023,99.22195434570312,19.621358489990236,99.22195434570312Q19.719658489990234,99.22195434570312,19.817358489990234,99.21235434570312Q19.915158489990233,99.20265434570312,20.011558489990236,99.18355434570313Q20.107858489990235,99.16435434570312,20.201958489990233,99.13585434570312Q20.295958489990234,99.10735434570313,20.386758489990235,99.06965434570313Q20.477458489990234,99.03215434570312,20.564158489990234,98.98575434570313Q20.650758489990235,98.93945434570313,20.732458489990236,98.88485434570313Q20.814158489990234,98.83025434570312,20.890158489990235,98.76795434570312Q20.966058489990232,98.70565434570312,21.035558489990237,98.63615434570312Q21.105058489990235,98.56665434570313,21.167358489990235,98.49075434570312Q21.229758489990232,98.41475434570313,21.284258489990236,98.33305434570312Q21.338858489990237,98.25135434570312,21.385158489990232,98.16475434570313Q21.431558489990234,98.07805434570312,21.469158489990235,97.98735434570312Q21.506758489990233,97.89655434570312,21.535258489990234,97.80255434570313Q21.563758489990235,97.70845434570313,21.582958489990233,97.61215434570312Q21.602058489990235,97.51575434570313,21.611758489990237,97.41795434570312Q21.621358489990236,97.32015434570313,21.621358489990236,97.22195434570312Q21.621358489990236,97.13225434570313,21.613358489990233,97.04295434570312Q21.605358489990234,96.95365434570313,21.589358489990232,96.86545434570313Q21.573358489990234,96.77715434570312,21.549558489990233,96.69075434570313Q21.525758489990235,96.60425434570313,21.494258489990234,96.52035434570313Q21.462758489990236,96.43635434570312,21.423958489990234,96.35555434570313Q21.385158489990232,96.27475434570313,21.339158489990233,96.19770434570313Q21.293258489990237,96.12069434570313,21.240658489990235,96.04809434570312Q21.188058489990233,95.97549434570313,21.129058489990236,95.90789434570313Q21.070158489990234,95.84029434570313,21.005458489990232,95.77824434570313Q20.940758489990234,95.71618434570313,20.870658489990234,95.66017434570313Q20.800658489990234,95.60416434570313,20.725958489990234,95.55464434570312Q20.651158489990234,95.50511434570312,20.572258489990233,95.46248434570313Q20.493458489990232,95.41984434570313,20.411058489990232,95.38444434570313Q20.328658489990232,95.34904434570312,20.243458489990232,95.32115434570312Q20.158158489990235,95.29326434570312,20.070858489990236,95.27310434570313Q19.983458489990234,95.25295434570313,19.894658489990235,95.24070434570312L19.893658489990234,95.24056434570312L11.629898489990234,94.10074434570312L12.605078489990234,86.47664934570312L12.605198489990235,86.47570134570313L12.605198489990235,86.47570134570313Z" fill-rule="evenodd" fill="#FCD8DA" fill-opacity="1"/></g><g><path d="M162.9186583046875,18.261814345703126L171.43786230468748,19.985939345703127L171.5538023046875,20.024586345703124Q172.8929623046875,20.470976345703125,173.6287623046875,21.615434345703125Q174.3630623046875,22.757704345703125,174.2091623046875,24.142834345703125L173.2047623046875,31.878854345703125L173.2046623046875,31.879554345703127Q173.1930623046875,31.968954345703125,173.1734623046875,32.056954345703126Q173.1538623046875,32.14495434570313,173.1264623046875,32.23085434570312Q173.0989623046875,32.316754345703124,173.0638623046875,32.39975434570312Q173.0288623046875,32.482854345703124,172.9864623046875,32.562454345703124Q172.9440623046875,32.64205434570312,172.8946623046875,32.717454345703125Q172.8452623046875,32.79285434570313,172.7892623046875,32.86355434570312Q172.7333623046875,32.934254345703124,172.6712623046875,32.99965434570312Q172.6090623046875,33.06495434570313,172.5413623046875,33.12445434570313Q172.4736323046875,33.18395434570313,172.4008123046875,33.237154345703125Q172.3280023046875,33.29035434570312,172.2506923046875,33.33675434570313Q172.1733923046875,33.383154345703126,172.0922223046875,33.42235434570313Q172.0110523046875,33.461654345703124,171.9266823046875,33.49345434570313Q171.8423123046875,33.525254345703125,171.7554223046875,33.54935434570312Q171.6685323046875,33.57345434570313,171.5798223046875,33.58955434570312Q171.4911223046875,33.605754345703126,171.4013223046875,33.613854345703125Q171.31152230468751,33.621954345703124,171.2213623046875,33.621954345703124Q171.1231023046875,33.621954345703124,171.0253223046875,33.612354345703125Q170.9275423046875,33.60265434570312,170.8311823046875,33.58355434570312Q170.7348123046875,33.56435434570312,170.6407923046875,33.53585434570313Q170.5467623046875,33.50735434570312,170.4559923046875,33.46975434570312Q170.3652223046875,33.432154345703125,170.2785623046875,33.38575434570313Q170.1919123046875,33.339454345703125,170.1102223046875,33.284854345703124Q170.0285223046875,33.23035434570313,169.9525723046875,33.16795434570312Q169.8766223046875,33.10565434570312,169.8071423046875,33.036154345703125Q169.7376723046875,32.96665434570313,169.6753423046875,32.89075434570312Q169.6130023046875,32.81475434570312,169.5584223046875,32.733054345703124Q169.5038323046875,32.651354345703126,169.4575123046875,32.56475434570312Q169.4112023046875,32.47805434570313,169.3736023046875,32.38735434570312Q169.3360023046875,32.29655434570313,169.3074823046875,32.20255434570313Q169.2789523046875,32.10845434570312,169.2597923046875,32.012154345703124Q169.2406223046875,31.915754345703125,169.2309923046875,31.817954345703125Q169.2213623046875,31.720254345703125,169.2213623046875,31.621954345703124Q169.2213623046875,31.492654345703123,169.2380123046875,31.364354345703127L170.2181223046875,23.820184345703126L162.1252193046875,22.182334345703126L162.1246433046875,22.182214345703123Q162.0405993046875,22.165204345703124,161.9583203046875,22.141064345703125Q161.8760423046875,22.116924345703126,161.7961313046875,22.085834345703127Q161.7162203046875,22.054734345703125,161.6392633046875,22.016924345703124Q161.5623073046875,21.979104345703124,161.4888723046875,21.934834345703123Q161.4154323046875,21.890564345703126,161.3460523046875,21.840174345703126Q161.2766723046875,21.789784345703126,161.2118623046875,21.733644345703127Q161.1470523046875,21.677504345703124,161.0872823046875,21.616024345703124Q161.0275123046875,21.554534345703125,160.9732323046875,21.488164345703126Q160.9189423046875,21.421784345703124,160.8705323046875,21.351014345703124Q160.8221323046875,21.280234345703125,160.7799523046875,21.205574345703123Q160.7377823046875,21.130913345703124,160.7021623046875,21.052918345703127Q160.6665323046875,20.974922345703124,160.6377123046875,20.894164345703125Q160.6088923046875,20.813405345703124,160.5870923046875,20.730476345703124Q160.5652923046875,20.647547345703124,160.5506623046875,20.563056345703124Q160.5360423046875,20.478566345703126,160.5287023046875,20.393133345703124Q160.5213623046875,20.307701345703126,160.5213623046875,20.221954345703125Q160.5213623046875,20.123700645703124,160.5309923046875,20.025920345703124Q160.5406223046875,19.928139345703126,160.5597923046875,19.831773345703127Q160.5789623046875,19.735408345703124,160.6074823046875,19.641385345703124Q160.6360023046875,19.547362345703124,160.6736023046875,19.456587345703124Q160.7112023046875,19.365813345703124,160.7575223046875,19.279161345703123Q160.8038323046875,19.192504345703124,160.8584223046875,19.110814345703126Q160.9130123046875,19.029114345703125,160.9753423046875,18.953164345703126Q161.0376723046875,18.877214345703123,161.1071523046875,18.807744345703124Q161.1766223046875,18.738264345703126,161.2525723046875,18.675934345703126Q161.3285223046875,18.613604345703123,161.4102223046875,18.559014345703126Q161.4919123046875,18.504424345703125,161.5785693046875,18.458114345703123Q161.6652213046875,18.411794345703125,161.7559953046875,18.374194345703124Q161.8467703046875,18.336594345703126,161.9407933046875,18.308074345703126Q162.0348163046875,18.279554345703126,162.1311813046875,18.260384345703123Q162.2275473046875,18.241214345703124,162.3253283046875,18.231584345703126Q162.4231086046875,18.221954345703125,162.5213623046875,18.221954345703125Q162.7217123046875,18.221954345703125,162.9180813046875,18.261694345703127L162.9186583046875,18.261814345703126Z" fill-rule="evenodd" fill="#FCD8DA" fill-opacity="1"/></g><g><path d="M167.7125653564453,100.90936234570313Q167.72136535644532,100.81586484570313,167.72136535644532,100.72195434570312Q167.72136535644532,100.62370064570312,167.7117653564453,100.52592034570313Q167.7020653564453,100.42813934570313,167.68296535644532,100.33177334570313Q167.6637653564453,100.23540834570312,167.6352653564453,100.14138534570313Q167.60676535644532,100.04736234570312,167.56916535644532,99.95658734570313Q167.5315653564453,99.86581334570313,167.48526535644532,99.77916134570313Q167.43886535644532,99.69250434570313,167.38426535644533,99.61081434570312Q167.3297653564453,99.52911434570312,167.2673653564453,99.45316434570313Q167.20506535644532,99.37721434570312,167.1355653564453,99.30774434570313Q167.0660653564453,99.23826434570313,166.99016535644532,99.17593434570313Q166.91416535644532,99.11360434570312,166.8324653564453,99.05901434570312Q166.7508653564453,99.00442434570313,166.66416535644532,98.95811434570312Q166.57756535644532,98.91179434570313,166.48676535644532,98.87419434570313Q166.39596535644532,98.83659434570312,166.30196535644532,98.80807434570312Q166.2079653564453,98.77955434570312,166.1115653564453,98.76038434570313Q166.01516535644532,98.74121434570313,165.91736535644532,98.73158434570313Q165.8196653564453,98.72195434570312,165.72136535644532,98.72195434570312Q165.62896535644532,98.72195434570312,165.5370653564453,98.73047434570313Q165.4450653564453,98.73898434570313,165.35426535644532,98.75594434570313Q165.2634253564453,98.77290434570313,165.1745653564453,98.79815434570313Q165.08571535644532,98.82341434570313,164.99956535644532,98.85675434570312Q164.9134153564453,98.89008434570313,164.83070535644532,98.93122434570313Q164.7479953564453,98.97236434570313,164.66942535644532,99.02095434570313Q164.5908653564453,99.06953434570312,164.51711535644532,99.12516434570313Q164.44335535644532,99.18078434570313,164.3750453564453,99.24296434570313Q164.3067353564453,99.30514434570313,164.2444453564453,99.37336434570312Q164.18216535644532,99.44158434570312,164.1264253564453,99.51524434570312Q164.0706953564453,99.58891434570313,164.02198535644533,99.66740434570312Q163.9732753564453,99.74589634570313,163.9320153564453,99.82854234570313Q163.8907453564453,99.91118834570312,163.8572753564453,99.99728734570313Q163.82380535644532,100.08338534570312,163.7984153564453,100.17220234570313Q163.77302535644532,100.26101934570312,163.75592535644532,100.35179834570313Q163.73882535644532,100.44257734570313,163.7301753564453,100.53454634570312L162.9784153564453,108.52195434570312L155.3213653564453,108.52195434570312Q155.22311165644533,108.52195434570312,155.12533135644532,108.53158434570312Q155.02755035644532,108.54121434570312,154.9311843564453,108.56038434570313Q154.8348193564453,108.57955434570313,154.74079635644532,108.60807434570313Q154.64677335644532,108.63659434570313,154.55599835644531,108.67419434570313Q154.4652243564453,108.71179434570313,154.37857235644532,108.75811434570312Q154.29191535644532,108.80443434570313,154.2102253564453,108.85901434570313Q154.12852535644532,108.91360434570312,154.05257535644532,108.97593434570312Q153.9766253564453,109.03826434570313,153.90715535644532,109.10774434570313Q153.83767535644532,109.17722434570312,153.7753453564453,109.25317434570313Q153.7130153564453,109.32912434570312,153.65842535644532,109.41081434570313Q153.6038353564453,109.49251434570313,153.55752535644532,109.57916434570312Q153.51120535644532,109.66581434570313,153.47360535644532,109.75658434570312Q153.43600535644532,109.84736434570313,153.4074853564453,109.94138434570313Q153.37896535644532,110.03541434570312,153.35979535644532,110.13177434570312Q153.34062535644532,110.22814434570313,153.3309953564453,110.32592434570313Q153.3213653564453,110.42370434570313,153.3213653564453,110.52195434570312Q153.3213653564453,110.62021434570312,153.3309953564453,110.71799434570312Q153.34062535644532,110.81575434570313,153.35979535644532,110.91215434570313Q153.37896535644532,111.00845434570313,153.4074853564453,111.10255434570313Q153.43600535644532,111.19655434570312,153.47360535644532,111.28735434570312Q153.51120535644532,111.37805434570312,153.55752535644532,111.46475434570313Q153.6038353564453,111.55135434570312,153.65842535644532,111.63305434570313Q153.7130153564453,111.71475434570313,153.7753453564453,111.79075434570312Q153.83767535644532,111.86665434570313,153.90715535644532,111.93615434570313Q153.9766253564453,112.00565434570312,154.05257535644532,112.06795434570313Q154.12852535644532,112.13035434570313,154.2102253564453,112.18485434570313Q154.29191535644532,112.23945434570312,154.37857235644532,112.28575434570313Q154.4652243564453,112.33215434570313,154.55599835644531,112.36975434570313Q154.64677335644532,112.40735434570313,154.74079635644532,112.43585434570312Q154.8348193564453,112.46435434570313,154.9311843564453,112.48355434570313Q155.02755035644532,112.50265434570312,155.12533135644532,112.51235434570313Q155.22311165644533,112.52195434570312,155.3213653564453,112.52195434570312L162.9395553564453,112.52195434570312Q164.35793535644532,112.74205434570312,165.54076535644532,111.83225434570312Q166.7244653564453,110.92165434570313,166.9059653564453,109.47004434570313L166.90966535644532,109.43975434570312L167.7125653564453,100.90936234570313L167.7125653564453,100.90936234570313Z" fill-rule="evenodd" fill="#FCD8DA" fill-opacity="1"/></g></g></svg>