<svg xmlns="http://www.w3.org/2000/svg" xmlns:xlink="http://www.w3.org/1999/xlink" fill="none" version="1.1" width="200" height="150" viewBox="0 0 200 150"><defs><clipPath id="master_svg0_226_261"><rect x="0" y="0" width="200" height="150" rx="0"/></clipPath></defs><g clip-path="url(#master_svg0_226_261)"><g><g><g><path d="M19.720280000000002,20.11903L17.22028,51.219C17.22028,52.119,17.420279999999998,53.119,18.12028,53.719C22.3203,58.419,37.5203,77.719,14.92028,93.319C14.120280000000001,93.919,13.620280000000001,94.719,13.42028,95.719L11.0202751,114.719C10.820275,116.619,12.12028,118.319,14.02028,118.519L177.22,133.91899999999998C179.02,134.119,180.72,132.719,180.92,130.91899999999998L183.32,109.019C183.42,107.919,183.02,106.819,182.22,106.119C177.82,102.119,164.72,87.519,184.52,70.119L189.12,35.619C189.32,33.719,187.92,32.119,186.12,31.919L23.420299999999997,17.0190277C22.4703,16.9190273,21.5953,17.219028,20.93278,17.781528C20.27028,18.34403,19.82028,19.16903,19.720280000000002,20.11903Z" fill="#F03B42" fill-opacity="1"/><path d="M23.525,16.024431L23.517899999999997,16.023779Q21.682499999999997,15.83316,20.285539999999997,17.0192339Q18.9189,18.17959,18.72577,20.01434Q18.72448,20.026609999999998,18.723489999999998,20.038899999999998L16.223489999999998,51.1389Q16.22028,51.1789,16.22028,51.219Q16.22028,53.359,17.414659999999998,54.4302Q23.9981,61.8157,25.590400000000002,69.6312Q28.2889,82.876,14.3522,92.4961Q14.33601,92.5072,14.32028,92.519Q12.81463,93.6483,12.4397,95.5229Q12.43266,95.5581,12.42816,95.5937L10.02577,114.6143Q9.83258,116.4496,10.9449688,117.872Q12.07665,119.32,13.92633,119.515L177.11,134.913Q178.873,135.10899999999998,180.302,133.94400000000002Q181.719,132.79000000000002,181.914,131.02800000000002L184.316,109.1096Q184.525,106.8073,182.893,105.3791Q176.734,99.7802,175.273,92.9353Q172.872,81.6865,185.18,70.8702Q185.317,70.7505,185.402,70.5907Q185.488,70.43090000000001,185.512,70.2512L190.112,35.7512Q190.113,35.7375,190.115,35.7237Q190.307,33.898700000000005,189.14,32.4928Q188.002,31.1219,186.211,30.9232L23.525,16.024431ZM21.58,18.54382Q22.3271,17.909483,23.3156,18.01353L23.3291,18.01486L186.029,32.9149Q188.365,33.1747,188.127,35.5013L183.578,69.6172Q170.7,81.0911,173.317,93.3528Q174.913,100.8272,181.548,106.859Q182.441,107.6413,182.324,108.9285L179.926,130.81Q179.821,131.756,179.039,132.394Q178.26,133.02800000000002,177.331,132.925L14.11422,117.523Q11.756728,117.275,12.01478,114.8237L14.40761,95.8822Q14.63714,94.7891,15.50565,94.1301Q30.5107,83.763,27.5501,69.2319Q25.845,60.8626,18.86593,53.0527Q18.82159,53.0031,18.77107,52.9598Q18.22868,52.4949,18.220399999999998,51.2576L20.71601,20.21229Q20.82821,19.18214,21.58,18.54382Z" fill-rule="evenodd" fill="#000000" fill-opacity="1"/></g><g><path d="M22.040445115966797,32.43566847290039L22.040375115966796,32.43618847290039Q22.020275115966797,32.57688847290039,22.020275115966797,32.71902847290039Q22.020275115966797,32.81732847290039,22.0299051159668,32.91502847290039Q22.039535115966796,33.01282847290039,22.058705115966795,33.10922847290039Q22.077875115966798,33.20552847290039,22.106395115966798,33.299628472900395Q22.1349151159668,33.39362847290039,22.172515115966796,33.48442847290039Q22.210115115966797,33.57512847290039,22.256435115966795,33.66182847290039Q22.302745115966797,33.74842847290039,22.357335115966798,33.83012847290039Q22.411925115966795,33.91182847290039,22.4742551159668,33.98782847290039Q22.536585115966798,34.063728472900394,22.606065115966796,34.13322847290039Q22.675535115966795,34.20272847290039,22.751485115966798,34.26502847290039Q22.827435115966797,34.327428472900394,22.909135115966798,34.38192847290039Q22.990825115966796,34.43652847290039,23.077482115966795,34.482828472900394Q23.164134115966796,34.52922847290039,23.254908115966796,34.56682847290039Q23.345683115966796,34.604428472900395,23.439706115966796,34.63292847290039Q23.533729115966796,34.66142847290039,23.6300941159668,34.680628472900395Q23.7264601159668,34.69972847290039,23.824241115966796,34.70942847290039Q23.922021415966796,34.71902847290039,24.020275115966797,34.71902847290039Q24.109640715966798,34.71902847290039,24.198650115966796,34.711028472900395Q24.287660115966798,34.70312847290039,24.375604115966798,34.68722847290039Q24.463547115966797,34.67132847290039,24.549725115966798,34.647628472900394Q24.635902115966797,34.62402847290039,24.719626115966797,34.59272847290039Q24.803350115966797,34.56152847290039,24.883954115966798,34.52292847290039Q24.964557115966798,34.48432847290039,25.041395115966797,34.438728472900394Q25.118235115966797,34.393128472900386,25.190705115966797,34.34082847290039Q25.263165115966796,34.28852847290039,25.330675115966798,34.22992847290039Q25.398195115966796,34.17142847290039,25.460215115966797,34.10702847290039Q25.522235115966797,34.04272847290039,25.578265115966797,33.97312847290039Q25.634305115966797,33.90342847290039,25.683905115966798,33.82912847290039Q25.733505115966796,33.75482847290039,25.776285115966797,33.676328472900394Q25.819055115966798,33.59782847290039,25.854665115966796,33.51592847290039Q25.890275115966798,33.43392847290039,25.918425115966798,33.34912847290039Q25.946575115966798,33.26432847290039,25.967055115966797,33.17732847290039Q25.987535115966796,33.09032847290039,26.000175115966798,33.00182847290039L26.0002451159668,33.00132847290039L27.179925115966796,24.74363847290039L35.202175115966796,25.21553847290039L35.2028751159668,25.21557847290039Q35.261475115966796,25.21902847290039,35.320275115966794,25.21902847290039Q35.418575115966796,25.21902847290039,35.5162751159668,25.20939847290039Q35.6140751159668,25.19976847290039,35.7104751159668,25.180598472900392Q35.8067751159668,25.16142847290039,35.9008751159668,25.13290847290039Q35.9948751159668,25.10438847290039,36.085675115966794,25.06678847290039Q36.1763751159668,25.02918847290039,36.2630751159668,24.982868472900392Q36.3496751159668,24.93655847290039,36.431375115966794,24.88196847290039Q36.5130751159668,24.827378472900392,36.58907511596679,24.76504847290039Q36.6649751159668,24.70271847290039,36.734475115966795,24.63323847290039Q36.80397511596679,24.563768472900392,36.8662751159668,24.48781847290039Q36.9286751159668,24.41186847290039,36.983175115966795,24.33016847290039Q37.037775115966795,24.24847847290039,37.0840751159668,24.16181847290039Q37.130475115966796,24.07516847290039,37.1680751159668,23.98439847290039Q37.2056751159668,23.89361847290039,37.2341751159668,23.799598472900392Q37.2626751159668,23.70557447290039,37.2818751159668,23.60920947290039Q37.30097511596679,23.51284347290039,37.310675115966795,23.41506247290039Q37.320275115966794,23.31728247290039,37.320275115966794,23.21902847290039Q37.320275115966794,23.12445547290039,37.3113751159668,23.03030447290039Q37.3024751159668,22.93615347290039,37.2846751159668,22.84326447290039Q37.2668751159668,22.750376172900392,37.240475115966795,22.65957867290039Q37.2139751159668,22.56878147290039,37.179075115966796,22.480884472900392Q37.144175115966796,22.39298847290039,37.1011751159668,22.30877847290039Q37.0580751159668,22.22456847290039,37.0072751159668,22.14479447290039Q36.956475115966796,22.06502147290039,36.8983751159668,21.99039847290039Q36.8402751159668,21.91577447290039,36.775375115966796,21.84696547290039Q36.7105751159668,21.77815747290039,36.639475115966796,21.71577847290039Q36.568375115966795,21.653398472900392,36.4916751159668,21.59800847290039Q36.4150751159668,21.54260847290039,36.333575115966795,21.494698472900392Q36.2519751159668,21.44678847290039,36.1662751159668,21.406778472900392Q36.080575115966795,21.36677847290039,35.99147511596679,21.33503847290039Q35.902475115966794,21.30328847290039,35.8107751159668,21.28009847290039Q35.719075115966795,21.256908472900392,35.6255751159668,21.24246847290039Q35.532175115966794,21.22802847290039,35.4376751159668,21.22247847290039L26.879045115966797,20.71902847290039L26.820275115966798,20.71902847290039Q25.466845115966798,20.71902847290039,24.418562115966797,21.76731547290039Q23.544243115966797,22.64163497290039,23.2679021159668,23.88516847290039L23.251239115966797,23.96014847290039L22.040445115966797,32.43566847290039Z" fill-rule="evenodd" fill="#FCD8DA" fill-opacity="1"/></g><g><path d="M22.604115115966795,102.47277165820313Q22.6202751159668,102.34641265820312,22.6202751159668,102.21902465820312Q22.6202751159668,102.12077095820312,22.610645115966797,102.02299065820313Q22.601015115966796,101.92520965820313,22.581845115966797,101.82884365820313Q22.562675115966798,101.73247865820312,22.534155115966797,101.63845565820313Q22.505635115966797,101.54443265820312,22.468035115966796,101.45365765820313Q22.430435115966798,101.36288365820313,22.384115115966797,101.27623165820313Q22.3378051159668,101.18957465820313,22.283215115966797,101.10788465820312Q22.228625115966796,101.02618465820312,22.166295115966797,100.95023465820313Q22.103965115966798,100.87428465820312,22.034485115966795,100.80481465820313Q21.965015115966796,100.73533465820313,21.889065115966797,100.67300465820313Q21.813115115966795,100.61067465820312,21.731415115966797,100.55608465820312Q21.649725115966795,100.50149465820313,21.563065115966797,100.45518465820312Q21.476415115966798,100.40886465820313,21.385645115966796,100.37126465820313Q21.294865115966797,100.33366465820312,21.200845115966796,100.30514465820312Q21.106825115966796,100.27662465820312,21.010455115966796,100.25745465820313Q20.9140951159668,100.23828465820313,20.8163051159668,100.22865465820313Q20.7185251159668,100.21902465820312,20.6202751159668,100.21902465820312Q20.5299951159668,100.21902465820312,20.440073115966797,100.22715465820312Q20.350155115966796,100.23529465820313,20.261336115966795,100.25149465820313Q20.172517115966798,100.26770465820313,20.085519115966797,100.29184465820313Q19.998521115966795,100.31598465820312,19.914052115966797,100.34786465820312Q19.8295831159668,100.37974465820312,19.748330115966798,100.41910465820312Q19.667077115966798,100.45846465820313,19.589701515966798,100.50498465820313Q19.512325625966795,100.55151465820313,19.439456215966796,100.60481465820313Q19.366587115966798,100.65812465820312,19.2988171159668,100.71777465820313Q19.231047115966796,100.77743465820312,19.168927115966795,100.84294465820312Q19.106807115966795,100.90846465820313,19.050844115966797,100.97931465820312Q18.994880115966797,101.05016465820313,18.9455281159668,101.12576465820312Q18.8961751159668,101.20136465820312,18.853835115966795,101.28110765820313Q18.811495115966796,101.36084965820312,18.776512115966796,101.44408165820313Q18.741529115966795,101.52731365820313,18.714188115966795,101.61335865820313Q18.686847115966795,101.69940465820312,18.667370115966797,101.78756365820313Q18.647892115966798,101.87572265820313,18.636438115966797,101.96527765820312L18.636380115966798,101.96572665820312L17.520275115966797,110.69163465820313L17.520275115966797,110.81902465820312Q17.520275115966797,112.36102465820312,18.4327751159668,113.32152465820312Q19.1261781159668,114.05142465820313,20.106878115966797,114.15742465820313Q20.637975115966796,114.21482465820313,21.159575115966796,114.07092465820313L29.347005115966795,115.20022465820313Q29.482995115966794,115.21902465820312,29.6202751159668,115.21902465820312Q29.718575115966797,115.21902465820312,29.816275115966796,115.20942465820312Q29.914075115966796,115.19972465820312,30.0104751159668,115.18062465820313Q30.106775115966798,115.16142465820312,30.200875115966795,115.13292465820312Q30.294875115966796,115.10442465820313,30.385675115966798,115.06672465820313Q30.476375115966796,115.02922465820312,30.563075115966797,114.98282465820313Q30.649675115966797,114.93652465820313,30.7313751159668,114.88192465820313Q30.813075115966797,114.82732465820312,30.889075115966797,114.76502465820312Q30.964975115966794,114.70272465820312,31.0344751159668,114.63322465820312Q31.103975115966797,114.56372465820313,31.166275115966798,114.48782465820312Q31.228675115966794,114.41182465820313,31.2831751159668,114.33012465820312Q31.3377751159668,114.24842465820312,31.384075115966795,114.16182465820313Q31.430475115966797,114.07512465820312,31.468075115966798,113.98442465820312Q31.505675115966795,113.89362465820312,31.534175115966796,113.79962465820313Q31.562675115966798,113.70552465820313,31.581875115966795,113.60922465820312Q31.600975115966797,113.51282465820313,31.6106751159668,113.41502465820312Q31.6202751159668,113.31722465820313,31.6202751159668,113.21902465820312Q31.6202751159668,113.12932465820313,31.612275115966796,113.04002465820312Q31.604275115966797,112.95072465820313,31.588275115966795,112.86252465820313Q31.572275115966796,112.77422465820312,31.548475115966795,112.68782465820313Q31.524675115966797,112.60132465820313,31.493175115966796,112.51742465820313Q31.4616751159668,112.43342465820312,31.422875115966796,112.35262465820313Q31.384075115966795,112.27182465820313,31.338075115966795,112.19477465820313Q31.2921751159668,112.11776465820313,31.239575115966797,112.04516465820312Q31.186975115966796,111.97256465820313,31.127975115966798,111.90496465820313Q31.069075115966797,111.83736465820313,31.004375115966795,111.77531465820313Q30.939675115966796,111.71325465820313,30.869575115966796,111.65724465820313Q30.799575115966796,111.60123465820313,30.724875115966796,111.55171465820312Q30.650075115966796,111.50218465820312,30.571175115966795,111.45955465820313Q30.492375115966794,111.41691465820313,30.409975115966795,111.38151465820313Q30.327575115966795,111.34611465820312,30.242375115966794,111.31822465820312Q30.157075115966798,111.29033465820312,30.0697751159668,111.27017465820313Q29.982375115966796,111.25002465820313,29.893575115966797,111.23777465820312L29.892575115966796,111.23763465820312L21.6288151159668,110.09781465820312L22.603995115966796,102.47371965820312L22.604115115966795,102.47277165820313L22.604115115966795,102.47277165820313Z" fill-rule="evenodd" fill="#FCD8DA" fill-opacity="1"/></g><g><path d="M172.91757493066407,34.25888465820312L181.43677893066405,35.98300965820312L181.55271893066407,36.02165665820313Q182.89187893066406,36.46804665820312,183.62767893066408,37.61250465820312Q184.36197893066407,38.754774658203125,184.20807893066407,40.13990465820312L183.20367893066407,47.875924658203125L183.20357893066407,47.87662465820313Q183.19197893066405,47.966024658203125,183.17237893066405,48.054024658203126Q183.15277893066406,48.14202465820313,183.12537893066406,48.22792465820312Q183.09787893066405,48.313824658203124,183.06277893066405,48.39682465820312Q183.02777893066406,48.479924658203124,182.98537893066407,48.559524658203124Q182.94297893066405,48.63912465820312,182.89357893066406,48.714524658203125Q182.84417893066407,48.78992465820313,182.78817893066406,48.86062465820312Q182.73227893066405,48.931324658203124,182.67017893066406,48.99672465820312Q182.60797893066407,49.06202465820313,182.54027893066407,49.12152465820313Q182.47254893066406,49.18102465820313,182.39972893066405,49.234224658203125Q182.32691893066405,49.28742465820312,182.24960893066407,49.33382465820313Q182.17230893066406,49.380224658203126,182.09113893066407,49.41942465820313Q182.00996893066406,49.458724658203124,181.92559893066405,49.49052465820313Q181.84122893066407,49.522324658203125,181.75433893066406,49.54642465820312Q181.66744893066405,49.57052465820313,181.57873893066406,49.58662465820312Q181.49003893066407,49.602824658203126,181.40023893066407,49.610924658203125Q181.31043893066408,49.619024658203124,181.22027893066405,49.619024658203124Q181.12201893066407,49.619024658203124,181.02423893066407,49.609424658203125Q180.92645893066407,49.59972465820312,180.83009893066406,49.58062465820312Q180.73372893066406,49.56142465820312,180.63970893066406,49.53292465820313Q180.54567893066405,49.50442465820312,180.45490893066406,49.46682465820312Q180.36413893066407,49.429224658203125,180.27747893066407,49.38282465820313Q180.19082893066405,49.336524658203125,180.10913893066407,49.281924658203124Q180.02743893066406,49.22742465820313,179.95148893066406,49.16502465820312Q179.87553893066405,49.10272465820312,179.80605893066405,49.033224658203125Q179.73658893066406,48.96372465820313,179.67425893066405,48.88782465820312Q179.61191893066407,48.81182465820312,179.55733893066406,48.730124658203124Q179.50274893066407,48.648424658203126,179.45642893066406,48.56182465820312Q179.41011893066405,48.47512465820313,179.37251893066406,48.38442465820312Q179.33491893066406,48.29362465820313,179.30639893066407,48.19962465820313Q179.27786893066406,48.10552465820312,179.25870893066406,48.009224658203124Q179.23953893066405,47.91282465820312,179.22990893066407,47.81502465820313Q179.22027893066405,47.717324658203125,179.22027893066405,47.619024658203124Q179.22027893066405,47.48972465820312,179.23692893066405,47.36142465820313L180.21703893066407,39.817254658203126L172.12413593066407,38.179404658203126L172.12355993066407,38.17928465820312Q172.03951593066407,38.162274658203124,171.95723693066407,38.13813465820313Q171.87495893066406,38.113994658203126,171.79504793066405,38.08290465820313Q171.71513693066407,38.051804658203125,171.63817993066405,38.013994658203124Q171.56122393066406,37.97617465820313,171.48778893066407,37.93190465820312Q171.41434893066406,37.887634658203126,171.34496893066407,37.837244658203126Q171.27558893066407,37.786854658203126,171.21077893066405,37.73071465820313Q171.14596893066405,37.67457465820313,171.08619893066407,37.613094658203124Q171.02642893066405,37.551604658203125,170.97214893066408,37.485234658203126Q170.91785893066407,37.418854658203124,170.86944893066405,37.34808465820313Q170.82104893066406,37.27730465820313,170.77886893066406,37.20264465820313Q170.73669893066406,37.12798365820313,170.70107893066407,37.04998865820313Q170.66544893066407,36.97199265820313,170.63662893066407,36.891234658203125Q170.60780893066405,36.810475658203124,170.58600893066406,36.727546658203124Q170.56420893066405,36.644617658203124,170.54957893066407,36.560126658203124Q170.53495893066406,36.47563665820312,170.52761893066406,36.39020365820313Q170.52027893066406,36.30477165820312,170.52027893066406,36.219024658203125Q170.52027893066406,36.120770958203124,170.52990893066405,36.02299065820313Q170.53953893066407,35.92520965820312,170.55870893066407,35.82884365820313Q170.57787893066407,35.73247865820313,170.60639893066406,35.63845565820313Q170.63491893066407,35.54443265820313,170.67251893066407,35.45365765820313Q170.71011893066407,35.362883658203124,170.75643893066407,35.27623165820312Q170.80274893066405,35.18957465820313,170.85733893066407,35.107884658203126Q170.91192893066406,35.02618465820313,170.97425893066406,34.95023465820312Q171.03658893066407,34.87428465820312,171.10606893066407,34.80481465820313Q171.17553893066406,34.73533465820312,171.25148893066407,34.673004658203126Q171.32743893066407,34.61067465820312,171.40913893066406,34.556084658203126Q171.49082893066407,34.50149465820313,171.57748593066407,34.45518465820312Q171.66413793066405,34.40886465820312,171.75491193066406,34.371264658203124Q171.84568693066407,34.333664658203126,171.93970993066407,34.305144658203126Q172.03373293066406,34.276624658203126,172.13009793066405,34.25745465820312Q172.22646393066407,34.23828465820313,172.32424493066407,34.228654658203126Q172.42202523066408,34.219024658203125,172.52027893066406,34.219024658203125Q172.72062893066405,34.219024658203125,172.91699793066405,34.25876465820313L172.91757493066407,34.25888465820312Z" fill-rule="evenodd" fill="#FCD8DA" fill-opacity="1"/></g><g><path d="M177.71148198242187,116.90643265820313Q177.72028198242188,116.81293515820313,177.72028198242188,116.71902465820312Q177.72028198242188,116.62077095820312,177.71068198242187,116.52299065820313Q177.70098198242187,116.42520965820313,177.68188198242188,116.32884365820313Q177.66268198242187,116.23247865820312,177.63418198242186,116.13845565820313Q177.60568198242188,116.04443265820312,177.5680819824219,115.95365765820313Q177.53048198242186,115.86288365820313,177.4841819824219,115.77623165820313Q177.43778198242188,115.68957465820313,177.3831819824219,115.60788465820312Q177.32868198242187,115.52618465820312,177.26628198242187,115.45023465820313Q177.20398198242188,115.37428465820312,177.13448198242187,115.30481465820313Q177.06498198242187,115.23533465820313,176.98908198242188,115.17300465820313Q176.9130819824219,115.11067465820312,176.83138198242187,115.05608465820312Q176.74978198242187,115.00149465820313,176.6630819824219,114.95518465820312Q176.57648198242188,114.90886465820313,176.48568198242188,114.87126465820313Q176.39488198242188,114.83366465820312,176.30088198242188,114.80514465820312Q176.20688198242186,114.77662465820312,176.11048198242187,114.75745465820313Q176.01408198242189,114.73828465820313,175.91628198242188,114.72865465820313Q175.81858198242188,114.71902465820312,175.72028198242188,114.71902465820312Q175.62788198242188,114.71902465820312,175.53598198242187,114.72754465820313Q175.44398198242186,114.73605465820313,175.3531819824219,114.75301465820313Q175.26234198242187,114.76997465820313,175.17348198242186,114.79522465820313Q175.08463198242188,114.82048465820313,174.99848198242188,114.85382465820312Q174.91233198242188,114.88715465820313,174.82962198242188,114.92829465820313Q174.74691198242186,114.96943465820313,174.66834198242188,115.01802465820313Q174.58978198242187,115.06660465820312,174.51603198242188,115.12223465820313Q174.4422719824219,115.17785465820313,174.37396198242186,115.24003465820313Q174.30565198242186,115.30221465820313,174.24336198242187,115.37043465820312Q174.1810819824219,115.43865465820312,174.12534198242187,115.51231465820312Q174.06961198242186,115.58598465820313,174.0209019824219,115.66447465820312Q173.97219198242186,115.74296665820313,173.93093198242187,115.82561265820313Q173.88966198242187,115.90825865820312,173.85619198242188,115.99435765820313Q173.82272198242188,116.08045565820312,173.79733198242187,116.16927265820313Q173.77194198242188,116.25808965820312,173.75484198242188,116.34886865820313Q173.73774198242188,116.43964765820313,173.72909198242186,116.53161665820312L172.97733198242187,124.51902465820312L165.32028198242188,124.51902465820312Q165.2220282824219,124.51902465820312,165.12424798242188,124.52865465820312Q165.02646698242188,124.53828465820312,164.93010098242186,124.55745465820313Q164.83373598242187,124.57662465820313,164.73971298242188,124.60514465820313Q164.64568998242189,124.63366465820313,164.55491498242188,124.67126465820313Q164.46414098242187,124.70886465820313,164.37748898242188,124.75518465820312Q164.29083198242188,124.80150465820313,164.20914198242187,124.85608465820313Q164.12744198242189,124.91067465820312,164.05149198242188,124.97300465820312Q163.97554198242187,125.03533465820313,163.90607198242188,125.10481465820313Q163.83659198242188,125.17429465820312,163.77426198242188,125.25024465820313Q163.71193198242187,125.32619465820312,163.65734198242188,125.40788465820313Q163.60275198242186,125.48958465820313,163.5564419824219,125.57623465820312Q163.51012198242188,125.66288465820313,163.47252198242188,125.75365465820312Q163.43492198242188,125.84443465820313,163.40640198242187,125.93845465820313Q163.37788198242188,126.03248465820312,163.35871198242188,126.12884465820312Q163.33954198242188,126.22521465820313,163.32991198242186,126.32299465820313Q163.32028198242188,126.42077465820313,163.32028198242188,126.51902465820312Q163.32028198242188,126.61728465820312,163.32991198242186,126.71506465820312Q163.33954198242188,126.81282465820313,163.35871198242188,126.90922465820313Q163.37788198242188,127.00552465820313,163.40640198242187,127.09962465820313Q163.43492198242188,127.19362465820312,163.47252198242188,127.28442465820312Q163.51012198242188,127.37512465820312,163.5564419824219,127.46182465820313Q163.60275198242186,127.54842465820312,163.65734198242188,127.63012465820313Q163.71193198242187,127.71182465820313,163.77426198242188,127.78782465820312Q163.83659198242188,127.86372465820313,163.90607198242188,127.93322465820313Q163.97554198242187,128.00272465820314,164.05149198242188,128.06502465820313Q164.12744198242189,128.12742465820313,164.20914198242187,128.18192465820312Q164.29083198242188,128.23652465820314,164.37748898242188,128.28282465820314Q164.46414098242187,128.32922465820312,164.55491498242188,128.36682465820311Q164.64568998242189,128.4044246582031,164.73971298242188,128.43292465820312Q164.83373598242187,128.46142465820313,164.93010098242186,128.4806246582031Q165.02646698242188,128.49972465820312,165.12424798242188,128.50942465820313Q165.2220282824219,128.51902465820314,165.32028198242188,128.51902465820314L172.93847198242187,128.51902465820314Q174.3568519824219,128.73912465820314,175.53968198242188,127.82932465820312Q176.72338198242187,126.91872465820313,176.90488198242187,125.46711465820313L176.90858198242188,125.43682465820312L177.71148198242187,116.90643265820313L177.71148198242187,116.90643265820313Z" fill-rule="evenodd" fill="#FCD8DA" fill-opacity="1"/></g></g></g><g transform="matrix(0.9947680830955505,0.1021595448255539,-0.1021595448255539,0.9947680830955505,6.011443063616753,-3.379524350166321)"><path d="M50.664,65.144Q51.408,65.48,51.84,66.14Q52.272,66.8,52.32,67.544Q52.367999999999995,68.288,52.164,68.984Q51.96,69.68,51.444,70.196Q50.928,70.712,50.232,70.832Q49.872,70.904,49.344,70.952Q48.816,71,48.588,71.036Q48.36,71.072,48.108000000000004,71.18Q47.856,71.288,47.76,71.528Q47.664,71.768,47.64,72.176Q47.544,75.2,47.664,80.84Q47.664,81.032,47.688,81.392Q47.688,82.112,47.7,82.80799999999999Q47.712,83.504,47.544,84.128Q47.376,84.752,47.04,85.208Q46.704,85.664,46.007999999999996,85.88Q45.312,86.096,44.28,86.096Q43.704,86.096,43.236,85.988Q42.768,85.88,42.432,85.652Q42.096000000000004,85.424,41.856,85.196Q41.616,84.968,41.46,84.572Q41.304,84.176,41.22,83.9Q41.136,83.624,41.088,83.108Q41.04,82.592,41.04,82.292Q41.04,81.992,41.04,81.416Q41.04,81.248,41.04,81.176Q41.04,79.208,41.04,78.248Q41.04,77.288,41.04,75.27199999999999Q41.04,73.256,41.04,72.272Q41.04,71.888,40.944,71.648Q40.848,71.408,40.584,71.288Q40.32,71.168,40.092,71.132Q39.864,71.096,39.36,71.048Q38.856,71,38.52,70.928Q37.824,70.80799999999999,37.296,70.292Q36.768,69.776,36.576,69.068Q36.384,68.36,36.444,67.616Q36.504,66.872,36.996,66.2Q37.488,65.528,38.328,65.19200000000001Q40.008,64.52,44.496,64.472Q48.984,64.424,50.664,65.144ZM42.048,67.496Q42.528,67.472,42.876,67.196Q43.224000000000004,66.92,43.284,66.596Q43.344,66.272,43.008,65.984Q42.672,65.696,41.976,65.648Q40.944,65.576,39.924,65.84Q38.903999999999996,66.104,38.232,66.74Q37.56,67.376,37.728,68.216Q37.824,68.72,38.4,68.936Q38.976,69.152,39.432,68.792Q40.92,67.568,42.048,67.496ZM69.648,72.29599999999999Q69.744,75.32,69.672,78.368Q69.672,78.632,69.66,79.436Q69.648,80.24,69.636,80.684Q69.624,81.128,69.55199999999999,81.932Q69.47999999999999,82.736,69.336,83.21600000000001Q69.19200000000001,83.696,68.928,84.29599999999999Q68.664,84.896,68.28,85.232Q67.896,85.568,67.29599999999999,85.79599999999999Q66.696,86.024,65.952,86.024Q65.376,86.024,64.896,85.904Q64.416,85.78399999999999,64.092,85.52Q63.768,85.256,63.528,84.992Q63.288,84.72800000000001,63.156,84.28399999999999Q63.024,83.84,62.952,83.504Q62.879999999999995,83.168,62.879999999999995,82.628Q62.879999999999995,82.088,62.879999999999995,81.752Q62.879999999999995,81.416,62.879999999999995,80.84Q62.879999999999995,80.264,62.879999999999995,80Q62.879999999999995,78.992,62.394,78.548Q61.908,78.104,61.41,78.536Q60.912,78.968,60.864000000000004,80.096Q60.84,80.6,60.864000000000004,81.164Q60.888000000000005,81.72800000000001,60.852000000000004,82.304Q60.816,82.88,60.744,83.408Q60.672,83.936,60.468,84.404Q60.263999999999996,84.872,59.94,85.232Q59.616,85.592,59.076,85.80799999999999Q58.536,86.024,57.792,86.024Q57.216,86.024,56.724000000000004,85.8924Q56.232,85.7604,55.884,85.5448Q55.536,85.3288,55.260000000000005,84.9571Q54.984,84.5855,54.804,84.2379Q54.623999999999995,83.8902,54.492000000000004,83.363Q54.36,82.8358,54.3,82.4401Q54.239999999999995,82.0445,54.204,81.4692Q54.168,80.89359999999999,54.156,80.5344Q54.144,80.1747,54.144,79.6235Q54.144,79.0719,54.144,78.8563Q54.072,75.6916,54.120000000000005,72.5034Q54.144,72.3594,54.144,71.7481Q54.144,71.1369,54.156,70.8132Q54.168,70.4896,54.204,69.8184Q54.239999999999995,69.1471,54.3,68.7515Q54.36,68.3559,54.480000000000004,67.7446Q54.6,67.1334,54.768,66.76175Q54.936,66.39013,55.188,65.94687Q55.44,65.50325,55.751999999999995,65.25163Q56.064,64.99962,56.495999999999995,64.832Q56.928,64.664,57.432,64.664Q58.464,64.664,59.172,65.048Q59.879999999999995,65.432,60.204,66.068Q60.528,66.70400000000001,60.72,67.532Q60.912,68.36,60.912,69.212Q60.912,70.064,60.912,70.904Q60.912,71.216,60.912,71.384Q60.912,72.248,61.403999999999996,72.62Q61.896,72.992,62.4,72.62Q62.903999999999996,72.248,62.903999999999996,71.288Q62.903999999999996,70.928,62.903999999999996,70.232Q62.903999999999996,69.536,62.903999999999996,69.092Q62.903999999999996,68.648,62.976,68Q63.048,67.352,63.168,66.932Q63.288,66.512,63.54,66.032Q63.792,65.55199999999999,64.152,65.276Q64.512,65,65.064,64.832Q65.616,64.664,66.336,64.664Q67.008,64.664,67.524,64.952Q68.03999999999999,65.24,68.376,65.636Q68.712,66.032,68.964,66.716Q69.21600000000001,67.4,69.336,67.94Q69.456,68.48,69.52799999999999,69.32Q69.6,70.16,69.612,70.592Q69.624,71.024,69.648,71.768Q69.648,72.128,69.648,72.29599999999999ZM57.36,68.936Q57.456,68.264,57.672,67.784Q57.888000000000005,67.304,58.08,67.112Q58.272,66.92,58.416,66.728Q58.56,66.536,58.536,66.344Q58.488,65.984,58.152,65.756Q57.816,65.528,57.36,65.576Q56.352000000000004,65.696,55.896,66.584Q55.44,67.472,55.44,68.55199999999999Q55.488,69.224,55.932,69.548Q56.376000000000005,69.872,56.82,69.69200000000001Q57.263999999999996,69.512,57.36,68.936ZM65.928,68.936Q66.024,68.264,66.24,67.784Q66.456,67.304,66.66,67.112Q66.864,66.92,66.996,66.728Q67.128,66.536,67.104,66.344Q67.056,65.984,66.72,65.756Q66.384,65.528,65.928,65.576Q64.92,65.696,64.464,66.584Q64.008,67.472,64.008,68.55199999999999Q64.056,69.224,64.5,69.548Q64.944,69.872,65.4,69.69200000000001Q65.856,69.512,65.928,68.936ZM87.336,82.4Q87.648,84.392,86.988,85.232Q86.328,86.072,84.36,86.072Q82.77600000000001,86.072,82.104,85.4Q81.432,84.72800000000001,81.024,82.616Q80.904,81.896,80.256,81.608Q79.608,81.32,78.96000000000001,81.608Q78.312,81.896,78.168,82.616Q77.78399999999999,84.72800000000001,77.1,85.4Q76.416,86.072,74.832,86.072Q72.864,86.072,72.21600000000001,85.232Q71.568,84.392,71.88,82.4Q71.88,82.328,72.108,80.684Q72.336,79.03999999999999,72.468,78.29599999999999Q72.6,77.55199999999999,72.912,75.848Q73.22399999999999,74.144,73.536,73.02799999999999Q73.848,71.912,74.28,70.496Q74.712,69.08,75.25200000000001,67.976Q75.792,66.872,76.416,66.056Q77.112,65.12,78.36,64.784Q79.608,64.44800000000001,80.844,64.784Q82.08,65.12,82.8,66.056Q83.4,66.872,83.952,67.976Q84.50399999999999,69.08,84.936,70.508Q85.368,71.936,85.68,73.03999999999999Q85.99199999999999,74.144,86.292,75.848Q86.592,77.55199999999999,86.72399999999999,78.29599999999999Q86.856,79.03999999999999,87.096,80.684Q87.336,82.328,87.336,82.4ZM77.424,70.016Q77.592,69.8,77.916,69.26Q78.24000000000001,68.72,78.588,68.336Q78.936,67.952,79.44,67.76Q80.184,67.496,80.352,66.968Q80.52000000000001,66.44,80.124,66.056Q79.72800000000001,65.672,79.056,65.744Q78.024,65.864,77.196,66.8Q76.368,67.736,76.032,69.008Q75.864,69.608,76.104,69.968Q76.344,70.328,76.71600000000001,70.328Q77.088,70.328,77.424,70.016ZM78.768,75.464Q78.744,75.8,79.176,75.932Q79.608,76.064,80.03999999999999,75.932Q80.47200000000001,75.8,80.424,75.464Q80.352,74.55199999999999,80.184,73.964Q80.01599999999999,73.376,79.812,73.208Q79.608,73.03999999999999,79.404,73.208Q79.2,73.376,79.032,73.964Q78.864,74.55199999999999,78.768,75.464ZM105.072,82.8043Q105.264,83.8857,104.736,84.6789Q104.208,85.4716,103.332,85.76Q102.456,86.048,101.4109,85.928Q100.3661,85.80799999999999,99.61840000000001,85.2073Q99.2809,84.94290000000001,98.931,84.52250000000001Q98.58109999999999,84.1017,98.388,83.8018Q98.1952,83.5014,97.773,82.8046Q97.3511,82.1075,97.1584,81.7951Q96.77250000000001,81.1944,96.53139999999999,80.9664Q96.2902,80.738,96.1211,80.93039999999999Q95.9524,81.1224,95.88,81.81909999999999Q95.856,82.1075,95.856,82.6602Q95.856,83.213,95.832,83.4534Q95.80799999999999,83.6934,95.74799999999999,84.11410000000001Q95.688,84.53450000000001,95.58,84.7389Q95.47200000000001,84.94290000000001,95.268,85.2192Q95.064,85.4956,94.76400000000001,85.6156Q94.464,85.7356,94.044,85.844Q93.624,85.952,93.048,85.952Q92.424,85.952,91.884,85.84440000000001Q91.344,85.7364,90.84,85.4727Q90.336,85.2087,90.036,84.6695Q89.73599999999999,84.12989999999999,89.712,83.363Q89.49600000000001,78.3046,89.688,69.2428Q89.688,68.3559,89.74799999999999,67.78059999999999Q89.80799999999999,67.2054,89.988,66.57013Q90.168,65.9345,90.49199999999999,65.57525Q90.816,65.21563,91.392,64.976Q91.968,64.736,92.78399999999999,64.736Q93.288,64.736,93.696,64.8185Q94.104,64.90063,94.404,64.9985Q94.70400000000001,65.096,94.932,65.324Q95.16,65.55199999999999,95.316,65.72Q95.47200000000001,65.888,95.58,66.26Q95.688,66.632,95.74799999999999,66.86Q95.80799999999999,67.088,95.832,67.58Q95.856,68.072,95.856,68.348Q95.856,68.624,95.856,69.2Q95.856,69.224,95.856,69.248Q95.856,70.088,96.0352,70.328Q96.2149,70.568,96.4901,70.328Q96.76570000000001,70.088,97.0766,69.536Q97.1486,69.44,97.26820000000001,69.224Q97.84270000000001,68.168,98.2016,67.604Q98.5609,67.03999999999999,99.1234,66.30799999999999Q99.6859,65.576,100.1407,65.336Q100.8589,64.928,101.7326,64.928Q102.6064,64.928,103.2885,65.31237Q103.9706,65.69675,104.4731,66.3335Q104.976,66.97025,104.976,67.8114Q104.976,68.6521,104.424,69.5893Q103.8,70.4064,102.792,71.7039Q102.168,72.5206,101.892,72.857Q101.616,73.1934,101.292,73.7701Q100.968,74.3469,100.872,74.5273Q100.776,74.7072,100.776,75.2Q100.776,75.69239999999999,100.86,75.8727Q100.944,76.0527,101.256,76.64150000000001Q101.568,77.2299,101.832,77.5786Q102.096,77.92699999999999,102.72,78.7437Q103.296,79.5365,103.632,79.9932Q104.832,81.6511,105.072,82.8043ZM92.592,68.936Q92.688,68.264,92.904,67.784Q93.12,67.304,93.324,67.112Q93.52799999999999,66.92,93.66,66.728Q93.792,66.536,93.768,66.344Q93.768,65.984,93.4226,65.756Q93.0772,65.528,92.625,65.576Q91.6245,65.696,91.1482,66.584Q90.672,67.472,90.672,68.55199999999999Q90.72,69.224,91.164,69.548Q91.608,69.872,92.064,69.69200000000001Q92.52000000000001,69.512,92.592,68.936ZM99.888,69.632Q100.032,69.488,100.356,69.176Q100.68,68.864,100.848,68.696Q101.016,68.528,101.34,68.324Q101.664,68.12,102.024,68Q102.984,67.64,102.84,66.92Q102.744,66.32,102.048,66.152Q101.448,65.984,100.776,66.344Q100.152,66.68,99.55199999999999,67.412Q98.952,68.144,98.75999999999999,68.864Q98.568,69.488,99.012,69.776Q99.456,70.064,99.888,69.632ZM125.688,66.392Q126.216,65.696,126.888,65.288Q127.56,64.88,128.22,64.796Q128.88,64.712,129.54000000000002,64.856Q130.2,65,130.68,65.408Q131.16,65.816,131.48399999999998,66.404Q131.808,66.992,131.808,67.784Q131.808,68.576,131.47199999999998,69.488Q131.208,70.1353,130.452,71.2498Q129.696,72.3643,128.64,73.7544Q127.584,75.14410000000001,127.416,75.3597Q127.224,75.6234,127.092,75.935Q126.96,76.2463,126.888,76.6659Q126.816,77.0851,126.768,77.3967Q126.72,77.7084,126.72,78.2716Q126.72,78.83449999999999,126.72,79.0861Q126.72,79.3377,126.744,79.985Q126.768,80.6319,126.768,80.79990000000001Q126.744,81.5667,126.78,82.3096Q126.816,83.0525,126.636,83.7354Q126.456,84.4182,126.144,84.9335Q125.832,85.4487,125.124,85.7604Q124.416,86.072,123.36,86.072Q122.688,86.072,122.172,85.916Q121.656,85.76,121.32,85.532Q120.984,85.304,120.744,84.884Q120.504,84.464,120.372,84.116Q120.24,83.768,120.168,83.168Q120.096,82.568,120.084,82.184Q120.072,81.8,120.048,81.128Q120.048,80.888,120.048,80.276Q120.048,79.664,120.036,79.328Q120.024,78.992,120,78.428Q119.976,77.864,119.928,77.504Q119.88,77.144,119.808,76.712Q119.736,76.28,119.604,75.968Q119.472,75.656,119.328,75.44Q115.728,70.496,115.08,68.816Q114.792,68,114.792,67.28Q114.792,66.56,115.14,66.056Q115.488,65.55199999999999,115.992,65.20400000000001Q116.496,64.856,117.168,64.76Q117.84,64.664,118.5,64.76Q119.16,64.856,119.82,65.264Q120.48,65.672,120.96,66.32Q121.512,67.088,122.064,68Q122.616,68.912,122.868,69.29599999999999Q123.12,69.68,123.312,69.68Q123.552,69.68,123.816,69.32Q124.08,68.96000000000001,124.62,68.048Q125.16,67.136,125.688,66.392ZM117.648,70.688Q118.176,71.072,118.584,70.748Q118.992,70.424,118.728,69.872Q118.656,69.68,118.452,69.284Q118.248,68.888,118.164,68.66Q118.08,68.432,117.984,68.06Q117.888,67.688,117.888,67.328Q117.888,66.29599999999999,117.168,66.176Q116.52,66.08,116.136,66.752Q115.848,67.256,115.944,67.928Q116.064,68.648,116.556,69.464Q117.048,70.28,117.648,70.688ZM128.4,67.736Q128.784,67.4,128.844,67.004Q128.904,66.608,128.664,66.356Q128.424,66.104,128.064,66.008Q127.704,65.912,127.296,66.2Q126.696,66.56,126.072,67.46000000000001Q125.448,68.36,125.28,69.104Q125.136,69.752,125.64,70.05199999999999Q126.144,70.352,126.528,69.872Q126.648,69.752,127.02,69.26Q127.392,68.768,127.704,68.408Q128.01600000000002,68.048,128.4,67.736ZM145.589,66.68Q147.074,68.312,147.865,70.868Q148.656,73.424,148.656,76.004Q148.656,78.584,147.78,81.008Q146.904,83.432,145.272,84.776Q143.54399999999998,86.19200000000001,140.7,86.19200000000001Q137.856,86.19200000000001,136.10399999999998,84.776Q134.47199999999998,83.432,133.596,81.008Q132.72,78.584,132.72,76.004Q132.72,73.424,133.5109,70.868Q134.30180000000001,68.312,135.7875,66.68Q137.08100000000002,65.24,138.87900000000002,64.724Q140.676,64.208,142.473,64.724Q144.26999999999998,65.24,145.589,66.68ZM136.94400000000002,69.8Q136.99200000000002,69.752,137.064,69.656Q137.56799999999998,69.08,137.868,68.78Q138.168,68.48,138.78,68.12Q139.392,67.76,140.136,67.592Q140.61599999999999,67.496,140.892,67.232Q141.168,66.968,141.168,66.668Q141.168,66.368,140.988,66.104Q140.808,65.84,140.47199999999998,65.768Q139.07999999999998,65.456,137.51999999999998,66.56Q135.95999999999998,67.664,135.72,69.176Q135.624,69.824,136.07999999999998,70.05199999999999Q136.536,70.28,136.94400000000002,69.8ZM142.176,75.92Q142.272,73.856,141.816,72.69200000000001Q141.36,71.528,140.688,71.528Q140.01600000000002,71.528,139.56,72.67660000000001Q139.10399999999998,73.8249,139.224,75.8349Q139.296,77.5096,139.728,78.419Q140.16,79.328,140.712,79.328Q141.24,79.328,141.66,78.428Q142.07999999999998,77.52799999999999,142.176,75.92ZM166.488,68.48Q166.488,69.824,166.524,71.84Q166.56,73.856,166.56,75.008Q166.56,76.16,166.476,77.564Q166.392,78.968,166.116,80.048Q165.84,81.128,165.36,82.064Q163.152,86.288,158.483,86.21600000000001Q156.48000000000002,86.19200000000001,154.788,85.256Q153.096,84.32,152.064,82.616Q151.656,81.968,151.404,81.176Q151.152,80.384,151.00799999999998,79.46000000000001Q150.864,78.536,150.804,77.408Q150.744,76.28,150.744,74.936Q150.744,73.592,150.732,71.984Q150.72,70.376,150.72,68.48Q150.72,66.70400000000001,151.692,65.768Q152.664,64.832,154.152,64.832Q155.784,64.832,156.54000000000002,65.7215Q157.296,66.611,157.296,68.5584Q157.296,75.2176,157.488,77.333Q157.584,78.3909,157.89600000000002,78.7516Q158.208,79.112,158.688,79.112Q159.72,79.112,159.864,77.1714Q159.936,76.4045,159.936,75.3264Q159.936,74.2482,159.936,73.1461Q159.936,72.044,159.936,71.1455Q159.936,70.247,159.936,69.4445Q159.936,68.6416,159.936,68.54560000000001Q159.936,66.605,160.68,65.7185Q161.424,64.832,163.05599999999998,64.832Q164.544,64.832,165.528,65.768Q166.512,66.70400000000001,166.488,68.48ZM153.648,69.08Q153.744,68.408,153.95999999999998,67.928Q154.176,67.44800000000001,154.368,67.256Q154.56,67.064,154.704,66.86Q154.848,66.656,154.824,66.464Q154.776,66.128,154.44,65.9Q154.10399999999998,65.672,153.648,65.72Q152.64,65.816,152.184,66.70400000000001Q151.728,67.592,151.728,68.696Q151.776,69.344,152.22,69.668Q152.664,69.992,153.108,69.812Q153.55200000000002,69.632,153.648,69.08ZM162.744,69.08Q162.84,68.408,163.05599999999998,67.928Q163.272,67.44800000000001,163.476,67.256Q163.68,67.064,163.812,66.86Q163.94400000000002,66.656,163.94400000000002,66.464Q163.89600000000002,66.128,163.56,65.9Q163.224,65.672,162.768,65.72Q161.736,65.816,161.256,66.70400000000001Q160.776,67.592,160.848,68.696Q160.872,69.344,161.316,69.668Q161.76,69.992,162.216,69.812Q162.672,69.632,162.744,69.08Z" fill="#FCD8DA" fill-opacity="1"/></g></g></svg>