<?xml version="1.0" encoding="UTF-8"?>
<svg xmlns="http://www.w3.org/2000/svg" version="1.1" viewBox="0 0 333 300">
  <defs>
    <style>
      .cls-1 {
        fill: #fff;
      }

      .cls-2 {
        fill: #c27600;
      }

      .cls-3 {
        fill: none;
      }

      .cls-3, .cls-4, .cls-5, .cls-6 {
        stroke: #000;
        stroke-linecap: round;
        stroke-linejoin: round;
        stroke-width: 3px;
      }

      .cls-4 {
        fill: #68cea5;
      }

      .cls-5 {
        fill: #f8c668;
      }

      .cls-6 {
        fill: #fcaccf;
      }

      .cls-7 {
        fill: #95b65c;
      }
      
      #left-arm {
  animation: rotation 3s infinite;
  }

@keyframes rotation {
  0% {
    transform: rotate(0deg);
  }
  50% {
    transform: rotate(-5deg);
  }
  100% {
    transform: rotate(0deg);
  }
}

#leap {
  animation: leap-rotation 7s linear infinite;
  transform-origin: 178.3px 102.1px; /* #one 요소의 타원 중심 */
}

@keyframes leap-rotation {
  0% {
    transform: rotate(0deg);
  }
  100% {
    transform: rotate(360deg);
  }
}
</style>
  </defs>
  <!-- Generator: Adobe Illustrator 28.6.0, SVG Export Plug-In . SVG Version: 1.2.0 Build 709)  -->
  <g>
    <g id="shoes">
      <path class="cls-4" d="M203.8,218.8s44.2-38.2,51.5-12.6c0,0,5.7,26.4-52.3,15.8"/>
      <path class="cls-4" d="M156.8,226.5c-2.8-13.1-9.2-22.1-16.1-22.6-.6,0-3.1-.2-4.5,1.3-3,3.1.4,11.1,3.2,15.3,4.3,6.4,10.7,9.1,14.4,10.2"/>
      <path class="cls-3" d="M206,220.3s19.5-9.5,28.9-8.8,1.5,0,1.5,0"/>
      <path class="cls-3" d="M144.1,214.6s9.6,7.9,10.7,11.8c1.1,4,1.1,3.6,1.1,3.6"/>
      <path class="cls-4" d="M203.9,172.3s.6,69.6-11.9,80.5c0,0-10.3-2.1-11.3-5.1,0,0,20.8-64.2,7.8-85.6l15.6,4.1-.2,6.1Z"/>
      <path class="cls-4" d="M174,172.6s-.5,65.8-10.5,79.7c0,0-9.8-1.7-11.2-5.9,0,0,14-50.9,9.6-74-4.4-23.1.6-.8.6-.8l11.6,1Z"/>
      <g>
        <path d="M142.7,271.9c-.4,1-.3,1.9.3,2.7,1.2,1.7,4.3,2,5.8,2h0c6.2,4,13.4,5.3,19.9,5.4s10-.6,13.5-1.3c1-.2,1.9-.6,2.7-1.2,0-.3,0-.5.2-.8.2-.5.7-.8,1.3-.8.4-.6.7-1.3.8-2.1-.3,0-.7-.2-1-.2-.8-.2-1.3-1-1.1-1.8.2-.7.8-1.1,1.5-1.1l-.9-.8c-.1.1-.3.2-.4.3,0,0-.4.2-.9.4v1.8c.1,1.6-1,3-2.6,3.3-7.3,1.5-21.2,3-31.6-3.9-.2-.2-.5-.3-.9-.3-1.5,0-3.3-.3-3.8-.6.2-.5.4-1,.5-1.5h-1c-.8-.1-1.4-.8-1.4-1.6v-1.5c-.5.3-.8.9-.7,1.5,0,.2.1.4.2.6,0,.2-.2.7-.4,1.4Z"/>
        <path d="M143.9,250.7l-.2,17.7c.2,0,.3-.2.5-.2.6,0,1.2.2,1.6.6,0,.1.1.2.2.3l.7-.6.2-15.5c-1.2-1.1-2-2.3-2.4-3.5-.3.3-.5.7-.5,1.1Z"/>
        <path d="M144.1,246.2c-.2,1.1-.1,2.2.3,3.4.3-.2.6-.4,1-.4s.4,0,.5.1c-.5-1-.6-2-.4-2.8.6-2.5,4.1-3.7,5-4l2.2-.3v4c0,0,0,0,0,.1.3,2,10.9,6,10.9,6l3-3.8c1.3.3,3.3,2.9,3.2,5.1.3-.5.9-.7,1.5-.6,0-.5-.1-.9-.3-1.4-.7-2.2-2.5-4.3-4.1-4.7-.6-.1-1.2,0-1.5.5l-2.3,3c-3.9-1.5-8.1-3.5-8.9-4.5v-3.7c0-.4-.1-.9-.5-1.2-.3-.3-.8-.4-1.2-.4l-2.2.4c0,0-.2,0-.2,0-2,.6-5.3,2.1-6,5Z"/>
        <path d="M143.7,268.4v1.5c0,.8.6,1.5,1.4,1.5h1c.2-.9.3-1.6,0-2.3,0-.1-.1-.2-.2-.3-.4-.5-1-.7-1.6-.6-.2,0-.4,0-.5.2Z"/>
        <path d="M145.4,249.2c-.4,0-.7.1-1,.4.5,1.2,1.3,2.4,2.4,3.5v-2.2c-.4-.5-.7-1-.9-1.5-.2,0-.3-.1-.5-.1Z"/>
        <path d="M145.6,246.5c-.2.8,0,1.8.4,2.8.6.2,1,.8.9,1.4h0c1.6,2.1,4.5,4,8.5,5,0,0,.1,0,.2,0,.6-.3,1.4-.2,1.9.4,7.9,1.6,11.2.4,12.1-1.4h0c0-.2,0-.5,0-.7,0-.2.1-.3.2-.4.2-2.2-1.9-4.8-3.2-5.1l-3,3.8s-10.6-3.9-10.9-6c0,0,0,0,0-.1v-4c0,0-2.1.3-2.1.3-.9.3-4.4,1.5-5,4ZM155.8,254.3c-6.1-1.4-9.2-5.4-8.7-7.4.3-1.3,2.3-2.3,3.9-2.8h.3s0,2.2,0,2.2c0,.1,0,.3,0,.4.3,1.9,4.3,4.3,11.9,7.1.6.2,1.3,0,1.7-.5l2.2-2.8c.7.8,1.6,2.3,1.3,3.4-.4,1.5-3.9,2.5-12.5.4Z"/>
        <path class="cls-2" d="M146,271.5c-.1.4-.3.9-.5,1.5.5.4,2.3.7,3.8.6.3,0,.6,0,.9.3,10.4,6.9,24.2,5.4,31.6,3.9,1.6-.3,2.7-1.7,2.6-3.3v-1.8c-2.4,1.1-9.2,3.7-17.9,3.6s-11.4-1.3-17.7-4.5l-2.7-.2Z"/>
        <path d="M146.7,268.5l-.7.6c.3.6.3,1.4,0,2.3l2.7.2c6.3,3.2,12.4,4.4,17.7,4.5,8.7.2,15.4-2.5,17.8-3.6v-.5c0-.8.6-1.5,1.4-1.5.2,0,.3,0,.4,0,.8-2.5.6-4.9-.5-7.2-.4-.9-1-1.7-1.6-2.5-.2.2-.4.3-.7.3s-.4,0-.6-.2l-8.1-5.7c-.3-.2-.4-.5-.4-.8v-.5c-1.5-.7-2.6-1-2.7-1.1,0,0,0,0-.1,0,0,1.1-.2,2.1-.8,2.9h0c0,0,9.6,3.2,12.3,8.8.8,1.6.9,3.2.4,5-2.9,1.3-17.8,7.4-33.4-.9-.2,0-.4-.1-.6-.2l-2.6-.2Z"/>
        <path d="M146,249.3c.2.5.6,1,.9,1.5h0c0-.7-.4-1.3-.9-1.5Z"/>
        <path d="M146.9,250.8v2.2c1.7,1.6,4.1,3,7.2,3.9.6-.6,1.2-1,1.3-1.1h.2c0,0-.1-.1-.2-.1-4-1-6.9-2.9-8.5-4.9Z"/>
        <path class="cls-7" d="M147,246.9c-.5,2.1,2.7,6,8.7,7.4,8.6,2,12.1,1,12.5-.4.3-1.1-.5-2.6-1.3-3.4l-2.2,2.8c-.4.5-1.1.7-1.7.5-7.6-2.8-11.6-5.2-11.9-7.1,0-.1,0-.3,0-.4v-2.2s-.3,0-.3,0c-1.6.5-3.6,1.6-3.9,2.8Z"/>
        <path class="cls-7" d="M146.9,253l-.2,15.5,2.6.2c.2,0,.4,0,.6.2,15.6,8.2,30.5,2.2,33.4.9.5-1.7.4-3.4-.4-5-2.7-5.6-12.2-8.8-12.3-8.8h0c-.1.2-.3.3-.4.5-1.3,1.4-3.5,2-6.7,2s-3.6-.3-5.8-.7c-.1.2-.3.4-.5.6-.3.2-1.7,1.3-1.8,2.4-.1.8-.8,1.3-1.5,1.3s-.1,0-.2,0c-.8-.1-1.4-.9-1.3-1.7.2-1.4,1.1-2.6,1.8-3.4-3.1-.9-5.5-2.3-7.2-3.9Z"/>
        <path d="M152.3,260.3c-.1.8.4,1.6,1.3,1.7,0,0,.1,0,.2,0,.7,0,1.4-.5,1.5-1.3.2-1.1,1.5-2.2,1.8-2.4.2-.2.4-.4.5-.6-.8-.2-1.7-.3-2.5-.6-.3,0-.6-.2-.9-.2-.8.8-1.6,2-1.8,3.4Z"/>
        <path d="M154.1,256.9c.3,0,.6.2.9.2.9.2,1.7.4,2.5.6.2-.5.2-1-.1-1.5,0,0,0,0,0,0-.6-.1-1.2-.3-1.9-.4h-.2c-.1.2-.7.6-1.3,1.2Z"/>
        <path d="M157.4,256.2c-.4-.6-1.2-.7-1.9-.4.6.2,1.3.3,1.9.4Z"/>
        <path d="M157.4,256.2s0,0,0,0c.3.5.3,1,.1,1.5,2.2.4,4.2.7,5.8.7,3.2,0,5.4-.6,6.7-2,.2-.2.3-.3.4-.5-.6-.2-.9-.7-1-1.2-.9,1.9-4.2,3.1-12.1,1.4Z"/>
        <path d="M169.6,254.1c0,.2,0,.4,0,.7.2-.3.3-.7.3-1.1-.1.1-.2.3-.2.4Z"/>
        <path d="M169.5,254.7h0c0,.6.5,1,1,1.2.6-.8.8-1.8.8-2.9-.6-.1-1.2,0-1.5.6,0,.4-.1.8-.3,1.1Z"/>
        <path d="M173.8,248.1c0,.6.1,1.2.4,1.7,0-.3.3-.5.5-.6.3-.1.6-.1.8,0-.2-.4-.2-.7-.2-1.1,0-4.2,4.3-5.1,4.3-5.1h1.6s-.5,5-.5,5c1,1.4,11.9,4.8,11.9,4.8l4.1-4.4s3.4,10.9-9.8,7.8c0,0,0,.1,0,.2,0,.3,0,.6-.2.9l-.3.4c1.6.4,3,.6,4.3.6,2.6,0,4.6-.6,6-2.1.3-.3.5-.6.7-.9,0-.2,0-.4,0-.6,0-.4.3-.8.7-1,.8-2.7,0-5.5-.1-5.7-.2-.5-.6-.9-1.1-1-.5-.1-1.1,0-1.4.4l-3.5,3.7c-4-1.3-8.4-2.9-9.9-3.7l.4-4.2c0-.4,0-.8-.4-1.1-.3-.3-.7-.5-1.1-.5h-1.6c-.1,0-.2,0-.3,0-1.9.4-5.4,2.2-5.5,6.5Z"/>
        <path d="M174.1,250.1v4c2.8,1.2,7.1,3.5,9.9,6.8,0,0,0,0,0,0l2.5-3.1s0,0,0,0c0,0,0,0-.1,0-.8-.3-2.1-.8-3.6-1.4.6.3,1.2.6,1.8.9l-1.4,1.7-6.9-4.8v-1.7c-.9-.8-1.6-1.6-2-2.5,0,0,0,.2,0,.3Z"/>
        <path d="M174.2,249.8h0c.4.9,1.1,1.8,2,2.5v-.2c1.4,1,2.9,2,4.4,2.9.7.4,1.4.8,2.1,1.2,0,0,0,0,0,0,1.5.7,2.8,1.1,3.6,1.4,0,0,0,0,.1,0,0,0,0,0,0,0l.3-.4c.2-.2.3-.6.2-.9,0,0,0-.2,0-.2h-.1s-9.7-3.4-11.3-7.1c-.3-.1-.6-.1-.8,0-.3.1-.4.3-.5.6Z"/>
        <path d="M174.2,254.1v.5c0,.3.2.6.4.8l8.1,5.7c.2.1.4.2.6.2s.5,0,.7-.3c-2.7-3.3-7-5.6-9.8-6.8Z"/>
        <path d="M175.3,248.1c0,.4,0,.7.2,1.1,0,0,.2,0,.2.1,1.8,1.5,3.8,2.8,5.8,4,1.6.9,3.2,1.8,4.9,2.5.2,0,.4.2.5.4,13.1,3.1,9.8-7.8,9.8-7.8l-4.1,4.4s-10.9-3.4-11.9-4.8l.5-5h-1.6s-4.2.8-4.3,5ZM176.8,248.2c0-2.3,1.9-3.2,2.7-3.5l-.3,3.3c0,.3,0,.7.3,1,1.1,1.5,7.5,3.8,12.7,5.4.5.2,1.1,0,1.5-.4l1.9-2c0,.9-.3,1.7-.9,2.3-1.2,1.3-3.8,1.5-7.4.6-5.1-1.8-10.5-4.9-10.5-6.7Z"/>
        <path d="M175.8,249.3c0,0-.1-.1-.2-.1,1.6,3.8,11.3,7.1,11.3,7.1h.1c-.1-.2-.3-.3-.5-.4-1.7-.7-3.3-1.6-4.9-2.5-2-1.2-4-2.5-5.8-4Z"/>
        <path d="M176.1,252.2v.2c1.8,1.6,4.3,2.9,6.5,3.9-.7-.4-1.4-.8-2.1-1.2-1.5-.9-3-1.9-4.4-2.9Z"/>
        <path class="cls-7" d="M176.2,252.4v1.7s7,4.8,7,4.8l1.4-1.7c-.6-.3-1.2-.6-1.8-.9,0,0,0,0,0,0-2.2-1-4.7-2.3-6.5-3.9Z"/>
        <path class="cls-7" d="M179.5,244.6c-.8.3-2.7,1.2-2.7,3.5s5.4,4.9,10.5,6.7c3.6.9,6.2.7,7.4-.6.6-.6.8-1.5.9-2.3l-1.9,2c-.4.4-1,.6-1.5.4-5.2-1.6-11.7-3.9-12.7-5.4-.2-.3-.3-.7-.3-1l.3-3.3Z"/>
        <path class="cls-7" d="M184.1,260.9s0,0,0,0c.6.8,1.2,1.6,1.6,2.5,1.1,2.3,1.3,4.7.5,7.2.6.2,1.1.7,1.1,1.4v.7c18.7,4.6,24.7-1.5,25.6-2.6.5-2.5,0-4.7-1.3-6.7-3.6-5.4-12.7-7-12.8-7-.6-.1-1.1-.6-1.2-1.2-.2.3-.4.7-.7.9-1.3,1.4-3.3,2.1-6,2.1s-2.7-.2-4.3-.6l-2.5,3.1Z"/>
        <path d="M185.7,270.5c-.8,0-1.5.7-1.4,1.5v.5c.5-.2.8-.4.9-.4.2,0,.3-.2.4-.3.1-.1.2-.3.3-.5,0-.2.2-.5.2-.7-.1,0-.3,0-.4,0Z"/>
        <path d="M185.1,278.6c-.1.3-.2.5-.2.8.6-.4,1-1,1.4-1.6-.5,0-1,.3-1.3.8Z"/>
        <path d="M185.1,273.7c-.2.8.3,1.6,1.1,1.8.3,0,.7.2,1,.2,0-.5.1-1,.1-1.5v-1.6c-.2,0-.3,0-.4,0s-.2,0-.3,0c-.7,0-1.3.4-1.5,1.1Z"/>
        <path class="cls-7" d="M185.6,271.8l.9.8c.1,0,.2,0,.3,0s.2,0,.4,0v-.7c0-.7-.5-1.2-1.1-1.4,0,.2-.1.5-.2.7,0,.2-.2.3-.3.5Z"/>
        <path d="M184.9,279.4c0,.5.3,1,.8,1.2,3.2,1.7,6.9,2.3,10.6,2.4,5.8.1,11.6-1.3,15.4-2.4,2.8-.9,4.7-3.6,4.4-6.5v-1.7c-.2-.4-.3-.7-.6-.9,0,0,0,0,0,0,0,.1-.8,1.2-2.4,2.4v.4c.2,1.5-.8,3-2.3,3.4-5.7,1.7-16.4,4.1-23.7.2-.2-.1-.5-.2-.8-.2-.4.6-.9,1.2-1.4,1.6Z"/>
        <path class="cls-2" d="M186.4,277.8c.3,0,.5,0,.8.2,7.3,3.8,18,1.5,23.7-.2,1.5-.4,2.5-1.9,2.3-3.4v-.4c-2.4,1.7-6.7,3.6-14,3.5-3.3,0-7.3-.5-11.9-1.7-.2.7-.4,1.4-.8,2.1Z"/>
        <path d="M187.3,272.7v1.6c0,.5,0,1,0,1.5,4.7,1.1,8.6,1.6,11.9,1.7,7.3.1,11.7-1.8,14-3.5v-1.3c-.2-.8.4-1.6,1.3-1.6.5,0,.9.2,1.2.5,0-.1.1-.3.2-.4.8-3.5.2-6.6-1.6-9.3-4.3-6.4-14.4-8.2-14.8-8.2-.4,0-.7,0-1,.2-.1.6-.4,1.1-.7,1.6.1.6.6,1.1,1.2,1.2,0,0,9.2,1.6,12.8,7,1.3,2,1.7,4.2,1.3,6.7-.9,1.1-6.9,7.2-25.6,2.6Z"/>
        <path d="M197.6,254.8c0,.2,0,.4,0,.6.3-.5.5-1.1.7-1.6-.4.2-.6.6-.7,1Z"/>
        <path d="M214.4,271c-.8,0-1.4.8-1.4,1.6v1.3c1.8-1.2,2.5-2.3,2.6-2.4,0,0,0,0,0,0-.3-.3-.7-.5-1.2-.5Z"/>
      </g>
    </g>
    <g id="right-arm">
      <path class="cls-4" d="M105.5,139.4c-27.6-6.2-43.6-23.9-48.5-29.9,0,0-1-6.8-2.4-8.2s4.8-10.7-5.2-13.4c0,0-7.1-.6-6.9,12.1,0,0-9.9-2.7-15.5,5.9,0,0-10.5,5.1-4.8,12.1,0,0-.7,3.5.8,4.9s7.8,2,13.4-2.3c0,0,10.3,5.1,17.3.7,6.5,7,17.3,16.5,32.9,23.2,32.8,14.1,63.3,5.7,72.7,2.7l-4.8-11.2c-7.6,2.8-26.2,8.3-49.1,3.1Z"/>
      <path class="cls-3" d="M26.5,106.7s5.6-2.9,7.8-.8"/>
      <path class="cls-3" d="M23.8,117.4s8.4-7.9,11.9-5.8"/>
      <path class="cls-3" d="M37.2,115.8s-3.9-10.3.4-13.3"/>
    </g>
    <g id="left-arm">
      <path class="cls-4" d="M237.8,126.7c14.3-4.6,22.3-15.3,27.9-23,14.1-19.3,18.1-40.5,19.4-52.2,0,0-1.9-5-1.9-7s-10.9-4.2-5.8-13.1c0,0,4.6-5.4,13.4,3.7,0,0,5.2-8.9,15.1-6.7,0,0,11.1-3.8,11.9,5.2,0,0,3,2.1,2.9,4.1s-4.1,6.9-11.1,7.8c0,0-5.2,10.9-13.2,12.8,0,0-18.4,71.2-55.5,80.3l-10.2,3.5-3.1-13.3c2.5-.2,6-.7,10.1-2Z"/>
      <path class="cls-3" d="M307,28.4s-6,1.9-6.1,4.9"/>
      <path class="cls-3" d="M316.4,34s-11.5.3-12.6,4.3"/>
      <path class="cls-3" d="M305.8,42.4s-4.5-10.1-9.7-9.2"/>
    </g>
    <g id="right-arm-2" data-name="right-arm">
      <path class="cls-3" d="M128.5,139.8"/>
    </g>
    <g id="leap">
      <circle class="cls-6" cx="193.9" cy="53.3" r="27.7"/>
      <circle class="cls-6" cx="142.5" cy="61.7" r="27.7"/>
      <path class="cls-6" d="M145.8,124.1c-1.3.6-15.7,7-18.6,22.1-2.7,14.2,6.6,27.3,17.6,32.7,15.3,7.5,34.8.6,40.3-10.2,1.5-3.1,1.9-6.4,2.4-10.4,1.5-12.6-3-17.7-3-17.7,0,0,0,0,0,0,0,0,0,0,0,0,0,0-1.2-1.1-2.3-2.1"/>
      <path class="cls-6" d="M181.6,139.4s4.1,40.5,43.3,31.9c0,0,29.5-11.7,8.5-48l-.2-.6s-6.2-9.3-15-12.2"/>
      <path class="cls-6" d="M214.4,117.1s44.9,23.7,47.2-21.2c.7-13.4-2.8-21.5-7.9-26.3-.6-.5-2.5-2.2-5.4-3.6-12.3-5.9-28.2-.4-28.2-.4-4.2,1.2-8.9,2.9-13.7,5.4-1.6.8-3,1.6-4.4,2.4"/>
      <path class="cls-3" d="M165.4,138.6s-5.7,10.8-9.6,14.5l-3.8,3.7"/>
      <path class="cls-3" d="M202.5,133.1s4.3,10.9,8.1,13.1l3.7,2.2"/>
      <path class="cls-3" d="M217.8,94s19.3,6.5,24.9.4"/>
      <path class="cls-6" d="M145.6,83.8s-39.6-31.8-50.3,11.8c-3.2,13.1-1.4,21.7,2.8,27.3.5.6,2,2.6,4.6,4.6,10.9,8.1,27.6,5.7,27.6,5.7,4.4-.4,9.3-1.2,14.5-2.7,1.7-.5,3.3-1,4.8-1.6"/>
      <path class="cls-3" d="M138.8,104s-16.7,1.6-18,3.5"/>
      <path class="cls-3" d="M195.4,37.5s5.9,23.2-3.7,27"/>
      <path class="cls-3" d="M136,57.5s15.4,5.9,15.9,15"/>
    </g>
    <g id="one">
      <ellipse class="cls-5" cx="178.3" cy="102.1" rx="35.7" ry="37.8" transform="translate(73.1 278.7) rotate(-89)"/>
      <path class="cls-3" d="M173.9,76.2c.7-.6,2.1-1.7,4.2-2.2,2.9-.6,5.2.3,6,.6"/>
      <path class="cls-3" d="M166.5,78.5c-1-.2-4.1-.8-6.5,1.1-.3.2-.5.5-.8.8-.2.2-.4.5-.6.7-1,1.2-1.7,2.5-2.2,3.6"/>
      <ellipse class="cls-1" cx="170.6" cy="97.5" rx="7.5" ry="12" transform="translate(-19.1 46.1) rotate(-14.6)"/>
      <ellipse class="cls-1" cx="184.4" cy="93.3" rx="7.4" ry="12.8" transform="translate(-17.5 49.4) rotate(-14.6)"/>
      <path class="cls-3" d="M198.8,93s1.1,6.9,7.9,3.5"/>
      <path class="cls-3" d="M156.8,105.1s3.2,7.4-2.3,8.4"/>
      <path class="cls-3" d="M202,98.1c1.3,11.7-2.5,21.8-9.9,25.9-3.8,2.1-7.7,2-10,2-13.1-.4-22-10.8-24.1-13.6"/>
      <ellipse cx="188" cy="91.2" rx="3.3" ry="7.5" transform="translate(-14.8 41) rotate(-12)"/>
      <ellipse cx="173.8" cy="95.9" rx="3.3" ry="7.5" transform="translate(-16.1 38.1) rotate(-12)"/>
    </g>
  </g>
</svg>