<?xml version="1.0" encoding="UTF-8"?>
<svg xmlns="http://www.w3.org/2000/svg" version="1.1" xmlns:xlink="http://www.w3.org/1999/xlink" viewBox="0 0 100 100">
  <defs>
    <style>
      .cls-1 {
        fill: #fff;
      }

      .cls-2 {
        fill: none;
      }

      .cls-2, .cls-3 {
        stroke-miterlimit: 10;
        stroke-width: 1.5px;
      }

      .cls-2, .cls-3, .cls-4 {
        stroke: #000;
      }

      .cls-5 {
        fill: #f0f1e3;
      }

      .cls-6, .cls-4 {
        fill: #ffdd4d;
      }

      .cls-7 {
        fill: #feb8f6;
      }

      .cls-8 {
        clip-path: url(#clippath);
      }

      .cls-4 {
        stroke-linecap: round;
        stroke-linejoin: round;
        stroke-width: .6px;
      }
    </style>
    <clipPath id="clippath">
      <circle class="cls-2" cx="48.4" cy="50.6" r="40.9" transform="translate(-18.3 72) rotate(-64.1)"/>
    </clipPath>
  </defs>
  <!-- Generator: Adobe Illustrator 28.6.0, SVG Export Plug-In . SVG Version: 1.2.0 Build 709)  -->
  <g>
    <g id="Layer_1">
      <g>
        <g>
          <circle class="cls-5" cx="48.4" cy="50.6" r="46.3" transform="translate(-18.3 72) rotate(-64.1)"/>
          <path d="M5.3,65.6C-.8,47.7,4.8,27.4,19.5,15.3s36.2-13.6,52.5-3.7c16.4,9.9,25,29.8,20.9,48.6s-19.6,33-38.5,35.6c-18.6,2.5-37.5-7.1-46.3-23.7s-2.1-4.3-2.9-6.6-1.8-.5-1.4.4c6.5,18.5,24.1,31.4,43.7,31.7,19.7.3,37.9-12.1,44.9-30.5,7-18.5,1.3-40.2-14-52.9C63.3,1.9,41.5,0,24.6,10,7.7,19.8-1.4,39.7,2,58.9s1.1,4.8,1.9,7.1,1.8.5,1.4-.4Z"/>
        </g>
        <circle class="cls-4" cx="48.4" cy="50.6" r="40.9" transform="translate(-18.3 72) rotate(-64.1)"/>
        <g>
          <g class="cls-8">
            <g>
              <path class="cls-7" d="M-28.7,105.7c-6.7-5.2-10-16.3-6.6-22.6.5-1,1.2-1.8,2.1-2.3,2.5-1.4,6.3.5,9,3.3,2.7,2.8,4.8,6.3,7.3,9.3,2.5,3,5.9,5.6,8.9,5.4,2.6-.2,4.3-2.6,5.1-5.3.9-2.7,1.1-5.8,1.8-8.5,1-3.8,3.3-7.2,6.9-7.2,4.5,0,9,5.2,13.7,6.8,3.9,1.4,6-1.9,7.8-5.4,1.8-3.4,3.5-6.8,6.5-8.7,3.2-2,8,.9,11.6,4.3,3.6,3.4,3.9,6,8.1,7.2.8.2,3.5.4,4.1,0,1-.6,2.6-3.2,2.5-4.7-.4-5.2-.3-11.6,2.8-14.4,4.1-3.6,12,4.6,15.3,0,1.7-2.3-.7-4.6-1.6-8.1-.9-3.6-1.4-8,1.1-9.3,1.1-.6,2.5-.4,3.9,0,5.3,1.8,10.6,7.3,15.7,6.9,3.8-.3,6.2-3.8,8.6-6.7,2.5-2.9,6.2-5.2,10.1-2.9,1.5.9,2.8,2.3,4,3.8,2.1,2.4,4.3,5.7,3.7,8.4-.7,3.1.3,7.3-2.7,6-3-1.3-8,2.4-10.3,3.9-2.4,1.6-5,2.2-7.3,4-3.7,2.8-10.5-9.5-15.2-8.9-3,.4-4.7,3.5-5.2,7-.3,1.9-.3,4.1-1.4,5.4-2.4,2.8-7.4-.5-11,0-2.8.3-4.6,3-5.4,6-.9,3-1,6.4-1.5,9.5-.3,1.7-.9,3.4-2.3,3.9-.9.3-1.9,0-2.9-.4-3.4-1.3-6.7-3.7-10.1-5.5-3.4-1.8-7.1-2.9-9.9-1.6-3.4,1.6-4.5,6.4-5.6,10.7-.3,1.2-.7,2.5-1.5,3.3-2.2,2-6.1-.5-9.3-1.9-7.5-3.3-15.2.8-16.5,8.8-.6,3.3-.2,7-1.2,10-2.1,6.5-9.7,7.4-16.3,4.2-6.5-3.2-16.6-13.5-16.6-13.5Z"/>
              <path class="cls-7" d="M-16.7,79.7c-2.3-1.9-4.7-3.9-6.4-6.6-1.7-2.7-2.6-6.4-1.6-9.5,1.2-3.5,4.9-5.3,7.9-3.7,3.2,1.7,5.5,6.6,8.8,6.1,3.1-.5,4.2-5.2,6.7-7.3,4.3-3.4,10.6,2,15.5,0,5.5-2.2,7.2-12.6,13.1-12.6,5.1,0,8.2,8,13.3,8.8.6.1,1.3,0,1.9-.3,2-1.2,1.5-4.7,2.1-7.3.6-2.7,2.7-4.5,5-5.1,2.2-.6,4.6-.2,6.9.4,3,.9,6.5,2.1,8.9,0,2.6-2.3,2.5-7,4.3-10.1,2.4-4.1,7.4-4.6,11.6-3.5,4.2,1.1,8.3,3.3,12.6,3.2,3.9-.2,7.4-2.3,11.1-3.5,3.7-1.2,8.2-1.2,11,2.2.6.7,1.1,1.6,1.1,2.6.1,2-1.7,3.3-3.3,3.4-1.6,0-3.3-.7-4.9-.9-4.6-.6-8.5,3.4-12.7,5.4-3.9,1.9-8.3,2.1-12.4.7-3.2-1.1-6.8-3.2-9.6-1.2-4.6,3.3-2,14.2-6.9,16.9-1.9,1-4.1.2-6.1-.2-3-.6-6.6,0-8,3.1-1.5,3.3,0,8.4-2.4,10.9-4.2,4.5-12.6-7.1-16.3-9.7-.6-.4-1.2-.9-1.9-1.1-1.2-.4-2.3.2-3.2.9-4.5,3.4-6.8,13.2-12.2,13.8-3.9.5-7.8-2.8-11.8-2.2-4.4.7-7,5.9-9.9,9.8-.8,1.1-1.7,2.2-2.8,2.6-2.2.8-4.5-.9-6.3-2.7-3.8-3.7-3.1-3.2-3.1-3.2Z"/>
              <path class="cls-7" d="M122.8,22c-1.5,2.8-5,1.3-8,1.4-3,.1-6.2-.3-9,.4-3,.7-5.6,2.8-8.7,3.3-6.8,1.1-14.7-5.2-21.1-3-6.3,2.1-8.8,11.9-15.7,12.2-4.2.2-8.7-3.5-13-3.4-5.6.1-8.6,6.6-13.2,9.5-.9.5-1.8,1-2.8,1.1-4.6.4-8.9-6.1-13.7-7.4-4.1-1.1-7.5,1.8-10.2,4.7s-5.5,6.4-9.5,6.5c-4.7.1-9.8-4.4-14.4-3.8-3.9.6-6.5,4.9-10.6,4.7-2.9-.1-5.7-2.5-8.1-5-4.1-4.2-7.9-9.2-9.9-14.9-2-5.8-11.1-12.9-7.8-16.5,3.3-3.6,11.4-3.1,16.2-.2,7.3,4.4,9.1,14.8,13.1,18.5,5.3,4.9,11.7-1.4,17.8,1.3,1.4.6,2.7,1.7,4.1,2.3,3.3,1.4,6.6,0,9.1-2.1,2.5-2,4.8-4.6,7.9-5.5,3.9-1.2,8.6.7,12.5,3.6,1.2.9,2.4,2,3.8,2.4,3.4,1.1,5.8-5.9,8.3-8,3.8-3.2,9-.4,14.1,1.4,2.6.9,3.2.5,5.7.3,3.8-.3,4.5-3.6,6.7-6.9,4.1-5.8,14.3-8.9,21.3-5.7,2.8,1.3,5.5,3.7,8.4,4.6,3.5,1.1,6.8-.4,9.8-2.1,2.9-1.7,5.9-3.6,9.4-3.4,3.5.2,7.7,3.4,8.2,7.6.8,2.3-.7,2.2-.7,2.2Z"/>
              <path class="cls-7" d="M122.7,8.8c-1.7,2.9-5.4,1-8.7,1-3.2,0-6.6-.8-9.7-.2-3.3.6-6.2,2.6-9.6,2.9-7.3.7-15.6-6.5-22.6-4.6-6.9,1.9-10.1,12-17.5,11.9-4.6,0-9.2-4.3-13.8-4.5-6.1-.2-9.6,6.4-14.7,9.2-.9.5-2,.9-3.1.9-5,0-9.3-7.1-14.4-8.8-4.4-1.4-8.2,1.4-11.2,4.4-3,3-6.2,6.4-10.5,6.2-5.1-.2-10.4-5.4-15.4-4.9-4.2.4-7.2,4.8-11.6,4.3-3.1-.3-6-3-8.5-5.8-4.2-4.7-8.1-10.3-10-16.5-1.8-6.3-11.4-14.5-7.7-18.1,3.8-3.6,12.5-2.5,17.5.9,7.6,5.2,9.2,16.3,13.3,20.5,5.5,5.5,12.7-.7,19.1,2.6,1.5.8,2.8,2,4.3,2.7,3.5,1.8,7.1.3,9.9-1.7C.7,9.2,3.3,6.6,6.6,5.8c4.3-1,9.2,1.3,13.3,4.7,1.3,1.1,2.5,2.3,4,2.8,3.6,1.3,6.3-1.9,9.1-4,4.2-3.1,9.9-3.7,15.3-1.5,2.8,1.1,5.6,3,8.4,3,4.1,0,6.7-4.1,9.3-7.4,4.6-5.9,12-10.2,19.3-6.4,3,1.6,5.7,4.3,8.8,5.5,3.8,1.4,7.4,0,10.6-1.6,3.2-1.6,6.5-3.4,10.3-3,3.8.4,8.1,4.1,8.5,8.6.8,2.5-.8,2.3-.8,2.3Z"/>
            </g>
          </g>
          <circle class="cls-2" cx="48.4" cy="50.6" r="40.9" transform="translate(-18.3 72) rotate(-64.1)"/>
        </g>
        <g>
          <g>
            <path class="cls-3" d="M55.7,72.2c-9.4,3.3-22.8-1-27.2-10.7,0-.2,0-.4.2-.5.2,0,.4,0,.5.2,4.2,9.3,16.7,12.3,25.8,9.1,8.7-3,16.8-12.8,14.6-23.2,0-.2,0-.4.3-.5.2,0,.4,0,.5.3,2.3,10.9-5.7,22.2-14.7,25.3Z"/>
            <path d="M67.8,49.3s0,0,0,0c-.3,0-.7-.1-.8-.4-.8-3.1.2-6.3,1.8-6.9,1.7-.6,4.5,1.5,5.7,4.3.1.3,0,.7-.3.8-.3.1-.7,0-.8-.3-.9-2.3-2.9-3.1-3.8-2.8-1.1.4-1.9,2.3-1.3,4.6,0,.3,0,.6-.4.8Z"/>
            <path d="M26.3,63.7s0,0,0,0c-.3,0-.7-.1-.8-.4-.8-3.1.2-6.3,1.8-6.9,1.7-.6,4.5,1.5,5.7,4.3.1.3,0,.7-.3.8-.3.1-.7,0-.8-.3-.9-2.3-2.9-3.1-3.8-2.8-1.1.4-1.9,2.3-1.3,4.6,0,.3,0,.6-.4.8Z"/>
          </g>
          <g>
            <path d="M41.2,45c1.3,3.7,1.1,7.1-.4,7.6-1.5.5-3.7-2-5-5.7-1.3-3.7-1.1-7.1.4-7.6,1.5-.5,3.7,2,5,5.7Z"/>
            <path d="M55.9,39.9c1.3,3.7,1.1,7.1-.4,7.6-1.5.5-3.7-2-5-5.7-1.3-3.7-1.1-7.1.4-7.6,1.5-.5,3.7,2,5,5.7Z"/>
          </g>
          <polygon class="cls-6" points="41.4 42.5 37.7 46.4 42.8 47.8 41.4 42.5"/>
          <polygon class="cls-6" points="56.2 37.4 52.4 41.3 57.6 42.7 56.2 37.4"/>
        </g>
      </g>
      <g>
        <path class="cls-1" d="M436,78.9h-.3c0-.1-2.2-.9-4.7-2.9-2.3-1.9-5.3-5.2-6.6-10.5-.6-2.6-1.5-8.7-2.1-13.6,0-.5-.5-.7-.8-.7h0c-.4,0-.8.2-.8.7,0,.6-.2,1.3-.2,2-.5,3.9-1,8.9-2.2,13.4-1.3,5.3-4.1,8.1-6.3,9.6-2.3,1.6-4.4,1.9-4.4,1.9h0c0,0-.3,0-.3,0h.3c0,.1,2.2.9,4.7,2.9,2.3,1.9,5.3,5.2,6.6,10.5.6,2.6,1.5,8.7,2.1,13.6,0,.5.5.7.8.7h0c.4,0,.8-.2.8-.7,0-.6.2-1.3.2-2,.5-3.9,1-8.9,2.2-13.4,1.3-5.3,4.1-8.1,6.3-9.6,2.3-1.6,4.4-1.9,4.4-1.9h0c0,0,.3,0,.3,0Z"/>
        <path d="M436.2,78.2c-3.4-1.2-6.5-3.8-8.5-6.8s-3.2-8.6-3.9-13.2-.4-2.6-.5-3.9,0-2.4-.6-3.2-1.1-.7-1.7-.5c-1,.3-1.1,1.2-1.2,2.1-.3,2.8-.7,5.6-1.1,8.4s-.9,5.7-1.9,8.3c-1.5,4.1-5,7.9-9.5,8.7s-.6.4-.6.7h0c.2-.2.5-.4.8-.7h-.3c-.9,0-1,1.2-.2,1.5,3.4,1.2,6.5,3.8,8.5,6.8s3.2,8.6,3.9,13.2.4,2.6.5,3.9,0,2.4.6,3.2,1.1.7,1.7.5c1-.3,1.1-1.2,1.2-2.1.3-2.8.7-5.6,1.1-8.4s.9-5.7,1.9-8.3c1.5-4.1,5-7.9,9.5-8.7s.6-.4.6-.7h0c-.2.2-.5.4-.8.7h.3c1,0,1-1.5,0-1.5h-.3c-.4,0-.8.3-.8.8h0c.2-.2.4-.4.6-.6-3.3.6-6.4,2.9-8.3,5.6-3.1,4.2-3.7,9.8-4.4,14.9s-.3,2.4-.5,3.6-.2,1.3-.2,2-.1,1.8-.4.8-.3-2.5-.5-3.7-.3-2.5-.5-3.8c-.7-4.4-1.4-8.7-4.1-12.4s-5.4-5.8-9.1-7l-.2,1.5h.3c.4,0,.8-.3.8-.8h0c-.2.2-.4.4-.6.6,3.3-.6,6.4-2.9,8.3-5.6,3.1-4.2,3.7-9.8,4.4-14.9s.3-2.4.5-3.6.2-1.3.2-2,.1-1.8.4-.8.3,2.5.5,3.7.3,2.5.5,3.8c.7,4.4,1.4,8.7,4.1,12.4s5.4,5.8,9.1,7,1.3-1.1.4-1.4Z"/>
      </g>
    </g>
  </g>
</svg>