<svg width="30" height="30" viewBox="0 0 30 30" fill="none" xmlns="http://www.w3.org/2000/svg">
<g id="Layer_1" clip-path="url(#clip0_2053_619615)">
<path id="Vector" d="M14.9673 28.2304C22.2802 28.2304 28.2085 22.3021 28.2085 14.9892C28.2085 7.67632 22.2802 1.74805 14.9673 1.74805C7.65441 1.74805 1.72614 7.67632 1.72614 14.9892C1.72614 22.3021 7.65441 28.2304 14.9673 28.2304Z" fill="black"/>
<path id="Vector_2" d="M12.2969 0.243409C15.7275 -0.388066 19.3718 0.215695 22.4025 1.94978C25.5222 3.70761 27.969 6.62546 29.1488 10.0085C30.477 13.738 30.2435 17.996 28.4975 21.5532C27.0505 24.5582 24.5641 27.0445 21.5592 28.4935C18.0653 30.2098 13.8944 30.4711 10.2105 29.218C6.8294 28.0936 3.88978 25.7083 2.08641 22.638C0.330558 19.6905 -0.348426 16.1332 0.168235 12.7462C0.690835 9.2345 2.514 5.9346 5.21409 3.63041C7.21739 1.89633 9.69182 0.7185 12.2969 0.243409ZM13.2669 2.23285C10.8083 2.68617 8.46847 3.76502 6.53049 5.34272C5.63772 6.03952 4.96665 6.9699 4.34903 7.90821C3.0069 10.0105 2.17945 12.4532 2.03099 14.9455C2.19529 18.3048 3.59879 21.5829 5.86141 24.0653C8.31802 26.3556 11.5922 27.763 14.9455 27.9709C18.3147 27.8026 21.6166 26.3952 24.093 24.1068C26.3893 21.6344 27.7948 18.3325 27.9709 14.9633C27.773 11.6377 26.3853 8.39913 24.1445 5.93856C22.5114 4.40639 20.5041 3.28399 18.3662 2.63074C16.7192 2.14773 14.9634 1.81517 13.2669 2.23285Z" fill="black"/>
<path id="Vector_3" d="M13.2669 2.22678C14.9634 1.80909 16.7192 2.14166 18.3662 2.62467C20.5041 3.27792 22.5114 4.40032 24.1445 5.93248C26.3853 8.39306 27.773 11.6316 27.971 14.9572C27.7948 18.3264 26.3893 21.6283 24.093 24.1007C21.6166 26.3891 18.3147 27.7966 14.9456 27.9648C11.5922 27.757 8.31804 26.3495 5.86142 24.0592C3.59881 21.5768 2.19531 18.2987 2.03101 14.9394C2.17947 12.4472 3.00692 10.0044 4.34905 7.90213C4.96667 6.96383 5.63774 6.03344 6.53051 5.33664C8.46849 3.75894 10.8083 2.68009 13.2669 2.22678ZM9.93335 7.14595C8.21708 7.98527 7.49851 10.0024 7.354 11.7979C8.25667 12.1522 9.14945 12.5382 10.0561 12.8945C10.2026 12.9935 10.5589 12.9797 10.5549 13.233C9.58693 13.7319 8.60111 14.1931 7.63708 14.6999C8.08247 16.044 8.92378 17.4871 10.3985 17.8533C11.8832 18.2057 13.2016 17.0358 13.8014 15.7827C14.9099 13.4746 14.8327 10.5389 13.3976 8.3891C12.6829 7.27858 11.2042 6.53427 9.93335 7.14595ZM18.0693 7.18356C16.4005 8.04664 15.7354 10.0202 15.5572 11.7801C16.644 12.2492 17.7545 12.6669 18.8433 13.144C17.901 13.7556 16.8222 14.1417 15.8502 14.7137C16.3273 16.1252 17.2735 17.689 18.8888 17.8969C20.5576 18.0711 21.7968 16.5626 22.2976 15.1334C23.0993 12.8827 22.9271 10.1667 21.48 8.21292C20.7318 7.1697 19.2728 6.54812 18.0693 7.18356ZM5.55657 18.5085C5.95842 20.395 7.06895 22.1054 8.5635 23.3168C11.3764 25.6349 15.48 26.1694 18.8274 24.758C21.482 23.6811 23.6239 21.3333 24.2653 18.5165C23.4972 18.5046 22.7271 18.4848 21.963 18.5382C21.4642 19.9437 20.615 21.3116 19.2669 22.042C17.5704 23.0298 15.5077 23.8434 13.5341 23.2852C12.0376 22.9249 10.6024 22.2459 9.44044 21.2344C8.70207 20.4623 8.19531 19.4983 7.8093 18.5145C7.05707 18.5026 6.30484 18.5046 5.55657 18.5085Z" fill="#37BFF3"/>
</g>
<defs>
<clipPath id="clip0_2053_619615">
<rect width="30" height="30" fill="white"/>
</clipPath>
</defs>
</svg>
