<svg xmlns="http://www.w3.org/2000/svg" xmlns:xlink="http://www.w3.org/1999/xlink" fill="none" version="1.1" width="60" height="61" viewBox="0 0 60 61"><defs><clipPath id="master_svg0_119_3329"><rect x="0" y="0" width="60" height="61" rx="0"/></clipPath></defs><g clip-path="url(#master_svg0_119_3329)"><g><g><path d="M56.417092578125,30.47808232421875Q56.417092578125,31.13908232421875,56.385192578125,31.79918232421875Q56.353292578125,32.45928232421875,56.289592578125,33.11708232421875Q56.225792578125,33.77488232421875,56.130392578125,34.42858232421875Q56.034992578125,35.08238232421875,55.908192578125,35.73068232421875Q55.781392578125,36.37888232421875,55.623392578125,37.01998232421875Q55.465492578125,37.66118232421875,55.276792578125,38.29368232421875Q55.087992578125,38.92608232421875,54.868992578125,39.54838232421875Q54.649992578125,40.17068232421875,54.401192578125,40.78138232421875Q54.152392578125,41.39198232421875,53.874492578125,41.98948232421875Q53.596492578125,42.58698232421875,53.290092578125,43.16988232421875Q52.983592578125,43.75278232421875,52.649392578125,44.31968232421875Q52.315192578125,44.88658232421875,51.953992578125,45.43608232421875Q51.592792578125,45.98568232421875,51.205492578125,46.51658232421875Q50.818292578125,47.04738232421875,50.405892578125,47.55828232421875Q49.993392578125,48.06928232421875,49.556892578125,48.55898232421875Q49.120292578125,49.04868232421875,48.660592578125,49.51608232421875Q48.200892578125,49.98338232421875,47.719192578125,50.42728232421875Q47.237492578125,50.87108232421875,46.734992578125,51.29038232421875Q46.232392578125,51.70968232421875,45.710192578125,52.10338232421875Q45.188092578125,52.49718232421875,44.647492578125,52.86438232421875Q44.106992578125,53.23158232421875,43.549392578125,53.57138232421875Q42.991792578125,53.91118232421875,42.418392578125,54.22268232421875Q41.845092578125,54.53428232421875,41.257392578125,54.81688232421875Q40.669692578125,55.09948232421875,40.069092578125,55.35238232421875Q39.468492578125,55.60528232421875,38.856392578125,55.82798232421875Q38.244292578125,56.05068232421875,37.622192578125,56.24248232421875Q36.999992578125,56.43438232421875,36.369392578125,56.59498232421875Q35.738792578125,56.75558232421875,35.101192578125,56.88448232421875Q34.463592578125,57.01348232421875,33.820492578125,57.11038232421875Q33.177392578125,57.20738232421875,32.530492578125,57.27218232421875Q31.883492578125,57.33698232421875,31.234192578125,57.36938232421875Q30.584792578125,57.40178232421875,29.934692578125,57.40178232421875Q29.284592578125,57.40178232421875,28.635292578125,57.36938232421875Q27.985992578125,57.33698232421875,27.338992578125,57.27218232421875Q26.691992578125,57.20738232421875,26.048992578125,57.11038232421875Q25.405892578125,57.01348232421875,24.768292578125,56.88448232421875Q24.130692578125,56.75558232421875,23.500092578125,56.59498232421875Q22.869392578125,56.43438232421875,22.247292578125,56.24248232421875Q21.625192578125,56.05068232421875,21.013092578125,55.82798232421875Q20.400992578125,55.60528232421875,19.800392578125,55.35238232421875Q19.199792578125,55.09948232421875,18.612092578125,54.81688232421875Q18.024392578125,54.53428232421875,17.451092578125,54.22268232421875Q16.877692578125,53.91118232421875,16.320092578125,53.57138232421875Q15.762492578125,53.23158232421875,15.221892578125,52.86438232421875Q14.681392578125,52.49718232421875,14.159192578125,52.10348232421875Q13.637092578125,51.70968232421875,13.134512578125,51.29038232421875Q12.631972578125,50.87108232421875,12.150282578125,50.42728232421875Q11.668582578125,49.98338232421875,11.208892578124999,49.51608232421875Q10.749192578125001,49.04868232421875,10.312612578125,48.55898232421875Q9.876032578124999,48.06928232421875,9.463602578125,47.55828232421875Q9.051182578125001,47.04738232421875,8.663912578125,46.51658232421875Q8.276652578124999,45.98568232421875,7.915472578125,45.43608232421875Q7.554292578125,44.88658232421875,7.220072578125,44.31968232421875Q6.885852578125,43.75278232421875,6.579392578125,43.16988232421875Q6.272932578124999,42.58698232421875,5.994982578125001,41.98948232421875Q5.717022578125,41.39198232421875,5.468242578125,40.78138232421875Q5.219452578125,40.17068232421875,5.000442578125,39.54838232421875Q4.781432578125,38.92608232421875,4.592712578125,38.29368232421875Q4.403997578125,37.66118232421875,4.246034578125,37.01998232421875Q4.088072578125,36.37888232421875,3.961243578125,35.73068232421875Q3.834414578125,35.08238232421875,3.739023578125,34.42858232421875Q3.6436335781249998,33.77488232421875,3.579912578125,33.11708232421875Q3.516190878125,32.45928232421875,3.484291678125,31.79918232421875Q3.452392578125,31.13908232421875,3.452392578125,30.47808232421875Q3.452392578125,29.81718232421875,3.484291678125,29.15698232421875Q3.516190878125,28.49688232421875,3.579912578125,27.83908232421875Q3.6436335781249998,27.18138232421875,3.739023578125,26.52758232421875Q3.834414578125,25.87378232421875,3.961243578125,25.22558232421875Q4.088072578125,24.57728232421875,4.246034578125,23.93618232421875Q4.403997578125,23.29508232421875,4.592712578125,22.66258232421875Q4.781432578125,22.03008232421875,5.000442578125,21.40778232421875Q5.219452578125,20.78548232421875,5.468242578125,20.17488232421875Q5.717022578125,19.56418232421875,5.994982578125001,18.966682324218752Q6.272932578124999,18.36928232421875,6.579392578125,17.78638232421875Q6.885852578125,17.20348232421875,7.220072578125,16.63658232421875Q7.554292578125,16.06968232421875,7.915472578125,15.52008232421875Q8.276652578124999,14.97058232421875,8.663912578125,14.43968232421875Q9.051182578125001,13.90878232421875,9.463602578125,13.39787232421875Q9.876032578124999,12.88696232421875,10.312612578125,12.39723232421875Q10.749192578125001,11.90751232421875,11.208892578124999,11.44016232421875Q11.668582578125,10.972802324218751,12.150282578125,10.52894232421875Q12.631972578125,10.08508232421875,13.134512578125,9.66578232421875Q13.637092578125,9.24649232421875,14.159192578125,8.852772324218751Q14.681392578125,8.45904232421875,15.221892578125,8.091852324218749Q15.762492578125,7.72465232421875,16.320092578125,7.38486232421875Q16.877692578125,7.045062324218749,17.451092578125,6.73350232421875Q18.024392578125,6.42193232421875,18.612092578125,6.13935232421875Q19.199792578125,5.856762324218749,19.800392578125,5.60383232421875Q20.400992578125,5.35090232421875,21.013092578125,5.12823232421875Q21.625192578125,4.90557232421875,22.247292578125,4.71371232421875Q22.869392578125,4.52184732421875,23.500092578125,4.36125232421875Q24.130692578125,4.20065732421875,24.768292578125,4.07171432421875Q25.405892578125,3.94277132421875,26.048992578125,3.84579132421875Q26.691992578125,3.74881132421875,27.338992578125,3.68402732421875Q27.985992578125,3.61924392421875,28.635292578125,3.58681312421875Q29.284592578125,3.55438232421875,29.934692578125,3.55438232421875Q30.584792578125,3.55438232421875,31.234192578125,3.58681312421875Q31.883492578125,3.61924392421875,32.530492578125,3.68402732421875Q33.177392578125,3.74881132421875,33.820492578125,3.84579132421875Q34.463592578125,3.94277132421875,35.101192578125,4.07171432421875Q35.738792578125,4.20065732421875,36.369392578125,4.36125232421875Q36.999992578125,4.52184732421875,37.622192578125,4.71371232421875Q38.244292578125,4.90557232421875,38.856392578125,5.12823232421875Q39.468492578125,5.35090232421875,40.069092578125,5.60383232421875Q40.669692578125,5.856762324218749,41.257392578125,6.13935232421875Q41.845092578125,6.42193232421875,42.418392578125,6.73350232421875Q42.991792578125,7.045062324218749,43.549392578125,7.38486232421875Q44.106992578125,7.72465232421875,44.647492578125,8.091852324218749Q45.188092578125,8.45904232421875,45.710192578125,8.852772324218751Q46.232392578125,9.24649232421875,46.734992578125,9.66578232421875Q47.237492578125,10.08508232421875,47.719192578125,10.52894232421875Q48.200892578125,10.972802324218751,48.660592578125,11.44016232421875Q49.120292578125,11.90751232421875,49.556892578125,12.39723232421875Q49.993392578125,12.88696232421875,50.405892578125,13.39787232421875Q50.818292578125,13.90878232421875,51.205492578125,14.43968232421875Q51.592792578125,14.97058232421875,51.953992578125,15.52008232421875Q52.315192578125,16.06968232421875,52.649392578125,16.63658232421875Q52.983592578125,17.20348232421875,53.290092578125,17.78638232421875Q53.596492578125,18.36928232421875,53.874492578125,18.966682324218752Q54.152392578125,19.56418232421875,54.401192578125,20.17488232421875Q54.649992578125,20.78548232421875,54.868992578125,21.40778232421875Q55.087992578125,22.03008232421875,55.276792578125,22.66258232421875Q55.465492578125,23.29508232421875,55.623392578125,23.93618232421875Q55.781392578125,24.57728232421875,55.908192578125,25.22558232421875Q56.034992578125,25.87378232421875,56.130392578125,26.52758232421875Q56.225792578125,27.18138232421875,56.289592578125,27.83908232421875Q56.353292578125,28.49688232421875,56.385192578125,29.15698232421875Q56.417092578125,29.81718232421875,56.417092578125,30.47808232421875Z" fill="#000000" fill-opacity="1"/></g><g><path d="M24.5938,0.494932C31.455,-0.789068,38.7436,0.43858,44.805,3.96455C51.0446,7.53881,55.938,13.4718,58.2976,20.3506C60.9542,27.9339,60.487,36.5919,56.995,43.8248C54.101,49.935,49.1284,54.9905,43.1184,57.9368C36.1306,61.4266,27.7888,61.9579,20.421,59.4099C13.6589,57.1236,7.77962,52.2735,4.17288,46.0306C0.661168,40.0373,-0.6968,32.8042,0.336522,25.9173C1.38172,18.7768,5.02804,12.067,10.4282,7.38183C14.4348,3.85587,19.3837,1.46095,24.5938,0.494932ZM26.5338,4.54013C21.6166,5.46188,16.937,7.65554,13.061,10.8635C11.2755,12.2804,9.93336,14.1721,8.69812,16.08C6.01386,20.3547,4.35896,25.3215,4.06202,30.3892C4.39064,37.2198,7.19762,43.8852,11.7229,48.9328C16.6361,53.5897,23.1844,56.4514,29.8912,56.8742C36.6294,56.532,43.2332,53.6702,48.186,49.0172C52.7786,43.9899,55.5896,37.2761,55.942,30.4254C55.546,23.6633,52.7708,17.0782,48.289,12.0751C45.0228,8.95966,41.0082,6.67745,36.7324,5.34917C33.4384,4.36705,29.9268,3.69085,26.5338,4.54013Z" fill="#000000" fill-opacity="1"/></g><g><path d="M26.53381171875,4.52776928125C29.92681171875,3.67846628125,33.438411718750004,4.35469228125,36.73241171875,5.33681328125C41.00821171875,6.66508328125,45.02281171875,8.94730328125,48.28901171875,12.062693281249999C52.77081171875,17.065913281249998,55.54601171875,23.65091328125,55.94201171875,30.41291328125C55.58961171875,37.26371328125,52.77861171875,43.97751328125,48.18601171875,49.00471328125C43.23321171875,53.65781328125,36.62941171875,56.51971328125,29.89121171875,56.86171328125C23.18441171875,56.43921328125,16.63611171875,53.57731328125,11.72285171875,48.92031328125C7.19761171875,43.87281328125,4.39061171875,37.20731328125,4.06201171875,30.37671328125C4.35895171875,25.30931328125,6.01385171875,20.34231328125,8.698111718749999,16.06761328125C9.93335171875,14.15981328125,11.275471718750001,12.26798328125,13.06103171875,10.85115328125C16.93701171875,7.6431632812500006,21.61661171875,5.44950328125,26.53381171875,4.52776928125ZM19.86671171875,14.53011328125C16.43421171875,16.236713281249997,14.99701171875,20.33821328125,14.70801171875,23.98901328125C16.51331171875,24.70941328125,18.29891171875,25.49431328125,20.11221171875,26.21881328125C20.40521171875,26.42011328125,21.11781171875,26.39201328125,21.10981171875,26.90711328125C19.173811718750002,27.92151328125,17.20221171875,28.85931328125,15.27411171875,29.88981328125C16.164911718749998,32.622813281250004,17.847611718750002,35.55711328125,20.79701171875,36.30171328125C23.76641171875,37.01821328125,26.40321171875,34.63941328125,27.60281171875,32.09151328125C29.81981171875,27.39831328125,29.66541171875,21.42911328125,26.79521171875,17.05781328125C25.36581171875,14.79981328125,22.40841171875,13.28633328125,19.86671171875,14.53011328125ZM36.13861171875,14.60651328125C32.801011718750004,16.361513281249998,31.47081171875,20.37441328125,31.11441171875,23.95281328125C33.28801171875,24.90671328125,35.50901171875,25.75601328125,37.68661171875,26.72611328125C35.802011718749995,27.96971328125,33.64441171875,28.75481328125,31.70041171875,29.91781328125C32.654611718750004,32.78791328125,34.54701171875,35.967613281249996,37.77761171875,36.39031328125C41.11521171875,36.74451328125,43.59361171875,33.67731328125,44.59521171875,30.77121328125C46.19861171875,26.19481328125,45.85421171875,20.67231328125,42.96001171875,16.699613281250002C41.46361171875,14.57841328125,38.54561171875,13.31449328125,36.13861171875,14.60651328125ZM11.11315171875,37.63391328125C11.91685171875,41.46981328125,14.13791171875,44.94761328125,17.127011718749998,47.41081328125C22.75281171875,52.12431328125,30.96001171875,53.21111328125,37.65481171875,50.34121328125C42.96401171875,48.15151328125,47.24781171875,43.37771328125,48.53061171875,37.65021328125C46.99441171875,37.62601328125,45.45441171875,37.58571328125,43.92601171875,37.69431328125C42.92841171875,40.55221328125,41.23001171875,43.33361328125,38.53381171875,44.81871328125C35.14081171875,46.82721328125,31.01561171875,48.48151328125,27.06821171875,47.34651328125C24.07521171875,46.61391328125,21.20481171875,45.23331328125,18.88091171875,43.17661328125C17.404111718750002,41.60661328125,16.39061171875,39.64651328125,15.61861171875,37.64611328125C14.11411171875,37.62191328125,12.60969171875,37.62601328125,11.11315171875,37.63391328125Z" fill="#FF99C8" fill-opacity="1"/></g></g></g></svg>