<?xml version="1.0" encoding="UTF-8"?>
<svg xmlns="http://www.w3.org/2000/svg" version="1.1" viewBox="0 0 550 550">
  <defs>
    <style>
      .cls-1, .cls-2, .cls-3, .cls-4, .cls-5, .cls-6, .cls-7 {
        stroke: #000;
      }

      .cls-1, .cls-8, .cls-5 {
        fill: none;
      }

      .cls-1, .cls-6 {
        stroke-miterlimit: 10;
      }

      .cls-9 {
        fill: #f4984b;
      }

      .cls-2, .cls-8, .cls-3, .cls-4, .cls-5, .cls-7 {
        stroke-linecap: round;
        stroke-linejoin: round;
        stroke-width: 3px;
      }

      .cls-2, .cls-10 {
        fill: #29aba1;
      }

      .cls-11 {
        fill: #e54040;
      }

      .cls-12, .cls-4 {
        fill: #fff;
      }

      .cls-13 {
        fill: #fcdcdb;
      }

      .cls-14 {
        fill: #92c8c6;
      }

      .cls-8 {
        stroke: #fff;
      }

      .cls-3 {
        fill: #fefefd;
      }

      .cls-6, .cls-15 {
        fill: #4795bd;
      }

      .cls-7 {
        fill: #fdd172;
      }

      .cls-16 {
        fill: #a2a2a2;
      }

      #sunglass {
        animation: rotation 4s infinite;
      }

      @keyframes rotation {
        0% {
          transform: rotate(0deg);
        }
        50% {
          transform: rotate(5deg);
        }
        100% {
          transform: rotate(0deg);
        }
      }

      #arm {
        animation: upDown 3s infinite;
        position: relative;
        z-index: -1;
      }

      @keyframes upDown {
        0% {
          transform: translateY(0) rotate(0deg);
        }
        50% {
          transform: translateY(-30px) rotate(5deg);
        }
        100% {
          transform: translateY(0) rotate(0deg);
        }
      }
    </style>
  </defs>
  <!-- Generator: Adobe Illustrator 28.6.0, SVG Export Plug-In . SVG Version: 1.2.0 Build 709)  -->
  <g>
    <g id="sun-body">
      <g>
        <g>
          <path class="cls-9" d="M413,130.8c11,16.2,38.8,17.4,44.2,17-11.6,14.1-28.5,38.6-21,53.4.8,1.6,2.3,3.9,3,5,5.3,8.1,11.6,15.4,18.7,21.8-6.9,3.4-28,15.1-32.7,35.3-3,13,1.4,26.9,13.2,41.3-9.8.2-39,2.5-51.9,20.5-6.9,9.6-7.9,22-3.1,37.1-8.9-4.5-33.3-14.8-50.9-4.2-.7.5-16.2,11.3-18.3,40-14.9-20-40.4-29.2-59.7-20.9-12.2,5.2-18.4,16-21.3,23.2-2.9-8.6-11-26.8-28.7-32.3-3.5-1.1-7.1-1.6-10.7-1.6-17.6,0-34.9,11.5-40.3,15.9,1.2-7.5,4.2-34-12.8-47.5-.7-.5-16.9-12.2-48.8-4.4,11.3-17.1,11.2-38.5-.5-53.3-10.7-13.5-27.1-16.4-34.6-17,5.8-6.6,20.7-25.7,17.7-45.8-1.8-12.2-9.9-22.5-24.1-30.6,7.8-3.2,27.9-13.3,33.4-32,3.6-12.5,0-26.3-11.1-41.1,21.4,2.2,39.5-3.4,47.7-15.1,7.9-11.2,7.1-29,6.6-39.7-.2-3.2-.4-6.4-.9-9.5,6,1.9,12.1,3.5,18.1,4.9,23.8,5.5,31.3,3.4,35.9.4,1.8-1.2,3.3-2.7,3.6-2.9,3.5-3.6,5.9-8.5,7.4-15.6,2.9-13.3,4.7-20.4,5.7-24,4,4.9,24,27.7,46.1,27.7s2.2,0,3.3-.2c12.3-1.3,22.8-9.9,31.2-25.7,2.9,7.7,11.4,26.2,29.4,32.7,14.1,5.1,30.8,1.7,49.5-10.3-1.3,6.8-2.7,21.5,6.6,33.6,9.5,12.4,27.3,18.4,53,17.7-3.8,7.3-13.9,29.9-2.8,46.3Z"/>
          <path class="cls-5" d="M194,366.4c3.6,0,7.2.5,10.7,1.6,17.7,5.5,25.8,23.7,28.7,32.3,2.9-7.2,9.1-17.9,21.3-23.2,19.3-8.3,44.8.8,59.7,20.9,2.1-28.8,17.6-39.5,18.3-40,17.6-10.6,42-.3,50.9,4.2-4.8-15.1-3.8-27.5,3.1-37.1,12.9-18,42-20.2,51.9-20.5-11.8-14.4-16.2-28.3-13.2-41.3,4.7-20.2,25.8-32,32.7-35.3-7.2-6.4-13.5-13.7-18.7-21.8-.7-1-2.2-3.4-3-5-7.5-14.7,9.4-39.2,21-53.4-5.5.3-33.3-.8-44.2-17-11.1-16.3-1-38.9,2.8-46.3-25.7.6-43.5-5.3-53-17.7-9.2-12.1-7.9-26.8-6.6-33.6-18.7,12-35.4,15.5-49.5,10.3-18-6.5-26.5-25-29.4-32.7-8.4,15.8-18.9,24.4-31.2,25.7-1.1.1-2.2.2-3.3.2-22.1,0-42.1-22.8-46.1-27.7-1,3.7-2.8,10.7-5.7,24-1.5,7.1-3.9,12-7.4,15.6-.3.3-1.7,1.7-3.6,2.9-4.6,3-12.1,5.1-35.9-.4-6-1.4-12.1-3-18.1-4.9.4,3.1.7,6.3.9,9.5.5,10.6,1.3,28.4-6.6,39.7-8.2,11.6-26.2,17.3-47.7,15.1,11,14.8,14.8,28.6,11.1,41.1-5.4,18.7-25.6,28.7-33.4,32,14.2,8.2,22.2,18.5,24.1,30.6,3,20.1-11.9,39.1-17.7,45.8,7.5.6,23.9,3.5,34.6,17,11.8,14.9,11.8,36.3.5,53.3,31.9-7.8,48.2,3.9,48.8,4.4,17,13.5,14.1,39.9,12.8,47.5,5.3-4.4,22.6-15.9,40.3-15.9Z"/>
        </g>
        <path class="cls-5" d="M197,2.7"/>
      </g>
    </g>
    <g id="arm">
      <g>
        <path class="cls-3" d="M437.5,313.4s.4-10.8,6.6-19.2c.1-.2.2-.3.4-.5,2.7-3.5,6.5-6.5,11.8-8.1,18.1-5.4,13.7-29.9,13.2-32.1-.4-2.2-1.8-22.8,11.9-18.3s16.8,16.2,15,26.6c-1.8,10.4-17.7,31.7-4.9,36.7,12.8,5,31.7,68.4-21,61.2-4.7-.8-11.7-2.7-19.2-7.1-8.7-5.1-14.2-11.3-17.2-15.3,0,0-21.3-22.7,7.1-42.3.9-.2,1.8-.5,2.8-.7"/>
        <path class="cls-5" d="M441.3,294.9"/>
        <path class="cls-3" d="M441.3,294.9c-1.2-2.1-5.2-8.7-10-8.3,0,0-1.1,0-2.2.7-7.6,4.1-19.8,45.5-7.8,52.1,2.5,1.3,6.4,1.4,12.8-2.1,0,0-21-21,7.1-42.3Z"/>
        <path class="cls-7" d="M380.2,311.5c11.6,3.1,24.1,6.6,35.6,9.8.2-4.7,1.2-8.3,2-10.7.8-2.3,1.7-4.1,3.3-8.7.7-2,1.3-3.8,1.6-4.9-9.1-3-18.1-6-27.2-9-2.2,4.6-5.6,9.6-9,14.8-2.1,3.2-4.2,6.2-6.3,8.8Z"/>
        <path class="cls-5" d="M419.1,305.8"/>
        <path class="cls-5" d="M421,296.4"/>
        <path class="cls-5" d="M447.6,321.5s24.9-2.1,30.8-18.4"/>
        <ellipse class="cls-3" cx="491.8" cy="356.9" rx="17.8" ry="9.3"/>
        <ellipse class="cls-3" cx="496.5" cy="334.6" rx="20.5" ry="11.7" transform="translate(-13.4 20.8) rotate(-2.4)"/>
        <ellipse class="cls-3" cx="502.4" cy="311.1" rx="20.3" ry="11.7"/>
        <path class="cls-5" d="M456.3,320.4c4.1,5.2,6.4,9.9,6.7,12.7.1,1.2.1,2.6.1,2.6,0,2.6-.3,4.9-.3,4.9"/>
        <path class="cls-5" d="M430.4,333.5"/>
        <path class="cls-5" d="M434.1,299.4"/>
      </g>
    </g>
    <g id="sun-every">
      <path class="cls-7" d="M101.7,261.6s-64,30.2-49.7,82.5c0,0,18.6-5.1,21.8-3.8,0,0,4.9-44.2,41-54.4l-12-24.3"/>
      <ellipse class="cls-7" cx="252.1" cy="214.5" rx="161.1" ry="160.1"/>
      <path class="cls-4" d="M41.7,353.7s-10.1,15.5-4.8,29.3c-1.2,4-2.7,11.1-1.2,19.6.5,2.9,3.2,18.6,12.3,21.3,5.2,1.5,10.3-1.8,13.5-3.8,38.1-24,41.7-21.8,49.3-30.9,7.9-9.4-5.3-42.8-23.4-45.3-12.2-1.7-22.4-2.6-32,1-6.4,2.4-10.9,6.2-13.7,8.8"/>
      <path class="cls-5" d="M239.3,389.5"/>
      <path class="cls-6" d="M40.2,353.7"/>
      <path class="cls-4" d="M51.2,330.4s-.3.1-.6.3c-1.4.8-14.4,7.9-13.6,15.9.2,2.3,1.6,4.7,4.7,7.1,0,0,16.2-19.1,45.8-9.8,1-1,3.4-3.6,3-6.5-.4-3.5-4.3-5.3-7.9-7-3.4-1.6-9.6-3.8-18.4-3.4-3.1,0-7.7.7-12.9,3.4Z"/>
      <path class="cls-7" d="M267,381.4c2.6-2.7,5.2-5.3,7.8-8,11.2-2.1,23.2-5.2,35.5-9.8,2-.7,3.9-1.5,5.9-2.3-11.9,13.7-23.8,27.4-35.6,41.1"/>
      <path class="cls-2" d="M238.4,401.9s-12.3-3.9-16.9,1.2c-5.6,6.4,1.9,19.7,3.4,22.4,4.2,7.4,14.4,19.3,24.3,16.9,4.3-1,9.7-5,10.1-10.4.3-3.4-1.6-6.1-2.5-7.3"/>
      <g>
        <path d="M407.1,466.9c-.1-1.4-.3-2.8-.6-4.2.2,0,.3,0,.5,0,.6.6,1.2,1.2,1.7,1.9.5.6.4,1.6-.2,2.1-.4.4-1,.4-1.5.2Z"/>
        <path d="M407.4,462.5c1.4-.6,1.5-2.1,1.4-3.3,1.5,5.8,1.9,11.5,1,17.2-.5,3.2-1.3,6.1-2.4,8.8h-.3c.3-.8.1-1.6-.5-2l-1.3-.9c.7-2,1.2-4.1,1.6-6.3.4-3,.5-6,.3-9.1.5.2,1,.1,1.5-.2.6-.5.7-1.5.2-2.1-.5-.7-1.1-1.3-1.7-1.9.1,0,.2,0,.3-.1Z"/>
        <path class="cls-16" d="M407.1,466.9c.3,3,.2,6.1-.3,9.1-.3,2.2-.9,4.4-1.6,6.3l-28.8-19.5c2.8-1.6,5.9-2.9,9.2-3.5,1.7-.3,7-1.3,12.8,1.2,3,1.3,5.7,3.4,7.9,6,.2.2.4.4.7.5Z"/>
        <path d="M406.4,462c.2.2.5.4.6.6-.2,0-.3,0-.5,0,0-.2,0-.5-.1-.7Z"/>
        <path d="M405.7,458.6c0,0,0-.2-.1-.5h0c.1-.5.5-1,1.1-1.1,0,0,0,0,.1,0,.3.9.4,1.4.4,1.4.2,1.4.2,2.5-.5,2.9-.2,0-.4,0-.5,0-.2-.8-.4-1.5-.6-2.3,0-.1,0-.3,0-.4,0,0,.1.2.2.2,0,0,0,0,0,0Z"/>
        <path d="M404.2,485.2c.4-.9.8-1.9,1.1-2.9l1.3.9c.6.4.8,1.2.5,1.9,0,0,0,.1-.1.2-.3.4-.8.6-1.2.6s-.6,0-.9-.2l-.7-.5Z"/>
        <path d="M408.8,459.2c0,1.2,0,2.7-1.4,3.3-.1,0-.2.1-.3.1-.2-.2-.4-.4-.6-.6,0-.3-.1-.6-.2-.9.2.1.4.1.5,0,.7-.3.7-1.4.5-2.9,0,0-.1-.5-.4-1.4.7-.1,1.5.3,1.7,1.1.1.4.2.8.3,1.2,0,0,0,0,0,0Z"/>
        <path d="M405.6,458.1c0,.2.1.4.1.5,0,0,0,0,0,0,0,0-.1-.2-.2-.2,0-.1,0-.2,0-.3Z"/>
        <path class="cls-14" d="M385.4,436.7c14.3,5,19.3,18.5,20.2,21.4h0c0,.1,0,.2,0,.3-.1-.1-.2-.2-.3-.3-.8-.9-1.8-2.1-2.9-3.1-9.3-8.4-25.7-4.1-30.5-2.6-2.2.7-4.4,1.6-6.5,2.8-3,1.5-5.8,3.4-8.5,5.5-8,6.5-12,13.9-14,17.9l-.4.7c-9.5,17.9-21.7,30.2-34.4,34.7-6.9,2.5-19.7,5.1-23.4-.6-1.8-2.8-1.7-6-1.5-10.5.2-5,.5-11.2-1.8-19.4-1.3-4.8-3.4-9.4-6.1-13.7,2.8-4.1,6.1-7.8,9.8-11.1,2.4-2.1,4.4-3.6,5.7-4.5,3-2.1,7.7-4.2,13.7-6.3-.1,1.5,0,3.4.4,5.4,0,0,.6,2.6,1.9,5,4,7.2,11.9,10.1,12.2,10.2.4.1.9,0,1.3-.2s.6-.7.7-1.1c.2-2.1,1.2-6.1,3.4-10.4,4.5-8.6,18.5-15.8,26.8-18.5h.2c9.8-3.3,20-6.6,34-1.6Z"/>
        <path d="M401.8,458.7c1.6.9,3.2,2,4.6,3.3,0,.2,0,.5.1.7-1.3,0-2.4-1.2-3.6-2.7-.4-.4-.7-.9-1.1-1.3Z"/>
        <path d="M407.4,485.2c-2.4,6-5.9,10.7-8.9,14.1l-.5-.4c.4-.7.2-1.6-.5-2.1l-.6-.4c2.5-2.9,5.2-6.7,7.2-11.3l.7.5c.3.2.6.2.9.2.5,0,1-.2,1.2-.6,0,0,0-.1.1-.2h.3Z"/>
        <path d="M398.1,498.9c-.3.5-.8.7-1.3.7s-.5,0-.8-.2l-1.1-.6c.6-.7,1.3-1.4,2-2.3l.6.4c.7.4.9,1.4.5,2.1Z"/>
        <path d="M398.5,499.3c-1.7,1.9-3.2,3.4-4.2,4.4-.4.4-.8.8-1,1-2.2,2.4-5.7,4.5-9.7,6.5l-.7-1.5c.2-.1.4-.3.6-.6.2-.4.2-.9,0-1.2,3.2-1.7,5.9-3.4,7.6-5.2.3-.3.7-.6,1.1-1.1.7-.7,1.7-1.6,2.7-2.7l1.1.6c.2.1.5.2.8.2.5,0,1-.3,1.3-.7l.5.4Z"/>
        <path class="cls-16" d="M361,478.1l33.9,20.6c-1,1.1-2,2-2.7,2.7-.4.4-.8.8-1.1,1.1-1.8,1.8-4.4,3.6-7.6,5.2-.1-.3-.4-.6-.7-.8l-33.7-17.4c0,0-.2,0-.3-.1,3.9-4.5,7.7-8.9,11.5-12.9,0,.6.2,1.2.7,1.5Z"/>
        <path d="M382.8,507.1c.3.2.6.5.7.8-.9.5-1.9,1-2.9,1.4l-32.9-17c-.3-.2-.5-.4-.7-.7.6-.7,1.2-1.4,1.8-2.1.1,0,.2,0,.3.1l33.7,17.4Z"/>
        <path d="M380.6,509.3c1-.5,2-1,2.9-1.4.2.4.1.8,0,1.2-.1.3-.3.5-.6.6-.2.1-.5.2-.8.2s-.5,0-.7-.2l-.9-.5Z"/>
        <path class="cls-16" d="M347.7,492.3l32.9,17c-4.4,2-9.3,3.9-14,5.5-.1-.4-.4-.7-.8-.9l-26.1-13.1c-.1,0-.3-.1-.4-.1,1.8-2,3.5-4.1,5.3-6.2.8-.9,1.6-1.9,2.4-2.9.1.3.4.6.7.7Z"/>
        <path d="M373.7,462.6c.1-.2.2-.3.4-.4.5-.3,1.2-.4,1.7,0l.8.5c-1,.5-1.9,1.1-2.7,1.7-.5-.5-.5-1.3-.1-1.9Z"/>
        <path d="M398.6,460.5c-5.8-2.5-11.1-1.6-12.8-1.2-3.4.6-6.5,2-9.2,3.5l-.8-.5c-.5-.4-1.2-.3-1.7,0l-.7-1.1c3.4-2.2,7.4-4.1,11.8-4.9,5.2-1,10.1-.5,14.6,1.4.7.3,1.4.6,2,1,.4.5.8.9,1.1,1.3,1.2,1.4,2.3,2.7,3.6,2.7.3,1.4.5,2.8.6,4.2-.2,0-.5-.2-.7-.5-2.1-2.6-4.9-4.7-7.9-6Z"/>
        <path d="M373.8,464.5c.9-.6,1.8-1.2,2.7-1.7l28.8,19.5c-.3,1-.7,2-1.1,2.9l-30.1-20.5c-.1,0-.2-.1-.3-.2Z"/>
        <path class="cls-12" d="M372.7,455.2c3.1-1,19.3-5.6,27.6,2,.5.5,1.1,1,1.5,1.5-.7-.4-1.3-.7-2-1-4.4-1.9-9.3-2.4-14.6-1.4-4.4.8-8.4,2.7-11.8,4.9-2.2,1.4-4.1,2.8-5.8,4.2-7,6.1-14.6,14.7-22.1,23.4-1.1,1.2-2.1,2.5-3.2,3.7-2.4,2.8-4.8,5.6-7.2,8.4l-2.2-1.9c4.4-5.2,8.5-11.4,12.2-18.3l.4-.7c2-3.8,5.7-10.9,13.3-17,2.5-2,5.1-3.7,8-5.2,1.9-1.1,3.9-1.9,6-2.6Z"/>
        <path d="M366.5,515.9c.2-.4.2-.8,0-1.1,4.7-1.6,9.6-3.5,14-5.5l.9.5c.2.1.5.2.7.2s.5,0,.8-.2l.7,1.5c-5.3,2.6-11.6,4.9-17.6,7l-.5-1.5c.4-.1.7-.4.9-.8Z"/>
        <path d="M366.6,514.8c-1.1.4-2.2.8-3.3,1.2l-24.9-12.5c-.4-.2-.6-.5-.7-.9.6-.6,1.1-1.3,1.7-2,.1,0,.3,0,.4.1l26.1,13.1c.4.2.6.5.8.9Z"/>
        <path d="M366.5,515.9c-.2.4-.5.7-.9.8-.1,0-.3,0-.4,0-.2,0-.5,0-.7-.2l-1.2-.6c1.1-.4,2.2-.8,3.3-1.2.1.4,0,.8,0,1.1Z"/>
        <path d="M362.6,475.6l34.4,20.9c-.7.8-1.4,1.6-2,2.3l-33.9-20.6c-.5-.3-.8-.9-.7-1.5.4-.4.8-.8,1.1-1.2.4,0,.8,0,1.1.2Z"/>
        <path class="cls-16" d="M361.5,475.4c2.8-2.9,5.4-5.5,8-7.7,1.3-1,2.7-2.1,4.3-3.2,0,0,.2.2.3.2l30.1,20.5c-2,4.6-4.7,8.4-7.2,11.3l-34.4-20.9c-.3-.2-.7-.3-1.1-.2Z"/>
        <path d="M360.5,476.1c.2-.4.6-.6.9-.7-.4.4-.8.8-1.1,1.2,0-.2.1-.4.2-.5Z"/>
        <path class="cls-16" d="M347.3,522.1l-18.8-9.4c3-3.2,6.1-6.6,9.1-10.1.1.4.4.7.7.9l24.9,12.5c-.7.2-1.4.5-2.1.7-5.1,1.8-9.5,3.3-12.3,4.6-.5.2-1,.5-1.5.8,0,0,0,0,0,0Z"/>
        <path d="M347.2,490.1c.4-.5,1-.7,1.6-.6-.6.7-1.2,1.4-1.8,2.1-.2-.4-.2-.9,0-1.3,0,0,0-.1.1-.2Z"/>
        <path d="M362.1,519.5c-5,1.7-9.4,3.2-11.9,4.5-.8.4-1.7.9-2.6,1.4l-.4-.7c.3-.1.6-.4.8-.7.4-.7,0-1.6-.6-2,.5-.3,1-.6,1.5-.8,2.8-1.3,7.2-2.9,12.3-4.6.7-.2,1.4-.5,2.1-.7l1.2.6c.2.1.4.2.7.2s.3,0,.4,0l.5,1.5c-1.3.5-2.6.9-3.9,1.4Z"/>
        <path d="M360.3,476.6c-3.8,4-7.7,8.5-11.5,12.9-.6-.2-1.3,0-1.6.6l-1.7-1.3c7.5-8.7,15.1-17.4,22.1-23.4,1.7-1.4,3.6-2.8,5.8-4.2l.7,1.1c-.1.1-.3.2-.4.4-.4.6-.3,1.4.1,1.9-1.6,1.1-3,2.1-4.3,3.2-2.6,2.2-5.3,4.9-8,7.7-.4,0-.7.3-.9.7-.1.2-.2.4-.2.5Z"/>
        <path d="M347.4,522.1c.7.4,1,1.3.6,2-.2.3-.4.6-.8.7-.2,0-.4.1-.6.1s-.5,0-.7-.1l-1.7-.8c1.1-.7,2.1-1.3,3.1-1.8Z"/>
        <path d="M344.3,523.9l-17.7-8.8c-.1,0-.2,0-.3-.2.7-.7,1.4-1.5,2.2-2.2l18.8,9.4s0,0,0,0c-1,.5-2,1.1-3.1,1.8Z"/>
        <path d="M337.7,501.4c.3-.6,1-.9,1.6-.8-.6.7-1.1,1.3-1.7,2-.1-.4-.1-.8,0-1.2Z"/>
        <path class="cls-12" d="M332.9,499l2.2,1.9c-3.4,3.8-6.7,7.6-9.9,10.9-1.9,1.9-3.8,3.8-5.6,5.4-2.1,1.9-4.9,4.2-9,6.1-.6.3-1.3.6-2,.8-4.8,1.8-10.1,2.5-15.6,1.9-.1,0-.2,0-.3,0-2.1-2.8-3.5-5.4-4.3-6.9,1.6.4,3.4.6,5.2.6,6.5,0,13.4-2.3,15.5-3,8.4-3,16.5-9.1,23.8-17.8Z"/>
        <path class="cls-16" d="M330.3,534l-17.1-8.5c4.4-2.2,7.2-4.8,8.5-6,1.5-1.4,3.1-2.9,4.7-4.5,0,0,.2.1.3.2l17.7,8.8c-4.9,3-10.3,7.1-14,10.1Z"/>
        <path d="M347.6,525.4c-5.5,3.2-12.3,8.4-16.4,11.6h0c.2-.2.4-.4.6-.7.4-.7,0-1.6-.7-2l-.8-.4c3.7-2.9,9.1-7,14-10.1l1.7.8c.2.1.4.1.7.1s.4,0,.6-.1l.4.7Z"/>
        <path d="M331.1,534.4c.7.4,1,1.3.7,2s-.3.5-.6.6c-.2.1-.5.2-.8.2s-.4,0-.7-.2l-2-1c.7-.6,1.6-1.3,2.6-2.1l.8.4Z"/>
        <path d="M326.1,512.7c.4-.5,1.2-.6,1.8-.3l.6.3c-.7.8-1.4,1.5-2.2,2.2-.6-.4-.7-1.2-.4-1.8,0-.1.1-.2.2-.4Z"/>
        <path d="M335.1,500.9c2.4-2.8,4.8-5.6,7.2-8.4,1.1-1.2,2.1-2.5,3.2-3.7l1.7,1.3c0,0,0,.1-.1.2-.2.4-.2.9,0,1.3-.8,1-1.6,1.9-2.4,2.9-1.8,2.1-3.5,4.1-5.3,6.2-.6-.1-1.3.2-1.6.8-.2.4-.2.8,0,1.2-3.1,3.5-6.1,7-9.1,10.1l-.6-.3c-.6-.3-1.3-.2-1.8.3l-1-.9c3.2-3.4,6.6-7.1,9.9-10.9Z"/>
        <path d="M310.8,527.6c-.4-.2-.6-.5-.7-.8,1.1-.4,2.1-.9,3-1.4l17.1,8.5c-1,.8-1.9,1.5-2.6,2.1l-16.9-8.4Z"/>
        <path d="M312.2,525c-.3-.1-.6-.2-.9-.1l-.7-1.5c4-1.9,6.9-4.2,9-6.1,1.8-1.7,3.7-3.5,5.6-5.4l1,.9c0,.1-.2.2-.2.4-.3.6-.1,1.4.4,1.8-1.6,1.6-3.1,3.1-4.7,4.5-1.2,1.1-4.1,3.7-8.5,6l-1-.5Z"/>
        <path d="M313.1,525.4c-.9.5-2,1-3,1.4-.1-.4-.1-.8,0-1.2s.7-.8,1.1-.8c.3,0,.6,0,.9.1l1,.5Z"/>
        <path class="cls-10" d="M307.7,437.8c1,1.9.8,4.1.5,5.6-10.1,2-19.5,6.5-27.1,13-3.8,3.3-7.2,7-10.1,11.2-1.2-.4-2-1-2.6-1.8-.5-.8-.8-1.8-.8-2.9,0-4.4,3.8-10.8,6.8-14.6,2.9-3.7,6-5.8,11-9.2,4.8-3.3,7.1-4.8,10.1-5.3,0,0,1.1-.2,2.7-.2,3,0,7.6.6,9.4,4Z"/>
        <path d="M306,447c.5-.1,1-.3,1.5-.4-.2,1.5-.3,3.6.2,6,0,0,.5,2.2,1.6,4.2,2.4,4.3,6.5,6.9,8.9,8,.6-2.9,1.8-6.3,3.5-9.4,5.3-10.2,21-17.5,28.5-19.9h.2c10.3-3.4,21-6.9,36-1.6,17.5,6.2,22.1,23.3,22.3,24.1,0,0,0,0,0,.1,0,.3.1.7.1,1.2-.1-.4-.2-.8-.3-1.2-.2-.8-1-1.2-1.7-1.1-1.4-4.1-6.9-16.7-20.9-21.7-14.6-5.1-25.1-1.7-35.2,1.6-7,2.3-22.6,9.4-27.7,19.2-2.1,4.1-3.4,8.3-3.6,10.9-1.5-.5-8.1-3.4-11.4-9.5-1.2-2.2-1.8-4.5-1.8-4.6-.5-2.4-.5-4.4-.3-5.9Z"/>
        <path d="M306,447c0-.5.1-.9.2-1.3v-.3c.4-.1.9-.2,1.4-.3.1.2.2.5.1.8,0,.2,0,.5-.1.7-.5.1-1,.2-1.5.4Z"/>
        <path d="M306.7,458.3c-1.3-2.4-1.9-5-1.9-5-.5-2.1-.5-3.9-.4-5.4v-.4c.5-.1,1-.3,1.6-.4-.2,1.5-.2,3.6.3,5.9,0,.1.6,2.4,1.8,4.6,3.3,6.1,9.9,9,11.4,9.5.2-2.6,1.4-6.8,3.6-10.9,5.1-9.8,20.6-16.9,27.7-19.2,10.1-3.3,20.6-6.8,35.2-1.6,14.1,5,19.5,17.5,20.9,21.7,0,0-.1,0-.1,0-.6.2-.9.6-1.1,1.1-.9-2.9-5.9-16.4-20.2-21.4-14-4.9-24.2-1.6-34,1.6h-.2c-8.3,2.8-22.3,9.9-26.8,18.5-2.2,4.3-3.2,8.2-3.4,10.4,0,.5-.3.9-.7,1.1s-.9.3-1.3.2c-.3-.1-8.2-3-12.2-10.2Z"/>
        <path class="cls-16" d="M325.9,537.5c-14,5.8-24.3-1.1-30.7-8.3.5,0,1.1,0,1.6,0,4.5,0,8.8-.8,12.8-2.3.2,0,.3-.1.5-.2.1.4.4.6.7.8l16.9,8.4c-.9.7-1.5,1.2-1.8,1.5Z"/>
        <path d="M295.2,529.3c-.8,0-1.7-.1-2.5-.2-.5,0-.9-.3-1.1-.7-.2-.3-.2-.6-.2-.9,0-.7.6-1.3,1.3-1.3.8,1,1.6,2.1,2.5,3.2Z"/>
        <path d="M315.7,542.7c-11.2,0-19.5-7.4-24.7-13.9l.5-.4c.2.4.6.7,1.1.7.9,0,1.7.1,2.5.2,6.4,7.2,16.7,14.1,30.7,8.3.3-.2.9-.8,1.8-1.5l2,1c.2.1.5.2.7.2s.5,0,.8-.2h0c-2.2,1.8-3.6,2.9-3.6,3-.1,0-.2.2-.4.2-4.1,1.8-8,2.5-11.5,2.5Z"/>
        <path d="M309.6,527c-4,1.5-8.3,2.3-12.8,2.3s-1.1,0-1.6,0c-.9-1.1-1.8-2.1-2.5-3.2.1,0,.2,0,.3,0,5.6.6,10.8,0,15.6-1.9.7-.3,1.4-.5,2-.8l.7,1.5c-.5,0-.9.4-1.1.8s-.2.8,0,1.2c-.1,0-.3.1-.5.2Z"/>
        <path d="M287.2,517.3c6.1,2.5,16,0,21.3-1.9,20.2-7.2,32.6-30.5,35.2-35.4,1.9-3.6,5.7-11.4,14.1-18.2,3.2-2.6,6.2-4.3,8.2-5.4,2.6-1.5,4.9-2.2,6.2-2.7,1.7-.5,19.7-6.2,29.1,2.3,2.3,2.1,3.9,4.6,4.9,5.1,0,.3.1.6.2.9-1.4-1.3-2.9-2.4-4.6-3.3-.5-.5-1-1-1.5-1.5-8.3-7.5-24.4-3-27.6-2-2.1.6-4.1,1.5-6,2.6-2.9,1.5-5.5,3.2-8,5.2-7.6,6.1-11.3,13.2-13.3,17l-.4.7c-3.7,7-7.8,13.1-12.2,18.3-7.3,8.7-15.5,14.8-23.8,17.8-2,.7-8.9,3-15.5,3s-3.6-.2-5.2-.6c-.4-.8-.6-1.2-.7-1.4-.1-.2-.3-.4-.5-.6Z"/>
        <path d="M287.2,517.3c-.2,0-.4-.2-.6-.3.2,0,.5.1.6.3Z"/>
        <path d="M291.3,527.4c0,.3,0,.7.2.9l-.5.4c-4-5-6-9.6-6.1-9.7-.2-.4-.2-.9,0-1.3,1,.6,2.2,1.1,3.4,1.4.8,1.5,2.2,4.1,4.3,6.9-.7,0-1.2.6-1.3,1.3Z"/>
        <path d="M288.4,519.2c-1.2-.3-2.4-.8-3.4-1.4.1-.3.4-.6.7-.7.3-.1.6-.2.9,0,.2.1.4.2.6.3.2.1.4.3.5.6,0,.1.3.6.7,1.4Z"/>
        <path d="M304.3,447.4c-7.9,2.2-15.2,6.1-21.3,11.3-1.8,1.5-3.5,3.2-5.1,5,1.7-2,3.7-4.1,6.1-6.2,2.7-2.4,4.9-4,5.8-4.6,3.4-2.4,8.9-4.9,16.3-7.2,0,.4-.1.8-.2,1.3-.6.1-1.1.3-1.7.4Z"/>
        <path d="M306.1,445.4c-6.2,1.5-15.4,4.8-24.1,12.2-1.9,1.6-3.6,3.3-5.1,5,1.9-2.2,3.9-4.3,6.1-6.2,2.5-2.2,4.6-3.8,6-4.8,3.6-2.5,9.4-5.1,16.7-7.4.5-.2,1,0,1.4.3.2.2.3.3.4.6-.5.1-.9.2-1.4.3Z"/>
        <path d="M284.6,513.4c3.8,5.8,16.5,3.1,23.4.6,12.7-4.5,24.9-16.8,34.4-34.7l.4-.7c2.1-4,6-11.4,14-17.9,2.6-2.1,5.5-4,8.5-5.5,2.1-1.1,4.3-2.1,6.5-2.8,4.8-1.5,21.2-5.8,30.5,2.6,1.2,1.1,2.2,2.2,2.9,3.1,0,.1.2.2.3.3,0,.1,0,.3,0,.4.2.8.4,1.5.6,2.3-1-.5-2.6-3-4.9-5.1-9.4-8.5-27.4-2.8-29.1-2.3-1.4.4-3.6,1.2-6.2,2.7-2,1-5,2.7-8.2,5.4-8.3,6.8-12.1,14.6-14.1,18.2-2.6,4.9-15,28.2-35.2,35.4-5.3,1.9-15.2,4.4-21.3,1.9-.2-.1-.4-.2-.6-.3-1.3-.6-2.4-1.6-3.2-2.8-4.2-6.5.9-14.8-3.4-30.4-1.8-6.3-4.5-11.1-6.5-14.1,1.2-1.7,2.7-3.8,4.6-6,1.6-1.8,3.3-3.4,5.1-5,6.1-5.2,13.4-9.1,21.3-11.3v.4c-5.9,2-10.6,4.2-13.6,6.3-1.3.9-3.3,2.4-5.7,4.5-3.7,3.3-7,7.1-9.8,11.1,2.8,4.3,4.8,8.9,6.1,13.7,2.3,8.2,2,14.4,1.8,19.4-.2,4.5-.4,7.8,1.5,10.5Z"/>
        <path d="M272.9,470.2c1.5-2.3,3.2-4.5,5.1-6.5-1.9,2.2-3.4,4.3-4.6,6,2,3.1,4.8,7.9,6.5,14.1,4.3,15.5-.8,23.9,3.4,30.4.8,1.2,1.9,2.2,3.2,2.8-.3,0-.6,0-.9,0-.3.2-.6.4-.7.7-1.1-.7-2.1-1.6-2.9-2.8-2.3-3.6-2.1-7.4-1.9-12.3.2-4.8.5-10.7-1.7-18.5-1.3-4.7-3.4-9.2-6.2-13.5.2-.1.4-.3.6-.5Z"/>
        <path d="M306.2,445.7c-7.4,2.3-12.9,4.8-16.3,7.2-.9.6-3.1,2.2-5.8,4.6-2.4,2.1-4.4,4.2-6.1,6.2-1.8,2-3.5,4.2-5.1,6.5-.1.2-.4.4-.6.5,0,0,0-.2-.1-.2-.3-.5-.3-1.2,0-1.7,1.5-2.2,3.1-4.3,4.8-6.3,1.5-1.6,3.2-3.3,5.1-5,8.7-7.4,17.8-10.7,24.1-12.2v.3Z"/>
        <path d="M298.3,433.8c-1.6,0-2.7.2-2.7.2-3.1.5-5.3,1.9-10.1,5.3-5,3.4-8,5.5-11,9.2-3,3.8-6.8,10.2-6.8,14.6s.2,2.1.8,2.9c.6.8,1.4,1.4,2.6,1.8,2.9-4.2,6.3-8,10.1-11.2,7.6-6.5,16.9-11,27.1-13,.3-1.5.5-3.7-.5-5.6-1.8-3.4-6.4-4-9.4-4ZM295.3,432.5c.5,0,10.4-1.4,13.7,4.6,1.6,2.9.8,6.2.4,7.6-.6.1-1.2.2-1.8.4,0-.2-.2-.4-.4-.6-.4-.3-.9-.4-1.4-.3-7.3,2.3-13.1,4.9-16.7,7.4-1.4,1-3.5,2.6-6,4.8-2.1,1.9-4.2,4-6.1,6.2-2.2,2.4-3.9,4.7-5.3,6.8-1.2-.3-3.2-.9-4.5-2.6-3.5-4.9,2.4-14.7,6.1-19.3,3.1-3.8,6.2-6,11.3-9.5,4.8-3.3,7.3-5,10.8-5.5Z"/>
        <path d="M265.8,522.6c.6,0,1.1.3,1.4.8-.6,2-1.4,3.8-2.7,5.5v-4.8c-.1-.1-.1-.2-.1-.3.1-.7.7-1.2,1.4-1.2Z"/>
        <path d="M309,437.1c-3.3-6-13.2-4.6-13.7-4.6-3.5.5-5.9,2.2-10.8,5.5-5.1,3.5-8.2,5.7-11.3,9.5-3.6,4.5-9.6,14.3-6.1,19.3,1.2,1.7,3.2,2.4,4.5,2.6,1.4-2.1,3.1-4.4,5.3-6.8-1.7,2-3.3,4.1-4.8,6.3-.3.5-.3,1.1,0,1.7,0,0,.1.2.1.2-.2,0-.4.1-.7.1s-.2,0-.3,0c-2.4-.5-4.2-1.6-5.4-3.2-4.9-6.9,5-19.6,6.1-21.1,3.2-4,6.4-6.2,11.6-9.8,4.7-3.2,7.5-5.2,11.4-5.8.5,0,11.4-1.6,15.2,5.3,1.3,2.4,1.5,5.5.5,8.8-.2.5-.6.9-1.2,1-.7.1-1.4.3-2.1.4,0-.3,0-.5.1-.7,0-.3,0-.6-.1-.8.6-.1,1.3-.3,1.8-.4.4-1.4,1.2-4.7-.4-7.6Z"/>
        <path d="M243.4,466.7c5.6,2.1,14.4,6.9,20.3,16.6,6.2,10.3,5.6,20.5,5.2,27.2-.3,5.2-.6,9.3-1.6,12.9-.2-.5-.8-.9-1.4-.8-.7,0-1.3.5-1.4,1.2l-.4-.2c1.3-3.4,1.5-7.5,1.8-13.2.4-6.8,1-16.1-4.8-25.5-5.4-9.1-13.8-13.5-18.9-15.4.6.2,1.3,0,1.7-.5.5-.7.4-1.6-.3-2.1,0,0-.1,0-.2-.1Z"/>
        <path d="M243.5,466.9c.7.5.8,1.4.3,2.1-.4.5-1.1.7-1.7.5,0,0-.1,0-.2,0,0,0-.1,0-.2-.1-.5-.4-1.1-.7-1.7-1-1.2-1.2-2.2-2.5-3-3.9,1.8.3,3.4.8,4.8,1.4.2.2.4.4.5.5.3.1.7.2,1,.4t0,0c0,0,.1,0,.2.1Z"/>
        <path d="M243.3,466.7c-.4-.1-.7-.3-1-.4-.2-.2-.4-.3-.5-.5.6.3,1.1.6,1.6.9Z"/>
        <path d="M241.7,469.2c0,0,.1.1.2.1-.3-.1-.6-.2-.9-.3-.2,0-.4-.2-.5-.3-.2-.2-.4-.3-.5-.5.7.3,1.2.6,1.7,1Z"/>
        <path class="cls-14" d="M261.6,527.8c-8.6,10.8-30,7.7-42.2,3-8.3-3.2-13.8-7.9-15.8-9.8,0,0-.5-.5-1.2-1.2,0,0-1.3-1.4-2.5-2.8-25-29.7-17.5-59.3-17.4-59.6.4-1.4,1-3.6,2-6.3,2.2-5.8,6.3-13.4,14-18,0,0,0,0,0,0s0,0,0,0c1.7-1,14.7-8.8,20-14.8l.4.7c6.9,12.6,10.7,19.5,18.8,23.8.4.2.7.4,1.1.5-2.1,3.5-6.2,12.2-2.4,20.2.1.3.3.6.5,1-11.8-2.1-31.1,2-32.1,2.2-.8.2-1.3,1-1.2,1.8.2.7.8,1.2,1.5,1.2s.2,0,.3,0c7.3-1.6,26.7-4.5,34.5-1.2.2.2.4.3.5.5.1.1.3.2.5.3.3.1.6.2.9.3,0,0,.1,0,.2,0,5.1,2,13.5,6.4,18.9,15.4,5.7,9.5,5.2,18.8,4.8,25.5-.3,5.7-.6,9.8-1.8,13.2-.6,1.5-1.3,2.8-2.3,4.1Z"/>
        <path d="M240,468.3c-7.8-3.3-27.1-.3-34.5,1.2-.1,0-.2,0-.3,0-.7,0-1.3-.5-1.5-1.2-.2-.8.4-1.6,1.2-1.8,1-.2,20.4-4.2,32.1-2.2.8,1.4,1.8,2.7,3,3.9Z"/>
        <path d="M198.6,433.2c-7.7,4.6-11.8,12.2-14,18l-.6-.2c0-.3.1-.5,0-.8-.2-.8-1-1.3-1.8-1.1,2.4-6,6.8-13.5,14.7-18.3.1,0,.3-.2.4-.2,7.5-4.4,19.6-12.8,20.7-16.5,0,0,0-.1,0-.2,0,0,0-.1,0-.1h0c.2-.4.4-.9,1.1-1,.5-.1,1.1,0,1.4.4s.5.9.4,1.5c-.2.7-.1,1.5.2,2.2l.5.9c6.8,12.5,10.3,18.7,17.6,22.5.8.4,1.6.8,2.5,1.1s.7.5.9,1,0,.9-.2,1.3c-.7,1-7.1,10.4-3.1,18.7.6,1.3,1.5,2.5,2.6,3.6-1.4-.6-3-1.1-4.8-1.4-.2-.3-.4-.6-.5-1-3.8-8,.3-16.7,2.4-20.2-.4-.2-.7-.4-1.1-.5-8.1-4.2-11.9-11.2-18.8-23.8l-.4-.7c-5.4,6.1-18.3,13.8-20,14.8,0,0,0,0,0,0s0,0,0,0Z"/>
        <path d="M183.9,450.1c0,.3,0,.6,0,.8-.2.5-.6.8-1.1,1-.7.1-1.3.4-1.9.6.3-1.1.8-2.3,1.3-3.6.8-.2,1.6.4,1.8,1.1Z"/>
        <path d="M184.5,451.2c-1,2.7-1.6,4.9-2,6.3,0,.3-7.6,29.8,17.4,59.6,1.2,1.4,2.5,2.8,2.5,2.8.7.7,1.2,1.2,1.2,1.2,2,1.9,7.5,6.6,15.8,9.8,12.3,4.7,33.6,7.8,42.2-3,1-1.3,1.8-2.7,2.3-4.1l.4.2c0,.1,0,.2,0,.3v4.8c0,.2-.2.5-.4.7-5.1,6.4-13.4,8.5-21.9,8.5-8.9,0-18-2.3-23.8-4.5-8.8-3.4-14.7-8.5-16.8-10.5,0,0-.5-.5-1.2-1.2,0,0-1.4-1.4-2.6-3-9.6-11.4-14.5-22.8-17-32.6-4.2-17-1-29.4-1-29.6.3-1,.7-2.4,1.2-4.2.6-.3,1.2-.5,1.9-.6.5-.1.9-.5,1.1-1l.6.2Z"/>
        <path class="cls-12" d="M204.6,535.4c-22.6-14.9-24.9-41.8-25.1-47.1,0-.5-.1-1.1-.2-1.6l1.4-.3c2.5,9.9,7.4,21.2,17,32.6,1.3,1.5,2.6,2.9,2.6,3,.7.8,1.2,1.2,1.2,1.2,2.1,2,8,7.1,16.8,10.5,5.8,2.2,14.9,4.5,23.8,4.5,8.5,0,16.8-2.1,21.9-8.5.2-.2.4-.5.5-.7v3.6c.1,1.5-.6,2.9-1.9,3.7-5.6,3.6-11.7,6.1-18.1,7.4-19,3.7-34.2-4.6-39.9-8.4Z"/>
        <path class="cls-12" d="M180.9,452.6c-.6,1.7-1,3.2-1.2,4.2,0,.2-3.2,12.7,1,29.6l-1.4.3c0-.2-.1-.3-.2-.5-1.2-3.5-6.9-21.4-2-30.1.9-1.6,2.2-2.8,3.8-3.6Z"/>
        <path d="M176.3,487.2c-1.8-5.2-7.1-23-1.8-32.5,1.7-3,4.3-4.9,7.7-5.7,0,0,0,0,0,0-.5,1.3-1,2.5-1.3,3.6-1.6.7-2.9,1.9-3.8,3.6-4.9,8.6.8,26.6,2,30.1,0,.2.1.3.2.5.1.5.2,1,.2,1.6.2,5.2,2.6,32.1,25.1,47.1,5.7,3.8,20.9,12.1,39.9,8.4,6.4-1.2,12.5-3.7,18.1-7.4,1.2-.8,2-2.2,2-3.7v-3.6c1.1-1.7,2-3.5,2.6-5.5.1.2.1.4.2.6l.3,8.5c0,2.6-1.3,4.9-3.4,6.3-5.9,3.9-12.4,6.5-19.2,7.8-3.5.7-7,1-10.2,1-15.2,0-27-6.5-31.9-9.8-23.8-15.8-26.2-44-26.5-49.5,0-.4-.1-.8-.2-1.2Z"/>
      </g>
      <path class="cls-5" d="M102.9,376.5s-1.4,5.6-2.4,6.6"/>
      <path class="cls-4" d="M96.9,379.1s16.5,32.1,7.8,37.9c-4.1,2.7-9.4,4.2-14.2,2.4-7.9-3-10.2-15-11.5-21.4-.3-1.6-.5-3-.6-4"/>
      <path class="cls-5" d="M72.2,392.9s4.9,2,8.3,0l3.4-2"/>
      <path class="cls-4" d="M52.7,396.7c.2,9.6,3.4,17.2,7.6,22.1,2.1,2.4,5.8,5.9,11.2,5.9,4.2,0,9.1-2.3,10.9-6.3,1.2-2.6.3-4.6-1.9-14.3-1-4.4-1.7-7.9-2.2-10.1"/>
      <path class="cls-5" d="M48,395.5s5.3,1.3,6.9.3l1.6-1"/>
      <path class="cls-5" d="M305,230.4s7.3,7.7,13.6,3.7c6.3-4,3.8-2.5,3.8-2.5"/>
      <path class="cls-5" d="M332.7,226s21.3-7.7,23,14.2c1.7,22-6,37.6-20.3,34.6"/>
      <path class="cls-5" d="M305.5,275.2s2.4-4.5,9.7-3.7l7.3.9"/>
      <ellipse cx="341.5" cy="247.3" rx="5.4" ry="13"/>
      <path class="cls-5" d="M209.3,125.5s3.6-24,26.9-14.1"/>
      <path class="cls-5" d="M301,121.8s4.3-23.7,26.9-12.8"/>
      <path class="cls-7" d="M447.3,32.9s2,23.9-19.3,22.8c0,0,20.6-2.6,20.1,23.4,0,0-.8-26.6,18.5-24.5-1.4,1.7-19.6-4.3-19.3-21.7"/>
      <path class="cls-7" d="M245.7,398.3c-10.3,5.8-16,14.6-14.6,21,.9,3.8,3.7,6.8,3.7,6.8,1.1,1.2,3.8,3.9,7.7,4.3,3.5.4,6.3-1.3,9.6-3.2,0,0,1.7-1,8.3-6.5h0c-4.9-7.5-9.8-14.9-14.8-22.4Z"/>
      <path class="cls-5" d="M241.2,441.6"/>
      <path class="cls-7" d="M240.2,389.5"/>
      <path class="cls-7" d="M240.2,389.4s30.9,49.9,32.4,56.6c0,.2,0,.4,0,.5-.3,4.2,10.8-12.4,22.4-13.9,0,0-25-54-33.3-57.3,0,0-18.1,3.3-20.5,14.2"/>
      <path class="cls-8" d="M48.4,348.1"/>
      <path class="cls-8" d="M25.2,302.3"/>
      <path class="cls-8" d="M157.1,368"/>
      <path class="cls-8" d="M140.6,310.2"/>
    </g>
    <g id="sunglass">
      <g>
        <g>
          <path class="cls-15" d="M438.3,119c.5.4.9,1.1.9,1.7.1,1.5.2,2.3.2,2.7-.8,3.5-23.5,43.1-58.9,101.5-.2.4-.6.6-1,.7-.4,0-.8,0-1.1-.4l-2.4-2.4-57.8-59.1c-2.1-2.2-4-3.2-5.9-3h0c-1.6.2-3.1,1.2-4.4,3.1-.6.8-1.1,1.7-1.7,2.5-6.6,9.6-13.7,19.3-20.5,28.8-7.9,10.8-16,22-23.5,33.1-.7,1-1.5,1.6-2.4,1.6-.9,0-1.9-.4-2.7-1.4-.1-.1-.2-.3-.3-.4-11.7-14-23.9-28.2-35.6-42-11.9-13.9-24.1-28.2-35.9-42.3,0-.1-.2-.7.2-1.6.1-.3.3-.6.5-.9.6-.8,1.3-1.3,1.6-1.4h0s248.7-21.3,248.7-21.3c.7,0,1.4.1,1.9.6ZM423,136.5c1.4-2.4,1.3-5.3-.2-7.6-1.5-2.3-4.2-3.6-7-3.4l-214.1,18.3c-.8,0-1.4.7-1.3,1.5,0,.1,0,.2,0,.3,0,.3,0,.7.3,1l50.3,64.1c1.8,2.3,4.5,3.6,7.4,3.5s5.6-1.4,7.4-3.7l19.3-25.5,24.6-32.5c.8-1.1,2-1.7,3.3-1.9h0c1.4-.1,2.7.3,3.7,1.2l55.4,51.4c1.9,1.7,4.4,2.6,6.9,2.3s.3,0,.5,0c2.7-.4,5-2,6.4-4.3l23.4-40.8,13.8-24Z"/>
          <path d="M420.5,135.2c.9-1.5.8-3.3-.1-4.8-1-1.5-2.6-2.2-4.4-2.1l-211.9,18.1,35.2,44.9,13.9,17.7c1.2,1.6,3.1,2.5,5.1,2.4,2,0,3.9-1,5.1-2.6l18.3-24.1c.1,0,.2,0,.3-.2,0,0,.2-.2.9-1.1l2.1,1.5-19.3,25.5c-1.7,2.3-4.4,3.7-7.4,3.7s-5.6-1.2-7.4-3.5l-50.3-64.1c-.2-.3-.3-.7-.3-1,0,0,0-.2,0-.3,0-.8.5-1.5,1.3-1.5l214.1-18.3c2.9-.2,5.5,1,7,3.4,1.5,2.3,1.6,5.2.2,7.6l-13.8,24-1.8-1,7.5-13.6c.2-.4.2-.8,0-1.2l5.5-9.6Z"/>
          <path d="M405.7,161.1l9.3-16.3c.2.4.2.8,0,1.2l-7.5,13.6c0,.2-.2.3-.3.4,0,0-.6.5-1.4,1.1Z"/>
          <path class="cls-13" d="M411.5,146.5l-6.4,11.5c-1.4,1.1-9.7,7.5-18.7,10.8-6.4,2.4-12.4-.3-17.6-2.7-2.6-1.2-5-2.3-7.3-2.7-.8-.2-1.7-.2-2.5,0-4.9.5-9.5,4.7-11.5,6.8l-7-7.7c2.7-2,9.4-6.9,13.6-8.6,4.8-1.9,10.2-1.3,19.9,2.1,8.9,3.1,13,.8,17.8-2,.6-.3,1.2-.7,1.8-1,2.4-1.3,3.7-2.4,4.8-3.3,1.6-1.3,2.5-2.1,5.9-2.7,3.2-.5,5.7-.6,7.3-.5Z"/>
          <path d="M375.7,223.1c.5.6.4,1.5-.2,2l-.7.5-2-2,.9-.7c.6-.5,1.5-.4,2,.2Z"/>
          <path class="cls-11" d="M316.2,165.6l56.7,57.9-5.1,4c-.6.2-1.8-.5-2.9-1.9,0,0,0,0-.1-.1l-55.5-58.7c.4-.5.7-1.1,1.1-1.6.8-1.2,1.5-1.7,2.3-1.8.9,0,2.1.7,3.6,2.2Z"/>
          <path d="M374.8,225.6l-5.5,4.3c0,0-.2.1-.2.2-.4.2-.8.3-1.2.3-1.8.2-3.8-.9-5.4-3l-55-58.1c.6-.8,1.1-1.6,1.6-2.4l55.5,58.7s0,0,.1.1c1.1,1.5,2.4,2.1,2.9,1.9l5.1-4,2,2Z"/>
          <path d="M391.7,154c-4.8,2.8-8.9,5.1-17.8,2-9.7-3.4-15.1-4-19.9-2.1-4.2,1.7-10.9,6.6-13.6,8.6l7,7.7c2-2.1,6.6-6.3,11.5-6.8s1.7,0,2.5,0c2.3.4,4.7,1.5,7.3,2.7,5.2,2.4,11.2,5.1,17.6,2.7,9-3.3,17.3-9.7,18.7-10.8l6.4-11.5c-1.6,0-4.1,0-7.3.5-3.4.6-4.3,1.4-5.9,2.7-1.1.9-2.4,2-4.8,3.3-.6.3-1.2.7-1.8,1ZM405.7,161.1c-3,2.2-10.3,7.4-18.4,10.4-1.5.6-2.9.9-4.4,1-5.8.6-11-1.8-15.4-3.8-2.4-1.1-4.7-2.1-6.6-2.5-5.8-1.1-12.3,6.9-12.4,6.9-.3.3-.7.5-1.1.5-.4,0-.8-.2-1.1-.5l-9-10c-.3-.3-.4-.7-.4-1,0-.4.2-.7.5-1,.4-.3,9.7-7.7,15.5-9.9,6.3-2.5,13.1-1.1,22,2.1,7.6,2.7,10.7.9,15.4-1.8.6-.3,1.2-.7,1.8-1,2.1-1.2,3.3-2.2,4.3-3,1.7-1.5,3.1-2.6,7.2-3.3,6.3-1.1,10.2-.3,10.4-.3.4,0,.8.4,1,.8,0,0,0,0,0,0l-9.3,16.3Z"/>
          <path d="M347.4,173.7c.4,0,.8-.2,1.1-.5,0,0,6.6-8,12.4-6.9,2,.4,4.2,1.4,6.6,2.5,4.4,2,9.6,4.4,15.4,3.8s2.9-.5,4.4-1c8.1-3,15.4-8.1,18.4-10.4l-22.3,38.9c-.9,1.6-2.5,2.6-4.3,2.9-1.8.3-3.6-.3-5-1.5l-29-26.9,1.2-1.3c.3.3.7.5,1.1.5Z"/>
          <path d="M306.5,166c.6-.5,1.5-.5,2,0l.8.8c-.5.8-1.1,1.6-1.6,2.4l-1.2-1.3c-.5-.5-.5-1.2-.1-1.7,0,0,.1-.2.2-.3Z"/>
          <path d="M318.3,163.7l57.8,59.1-.3.3c-.5-.6-1.4-.7-2-.2l-.9.7-56.7-57.9c-1.4-1.5-2.6-2.2-3.6-2.2-.8,0-1.5.7-2.3,1.8-.4.5-.7,1.1-1.1,1.6l-.8-.8c-.5-.6-1.4-.6-2,0,0,0-.2.2-.2.3h0c.6-.9,1.2-1.7,1.7-2.5,1.3-1.9,2.7-2.9,4.4-3.1h0c1.9-.2,3.8.8,5.9,3Z"/>
          <path class="cls-13" d="M274.4,169.8c6.2,2.2,11.6.9,15.7-1.2-4.2,6-8.5,12.3-9.7,13.7-1.9,0-9.7-1.1-13.5-4-5.5-4.2-13.1,0-14.6,1.8s-6.4,4.9-10.7,7.9l-7.6-9.8c1-.3,2.5-.7,4-1.2,1.5-.5,2.7-1.6,4.2-2.9,1.7-1.5,4.1-3.6,8.1-5.9,6.9-4,12.1-2.7,24.2,1.6Z"/>
          <path d="M374.1,201.4c1.3,1.2,3.2,1.8,5,1.5,1.8-.3,3.4-1.3,4.3-2.9l22.3-38.9c.8-.6,1.3-1,1.4-1.1.1-.1.3-.2.3-.4l1.8,1-23.4,40.8c-1.3,2.3-3.6,3.9-6.4,4.3-.2,0-.3,0-.5,0-2.5.3-5-.6-6.9-2.3l-55.4-51.4c-1-.9-2.3-1.4-3.7-1.2h0c-1.3.1-2.5.8-3.3,1.9l-24.6,32.5-2.1-1.5c.7-.9,1.9-2.6,4.1-5.7h0c0,0,20.3-26.9,20.3-26.9,1.3-1.7,3.2-2.8,5.3-3h0c2.2-.2,4.3.5,5.9,2l26.4,24.5,29,26.9Z"/>
          <path d="M281.7,184.9l5.3-7c-2.2,3.1-3.4,4.8-4.1,5.7-.7.9-.8,1-.9,1.1,0,0-.2.1-.3.2Z"/>
          <path d="M275.4,167.2c11,4,19.3-5.4,19.6-5.8.5-.6,1.3-.7,1.9-.2s.7,1.3.3,1.9c-4.7,6.9-8,11.5-10.2,14.7h0c0,0-5.3,7-5.3,7-2.4,1-12.4-1-16.7-4.4-3.8-3-9.7.3-10.7,1.4-1.4,1.6-10.6,7.9-12.4,9.2-.2.1-.4.2-.7.2-.5,0-1-.1-1.3-.5l-10.1-13c-.5-.6-.3-1.5.3-2,.5-.4,1.2-.4,1.7,0,.4,0,2.7-.7,5.1-1.4.9-.3,1.9-1.1,3.2-2.3,1.8-1.6,4.3-3.8,8.6-6.3,8-4.6,13.9-3.2,26.6,1.4ZM280.3,182.4c1.1-1.5,5.5-7.7,9.7-13.7-4,2.1-9.5,3.4-15.7,1.2-12-4.4-17.2-5.6-24.2-1.6-4,2.3-6.4,4.4-8.1,5.9-1.5,1.3-2.7,2.4-4.2,2.9-1.5.5-3,.9-4,1.2l7.6,9.8c4.3-3,10-7,10.7-7.9,1.6-1.9,9.2-6.1,14.6-1.8,3.8,2.9,11.6,4.1,13.5,4Z"/>
          <path d="M288.1,196.7c-7.8,10.8-16,22-23.4,33-1.2,1.8-2.8,2.8-4.7,2.9-1.6,0-3.1-.6-4.4-1.8l1.1-.8c.6-.5.7-1.4.3-2,.1.1.2.2.3.4.8,1,1.7,1.5,2.7,1.4.9,0,1.7-.6,2.4-1.6,7.5-11,15.6-22.2,23.5-33.1,6.8-9.4,13.9-19.2,20.5-28.8h0c-.3.5-.3,1.2.1,1.7l1.2,1.3c-6.4,9.2-13,18.4-19.6,27.4Z"/>
          <path d="M255,230.1c-.4-.5-.8-1-1.3-1.5l1.2-.9c.6-.5,1.5-.4,2,.2s.4,1.5-.3,2l-1.1.8c-.2-.2-.4-.4-.6-.6Z"/>
          <path class="cls-11" d="M253.7,228.5l-4.9,3.7c-.3.3-.8.2-1.1-.1l-75.1-88.2c-.3-.3-.2-.7-.1-.8s.2-.4.6-.5l9.5-.9c-.2.7-.3,1.3-.2,1.9s.3,1.2.7,1.7c11.8,14.1,24.1,28.5,35.9,42.4,11.4,13.4,23.3,27.2,34.7,40.8Z"/>
          <path d="M253.2,209.1l-13.9-17.7.7-.6c.3.4.8.6,1.3.5s.5-.1.7-.2c1.8-1.2,11-7.6,12.4-9.2s6.8-4.4,10.7-1.4c4.3,3.3,14.3,5.3,16.7,4.4l-18.3,24.1c-1.2,1.6-3.1,2.5-5.1,2.6-2,0-3.9-.9-5.1-2.4Z"/>
          <path d="M420.5,135.2l-5.5,9.6s0,0,0,0c-.2-.4-.6-.7-1-.8-.2,0-4.1-.8-10.4.3-4.1.7-5.5,1.9-7.2,3.3-1,.9-2.2,1.9-4.3,3-.6.3-1.2.7-1.8,1-4.7,2.7-7.8,4.5-15.4,1.8-8.9-3.1-15.6-4.6-22-2.1-5.8,2.3-15.1,9.6-15.5,9.9-.3.2-.5.6-.5,1,0,.4,0,.8.4,1l9,10-1.2,1.3-26.4-24.5c-1.6-1.4-3.7-2.2-5.9-2h0c-2.1.2-4.1,1.3-5.3,3l-20.3,26.8c2.2-3.2,5.5-7.8,10.2-14.7.4-.6.3-1.4-.3-1.9s-1.5-.3-1.9.2c-.4.4-8.6,9.7-19.6,5.8-12.7-4.6-18.6-6-26.6-1.4-4.3,2.5-6.7,4.7-8.6,6.3-1.3,1.2-2.3,2-3.2,2.3-2.4.8-4.7,1.3-5.1,1.4-.5-.3-1.2-.3-1.7,0-.6.5-.8,1.3-.3,2l10.1,13-.7.6-35.2-44.9,211.9-18.1c1.8-.1,3.4.6,4.4,2.1,1,1.5,1,3.2.1,4.8Z"/>
          <path d="M376.1,222.8l2.4,2.4c.3.3.7.5,1.1.4.4,0,.8-.3,1-.7,35.4-58.4,58-98.1,58.9-101.5,0-.4,0-1.1-.2-2.7,0-.7-.4-1.3-.9-1.7-.5-.4-1.2-.6-1.9-.6l-248.7,21.3h0c-.4,0-1.1.5-1.6,1.4h-1.5c.2-.3.4-.6.3-1s-.4-.9-.8-1.1c.9-1.1,2.1-1.9,3.3-2l248.7-21.3c1.4-.1,2.9.3,4,1.2s1.8,2.2,1.9,3.6c.1,1.4.2,2.4.2,3,0,3.6-30.7,55.8-59.2,102.8-.7,1.1-1.8,1.9-3.1,2h0c-1.3.1-2.6-.3-3.5-1.3l-1.5-1.5.7-.5c.6-.5.7-1.4.2-2l.3-.3Z"/>
          <path d="M221.2,185.9c11.8,13.8,23.9,28,35.6,42-.5-.6-1.4-.7-2-.2l-1.2.9c-11.4-13.6-23.2-27.5-34.7-40.8-11.9-13.9-24.1-28.2-35.9-42.4-.4-.5-.6-1.1-.7-1.7s0-1.2.2-1.9h1c.4-.1.7-.3,1-.6h1.5c-.2.3-.4.6-.5.9-.4.9-.3,1.5-.2,1.6,11.8,14.1,24,28.5,35.9,42.3Z"/>
          <path d="M184.2,139c.4.2.7.6.8,1.1s0,.7-.3,1-.6.5-1,.5h-1c0-.2.2-.4.3-.7.3-.7.7-1.3,1.2-1.9Z"/>
          <path d="M173.2,142.6c-.4,0-.6.3-.6.5s-.1.5.1.8l75.1,88.2c.3.3.7.4,1.1.1l4.9-3.7c.4.5.8,1,1.3,1.5.2.2.4.4.6.6l-5,3.8c-.6.4-1.2.7-1.9.7-1.2.1-2.4-.3-3.2-1.3l-75.1-88.2c-.9-1-1.1-2.4-.6-3.6.5-1.2,1.7-2.1,3-2.2l10.5-1c.3,0,.5,0,.8.1-.5.6-.9,1.3-1.2,1.9-.1.3-.2.5-.3.8l-9.5.9Z"/>
        </g>
        <g>
          <path class="cls-1" d="M287,177.9c-2.2,3.1-3.4,4.8-4.1,5.7-.7.9-.8,1-.9,1.1,0,0-.2.1-.3.2-2.4,1-12.4-1-16.7-4.4-3.8-3-9.7.3-10.7,1.4-1.4,1.6-10.6,7.9-12.4,9.2-.2.1-.4.2-.7.2-.5,0-1-.1-1.3-.5l-10.1-13c-.5-.6-.3-1.5.3-2,.5-.4,1.2-.4,1.7,0,.4,0,2.7-.7,5.1-1.4.9-.3,1.9-1.1,3.2-2.3,1.8-1.6,4.3-3.8,8.6-6.3,8-4.6,13.9-3.2,26.6,1.4,11,4,19.3-5.4,19.6-5.8.5-.6,1.3-.7,1.9-.2s.7,1.3.3,1.9c-4.7,6.9-8,11.5-10.2,14.7"/>
          <path class="cls-1" d="M233.9,178.2l7.6,9.8c4.3-3,10-7,10.7-7.9,1.6-1.9,9.2-6.1,14.6-1.8,3.8,2.9,11.6,4.1,13.5,4,1.1-1.5,5.5-7.7,9.7-13.7-4,2.1-9.5,3.4-15.7,1.2-12-4.4-17.2-5.6-24.2-1.6-4,2.3-6.4,4.4-8.1,5.9-1.5,1.3-2.7,2.4-4.2,2.9-1.5.5-3,.9-4,1.2Z"/>
          <path class="cls-1" d="M405.7,161.1c-3,2.2-10.3,7.4-18.4,10.4-1.5.6-2.9.9-4.4,1-5.8.6-11-1.8-15.4-3.8-2.4-1.1-4.7-2.1-6.6-2.5-5.8-1.1-12.3,6.9-12.4,6.9-.3.3-.7.5-1.1.5-.4,0-.8-.2-1.1-.5l-9-10c-.3-.3-.4-.7-.4-1,0-.4.2-.7.5-1,.4-.3,9.7-7.7,15.5-9.9,6.3-2.5,13.1-1.1,22,2.1,7.6,2.7,10.7.9,15.4-1.8.6-.3,1.2-.7,1.8-1,2.1-1.2,3.3-2.2,4.3-3,1.7-1.5,3.1-2.6,7.2-3.3,6.3-1.1,10.2-.3,10.4-.3.4,0,.8.4,1,.8,0,0,0,0,0,0,.2.4.2.8,0,1.2l-7.5,13.6c0,.2-.2.3-.3.4,0,0-.6.5-1.4,1.1Z"/>
          <path class="cls-1" d="M358.9,163.4c.8,0,1.7,0,2.5,0,2.3.4,4.7,1.5,7.3,2.7,5.2,2.4,11.2,5.1,17.6,2.7,9-3.3,17.3-9.7,18.7-10.8l6.4-11.5c-1.6,0-4.1,0-7.3.5-3.4.6-4.3,1.4-5.9,2.7-1.1.9-2.4,2-4.8,3.3-.6.3-1.2.7-1.8,1-4.8,2.8-8.9,5.1-17.8,2-9.7-3.4-15.1-4-19.9-2.1-4.2,1.7-10.9,6.6-13.6,8.6l7,7.7c2-2.1,6.6-6.3,11.5-6.8Z"/>
          <path class="cls-1" d="M184.2,139c.9-1.1,2.1-1.9,3.3-2l248.7-21.3c1.4-.1,2.9.3,4,1.2s1.8,2.2,1.9,3.6c.1,1.4.2,2.4.2,3,0,3.6-30.7,55.8-59.2,102.8-.7,1.1-1.8,1.9-3.1,2h0c-1.3.1-2.6-.3-3.5-1.3l-1.5-1.5-2-2-56.7-57.9c-1.4-1.5-2.6-2.2-3.6-2.2-.8,0-1.5.7-2.3,1.8-.4.5-.7,1.1-1.1,1.6-.5.8-1.1,1.6-1.6,2.4-6.4,9.2-13,18.4-19.6,27.4-7.8,10.8-16,22-23.4,33-1.2,1.8-2.8,2.8-4.7,2.9-1.6,0-3.1-.6-4.4-1.8-.2-.2-.4-.4-.6-.6-.4-.5-.8-1-1.3-1.5-11.4-13.6-23.2-27.5-34.7-40.8-11.9-13.9-24.1-28.2-35.9-42.4-.4-.5-.6-1.1-.7-1.7s0-1.2.2-1.9c0-.3.2-.5.3-.8.3-.7.7-1.3,1.2-1.9Z"/>
          <path class="cls-1" d="M306.2,166.3c.6-.8,1.2-1.7,1.7-2.5,1.3-1.9,2.7-2.9,4.4-3.1h0c1.9-.2,3.8.8,5.9,3l57.8,59.1,2.4,2.4c.3.3.7.5,1.1.4.4,0,.8-.3,1-.7,35.4-58.4,58-98.1,58.9-101.5,0-.4,0-1.1-.2-2.7,0-.7-.4-1.3-.9-1.7-.5-.4-1.2-.6-1.9-.6l-248.7,21.3h0c-.4,0-1.1.5-1.6,1.4-.2.3-.4.6-.5.9-.4.9-.3,1.5-.2,1.6,11.8,14.1,24,28.5,35.9,42.3,11.8,13.8,23.9,28,35.6,42,.1.1.2.2.3.4.8,1,1.7,1.5,2.7,1.4.9,0,1.7-.6,2.4-1.6,7.5-11,15.6-22.2,23.5-33.1,6.8-9.4,13.9-19.2,20.5-28.8Z"/>
          <path class="cls-1" d="M409.2,160.6l-23.4,40.8c-1.3,2.3-3.6,3.9-6.4,4.3-.2,0-.3,0-.5,0-2.5.3-5-.6-6.9-2.3l-55.4-51.4c-1-.9-2.3-1.4-3.7-1.2h0c-1.3.1-2.5.8-3.3,1.9l-24.6,32.5-19.3,25.5c-1.7,2.3-4.4,3.7-7.4,3.7s-5.6-1.2-7.4-3.5l-50.3-64.1c-.2-.3-.3-.7-.3-1,0,0,0-.2,0-.3,0-.8.5-1.5,1.3-1.5l214.1-18.3c2.9-.2,5.5,1,7,3.4,1.5,2.3,1.6,5.2.2,7.6l-13.8,24Z"/>
          <path class="cls-1" d="M287,177.8l20.3-26.8c1.3-1.7,3.2-2.8,5.3-3h0c2.2-.2,4.3.5,5.9,2l26.4,24.5,29,26.9c1.3,1.2,3.2,1.8,5,1.5,1.8-.3,3.4-1.3,4.3-2.9l22.3-38.9,9.3-16.3,5.5-9.6c.9-1.5.8-3.3-.1-4.8-1-1.5-2.6-2.2-4.4-2.1l-211.9,18.1,35.2,44.9,13.9,17.7c1.2,1.6,3.1,2.5,5.1,2.4,2,0,3.9-1,5.1-2.6l18.3-24.1,5.3-7h0Z"/>
          <path class="cls-1" d="M374.8,225.6l-5.5,4.3c0,0-.2.1-.2.2-.4.2-.8.3-1.2.3-1.8.2-3.8-.9-5.4-3l-55-58.1-1.2-1.3c-.5-.5-.5-1.2-.1-1.7,0,0,.1-.2.2-.3.6-.5,1.5-.5,2,0l.8.8,55.5,58.7s0,0,.1.1c1.1,1.5,2.4,2.1,2.9,1.9l5.1-4,.9-.7c.6-.5,1.5-.4,2,.2s.4,1.5-.2,2l-.7.5Z"/>
          <path class="cls-1" d="M255.6,230.7l-5,3.8c-.6.4-1.2.7-1.9.7-1.2.1-2.4-.3-3.2-1.3l-75.1-88.2c-.9-1-1.1-2.4-.6-3.6.5-1.2,1.7-2.1,3-2.2l10.5-1c.3,0,.5,0,.8.1.4.2.7.6.8,1.1s0,.7-.3,1-.6.5-1,.5h-1c0,.1-9.5,1-9.5,1-.4,0-.6.3-.6.5s-.1.5.1.8l75.1,88.2c.3.3.7.4,1.1.1l4.9-3.7,1.2-.9c.6-.5,1.5-.4,2,.2s.4,1.5-.3,2l-1.1.8Z"/>
        </g>
      </g>
    </g>
  </g>
</svg>